<svg width="237" height="92" viewBox="0 0 237 92" fill="none" xmlns="http://www.w3.org/2000/svg">
<path d="M51.9604 6.93875C54.1503 6.77033 58.0283 7.47083 60.2898 7.87753C62.377 8.25289 65.314 9.01214 67.3383 9.67522C68.8301 10.1426 70.2841 11.1405 71.6507 11.786C77.0101 14.3172 81.535 18.3968 85.0913 23.1007C85.5869 23.7564 87.828 26.4106 87.6574 27.301C87.3088 27.693 84.8754 28.478 84.1973 28.7445C77.8133 31.2542 70.7088 33.1783 63.9491 34.2952C60.4143 34.8792 56.4771 35.1212 52.9253 35.4882C50.045 35.5767 47.0618 35.5895 44.1814 35.4454C42.5814 35.3792 40.9202 35.0012 39.3393 34.8994C35.175 34.6255 31.0613 34.111 27.0392 32.9509C25.8736 32.6146 16.6902 30.7646 16.9108 29.7601C17.5405 26.8924 20.2272 23.6933 22.0677 21.3329C24.3975 18.3449 28.0084 15.5378 31.148 13.3783C31.4541 13.2069 31.7897 12.9872 32.1105 12.8471C34.1358 11.9626 36.1743 10.4596 38.2548 9.76812C42.6246 8.31571 47.3855 7.44345 51.9604 6.93875Z" fill="white"/>
<path d="M89.5315 31.4136C90.5967 31.7719 92.3048 38.6031 92.4635 39.8938C92.8778 42.6923 92.6697 45.6134 92.7424 48.413C93.0957 60.981 85.5243 73.445 75.1614 80.2222C71.6605 82.5118 67.16 84.5196 63.0835 85.4366C61.8582 85.7122 60.5499 86.156 59.3243 86.3559C53.5972 87.2904 47.6858 86.9851 42.1276 85.2874C40.0883 84.6745 38.2895 84.3112 36.2867 83.3675C35.3403 82.8732 30.0379 80.1573 29.772 79.5576C29.8279 78.6679 29.4375 79.236 29.1603 78.7254C29.363 78.4992 29.907 78.5666 30.2509 78.478C34.0935 77.4862 37.8899 76.0933 41.5811 74.6397C42.7055 74.2234 43.9079 73.4886 45.0163 73.0775C47.5098 72.1526 49.4925 71.1875 51.6766 69.6817C53.2374 68.8711 54.6132 68.1562 56.0895 67.1861C58.3151 65.7233 60.5991 64.2725 62.7628 62.7058C63.6089 62.0932 64.3892 61.3188 65.2008 60.6692C73.2751 54.3252 80.2376 46.6821 85.8032 38.0529C87.2468 35.7652 88.709 34.0183 89.5315 31.4136Z" fill="white"/>
<path d="M78.1364 37.812L78.2861 37.8687L78.3073 38.0147C77.9462 38.5065 77.5281 38.7092 77.1383 39.1077C75.7296 40.5475 74.2596 41.5388 72.7475 42.751C69.2966 45.5173 65.7593 48.0234 61.9572 50.2888C61.0523 50.8302 59.992 51.2542 59.0957 51.7894C56.5537 53.3072 53.9707 54.5382 51.2089 55.5977C50.1499 56.004 49.0652 56.7398 47.98 57.1252C46.8445 57.5285 45.6738 57.8913 44.5242 58.263C41.6215 59.2087 38.6963 60.0833 35.7508 60.886C32.7126 61.7294 29.2778 62.1113 26.1632 62.6906C24.4393 63.0113 22.3875 63.0713 20.6563 63.3284C18.8641 63.5947 15.7124 64.1682 15.2828 61.7594C15.1615 61.1941 14.9586 60.5677 14.8096 59.9997C14.293 57.8633 13.6671 56.2402 13.3301 53.9287C12.9537 51.3474 13.1966 48.8616 12.9901 46.4067C13.7808 46.4525 14.8416 46.6974 15.6453 46.8486L19.5423 47.5609C21.3663 47.892 24.3965 48.1922 26.2823 48.3297C39.6012 49.3292 52.9829 47.5596 65.5843 43.1325C66.5364 42.8009 67.6095 42.4689 68.5832 42.1921C71.4396 41.3802 73.793 39.5888 76.6152 38.6707C77.2663 38.4589 77.6239 38.2546 78.1364 37.812Z" fill="white"/>
<path d="M109.04 58.7582V32.6448H115.083V53.834H128.177V58.7582H109.04Z" fill="white"/>
<path d="M131.554 58.7582V32.6448H137.598V58.7582H131.554ZM131.181 30.5184L136.217 25.1465H142.484L135.732 30.5184H131.181Z" fill="white"/>
<path d="M143.795 58.7582V32.6448H155.658C158.493 32.6448 160.992 33.1919 163.156 34.2862C165.32 35.3556 167.011 36.8602 168.23 38.8001C169.448 40.7399 170.057 43.0404 170.057 45.7015C170.057 48.3377 169.448 50.6382 168.23 52.6029C167.011 54.5428 165.32 56.0598 163.156 57.1541C160.992 58.2235 158.493 58.7582 155.658 58.7582H143.795ZM149.838 53.7967H155.359C157.1 53.7967 158.605 53.4734 159.873 52.8267C161.166 52.1552 162.161 51.2102 162.858 49.9916C163.579 48.7729 163.939 47.3429 163.939 45.7015C163.939 44.0352 163.579 42.6052 162.858 41.4114C162.161 40.1928 161.166 39.2602 159.873 38.6136C158.605 37.9421 157.1 37.6063 155.359 37.6063H149.838V53.7967Z" fill="white"/>
<path d="M174.615 58.7582V32.6448H194.349V37.4944H180.621V53.9086H194.834V58.7582H174.615ZM180.174 47.8652V43.1648H192.745V47.8652H180.174Z" fill="white"/>
<path d="M199.643 58.7582V32.6448H210.797C214.428 32.6448 217.251 33.4904 219.265 35.1815C221.28 36.8478 222.287 39.1607 222.287 42.1202C222.287 44.0601 221.827 45.7388 220.907 47.1564C219.987 48.5491 218.681 49.6185 216.99 50.3646C215.299 51.1107 213.284 51.4838 210.946 51.4838H203L205.686 48.8351V58.7582H199.643ZM216.244 58.7582L209.715 49.2828H216.169L222.772 58.7582H216.244ZM205.686 49.5066L203 46.6714H210.611C212.476 46.6714 213.869 46.2735 214.789 45.4777C215.709 44.657 216.169 43.5378 216.169 42.1202C216.169 40.6778 215.709 39.5586 214.789 38.7628C213.869 37.9669 212.476 37.569 210.611 37.569H203L205.686 34.6965V49.5066Z" fill="white"/>
<path d="M227.075 58.7582V32.6448H233.119V58.7582H227.075Z" fill="white"/>
<path d="M131.016 73.1441C130.368 73.1441 129.764 73.0401 129.204 72.8321C128.652 72.6161 128.172 72.3121 127.764 71.9201C127.356 71.5281 127.036 71.0681 126.804 70.5401C126.58 70.0121 126.468 69.4321 126.468 68.8001C126.468 68.1681 126.58 67.5881 126.804 67.0601C127.036 66.5321 127.356 66.0721 127.764 65.6801C128.18 65.2881 128.664 64.9881 129.216 64.7801C129.768 64.5641 130.372 64.4561 131.028 64.4561C131.756 64.4561 132.412 64.5841 132.996 64.8401C133.588 65.0881 134.084 65.4561 134.484 65.9441L133.236 67.0961C132.948 66.7681 132.628 66.5241 132.276 66.3641C131.924 66.1961 131.54 66.1121 131.124 66.1121C130.732 66.1121 130.372 66.1761 130.044 66.3041C129.716 66.4321 129.432 66.6161 129.192 66.8561C128.952 67.0961 128.764 67.3801 128.628 67.7081C128.5 68.0361 128.436 68.4001 128.436 68.8001C128.436 69.2001 128.5 69.5641 128.628 69.8921C128.764 70.2201 128.952 70.5041 129.192 70.7441C129.432 70.9841 129.716 71.1681 130.044 71.2961C130.372 71.4241 130.732 71.4881 131.124 71.4881C131.54 71.4881 131.924 71.4081 132.276 71.2481C132.628 71.0801 132.948 70.8281 133.236 70.4921L134.484 71.6441C134.084 72.1321 133.588 72.5041 132.996 72.7601C132.412 73.0161 131.752 73.1441 131.016 73.1441Z" fill="white"/>
<path d="M139.385 73.1441C138.721 73.1441 138.105 73.0361 137.537 72.8201C136.977 72.6041 136.489 72.3001 136.073 71.9081C135.665 71.5161 135.345 71.0561 135.113 70.5281C134.889 70.0001 134.777 69.4241 134.777 68.8001C134.777 68.1761 134.889 67.6001 135.113 67.0721C135.345 66.5441 135.669 66.0841 136.085 65.6921C136.501 65.3001 136.989 64.9961 137.549 64.7801C138.109 64.5641 138.717 64.4561 139.373 64.4561C140.037 64.4561 140.645 64.5641 141.197 64.7801C141.757 64.9961 142.241 65.3001 142.649 65.6921C143.065 66.0841 143.389 66.5441 143.621 67.0721C143.853 67.5921 143.969 68.1681 143.969 68.8001C143.969 69.4241 143.853 70.0041 143.621 70.5401C143.389 71.0681 143.065 71.5281 142.649 71.9201C142.241 72.3041 141.757 72.6041 141.197 72.8201C140.645 73.0361 140.041 73.1441 139.385 73.1441ZM139.373 71.4881C139.749 71.4881 140.093 71.4241 140.405 71.2961C140.725 71.1681 141.005 70.9841 141.245 70.7441C141.485 70.5041 141.669 70.2201 141.797 69.8921C141.933 69.5641 142.001 69.2001 142.001 68.8001C142.001 68.4001 141.933 68.0361 141.797 67.7081C141.669 67.3801 141.485 67.0961 141.245 66.8561C141.013 66.6161 140.737 66.4321 140.417 66.3041C140.097 66.1761 139.749 66.1121 139.373 66.1121C138.997 66.1121 138.649 66.1761 138.329 66.3041C138.017 66.4321 137.741 66.6161 137.501 66.8561C137.261 67.0961 137.073 67.3801 136.937 67.7081C136.809 68.0361 136.745 68.4001 136.745 68.8001C136.745 69.1921 136.809 69.5561 136.937 69.8921C137.073 70.2201 137.257 70.5041 137.489 70.7441C137.729 70.9841 138.009 71.1681 138.329 71.2961C138.649 71.4241 138.997 71.4881 139.373 71.4881Z" fill="white"/>
<path d="M145.43 73.0001V64.6001H147.038L151.994 70.6481H151.214V64.6001H153.134V73.0001H151.538L146.57 66.9521H147.35V73.0001H145.43Z" fill="white"/>
<path d="M157.881 73.1441C157.209 73.1441 156.565 73.0561 155.949 72.8801C155.333 72.6961 154.837 72.4601 154.461 72.1721L155.121 70.7081C155.481 70.9641 155.905 71.1761 156.393 71.3441C156.889 71.5041 157.389 71.5841 157.893 71.5841C158.277 71.5841 158.585 71.5481 158.817 71.4761C159.057 71.3961 159.233 71.2881 159.345 71.1521C159.457 71.0161 159.513 70.8601 159.513 70.6841C159.513 70.4601 159.425 70.2841 159.249 70.1561C159.073 70.0201 158.841 69.9121 158.553 69.8321C158.265 69.7441 157.945 69.6641 157.593 69.5921C157.249 69.5121 156.901 69.4161 156.549 69.3041C156.205 69.1921 155.889 69.0481 155.601 68.8721C155.313 68.6961 155.077 68.4641 154.893 68.1761C154.717 67.8881 154.629 67.5201 154.629 67.0721C154.629 66.5921 154.757 66.1561 155.013 65.7641C155.277 65.3641 155.669 65.0481 156.189 64.8161C156.717 64.5761 157.377 64.4561 158.169 64.4561C158.697 64.4561 159.217 64.5201 159.729 64.6481C160.241 64.7681 160.693 64.9521 161.085 65.2001L160.485 66.6761C160.093 66.4521 159.701 66.2881 159.309 66.1841C158.917 66.0721 158.533 66.0161 158.157 66.0161C157.781 66.0161 157.473 66.0601 157.233 66.1481C156.993 66.2361 156.821 66.3521 156.717 66.4961C156.613 66.6321 156.561 66.7921 156.561 66.9761C156.561 67.1921 156.649 67.3681 156.825 67.5041C157.001 67.6321 157.233 67.7361 157.521 67.8161C157.809 67.8961 158.125 67.9761 158.469 68.0561C158.821 68.1361 159.169 68.2281 159.513 68.3321C159.865 68.4361 160.185 68.5761 160.473 68.7521C160.761 68.9281 160.993 69.1601 161.169 69.4481C161.353 69.7361 161.445 70.1001 161.445 70.5401C161.445 71.0121 161.313 71.4441 161.049 71.8361C160.785 72.2281 160.389 72.5441 159.861 72.7841C159.341 73.0241 158.681 73.1441 157.881 73.1441Z" fill="white"/>
<path d="M166.505 73.1441C165.313 73.1441 164.381 72.8121 163.709 72.1481C163.037 71.4841 162.701 70.5361 162.701 69.3041V64.6001H164.645V69.2321C164.645 70.0321 164.809 70.6081 165.137 70.9601C165.465 71.3121 165.925 71.4881 166.517 71.4881C167.109 71.4881 167.569 71.3121 167.897 70.9601C168.225 70.6081 168.389 70.0321 168.389 69.2321V64.6001H170.309V69.3041C170.309 70.5361 169.973 71.4841 169.301 72.1481C168.629 72.8121 167.697 73.1441 166.505 73.1441Z" fill="white"/>
<path d="M172.23 73.0001V64.6001H174.174V71.4161H178.386V73.0001H172.23Z" fill="white"/>
<path d="M180.31 73.0001V66.1841H177.622V64.6001H184.942V66.1841H182.254V73.0001H180.31Z" fill="white"/>
<path d="M189.951 73.1441C189.287 73.1441 188.671 73.0361 188.103 72.8201C187.543 72.6041 187.055 72.3001 186.639 71.9081C186.231 71.5161 185.911 71.0561 185.679 70.5281C185.455 70.0001 185.343 69.4241 185.343 68.8001C185.343 68.1761 185.455 67.6001 185.679 67.0721C185.911 66.5441 186.235 66.0841 186.651 65.6921C187.067 65.3001 187.555 64.9961 188.115 64.7801C188.675 64.5641 189.283 64.4561 189.939 64.4561C190.603 64.4561 191.211 64.5641 191.763 64.7801C192.323 64.9961 192.807 65.3001 193.215 65.6921C193.631 66.0841 193.955 66.5441 194.187 67.0721C194.419 67.5921 194.535 68.1681 194.535 68.8001C194.535 69.4241 194.419 70.0041 194.187 70.5401C193.955 71.0681 193.631 71.5281 193.215 71.9201C192.807 72.3041 192.323 72.6041 191.763 72.8201C191.211 73.0361 190.607 73.1441 189.951 73.1441ZM189.939 71.4881C190.315 71.4881 190.659 71.4241 190.971 71.2961C191.291 71.1681 191.571 70.9841 191.811 70.7441C192.051 70.5041 192.235 70.2201 192.363 69.8921C192.499 69.5641 192.567 69.2001 192.567 68.8001C192.567 68.4001 192.499 68.0361 192.363 67.7081C192.235 67.3801 192.051 67.0961 191.811 66.8561C191.579 66.6161 191.303 66.4321 190.983 66.3041C190.663 66.1761 190.315 66.1121 189.939 66.1121C189.563 66.1121 189.215 66.1761 188.895 66.3041C188.583 66.4321 188.307 66.6161 188.067 66.8561C187.827 67.0961 187.639 67.3801 187.503 67.7081C187.375 68.0361 187.311 68.4001 187.311 68.8001C187.311 69.1921 187.375 69.5561 187.503 69.8921C187.639 70.2201 187.823 70.5041 188.055 70.7441C188.295 70.9841 188.575 71.1681 188.895 71.2961C189.215 71.4241 189.563 71.4881 189.939 71.4881Z" fill="white"/>
<path d="M195.996 73.0001V64.6001H199.584C200.752 64.6001 201.66 64.8721 202.308 65.4161C202.956 65.9521 203.28 66.6961 203.28 67.6481C203.28 68.2721 203.132 68.8121 202.836 69.2681C202.54 69.7161 202.12 70.0601 201.576 70.3001C201.032 70.5401 200.384 70.6601 199.632 70.6601H197.076L197.94 69.8081V73.0001H195.996ZM201.336 73.0001L199.236 69.9521H201.312L203.436 73.0001H201.336ZM197.94 70.0241L197.076 69.1121H199.524C200.124 69.1121 200.572 68.9841 200.868 68.7281C201.164 68.4641 201.312 68.1041 201.312 67.6481C201.312 67.1841 201.164 66.8241 200.868 66.5681C200.572 66.3121 200.124 66.1841 199.524 66.1841H197.076L197.94 65.2601V70.0241Z" fill="white"/>
<path d="M204.82 73.0001V64.6001H206.764V73.0001H204.82Z" fill="white"/>
<path d="M207.654 73.0001L211.398 64.6001H213.318L217.074 73.0001H215.034L211.962 65.5841H212.73L209.646 73.0001H207.654ZM209.526 71.2001L210.042 69.7241H214.362L214.89 71.2001H209.526Z" fill="white"/>
</svg>
