<svg width="80" height="73" viewBox="0 0 80 73" fill="none" xmlns="http://www.w3.org/2000/svg">
<path d="M40.779 5.44555C42.4977 5.31338 45.5412 5.86314 47.316 6.18232C48.9541 6.47691 51.2591 7.07278 52.8478 7.59317C54.0186 7.95994 55.1597 8.74317 56.2322 9.2497C60.4383 11.2363 63.9895 14.438 66.7805 18.1296C67.1694 18.6442 68.9283 20.7272 68.7944 21.4261C68.5208 21.7337 66.611 22.3498 66.0789 22.5589C61.0687 24.5286 55.493 26.0386 50.1879 26.9151C47.4138 27.3735 44.3238 27.5634 41.5363 27.8515C39.2758 27.9209 36.9346 27.9309 34.674 27.8178C33.4183 27.7659 32.1146 27.4692 30.8739 27.3894C27.6057 27.1744 24.3772 26.7706 21.2206 25.8601C20.3059 25.5962 13.0986 24.1444 13.2717 23.356C13.766 21.1054 15.8745 18.5947 17.319 16.7422C19.1474 14.3972 21.9812 12.1942 24.4453 10.4994C24.6855 10.3649 24.9488 10.1925 25.2006 10.0825C26.7901 9.38833 28.39 8.20877 30.0228 7.66607C33.4522 6.52621 37.1886 5.84165 40.779 5.44555Z" fill="white"/>
<path d="M70.2652 24.6534C71.1012 24.9346 72.4417 30.2958 72.5663 31.3088C72.8914 33.5051 72.7281 35.7976 72.7851 37.9947C73.0624 47.8583 67.1203 57.6401 58.9874 62.959C56.2398 64.7558 52.7078 66.3316 49.5085 67.0512C48.5469 67.2676 47.5201 67.6158 46.5583 67.7727C42.0636 68.5061 37.4243 68.2665 33.0621 66.9341C31.4617 66.4532 30.05 66.168 28.4782 65.4274C27.7354 65.0395 23.574 62.908 23.3653 62.4374C23.4092 61.7391 23.1028 62.185 22.8853 61.7843C23.0444 61.6067 23.4713 61.6596 23.7412 61.59C26.7569 60.8117 29.7363 59.7185 32.6332 58.5778C33.5157 58.251 34.4593 57.6743 35.3292 57.3517C37.2861 56.6258 38.8422 55.8684 40.5563 54.6867C41.7812 54.0505 42.861 53.4895 44.0196 52.728C45.7662 51.5801 47.5588 50.4414 49.2569 49.2119C49.9209 48.7311 50.5333 48.1233 51.1702 47.6136C57.507 42.6347 62.9712 36.6363 67.3392 29.864C68.4722 28.0687 69.6197 26.6976 70.2652 24.6534Z" fill="white"/>
<path d="M61.3223 29.6752L61.4398 29.7196L61.4564 29.8343C61.173 30.2202 60.8449 30.3793 60.5389 30.692C59.4334 31.822 58.2798 32.6 57.093 33.5513C54.3847 35.7223 51.6086 37.6892 48.6247 39.4671C47.9145 39.8919 47.0824 40.2247 46.379 40.6448C44.3839 41.8359 42.3568 42.8021 40.1894 43.6336C39.3582 43.9524 38.5069 44.5299 37.6552 44.8324C36.7641 45.1488 35.8453 45.4336 34.9431 45.7253C32.665 46.4675 30.3693 47.1539 28.0577 47.7839C25.6732 48.4458 22.9776 48.7455 20.5332 49.2002C19.1803 49.4518 17.57 49.4989 16.2113 49.7007C14.8048 49.9097 12.3313 50.3598 11.9941 48.4694C11.8989 48.0257 11.7397 47.5341 11.6228 47.0883C11.2174 45.4116 10.7261 44.1378 10.4617 42.3237C10.1663 40.2979 10.3569 38.347 10.1948 36.4203C10.8154 36.4563 11.6479 36.6485 12.2786 36.7672L15.337 37.3262C16.7686 37.586 19.1467 37.8216 20.6266 37.9296C31.0795 38.714 41.5816 37.3252 51.4713 33.8508C52.2185 33.5905 53.0606 33.3299 53.8248 33.1127C56.0666 32.4755 57.9136 31.0696 60.1285 30.349C60.6394 30.1828 60.9201 30.0225 61.3223 29.6752Z" fill="white"/>
</svg>
