<svg width="108" height="111" viewBox="0 0 108 111" fill="none" xmlns="http://www.w3.org/2000/svg">
<path d="M52.5237 8.54649L52.6072 8.54037C54.8506 8.39095 57.0257 8.57324 59.2377 8.76434C68.5159 9.56594 77.0161 13.1091 84.0281 19.2683C87.1344 21.996 90.027 25.1533 92.1383 28.721C92.4864 29.3086 93.7101 31.053 92.9541 31.6195C91.6422 32.6039 89.8507 32.9485 88.3222 33.5309C86.6727 34.0338 84.929 34.9811 83.2795 35.424C78.7687 36.6351 74.1055 38.0499 69.5215 38.8855C67.1234 39.3225 64.456 39.4869 62.0348 39.7788C59.8127 40.0467 57.1075 40.4583 54.9177 40.4586C46.2478 40.7513 37.83 40.1961 29.1945 38.6909C27.383 38.3752 15.493 35.4406 14.4241 34.5587C12.9762 33.3643 19.2492 25.1316 20.7715 23.432C29.2052 14.017 40.0044 9.24411 52.5237 8.54649Z" fill="#87240E"/>
<path d="M95.3313 36.4565C96.2621 36.7844 96.7865 38.0352 97.1018 38.9444C109.893 75.7606 72.196 110.368 36.5422 94.7457C34.8656 94.0535 28.5251 90.8747 28.1275 89.2448C28.6797 88.8638 29.7615 88.8245 30.3999 88.5628C32.9534 87.5162 35.6575 86.8718 38.236 85.8945C59.9741 77.7574 78.4968 62.8067 91.0371 43.2753C92.3684 41.2223 94.1823 38.5626 95.3313 36.4565Z" fill="#87240E"/>
<path d="M82.4219 43.2899C82.4682 44.1374 80.9845 45.1897 80.3585 45.7373C62.6728 61.2184 40.3523 70.6756 16.8426 72.0571C15.9343 72.1104 14.9126 72.3565 14.0817 72.0457C12.9166 71.6097 12.1069 68.723 11.8085 67.8621C10.3165 62.3607 9.24979 58.6282 9.59807 52.8149C12.0293 52.9228 13.4051 53.3223 15.6302 53.5877C18.8877 53.9762 22.634 54.4807 25.8782 54.7035C32.6707 55.2557 39.2303 54.8384 45.9756 54.1504C57.1212 53.0135 68.0901 49.7667 78.3055 45.2169C79.6637 44.6119 81.1459 44.0678 82.4219 43.2899Z" fill="#87240E"/>
</svg>
