<svg width="50" height="67" viewBox="0 0 50 67" fill="none" xmlns="http://www.w3.org/2000/svg">
<g clip-path="url(#clip0_1370_2)">
<path d="M1.56521 0.685629L31.5981 0.676251L38.0408 0.670847C39.2437 0.671661 40.5215 0.697791 41.7177 0.659973C41.8015 2.0765 41.742 4.04358 41.7409 5.48897L41.738 14.3282L41.7386 41.7752L41.7379 55.4366L41.7413 59.0866C41.7416 59.5812 41.7677 60.747 41.6841 61.1719C41.574 61.2497 41.3951 61.2166 41.2471 61.21L0.707689 61.2222C0.630588 60.5562 0.664068 59.3446 0.664504 58.6332L0.667013 54.1085L0.664611 39.1128L0.654541 13.2052L0.66518 5.45126C0.665733 3.94038 0.6275 2.23112 0.698198 0.737013C0.949712 0.709683 1.30478 0.699892 1.56521 0.685629ZM30.6963 41.7915C36.0341 41.1973 39.8773 36.375 39.2748 31.0274C38.6723 25.6799 33.8529 21.8375 28.5173 22.4508C23.1952 23.0626 19.3725 27.8769 19.9735 33.2109C20.5745 38.545 25.3721 42.3841 30.6963 41.7915ZM17.6333 19.9442C18.4275 19.7953 18.7311 19.5262 18.7584 18.6784C18.7917 17.6413 18.7725 16.6019 18.7703 15.5641L18.772 10.0864L18.7635 5.99084C18.7567 4.87155 19.0674 2.9816 17.4278 2.9768C15.8466 2.97218 14.0588 2.85392 12.4907 2.9664C11.7392 3.16743 11.4337 3.68824 11.427 4.42585C11.4059 6.76643 11.4329 9.10684 11.4278 11.4478L11.4222 16.4393C11.4228 17.298 11.3776 18.2278 11.5004 19.0628C11.577 19.5837 12.1145 19.9399 12.5999 19.9455C14.2112 19.9641 16.0368 20.0513 17.6333 19.9442ZM22.6472 19.9768C23.8271 19.9784 25.0992 20.0392 26.2588 19.9252C27.3662 19.8163 27.2268 18.4426 27.2281 17.681L27.229 15.4225C27.2295 12.9585 27.2263 10.4939 27.2253 8.02985C27.2245 6.30165 25.7179 6.572 24.4562 6.59007C23.5211 6.59027 20.8568 6.38902 20.2572 6.97119C20.0683 7.15458 19.9709 7.39501 19.934 7.65285C19.787 8.67843 19.8872 10.0118 19.8874 11.07L19.8856 17.8631C19.8857 17.9975 19.8944 18.1659 19.8876 18.2968C19.7879 20.2284 21.1755 19.9779 22.6472 19.9768ZM6.61603 53.505C6.01504 52.1179 4.45546 48.5127 2.95268 51.2691C2.83334 51.4879 2.98641 51.7719 3.0822 51.9724L4.72606 55.3644C4.90748 55.7384 5.19431 56.4502 5.39825 56.7591C5.66815 57.1718 5.91936 57.4807 6.42697 57.6125C6.61984 57.6628 7.11562 57.6079 7.22414 57.4852C8.35966 56.2009 9.08121 53.9788 9.91829 52.4502C10.2863 51.778 10.6627 51.2854 10.9171 50.7219C11.3565 51.1531 14.5567 52.7504 15.1243 52.7443C15.814 52.7372 16.3668 52.0772 16.8026 51.6162C17.4238 50.9587 17.9949 50.2862 18.6739 49.6829C18.7231 50.1625 18.7632 51.0391 19.1775 51.316C20.0558 51.9027 21.1352 51.4732 21.1907 50.3627C21.2545 49.0878 21.2694 47.8717 21.1882 46.6064C21.162 46.2142 20.9812 45.9297 20.7753 45.6361C19.6906 45.2766 17.4351 45.3234 16.2785 45.405C15.5605 45.5477 14.9177 46.0538 15.0658 46.8815C15.1234 47.2033 15.3709 47.4905 15.6415 47.6582C16.1705 47.9668 16.3693 47.8843 16.8976 47.8314C16.477 48.3991 15.4649 49.7155 14.7949 49.8794C14.452 49.9633 12.7768 48.9961 12.3306 48.7746C11.564 48.394 10.4287 47.3298 9.51686 48.0629C9.27849 48.2821 8.76393 49.5321 8.53917 49.9137C7.84941 51.0849 7.21972 52.2868 6.61603 53.505ZM29.6337 44.2926C28.394 44.3817 28.0704 45.5706 28.9068 46.4623C29.226 46.8026 30.4842 46.7264 30.9218 46.7482C33.3234 46.686 35.8065 46.8286 38.2002 46.7101C38.5169 46.6688 38.8343 46.5856 39.0263 46.3271C39.6465 45.4919 39.3133 44.3318 38.1887 44.2885C36.8184 44.2359 35.5658 44.2597 34.2054 44.2597C32.7415 44.2885 31.0604 44.2054 29.6337 44.2926ZM38.307 15.1031C38.9652 14.9799 39.2335 14.491 39.3754 13.8813C39.238 13.4942 39.0566 12.9267 38.6581 12.7419C38.1991 12.529 31.6185 12.596 30.6663 12.6373C29.9708 12.7727 29.4958 13.4797 29.6409 14.1651C29.7102 14.4797 29.9043 14.7526 30.1786 14.9208C30.5764 15.1676 31.8701 15.123 32.3611 15.1153C34.332 15.0844 36.3402 15.1651 38.307 15.1031ZM30.5278 17.5159C30.1725 17.6667 29.892 17.8216 29.7372 18.2009C29.6054 18.524 29.5839 18.9675 29.7263 19.29C29.8415 19.5512 30.0774 19.7597 30.3416 19.8625C30.8737 20.0695 37.4085 19.995 38.4033 19.9506C39.676 19.6842 39.6697 17.5149 38.0604 17.5086C36.2432 17.5015 34.4119 17.4916 32.593 17.5048C31.9394 17.5096 31.169 17.4634 30.5278 17.5159ZM38.4289 10.2458C39.0247 10.0723 39.2294 9.57447 39.3876 9.02954C39.2274 8.67258 38.9852 8.0006 38.5875 7.85995C38.1934 7.72063 31.5509 7.7362 30.6184 7.79701C29.902 8.00136 29.478 8.73405 29.7022 9.45351C29.797 9.75221 30.009 9.99936 30.2894 10.138C30.6182 10.2968 31.7913 10.281 32.1982 10.2662C34.2499 10.1919 36.3856 10.3446 38.4289 10.2458ZM15.8377 27.2882C16.3018 27.2865 16.8001 27.3354 17.1517 26.9658C17.795 26.2897 17.5583 24.9249 16.5099 24.837C15.6208 24.7624 14.7182 24.8162 13.8253 24.8006C12.4211 24.8251 10.9288 24.7607 9.53925 24.8044C9.01499 24.8172 8.44263 24.821 8.05995 25.2324C7.61256 25.7132 7.61916 26.4475 8.10631 26.8853C8.30806 27.0674 8.55679 27.1891 8.8242 27.2365C9.31851 27.3261 10.7506 27.2937 11.3032 27.2927L15.8377 27.2882ZM38.2002 5.39793C39.8117 5.22787 39.535 3.05655 38.2101 2.98454C37.1331 2.926 35.601 2.89098 34.5301 2.9657C33.9589 3.03977 33.128 3.635 33.2122 4.24221C33.2581 4.58312 33.4413 4.89033 33.7191 5.09237C34.2899 5.50347 35.1234 5.41768 35.801 5.41376L38.2002 5.39793ZM4.21 39.4036C2.34048 39.5846 2.75769 41.7813 4.11239 41.8416C6.54702 41.9498 9.05582 41.8392 11.5001 41.8767C11.8607 41.8823 12.2824 41.8817 12.6405 41.8517C13.0203 41.8148 13.429 41.7334 13.6587 41.4106C14.2354 40.6005 13.8358 39.4765 12.7893 39.4163C11.5067 39.3425 10.3197 39.3861 9.04099 39.3794C7.48282 39.4145 5.74701 39.3276 4.21 39.4036ZM15.071 34.5253L7.69691 34.5386C6.47765 34.5377 5.18232 34.5042 3.99743 34.582C3.05033 34.6443 2.51373 35.9755 3.32829 36.6161C3.98675 37.1339 4.67252 37.0054 5.42089 36.9957L13.0533 36.9958C14.1994 36.996 15.4662 37.0313 16.6097 36.958C16.7886 36.9465 17.0337 36.7865 17.1612 36.6561C17.409 36.3981 17.5452 36.0525 17.5403 35.6944C17.537 35.5559 17.5089 35.406 17.4517 35.2789C17.0216 34.3223 15.9396 34.5101 15.071 34.5253ZM4.49236 29.6869C4.00355 29.7186 3.59186 29.7399 3.24355 30.1366C2.50932 30.9729 3.18101 32.0772 4.21385 32.1299C5.59513 32.2003 6.9683 32.1439 8.35041 32.1601C10.9501 32.1457 13.5652 32.1844 16.1611 32.1536C16.6009 32.133 16.8492 32.1215 17.1719 31.774C17.6459 31.2636 17.6419 30.4368 17.1208 29.959C16.9593 29.8109 16.7953 29.7249 16.5752 29.7115C15.923 29.6537 15.2401 29.6728 14.5841 29.6756L11.6437 29.6777L7.15563 29.6723C6.33932 29.6707 5.29587 29.644 4.49236 29.6869ZM24.8438 53.9508C24.4086 54.0235 24.0895 54.108 23.8046 54.4856C23.4283 54.9837 23.6805 55.9043 24.1329 56.262C24.3459 56.4304 25.1158 56.4319 25.3947 56.4324C26.7471 56.4345 28.0996 56.4329 29.4519 56.4324L38.251 56.4284C38.5877 56.3821 38.7359 56.3627 38.9659 56.0691C39.4145 55.4967 39.4898 54.5812 38.7923 54.1619C38.4626 54.0261 37.949 53.9426 37.5926 53.9411C36.101 53.9355 34.5811 53.8872 33.0913 53.9223C30.3713 53.9864 27.5542 53.8266 24.8438 53.9508ZM4.01022 10.2896C3.6322 10.3814 3.29544 10.6571 3.09627 10.9908C2.98694 11.174 2.93829 11.348 2.9177 11.5603C2.83713 12.3911 2.79814 18.3703 2.96147 18.9852C3.04026 19.2819 3.31845 19.6285 3.58246 19.7821C4.22307 20.1549 8.20564 19.984 9.15332 19.9506C9.49294 19.8998 9.78636 19.7629 9.99943 19.4831C10.1256 19.3175 10.1557 19.1659 10.1782 18.9629C10.3177 17.7026 10.2205 16.2418 10.2213 14.9639C10.222 13.8474 10.3323 12.2657 10.1609 11.1922C10.1197 10.9342 9.89731 10.6201 9.68418 10.474C9.17988 10.1282 4.849 10.2513 4.01022 10.2896ZM25.3491 49.0798C24.7907 49.1089 24.317 49.0883 23.8956 49.5094C23.286 50.1185 23.6741 51.5205 24.5986 51.5363C28.88 51.6096 33.2362 51.6447 37.5146 51.5887C37.9614 51.5739 38.7255 51.6004 38.9831 51.2432C39.7099 50.2349 39.2655 49.1399 37.9854 49.0999C37.3085 49.0787 36.7015 49.0649 36.0644 49.0651L33.0047 49.0675C30.5367 49.0701 27.7979 49.008 25.3491 49.0798Z" fill="#680000"/>
<path d="M28.2588 24.9489C28.2972 24.9485 28.3256 24.9723 28.3671 24.9942C28.5217 25.3529 28.361 31.2496 28.4536 32.0853C28.4971 32.4777 28.5961 32.8071 28.9239 33.0668C29.1062 33.2113 29.451 33.3527 29.6746 33.3701C30.7084 33.4508 31.9648 33.4498 33.0016 33.4275C34.1163 33.4034 35.7038 33.4963 36.7467 33.3724C36.3868 35.1999 35.704 36.407 34.2795 37.6231C33.2272 38.5214 32.3723 39.0533 30.9718 39.2738C29.3304 39.5743 27.3581 39.2375 25.9343 38.3432C20.2464 34.7705 21.6729 26.482 28.2588 24.9489Z" fill="#680000"/>
<path d="M30.9994 24.9669C33.1137 25.4751 34.6072 26.5479 35.8491 28.3853C36.1652 28.853 36.8243 30.3817 36.7022 30.9075C36.4685 30.8917 36.1658 30.887 35.9295 30.8942C34.2915 30.9441 32.5832 30.8366 30.9525 30.9115C30.895 29.8237 30.9165 28.6215 30.9113 27.5253C30.9082 26.8811 30.8787 25.5414 30.9994 24.9669Z" fill="#680000"/>
<path d="M13.9965 5.40453C14.7243 5.40952 15.534 5.43074 16.2522 5.37787C16.3198 5.96513 16.3027 6.81293 16.3033 7.4152L16.3047 10.4859L16.3038 14.8919C16.3036 15.2769 16.3414 17.3161 16.2331 17.484C15.4943 17.5253 14.6458 17.4996 13.8876 17.5163L13.9133 10.1541C13.9134 9.50311 13.8683 5.82637 13.9965 5.40453Z" fill="#680000"/>
<path d="M23.5662 9.08363C23.9794 9.09696 24.3103 9.10576 24.7219 9.08215C24.775 9.98653 24.7448 11.1685 24.7454 12.087L24.7509 17.4882C24.3706 17.5048 23.9386 17.5 23.5539 17.5047C23.1405 17.4986 22.7969 17.5033 22.3842 17.5242C22.3596 15.9946 22.3516 14.4648 22.3602 12.9351C22.3603 11.6881 22.3408 10.3591 22.4089 9.11874C22.787 9.09269 23.1856 9.09101 23.5662 9.08363Z" fill="#680000"/>
<path d="M5.70829 12.695C6.38454 12.6884 7.05922 12.703 7.73543 12.6765C7.71527 13.3276 7.81708 17.3079 7.66921 17.4962L7.47751 17.4981C6.78292 17.498 6.08834 17.5018 5.3938 17.5097C5.36679 16.0672 5.38111 14.3076 5.40259 12.8582C5.51933 12.7173 5.50435 12.7555 5.70829 12.695Z" fill="#680000"/>
<path d="M44.2616 4.29657C44.9441 4.24511 45.8301 4.28276 46.561 4.25214L46.5786 46.1948V58.7716L46.5779 62.4878C46.5771 63.1635 46.6001 64.2229 46.5082 64.8707C45.1925 64.7842 43.4301 64.83 42.0795 64.829L33.7725 64.8397L7.50292 64.8254C6.81768 64.8152 6.10202 64.8285 5.41434 64.8315C5.40982 64.4204 5.40403 64.1894 5.34406 63.7848L5.36721 63.7823C6.2632 63.6947 7.79095 63.7441 8.74848 63.7441L14.9137 63.7431L35.0238 63.7416L40.2032 63.7487C41.1056 63.7502 42.4651 63.7904 43.3231 63.6927C43.6767 63.4286 44.1255 63.0673 44.1545 62.6022C44.2201 61.552 44.1853 60.3684 44.1846 59.313L44.1851 51.9795L44.1828 13.1156C44.1817 10.7853 44.1933 6.93151 44.1729 4.4248C44.2076 4.37466 44.2372 4.33191 44.2616 4.29657Z" fill="#680000"/>
<path d="M51.2383 7.86743C51.2921 7.86382 51.3216 7.88092 51.3754 7.89872C51.4226 8.10705 51.4043 9.00262 51.4033 9.25964L51.3937 12.0624L51.3942 22.9868L51.3982 68.4281C48.018 68.3339 44.4343 68.4199 41.0346 68.4214L21.2503 68.4204C17.8711 68.4174 14.3794 68.4601 11.0068 68.396C10.7465 68.3863 10.4763 68.3935 10.2151 68.3965C10.2306 68.0357 10.2386 67.7513 10.2247 67.3905C11.2966 67.303 13.164 67.359 14.2726 67.359L21.7651 67.3569L46.9629 67.364C47.4419 67.3615 48.3819 67.3345 48.6984 66.9595C48.9345 66.6802 49.0363 66.4552 49.0445 66.0914C49.0646 65.2075 49.0575 64.3145 49.0576 63.4327L49.0573 58.3625L49.0554 42.727L49.0587 20.3927C49.0606 16.3491 49.1391 11.9445 49.0343 7.92961C49.6045 7.84687 50.6169 7.87862 51.2383 7.86743Z" fill="#680000"/>
</g>
<defs>
<clipPath id="clip0_1370_2">
<rect width="50" height="66.2109" fill="white"/>
</clipPath>
</defs>
</svg>
