<svg width="76" height="100" viewBox="0 0 76 100" fill="none" xmlns="http://www.w3.org/2000/svg">
<g clip-path="url(#clip0_1190_3234)">
<path d="M2.28764 0.993604L46.1819 0.980012L55.5982 0.972181C57.3562 0.97336 59.2238 1.01123 60.972 0.956421C61.0945 3.00936 61.0075 5.8602 61.0059 7.95496L61.0017 20.7654L61.0026 60.5437L61.0015 80.3429L61.0066 85.6327C61.007 86.3495 61.0451 88.039 60.9229 88.6548C60.7621 88.7676 60.5006 88.7197 60.2842 88.7101L1.03434 88.7278C0.921656 87.7625 0.970589 86.0066 0.971227 84.9756L0.974893 78.4181L0.971383 56.6852L0.956665 19.1379L0.972214 7.90031C0.973023 5.71063 0.917144 3.23345 1.02047 1.06807C1.38807 1.02846 1.90702 1.01427 2.28764 0.993604ZM44.8639 60.5673C52.6653 59.7062 58.2822 52.7173 57.4016 44.9672C56.521 37.2171 49.4773 31.6485 41.6791 32.5373C33.9008 33.424 28.3137 40.4013 29.192 48.1317C30.0704 55.8622 37.0824 61.4262 44.8639 60.5673ZM25.7718 28.9045C26.9325 28.6888 27.3763 28.2988 27.4161 27.0702C27.4648 25.5671 27.4368 24.0607 27.4336 22.5566L27.4361 14.6179L27.4236 8.68232C27.4137 7.06015 27.8678 4.3211 25.4715 4.31414C23.1604 4.30744 20.5476 4.13605 18.2556 4.29907C17.1573 4.59042 16.7108 5.34522 16.7011 6.41421C16.6702 9.80636 16.7096 13.1983 16.7022 16.591L16.694 23.8249C16.6949 25.0695 16.6289 26.417 16.8083 27.6272C16.9202 28.3822 17.7058 28.8983 18.4153 28.9064C20.7703 28.9334 23.4384 29.0598 25.7718 28.9045ZM33.0997 28.9519C34.8243 28.9542 36.6835 29.0423 38.3783 28.877C39.9967 28.7192 39.7931 26.7284 39.7949 25.6245L39.7963 22.3514C39.7969 18.7803 39.7923 15.2084 39.7908 11.6374C39.7897 9.13276 37.5877 9.52458 35.7438 9.55076C34.377 9.55105 30.4831 9.25939 29.6067 10.1031C29.3307 10.3689 29.1882 10.7174 29.1343 11.091C28.9194 12.5774 29.0659 14.5098 29.0662 16.0435L29.0636 25.8884C29.0638 26.0832 29.0764 26.3273 29.0665 26.5171C28.9208 29.3164 30.9488 28.9535 33.0997 28.9519ZM9.66961 77.5435C8.79123 75.5331 6.51185 70.3082 4.31549 74.303C4.14106 74.6202 4.36478 75.0317 4.50479 75.3222L6.90734 80.2382C7.1725 80.7802 7.59171 81.8119 7.88977 82.2595C8.28424 82.8576 8.6514 83.3053 9.3933 83.4963C9.67518 83.5693 10.3998 83.4896 10.5584 83.3119C12.218 81.4505 13.2726 78.23 14.496 76.0147C15.0338 75.0405 15.584 74.3266 15.9558 73.5099C16.5979 74.1349 21.2753 76.4498 22.1047 76.441C23.1128 76.4306 23.9207 75.4741 24.5577 74.806C25.4655 73.8532 26.3003 72.8786 27.2927 72.0041C27.3646 72.6993 27.4232 73.9697 28.0287 74.3709C29.3124 75.2212 30.8899 74.5988 30.9711 72.9893C31.0644 71.1417 31.086 69.3792 30.9674 67.5454C30.9291 66.9771 30.6649 66.5648 30.364 66.1393C28.7786 65.6182 25.4821 65.6861 23.7917 65.8043C22.7424 66.0111 21.8028 66.7446 22.0192 67.9441C22.1034 68.4106 22.4652 68.8268 22.8607 69.0698C23.6339 69.517 23.9244 69.3975 24.6965 69.3207C24.0818 70.1436 22.6025 72.0514 21.6234 72.289C21.1222 72.4105 18.6738 71.0088 18.0217 70.6877C16.9012 70.1362 15.242 68.5938 13.9093 69.6563C13.5609 69.9741 12.8088 71.7856 12.4804 72.3386C11.4722 74.0361 10.5519 75.778 9.66961 77.5435ZM43.3109 64.1921C41.499 64.3212 41.026 66.0443 42.2484 67.3366C42.7149 67.8297 44.5538 67.7194 45.1934 67.7509C48.7035 67.6609 52.3325 67.8675 55.8311 67.6957C56.294 67.6359 56.7579 67.5153 57.0385 67.1407C57.9449 65.9303 57.4579 64.2489 55.8142 64.1862C53.8115 64.1099 51.9808 64.1444 49.9925 64.1445C47.8529 64.1862 45.396 64.0657 43.3109 64.1921ZM55.9872 21.8884C56.9491 21.71 57.3413 21.0014 57.5487 20.1177C57.3478 19.5567 57.0827 18.7343 56.5003 18.4664C55.8295 18.1579 46.2117 18.255 44.82 18.3149C43.8035 18.5111 43.1092 19.5358 43.3214 20.529C43.4226 20.9851 43.7063 21.3806 44.1073 21.6244C44.6886 21.982 46.5794 21.9174 47.297 21.9062C50.1775 21.8614 53.1127 21.9783 55.9872 21.8884ZM44.6175 25.3853C44.0983 25.6038 43.6883 25.8284 43.4621 26.378C43.2694 26.8463 43.238 27.489 43.4461 27.9564C43.6146 28.335 43.9593 28.6371 44.3454 28.7862C45.1231 29.0862 54.674 28.9782 56.1279 28.9138C57.988 28.5278 57.9788 25.3839 55.6267 25.3747C52.9708 25.3644 50.2943 25.35 47.6359 25.3693C46.6806 25.3762 45.5547 25.3092 44.6175 25.3853ZM56.1654 14.8489C57.0362 14.5975 57.3353 13.876 57.5665 13.0862C57.3324 12.5689 56.9783 11.595 56.3971 11.3912C55.8211 11.1893 46.1129 11.2118 44.75 11.2999C43.7029 11.5961 43.0832 12.658 43.4109 13.7007C43.5494 14.1336 43.8593 14.4918 44.2692 14.6926C44.7497 14.9229 46.4643 14.8999 47.0589 14.8786C50.0576 14.7708 53.179 14.9921 56.1654 14.8489ZM23.1474 39.5481C23.8258 39.5456 24.554 39.6164 25.0679 39.0808C26.0081 38.101 25.6622 36.123 24.1299 35.9956C22.8304 35.8875 21.5113 35.9655 20.2063 35.9428C18.154 35.9784 15.9729 35.8851 13.942 35.9483C13.1758 35.9668 12.3393 35.9724 11.7799 36.5686C11.1261 37.2655 11.1357 38.3297 11.8477 38.9641C12.1426 39.228 12.5061 39.4044 12.8969 39.4732C13.6194 39.603 15.7124 39.5561 16.5201 39.5545L23.1474 39.5481ZM55.8311 7.82303C58.1864 7.57657 57.7819 4.42972 55.8456 4.32536C54.2714 4.24052 52.0322 4.18976 50.4671 4.29806C49.6322 4.4054 48.4178 5.26806 48.5409 6.14807C48.608 6.64214 48.8757 7.08738 49.2818 7.38018C50.116 7.97598 51.3342 7.85164 52.3246 7.84596L55.8311 7.82303ZM6.1531 57.1067C3.42073 57.369 4.03049 60.5526 6.01045 60.6399C9.56875 60.7967 13.2355 60.6365 16.8078 60.6909C17.3348 60.6989 17.9512 60.698 18.4746 60.6546C19.0296 60.6011 19.6271 60.4831 19.9628 60.0154C20.8055 58.8412 20.2215 57.2122 18.6921 57.125C16.8175 57.0181 15.0827 57.0812 13.2138 57.0715C10.9365 57.1224 8.39951 56.9964 6.1531 57.1067ZM22.0268 50.0366L11.2494 50.0558C9.46737 50.0545 7.57419 50.006 5.84242 50.1188C4.4582 50.2091 3.67394 52.1384 4.86445 53.0668C5.82682 53.8172 6.82909 53.631 7.92287 53.6169L19.0779 53.6171C20.753 53.6173 22.6045 53.6685 24.2758 53.5622C24.5373 53.5456 24.8954 53.3137 25.0817 53.1247C25.4439 52.7508 25.643 52.25 25.6358 51.731C25.6311 51.5302 25.59 51.3129 25.5064 51.1288C24.8777 49.7424 23.2964 50.0146 22.0268 50.0366ZM6.56578 43.0244C5.85137 43.0704 5.24966 43.1012 4.7406 43.6761C3.6675 44.8882 4.6492 46.4887 6.15873 46.565C8.17752 46.667 10.1845 46.5853 12.2045 46.6088C16.004 46.5879 19.8261 46.6441 23.6201 46.5994C24.2629 46.5695 24.6258 46.5528 25.0974 46.0493C25.7902 45.3095 25.7844 44.1113 25.0228 43.4188C24.7867 43.2041 24.5471 43.0795 24.2253 43.0601C23.2721 42.9763 22.274 43.004 21.3153 43.008L17.0178 43.0112L10.4583 43.0033C9.26519 43.0009 7.74015 42.9622 6.56578 43.0244ZM36.3101 78.1895C35.6742 78.2949 35.2077 78.4174 34.7913 78.9645C34.2414 79.6865 34.6099 81.0206 35.2712 81.539C35.5826 81.7831 36.7077 81.7853 37.1154 81.7861C39.0919 81.789 41.0687 81.7868 43.0451 81.7861L55.9053 81.7802C56.3974 81.7131 56.614 81.6851 56.9502 81.2595C57.6058 80.4299 57.7159 79.1032 56.6965 78.4955C56.2146 78.2986 55.4639 78.1777 54.943 78.1755C52.7631 78.1674 50.5416 78.0973 48.3643 78.1482C44.3889 78.2411 40.2715 78.0095 36.3101 78.1895ZM5.86112 14.9124C5.30863 15.0454 4.81644 15.445 4.52534 15.9286C4.36555 16.1941 4.29445 16.4463 4.26436 16.7539C4.1466 17.958 4.08962 26.6235 4.32833 27.5148C4.44348 27.9448 4.85008 28.447 5.23592 28.6696C6.17221 29.2099 11.9929 28.9623 13.378 28.9139C13.8743 28.8403 14.3032 28.6418 14.6146 28.2364C14.799 27.9963 14.843 27.7766 14.8758 27.4825C15.0797 25.6558 14.9377 23.5387 14.9388 21.6867C14.9398 20.0686 15.101 17.7763 14.8505 16.2204C14.7903 15.8466 14.4653 15.3913 14.1538 15.1796C13.4168 14.6786 7.08703 14.8569 5.86112 14.9124ZM37.0487 71.13C36.2326 71.1723 35.5403 71.1424 34.9243 71.7527C34.0334 72.6354 34.6007 74.6674 35.9518 74.6902C42.2092 74.7964 48.576 74.8473 54.8291 74.7662C55.4821 74.7448 56.5988 74.7831 56.9754 74.2654C58.0375 72.8041 57.3881 71.2171 55.5171 71.1592C54.5278 71.1286 53.6407 71.1084 52.7095 71.1087L48.2376 71.1123C44.6306 71.1161 40.6277 71.0261 37.0487 71.13Z" fill="#1A3A8C"/>
<path d="M41.3013 36.158C41.3574 36.1573 41.3989 36.1919 41.4596 36.2236C41.6856 36.7434 41.4507 45.2894 41.586 46.5005C41.6496 47.0693 41.7944 47.5467 42.2734 47.923C42.5398 48.1324 43.0438 48.3373 43.3706 48.3626C44.8815 48.4795 46.7178 48.4781 48.2331 48.4457C49.8622 48.4108 52.1825 48.5455 53.7068 48.3659C53.1806 51.0145 52.1828 52.7639 50.1009 54.5263C48.5628 55.8282 47.3134 56.5991 45.2665 56.9187C42.8676 57.3541 39.9849 56.866 37.904 55.5699C29.5909 50.3921 31.6758 38.3798 41.3013 36.158Z" fill="#1A3A8C"/>
<path d="M45.3069 36.1841C48.397 36.9206 50.5798 38.4754 52.3949 41.1382C52.8569 41.816 53.8201 44.0316 53.6417 44.7936C53.3001 44.7707 52.8577 44.7639 52.5124 44.7743C50.1184 44.8467 47.6217 44.6909 45.2383 44.7993C45.1542 43.2229 45.1858 41.4806 45.178 39.8919C45.1735 38.9582 45.1304 37.0166 45.3069 36.1841Z" fill="#1A3A8C"/>
<path d="M20.4563 7.83271C21.5201 7.83994 22.7034 7.87069 23.7532 7.79407C23.8519 8.64517 23.827 9.87386 23.8278 10.7467L23.8299 15.197L23.8285 21.5826C23.8282 22.1405 23.8835 25.0958 23.7253 25.3392C22.6454 25.399 21.4054 25.3618 20.2972 25.386L20.3347 14.7162C20.3349 13.7727 20.269 8.44407 20.4563 7.83271Z" fill="#1A3A8C"/>
<path d="M34.4429 13.1646C35.0469 13.1839 35.5305 13.1967 36.1321 13.1625C36.2096 14.4732 36.1655 16.1862 36.1665 17.5173L36.1745 25.3451C35.6186 25.3693 34.9872 25.3623 34.4249 25.369C33.8208 25.3602 33.3185 25.367 32.7154 25.3974C32.6794 23.1805 32.6678 20.9634 32.6804 18.7464C32.6805 16.9392 32.652 15.0131 32.7516 13.2155C33.3041 13.1777 33.8867 13.1753 34.4429 13.1646Z" fill="#1A3A8C"/>
<path d="M8.34286 18.3985C9.33123 18.389 10.3173 18.4102 11.3056 18.3717C11.2761 19.3154 11.4249 25.0839 11.2088 25.3569L10.9286 25.3596C9.91348 25.3594 8.89832 25.365 7.88323 25.3764C7.84374 23.2858 7.86467 20.7357 7.89607 18.6351C8.06669 18.4308 8.0448 18.4862 8.34286 18.3985Z" fill="#1A3A8C"/>
<path d="M64.6901 6.22688C65.6875 6.15229 66.9825 6.20686 68.0507 6.16248L68.0764 66.949V85.1762L68.0754 90.5619C68.0742 91.5413 68.1078 93.0767 67.9735 94.0155C66.0506 93.8901 63.4748 93.9565 61.5008 93.955L49.3598 93.9705L10.9658 93.9498C9.9643 93.9351 8.91834 93.9543 7.91327 93.9587C7.90666 93.3628 7.8982 93.028 7.81055 92.4417L7.84439 92.438C9.15391 92.3112 11.3868 92.3827 12.7862 92.3827L21.797 92.3812L51.1886 92.379L58.7585 92.3894C60.0774 92.3916 62.0644 92.4498 63.3184 92.3082C63.8352 91.9255 64.4911 91.4019 64.5335 90.7279C64.6293 89.2057 64.5785 87.4904 64.5774 85.9609L64.5782 75.3326L64.5748 19.008C64.5732 15.6309 64.5903 10.0456 64.5604 6.41271C64.6111 6.34004 64.6543 6.27809 64.6901 6.22688Z" fill="#1A3A8C"/>
<path d="M74.8867 11.4021C74.9654 11.3968 75.0085 11.4216 75.0871 11.4474C75.1562 11.7493 75.1294 13.0473 75.128 13.4198L75.1139 17.4818L75.1146 33.3142L75.1205 99.1711C70.1802 99.0347 64.9425 99.1593 59.9737 99.1615L31.0582 99.16C26.1193 99.1556 21.0161 99.2175 16.0869 99.1246C15.7065 99.1106 15.3116 99.1209 14.9299 99.1254C14.9524 98.6025 14.9642 98.1903 14.9438 97.6674C16.5105 97.5406 19.2397 97.6217 20.8599 97.6217L31.8106 97.6187L68.6381 97.6291C69.3381 97.6254 70.712 97.5863 71.1747 97.0428C71.5197 96.6379 71.6685 96.3119 71.6805 95.7847C71.7098 94.5037 71.6994 93.2094 71.6996 91.9314L71.6992 84.5833L71.6964 61.9232L71.7013 29.5546C71.704 23.6944 71.8187 17.3108 71.6655 11.4922C72.4989 11.3723 73.9785 11.4183 74.8867 11.4021Z" fill="#1A3A8C"/>
</g>
<defs>
<clipPath id="clip0_1190_3234">
<rect width="76" height="100" fill="white"/>
</clipPath>
</defs>
</svg>
