<svg width="46" height="43" viewBox="0 0 46 43" fill="none" xmlns="http://www.w3.org/2000/svg">
<path d="M26.1942 40.8655V33.1902C26.1942 32.1488 27.0384 31.3053 28.0792 31.3053C31.793 31.3053 33.8134 27.4965 34.0938 19.9777H28.0792C27.0385 19.9777 26.1942 19.133 26.1942 18.0928V1.88611C26.1942 0.845078 27.0384 0.00158132 28.0792 0.00158132H44.115C45.1555 0.00158132 46 0.846 46 1.88611V18.0929C46 21.6969 45.6362 25.004 44.9219 27.9249C44.1882 30.9191 43.0619 33.5368 41.5751 35.7061C40.046 37.9353 38.1315 39.6847 35.8883 40.9029C33.6281 42.129 31.0008 42.7512 28.0784 42.7512C27.0385 42.7504 26.1942 41.9061 26.1942 40.8655ZM1.88452 31.3046C0.843892 31.3046 0 32.1488 0 33.1888V40.8656C0 41.9061 0.843892 42.7498 1.88452 42.7498C4.80546 42.7498 7.43413 42.1274 9.69289 40.9015C11.9373 39.6833 13.8515 37.9355 15.3805 35.7046C16.8682 33.5353 17.9944 30.9175 18.7281 27.9218C19.4427 25.001 19.8058 21.6937 19.8058 18.0914V1.88452C19.8058 0.843497 18.9611 0 17.9208 0H1.88452C0.843892 0 0 0.844287 0 1.88452V18.0914C0 19.1323 0.843892 19.9763 1.88452 19.9763H7.81469C7.5377 27.4957 5.54644 31.3046 1.88452 31.3046Z" fill="#87240E"/>
</svg>
