<svg width="50" height="61" viewBox="0 0 50 61" fill="none" xmlns="http://www.w3.org/2000/svg">
<path d="M42.2832 18.2286C42.6586 18.2429 43.0312 18.2794 43.3851 18.4147C43.9936 18.6474 47.0285 21.3158 47.6114 21.9155C47.8684 22.1798 48.1669 22.5025 48.3148 22.8432C48.58 23.4542 48.6212 24.2722 48.3711 24.89C48.2858 25.1007 48.1708 25.3178 48.0221 25.4911C46.5994 27.15 45.1239 28.7666 43.6789 30.4055L32.6211 43.0168L28.3356 47.8984L26.8982 49.5425C26.5563 49.9409 26.0069 50.6319 25.6129 50.9517C25.0347 51.3745 24.1771 51.5381 23.539 51.8428C22.5662 52.3072 21.5738 52.6587 20.5917 53.0782C19.5638 53.5938 18.0784 54.0581 16.9934 54.5235C15.9314 54.979 15.7564 53.6612 15.9908 52.8145C16.7709 49.9971 17.3493 46.9927 18.3496 44.2499C18.3995 44.1124 19.9952 42.345 20.2123 42.1002L23.4003 38.5198L31.7566 29.0122L37.3691 22.5975L39.2248 20.4909C39.7825 19.8588 40.3475 19.1458 41.0218 18.6199C41.2457 18.4452 41.9854 18.2769 42.2832 18.2286ZM25.3379 48.7307C26.4788 47.28 27.6244 46.0458 28.8101 44.6658C31.8728 41.1071 34.9751 37.5826 38.1165 34.0931C39.5166 32.5122 40.8693 30.8477 42.2867 29.2789C42.9312 28.5655 43.3413 28.0332 44.0852 27.3919C43.5817 26.9607 39.3149 23.3629 39.1444 23.3218C38.6052 23.8662 38.0498 24.6057 37.5218 25.1987C34.8189 28.2341 32.1497 31.3535 29.465 34.3999L23.1284 41.635C22.4566 42.4081 21.0294 43.8998 20.4744 44.6828C20.5549 44.8839 21.2323 45.3631 21.4421 45.5374L24.094 47.7664C24.2876 47.9283 25.1587 48.7042 25.3379 48.7307ZM45.093 25.8587C45.1358 25.8802 45.2208 25.9428 45.2595 25.9047C45.7371 25.4332 46.5468 24.5034 46.7305 23.8771C46.2813 23.0538 43.0364 20.0821 42.2638 20.1195C41.7822 20.3177 40.5387 21.4789 40.4675 21.9396C40.5671 22.1534 44.6055 25.514 45.093 25.8587ZM18.0612 52.2227C18.583 51.8389 19.4187 51.6348 20.0322 51.3736C20.378 51.2261 20.6466 51.0581 20.9602 50.918C21.5924 50.6963 23.2917 50.1485 23.7144 49.7158C22.75 49.1641 21.2316 47.6444 20.3126 46.9249C20.153 46.7999 19.7267 46.4177 19.5701 46.3488C19.3064 47.714 18.9851 49.0825 18.5719 50.4077C18.3845 51.0083 18.2835 51.6065 18.0612 52.2227Z" fill="#680000"/>
<path d="M3.38561 1.04905L3.41387 1.04682C4.26353 0.981854 5.42006 1.01624 6.29502 1.0178L11.1319 1.0215L19.5109 1.01837C20.0144 1.01834 24.7437 0.97037 24.9371 1.12222C25.6392 1.67372 27.2093 3.26789 27.9602 3.97479L36.8215 12.2812C38.0304 13.4009 39.046 14.4535 40.3121 15.5381C40.5122 16.0828 40.4922 16.3554 40.387 16.9009C39.9642 17.1858 39.671 17.3153 39.2681 17.7026C39.0927 17.8712 38.7702 18.2332 38.615 18.3511L38.5332 18.3275C38.53 17.7023 38.5117 17.0206 38.5558 16.401C35.4847 16.4488 32.3962 16.3892 29.3282 16.4139C27.5322 16.4288 24.8848 16.7283 24.1997 14.5234C23.8781 13.4886 24.0148 11.2098 24.017 10.0385C24.0327 7.63879 24.0182 5.23898 23.9734 2.83961C23.7185 2.86997 23.13 2.84828 22.8488 2.84587L20.8257 2.83686L9.91836 2.84069L6.30102 2.83889C5.62778 2.83879 4.93471 2.82991 4.26336 2.85412C4.0527 2.86171 3.5084 2.92177 3.36548 3.06606C3.19685 3.23633 3.16738 3.58771 3.16217 3.81989C3.13027 5.24108 3.19559 6.67507 3.18581 8.09587L3.17197 21.3302L3.15374 55.8257C3.14817 56.8076 3.12851 57.2559 4.2761 57.3013C5.03916 57.3316 5.7979 57.3203 6.56108 57.3189L11.3159 57.3135L29.0463 57.3154L34.4491 57.3189C35.4586 57.3198 36.4973 57.3379 37.5056 57.2896C37.8638 57.2725 38.0546 57.188 38.3549 57.0039C38.6265 56.4185 38.5397 55.4551 38.5391 54.7905L38.5356 51.8023L38.5399 43.9574C38.5411 42.3951 38.5054 40.6937 38.577 39.1462C38.8456 38.7675 39.9227 37.3357 40.3428 37.3279C40.509 37.5459 40.4402 41.1758 40.4395 41.6794L40.4369 50.9439C40.4323 51.9956 40.435 53.0469 40.4447 54.0986C40.4675 55.9751 40.7336 58.1069 38.5983 58.9722C37.9811 59.2222 35.8339 59.1323 35.0734 59.1314L31.4473 59.1245L21.2947 59.1255L9.94204 59.1284C8.00415 59.1289 6.05385 59.1426 4.1165 59.1216C3.54173 59.1157 3.27506 59.0547 2.77454 58.8584C2.25368 58.6499 1.4087 57.5982 1.34549 57.021C1.16981 55.416 1.25041 53.4409 1.25244 51.8208L1.25569 41.0346L1.2553 16.2268L1.25378 8.1801C1.25254 6.78884 1.23866 5.38947 1.25292 3.9993C1.25815 3.48951 1.31689 2.93299 1.58355 2.49398C2.10767 1.6311 2.42381 1.32613 3.38561 1.04905ZM36.5636 14.6364C36.5015 14.4015 34.8981 13.0171 34.6055 12.7449L31.6836 9.97253C31.0921 9.41672 30.4492 8.87306 29.8764 8.303C28.5786 7.01139 27.2437 5.76681 25.8844 4.54205C25.8611 4.53047 25.8377 4.51889 25.8144 4.50731C25.7619 6.14142 25.8241 8.20837 25.823 9.88483L25.8205 12.201C25.8146 13.9042 25.6177 14.6975 27.7132 14.6581C30.6544 14.6027 33.625 14.7203 36.5636 14.6364Z" fill="#680000"/>
<path d="M14.2068 7.36434C16.2138 7.22313 17.9539 8.73847 18.0899 10.7457C18.2259 12.753 16.7061 14.4892 14.6985 14.62C12.6982 14.7503 10.9698 13.2373 10.8343 11.2373C10.6987 9.23744 12.2073 7.50507 14.2068 7.36434ZM14.8627 12.7562C15.8258 12.5323 16.4294 11.575 16.2163 10.6095C16.0032 9.64389 15.0528 9.02953 14.0849 9.23178C13.449 9.36464 12.9336 9.82899 12.7353 10.4476C12.5371 11.0662 12.6866 11.7436 13.1268 12.2214C13.567 12.6991 14.23 12.9034 14.8627 12.7562Z" fill="#680000"/>
<path d="M8.36209 25.5967C9.29866 25.5374 10.5103 25.5735 11.4719 25.5751L16.7309 25.5779L32.3005 25.5868C31.9954 26.0359 31.5167 26.5545 31.1519 26.971C30.8873 27.2683 30.6623 27.2807 30.2766 27.2829C28.782 27.2914 27.2866 27.284 25.7917 27.2839L16.6869 27.2862L11.5489 27.2937C10.549 27.2967 9.54504 27.3272 8.54812 27.2487C7.63806 27.1769 7.62312 26.7524 7.7533 25.9858C7.96843 25.7582 8.0634 25.6849 8.36209 25.5967Z" fill="#680000"/>
<path d="M8.45263 29.1721C9.83496 29.0936 11.8785 29.1555 13.2912 29.1556L22.6372 29.156L27.3646 29.1616C27.6401 29.1631 28.8251 29.127 28.9829 29.2255C28.9949 29.583 28.1915 30.2949 27.8916 30.6881C27.7188 30.9519 27.5534 30.9747 27.2591 30.9845C26.7428 31.0018 26.2274 30.999 25.7108 30.9994L21.7585 30.9989L13.6717 31.0075C12.0345 31.012 10.3847 31.04 8.74883 30.9871C8.29018 30.9723 7.79487 30.866 7.71401 30.3255C7.6251 29.731 7.83398 29.2851 8.45263 29.1721Z" fill="#680000"/>
<path d="M8.50895 32.8789C10.7894 32.7805 13.3948 32.8905 15.7032 32.8599C18.9533 32.8168 22.2523 32.8978 25.5059 32.8647C25.6469 32.8633 25.6768 32.8761 25.7538 32.9609C25.6948 33.2778 24.8959 34.1151 24.642 34.3622C24.3266 34.7127 22.794 34.6026 22.2951 34.602L18.5759 34.5975L12.1002 34.5962C10.9894 34.5969 9.87311 34.6213 8.76286 34.5917C8.48473 34.5843 8.18805 34.5636 7.95983 34.389C7.56598 34.0876 7.6028 33.5005 7.88014 33.133C8.03493 32.9271 8.27448 32.9113 8.50895 32.8789Z" fill="#680000"/>
<path d="M8.76219 36.4425C9.24871 36.4135 9.98225 36.4367 10.4838 36.4375L13.7893 36.4427C14.583 36.4439 22.4479 36.4081 22.617 36.5004L22.6302 36.5768C22.3902 36.9958 21.677 37.7236 21.3246 38.0969C21.2181 38.2113 21.1321 38.2644 20.9728 38.2755C20.0323 38.3406 19.0412 38.3114 18.0996 38.3091L13.4263 38.2994C12.1502 38.2992 9.37273 38.3875 8.27747 38.23C8.25086 38.2116 8.22444 38.1929 8.19822 38.1739C7.91682 37.9703 7.71863 37.7285 7.66936 37.3716C7.64011 37.1662 7.69793 36.958 7.82888 36.7971C8.07996 36.4852 8.3845 36.4896 8.76219 36.4425Z" fill="#680000"/>
<path d="M8.55874 40.0554C9.73652 39.9894 11.94 40.0366 13.0753 40.0384C13.8175 40.0396 19.1943 39.9824 19.4295 40.1242C19.4565 40.5115 18.6188 41.1443 18.3231 41.6053L18.3086 41.6283C17.8902 42.0352 17.3529 41.9068 16.7832 41.9054L14.4195 41.9L10.804 41.904C10.0012 41.9055 8.71333 42.0066 7.9625 41.691C7.61782 41.5461 7.66597 40.6587 7.83315 40.4052C7.97842 40.1849 8.3061 40.099 8.55874 40.0554Z" fill="#680000"/>
<path d="M8.95255 22.1617C8.72081 22.6225 8.34903 22.9225 7.81471 22.7368C7.02286 22.4618 7.22501 20.9104 7.20924 20.2186C7.16373 17.8952 7.15133 15.2205 9.50069 13.9672C9.85284 13.7793 10.761 14.9207 10.8501 15.1691C10.7483 15.5003 9.09693 16.2046 8.98551 17.9109C8.75914 18.269 8.94029 21.2152 8.88194 21.8335C8.87296 21.9288 8.9045 22.0744 8.95255 22.1617Z" fill="#680000"/>
<path d="M19.1663 13.9003C20.2762 14.1161 21.4996 16.1218 21.6109 17.2058C21.7659 18.7151 21.7014 20.2919 21.6954 21.813C21.6928 22.4466 21.3999 22.7121 20.8161 22.7897C19.7842 22.6513 20.0066 21.5577 19.9854 20.7602C19.9431 19.1647 20.2458 17.4377 19.1788 16.0819C18.905 15.7341 18.3958 15.4242 18.0221 15.1745C18.4863 14.8002 18.7082 14.2718 19.1663 13.9003Z" fill="#680000"/>
<path d="M9.86845 43.6765C11.2943 43.6914 12.7202 43.6948 14.1461 43.6868C14.6585 43.6845 15.8775 43.6398 16.296 43.7029C16.5087 43.9829 16.2319 45.2024 16.0102 45.4445C15.6703 45.601 14.7532 45.5281 14.34 45.5158C12.5404 45.5566 10.6924 45.516 8.89116 45.5273C7.89135 45.5336 7.34838 44.9 7.88847 43.994C8.06508 43.6977 9.53071 43.6947 9.86845 43.6765Z" fill="#680000"/>
<path d="M8.55545 47.3315C10.5131 47.2441 12.5192 47.3569 14.4814 47.3122C14.7569 47.3059 15.0439 47.3095 15.3176 47.3415C15.4747 47.4792 15.439 47.6163 15.3845 47.8123C15.2227 48.3942 15.441 49.1992 14.6429 49.2285L10.7273 49.2299C9.82767 49.2309 8.7326 49.3564 7.91971 48.9692C7.48108 48.0727 7.55574 47.5533 8.55545 47.3315Z" fill="#680000"/>
<path d="M31.4075 47.3277C32.061 47.2966 33.2311 47.1584 33.7199 47.5883C33.9944 47.8297 33.9801 48.0298 34.0125 48.3634C33.661 49.2373 33.3429 49.2133 32.4618 49.2314C31.5949 49.2192 30.6927 49.1938 29.8292 49.2197C30.0377 48.7243 30.9646 47.5875 31.4075 47.3277Z" fill="#680000"/>
<path d="M8.9855 17.9109L8.99473 20.6056C8.9957 20.9321 9.01392 21.8827 8.95254 22.1617C8.90449 22.0743 8.87295 21.9288 8.88193 21.8334C8.94028 21.2151 8.75913 18.269 8.9855 17.9109Z" fill="#680000"/>
<path d="M33.8001 44.5544C33.8646 44.5806 33.8841 44.6052 33.9386 44.6497C34.0271 45.0374 33.6015 45.2906 33.2961 45.4292L33.1964 45.3646L33.194 45.2606C33.3347 45.006 33.5937 44.7668 33.8001 44.5544Z" fill="#680000"/>
</svg>
