<svg width="84" height="100" viewBox="0 0 84 100" fill="none" xmlns="http://www.w3.org/2000/svg">
<path d="M70.2891 30.302C70.9131 30.3258 71.5325 30.3864 72.1207 30.6113C73.1323 30.9981 78.1772 35.434 79.1463 36.4307C79.5736 36.8702 80.0698 37.4066 80.3156 37.973C80.7564 38.9886 80.8249 40.3485 80.4091 41.3755C80.2673 41.7256 80.0762 42.0865 79.829 42.3747C77.464 45.1323 75.0111 47.8196 72.6091 50.5441L54.2274 71.5083L47.1034 79.6232L44.7139 82.3562C44.1456 83.0186 43.2323 84.1671 42.5773 84.6988C41.6162 85.4017 40.1906 85.6736 39.1297 86.1801C37.5127 86.952 35.8629 87.5364 34.2304 88.2337C32.5217 89.0908 30.0525 89.8627 28.2488 90.6363C26.4835 91.3936 26.1925 89.2028 26.5822 87.7954C27.8789 83.1119 28.8405 78.1175 30.5032 73.5581C30.5861 73.3296 33.2387 70.3916 33.5998 69.9846L38.8992 64.0327L52.7902 48.2279L62.1201 37.5645L65.2049 34.0626C66.1319 33.0119 67.0712 31.8266 68.1921 30.9524C68.5644 30.662 69.794 30.3822 70.2891 30.302ZM42.1202 81.0067C44.0168 78.5952 45.9211 76.5436 47.8922 74.2495C52.9834 68.3337 58.1405 62.4748 63.3626 56.6742C65.69 54.0461 67.9387 51.2792 70.2948 48.6712C71.3662 47.4853 72.048 46.6005 73.2845 45.5345C72.4475 44.8177 65.3547 38.8368 65.0712 38.7685C64.1749 39.6735 63.2517 40.9029 62.374 41.8885C57.8809 46.9345 53.4437 52.12 48.9808 57.1841L38.4472 69.2113C37.3305 70.4965 34.958 72.9761 34.0354 74.2778C34.1693 74.612 35.2952 75.4086 35.644 75.6984L40.0524 79.4037C40.3742 79.6729 41.8224 80.9626 42.1202 81.0067ZM74.9598 42.9858C75.031 43.0216 75.1724 43.1255 75.2366 43.0622C76.0305 42.2784 77.3765 40.7328 77.6818 39.6916C76.9352 38.3231 71.5411 33.3831 70.2568 33.4452C69.4561 33.7747 67.3891 35.705 67.2706 36.4708C67.4362 36.8264 74.1495 42.4128 74.9598 42.9858ZM30.0238 86.8116C30.8913 86.1736 32.2805 85.8343 33.3004 85.4001C33.8751 85.1549 34.3217 84.8757 34.843 84.6428C35.8939 84.2742 38.7188 83.3635 39.4214 82.6444C37.8182 81.7272 35.2941 79.2009 33.7665 78.0049C33.5011 77.7971 32.7925 77.1617 32.5322 77.0471C32.0938 79.3166 31.5596 81.5916 30.8728 83.7945C30.5613 84.7929 30.3935 85.7872 30.0238 86.8116Z" fill="#680000"/>
<path d="M5.62802 1.74392L5.67501 1.74021C7.08743 1.63222 9.00998 1.68939 10.4644 1.69198L18.5049 1.69813L32.4337 1.69292C33.2707 1.69288 41.1325 1.61313 41.4538 1.86555C42.6209 2.78234 45.2311 5.43238 46.4793 6.6075L61.2098 20.4156C63.2193 22.2769 64.9076 24.0267 67.0123 25.8296C67.3449 26.7351 67.3117 27.1882 67.1368 28.095C66.4339 28.5687 65.9467 28.7838 65.2768 29.4278C64.9852 29.7079 64.4491 30.3098 64.1912 30.5058L64.0553 30.4665C64.0498 29.4272 64.0195 28.2941 64.0928 27.264C58.9876 27.3436 53.8535 27.2444 48.7534 27.2855C45.7678 27.3102 41.367 27.8082 40.228 24.1429C39.6934 22.4226 39.9207 18.6346 39.9244 16.6875C39.9504 12.6983 39.9263 8.70901 39.8519 4.72043C39.4282 4.77091 38.4499 4.73484 37.9824 4.73085L34.6194 4.71587L16.4877 4.72224L10.4744 4.71924C9.35527 4.71907 8.20316 4.70431 7.08715 4.74456C6.73696 4.75718 5.83215 4.85701 5.59458 5.09687C5.31424 5.37992 5.26526 5.96404 5.2566 6.35C5.20358 8.7125 5.31216 11.0963 5.2959 13.4581L5.27289 35.4581L5.24259 92.8012C5.23333 94.4335 5.20065 95.1786 7.10832 95.2541C8.37678 95.3045 9.63807 95.2858 10.9067 95.2833L18.8109 95.2744L48.2848 95.2777L57.2661 95.2833C58.9442 95.285 60.6708 95.315 62.3469 95.2346C62.9424 95.2062 63.2597 95.0658 63.7588 94.7598C64.2103 93.7866 64.0661 92.1851 64.065 91.0804L64.0593 86.1129L64.0663 73.0721C64.0683 70.4751 64.009 67.6467 64.1281 65.0743C64.5745 64.4447 66.365 62.0646 67.0633 62.0517C67.3396 62.414 67.2252 68.4482 67.2241 69.2853L67.2197 84.6859C67.2122 86.4343 67.2166 88.1819 67.2328 89.9303C67.2706 93.0496 67.7131 96.5934 64.1634 98.0317C63.1374 98.4473 59.5681 98.298 58.3038 98.2963L52.276 98.285L35.399 98.2866L16.527 98.2915C13.3056 98.2923 10.0636 98.315 6.84302 98.2801C5.88755 98.2704 5.44427 98.1689 4.61223 97.8426C3.74638 97.496 2.34173 95.7476 2.23666 94.7882C1.94462 92.1202 2.0786 88.8369 2.08199 86.1437L2.08739 68.2134L2.08673 26.9744L2.08421 13.5981C2.08215 11.2854 2.05908 8.95917 2.08278 6.64823C2.09147 5.80079 2.18912 4.87567 2.63239 4.14589C3.50367 2.71149 4.02919 2.20452 5.62802 1.74392ZM60.781 24.3307C60.6778 23.9402 58.0125 21.6389 57.5261 21.1864L52.6688 16.5778C51.6855 15.6538 50.6168 14.7501 49.6646 13.8024C47.5072 11.6554 45.2883 9.58644 43.0286 7.55047C42.9898 7.53121 42.9511 7.51196 42.9123 7.49272C42.8249 10.2092 42.9283 13.6451 42.9266 16.432L42.9223 20.2822C42.9127 23.1136 42.5853 24.4323 46.0687 24.3668C50.958 24.2747 55.8961 24.4701 60.781 24.3307Z" fill="#680000"/>
<path d="M23.6166 12.242C26.9528 12.0072 29.8455 14.5262 30.0716 17.863C30.2976 21.1998 27.7712 24.086 24.4338 24.3033C21.1087 24.52 18.2355 22.0048 18.0102 18.6802C17.7849 15.3557 20.2926 12.4759 23.6166 12.242ZM24.7068 21.2051C26.3079 20.8329 27.3113 19.2416 26.957 17.6364C26.6028 16.0313 25.0229 15.0101 23.4139 15.3463C22.3568 15.5671 21.5 16.339 21.1705 17.3674C20.8408 18.3957 21.0894 19.5218 21.8212 20.316C22.5529 21.1101 23.655 21.4497 24.7068 21.2051Z" fill="#680000"/>
<path d="M13.9007 42.5503C15.4576 42.4518 17.4717 42.5117 19.0702 42.5144L27.8124 42.519L53.6944 42.5338C53.1872 43.2804 52.3915 44.1426 51.785 44.835C51.3452 45.3292 50.9711 45.3496 50.3301 45.3533C47.8454 45.3675 45.3596 45.3552 42.8746 45.355L27.7393 45.3588L19.1982 45.3714C17.536 45.3763 15.8672 45.427 14.2099 45.2965C12.6971 45.1772 12.6723 44.4715 12.8887 43.1971C13.2463 42.8188 13.4042 42.6969 13.9007 42.5503Z" fill="#680000"/>
<path d="M14.0511 48.4939C16.349 48.3633 19.7461 48.4663 22.0944 48.4664L37.6307 48.467L45.4892 48.4764C45.9472 48.479 47.917 48.4189 48.1794 48.5825C48.1992 49.1769 46.8639 50.3604 46.3652 51.014C46.0781 51.4525 45.8031 51.4904 45.3139 51.5067C44.4556 51.5354 43.5988 51.5308 42.74 51.5315L36.17 51.5306L22.7269 51.545C20.0054 51.5524 17.2629 51.5989 14.5435 51.511C13.7811 51.4864 12.9577 51.3097 12.8233 50.4113C12.6755 49.4229 13.0227 48.6817 14.0511 48.4939Z" fill="#680000"/>
<path d="M14.1447 54.6558C17.9356 54.4922 22.2666 54.6751 26.1041 54.6242C31.5067 54.5526 36.9908 54.6873 42.3993 54.6321C42.6338 54.6298 42.6835 54.6511 42.8114 54.7921C42.7135 55.3189 41.3853 56.7107 40.9632 57.1216C40.439 57.7042 37.8913 57.5211 37.062 57.5201L30.8794 57.5126L20.1146 57.5106C18.2681 57.5117 16.4124 57.5522 14.5668 57.5031C14.1045 57.4908 13.6113 57.4563 13.2319 57.166C12.5772 56.6651 12.6384 55.6891 13.0994 55.0782C13.3567 54.7359 13.7549 54.7096 14.1447 54.6558Z" fill="#680000"/>
<path d="M14.5658 60.5799C15.3745 60.5316 16.5939 60.5702 17.4276 60.5715L22.9226 60.5802C24.2419 60.5822 37.3161 60.5227 37.5971 60.676L37.619 60.803C37.2201 61.4996 36.0345 62.7094 35.4488 63.33C35.2717 63.5202 35.1287 63.6085 34.8639 63.6268C33.3004 63.7351 31.6529 63.6865 30.0877 63.6828L22.3191 63.6666C20.1977 63.6662 15.5807 63.813 13.76 63.5513C13.7158 63.5207 13.6718 63.4896 13.6283 63.458C13.1605 63.1195 12.831 62.7176 12.7491 62.1243C12.7005 61.7829 12.7966 61.4367 13.0143 61.1692C13.4317 60.6507 13.9379 60.658 14.5658 60.5799Z" fill="#680000"/>
<path d="M14.2275 66.5856C16.1854 66.4758 19.8484 66.5543 21.7356 66.5573C22.9694 66.5592 31.9074 66.4642 32.2985 66.6999C32.3433 67.3437 30.9508 68.3957 30.4593 69.162L30.4351 69.2003C29.7395 69.8766 28.8464 69.6633 27.8993 69.6609L23.9701 69.6519L17.9599 69.6585C16.6254 69.6611 14.4845 69.8291 13.2364 69.3044C12.6634 69.0636 12.7434 67.5884 13.0214 67.167C13.2628 66.8008 13.8076 66.6581 14.2275 66.5856Z" fill="#680000"/>
<path d="M14.8821 36.8402C14.4969 37.6061 13.8789 38.1048 12.9906 37.7962C11.6743 37.339 12.0104 34.7601 11.9842 33.6102C11.9085 29.7478 11.8879 25.3015 15.7933 23.2181C16.3787 22.9059 17.8885 24.8031 18.0364 25.2162C17.8672 25.7667 15.1221 26.9375 14.9369 29.774C14.5606 30.3693 14.8618 35.2667 14.7648 36.2946C14.7498 36.453 14.8023 36.695 14.8821 36.8402Z" fill="black"/>
<path d="M31.8608 23.1069C33.7059 23.4657 35.7395 26.7998 35.9246 28.6018C36.1822 31.1107 36.0751 33.732 36.065 36.2605C36.0608 37.3138 35.5738 37.7552 34.6034 37.8841C32.8879 37.6542 33.2576 35.8362 33.2225 34.5105C33.1522 31.8582 33.6553 28.9873 31.8815 26.7335C31.4264 26.1553 30.58 25.6402 29.9587 25.2251C30.7304 24.6029 31.0993 23.7245 31.8608 23.1069Z" fill="black"/>
<path d="M16.4047 72.605C18.7749 72.6298 21.1453 72.6354 23.5156 72.6221C24.3674 72.6182 26.3937 72.544 27.0894 72.6488C27.4431 73.1143 26.9829 75.1416 26.6144 75.544C26.0493 75.8042 24.5248 75.683 23.8379 75.6625C20.8463 75.7304 17.7744 75.6629 14.7801 75.6816C13.1181 75.692 12.2155 74.6388 13.1133 73.1328C13.4069 72.6401 15.8433 72.6353 16.4047 72.605Z" fill="black"/>
<path d="M14.2221 78.681C17.4764 78.5357 20.8111 78.7233 24.0731 78.6488C24.531 78.6384 25.0081 78.6444 25.463 78.6976C25.7243 78.9264 25.665 79.1544 25.5744 79.4802C25.3053 80.4475 25.6682 81.7857 24.3415 81.8344L17.8325 81.8368C16.337 81.8384 14.5166 82.0471 13.1653 81.4034C12.4361 79.9131 12.5603 79.0497 14.2221 78.681Z" fill="black"/>
<path d="M52.2099 78.6747C53.2962 78.623 55.2412 78.3931 56.0538 79.1079C56.51 79.5092 56.4863 79.8418 56.5402 80.3963C55.9558 81.8489 55.4272 81.8092 53.9624 81.8392C52.5214 81.8189 51.0217 81.7767 49.5862 81.8197C49.9327 80.9963 51.4736 79.1065 52.2099 78.6747Z" fill="black"/>
<path d="M14.9369 29.7739L14.9523 34.2535C14.9539 34.7962 14.9842 36.3764 14.8821 36.8402C14.8023 36.6949 14.7498 36.453 14.7648 36.2945C14.8618 35.2667 14.5606 30.3692 14.9369 29.7739Z" fill="black"/>
<path d="M56.1873 74.0645C56.2944 74.1079 56.3268 74.1488 56.4175 74.2228C56.5645 74.8673 55.8571 75.2882 55.3494 75.5186L55.1836 75.4111L55.1796 75.2383C55.4136 74.815 55.8442 74.4175 56.1873 74.0645Z" fill="black"/>
</svg>
