<svg width="122" height="100" viewBox="0 0 122 100" fill="none" xmlns="http://www.w3.org/2000/svg">
<g clip-path="url(#clip0_1190_2286)">
<path d="M83.7553 35.974C84.2153 35.8266 84.909 36.0564 85.381 36.1789C86.2025 37.6509 85.9349 41.0134 85.9323 42.811L85.9201 52.7113C85.9187 54.4954 85.6062 56.6286 86.6641 58.0907L88.0178 58.6206C88.6328 58.2827 89.0303 58.0946 89.5419 57.6093C90.5983 54.9817 89.0126 45.2751 90.4904 43.7498C90.9082 43.3186 91.7346 43.4465 92.2925 43.4472C92.4438 43.541 93.097 43.968 93.1324 44.0488C93.6978 45.3402 93.5244 50.6369 93.4226 51.9191C100.731 52.1276 104.633 50.1535 103.927 59.3776C103.895 59.7957 103.927 60.4445 103.927 60.8861C103.941 64.925 103.931 68.964 103.892 73.0027C103.419 74.7637 102.58 76.0598 100.608 76.1948C99.0068 76.3047 97.4159 76.2681 95.8116 76.2689L86.8708 76.2683L79.1107 76.2662C77.7003 76.2653 76.0179 76.3143 74.6299 76.1328C74.0376 76.0555 72.9385 75.1673 72.3727 74.7773C71.6457 72.8296 71.8978 69.8274 71.8989 67.7001L71.8961 57.4461C71.8964 56.0935 71.7224 54.2579 72.7687 53.2177C74.2124 51.7824 75.8611 51.929 77.7562 51.9238C79.2773 51.9196 80.8579 51.9419 82.4087 51.9635C82.3653 51.4915 82.3453 49.5333 82.3813 49.1192C82.5801 46.8326 81.8855 37.7718 82.8404 36.2175C83.0956 36.0031 83.4163 36.0104 83.7553 35.974ZM75.626 72.7564C81.4162 72.5548 87.3846 72.7839 93.1842 72.697C95.1517 72.6675 98.5244 72.8345 100.315 72.6718C100.399 70.4718 100.378 68.1675 100.371 65.9588C100.372 62.8355 100.509 58.6003 100.36 55.5721C98.291 55.348 95.7315 55.6728 93.5669 55.4606C93.3448 57.7346 93.2652 59.3214 91.3418 60.9438C90.2803 61.8391 88.5906 62.24 87.2066 62.0772C85.7384 61.9133 84.3997 61.1602 83.4975 59.9904C82.3716 58.5314 82.3438 57.2094 82.4011 55.4881C80.5499 55.5434 77.4297 55.6077 75.6464 55.4568C75.7679 58.7922 75.6227 62.4603 75.659 65.8336C75.6752 67.3404 75.7801 71.4185 75.626 72.7564Z" fill="#1A3A8C"/>
<path d="M34.0285 0.926052C36.3913 0.712267 39.1485 1.28618 41.11 2.66114C42.8758 3.91956 44.0723 5.82524 44.4385 7.96243C44.6939 9.48766 44.6816 15.4056 44.3388 16.8348C44.0596 17.9572 43.568 19.0156 42.8907 19.9529C41.2397 22.2376 39.1648 22.9894 36.5321 23.4178C33.7798 23.4952 31.8769 23.3631 29.5999 21.7398C26.4322 19.4815 25.8262 16.0703 25.8607 12.4345C25.8886 9.48596 25.9437 7.00205 27.7409 4.47154C29.2257 2.3812 31.5919 1.32648 34.0285 0.926052ZM36.3749 19.7513C41.8467 19.0375 41.2325 13.2501 40.9558 9.14353C40.7311 5.80971 37.3169 4.21775 34.3169 4.61051C29.5901 5.93285 29.6957 7.98303 29.573 12.2457C29.4313 17.1679 30.7998 20.0378 36.3749 19.7513Z" fill="#1A3A8C"/>
<path d="M24.6093 68.4819C24.3964 68.2917 23.8999 67.9196 23.7669 67.785C22.6212 66.6145 21.9445 65.0645 21.8652 63.4284C21.7586 61.5618 21.8325 59.0204 21.8341 57.0983L21.8391 45.5747L21.8304 38.6565C21.8243 37.329 21.7523 35.0696 21.9619 33.8491C22.2018 32.4844 22.811 31.2115 23.7235 30.1687C27.7172 25.6936 35.0017 27.7956 40.4177 27.3822C42.5134 27.2221 45.7032 29.3938 47.5348 30.502L56.1659 35.6177C56.8677 36.0295 60.05 38.1667 60.6821 37.9402C62.0711 37.4421 63.7873 36.2782 65.1051 35.5019L73.8031 30.435C76.0734 29.1266 78.7388 27.1744 81.297 26.6051C84.0849 25.9846 87.2388 26.432 90.1176 26.3078C95.6104 26.0709 100.735 27.8759 101.062 34.1292C101.234 37.4299 100.969 40.9361 101.065 44.2554C101.07 45.2201 100.987 47.149 101.083 48.0035C99.9414 48.0357 98.7324 47.9878 97.6313 48.0309C97.3677 43.3063 97.8379 38.2103 97.3882 33.4776C97.1924 32.9057 96.4112 31.4906 95.9913 31.1293C95.5004 30.7071 94.0063 30.1667 93.3767 30.1422C89.8551 30.0035 86.2499 30.0348 82.728 30.1201C81.3122 30.1545 79.9626 30.835 79.1568 31.982C78.3525 33.127 78.5232 35.5265 78.5226 36.8785L78.5246 41.9171C78.5258 43.0309 78.442 46.7907 78.5517 47.698C78.5648 47.8065 78.5806 47.9146 78.5987 48.0223C77.3734 48.026 76.1004 48.0131 74.8794 48.041C74.8208 46.37 74.7888 44.4542 74.8427 42.7849C72.665 43.9808 70.4933 45.3617 68.3564 46.5682C65.0414 48.44 62.5406 51.1801 58.4029 49.9856C56.7911 49.5202 49.1323 44.0482 48.2233 44.1037C47.8291 44.8394 48.2918 60.9501 48.0452 63.4997C47.8582 65.4338 46.8784 67.194 45.4632 68.4964C45.1192 68.813 44.5099 69.2381 44.3354 69.6581C44.0999 70.2258 44.176 81.1664 44.274 82.4553C46.5396 82.82 47.4552 83.2519 48.8195 85.1469C49.852 86.5809 50.0541 87.9999 50.0513 89.734C50.0486 91.2853 50.1937 92.7827 49.0107 93.9916C47.5201 95.5149 45.3402 94.779 43.4865 95.0904C43.3366 95.1156 43.3884 95.8714 43.5754 96.0896C44.3503 96.1995 45.755 96.1481 46.5776 96.1539C48.5684 96.1769 50.5592 96.1878 52.5501 96.1868L71.7679 96.1815L75.929 96.1806C76.9153 96.1748 78.4354 96.1269 79.3809 96.2939L79.4134 94.9928C75.7412 95.0596 73.0331 95.4977 72.8256 90.5725C72.652 86.4524 74.2319 83.6329 78.679 83.3414C78.6337 82.26 78.6789 81.2323 78.6638 80.1636C79.8765 80.1821 81.0893 80.1881 82.302 80.1816C82.2353 82.6219 82.6439 84.3748 81.8493 86.6661C77.3576 87.7816 76.4861 85.3878 76.5935 91.5466C77.4636 91.5104 78.9648 91.5058 79.7553 91.4147C80.2201 90.9078 80.5778 90.3725 81.0325 89.8845C82.4953 88.3146 84.2062 87.9342 86.2269 88.0176C86.0976 87.0095 86.1113 81.2635 86.2528 80.18C87.2099 80.1838 88.8516 80.1483 89.7584 80.2277C89.7142 83.2709 89.9026 87.3728 89.6184 90.4351C89.587 90.7725 88.9082 91.3767 88.649 91.6864C87.2445 91.7653 85.9208 91.7355 84.5565 91.7945C83.8768 92.2577 83.6675 92.4535 83.1379 93.1223C83.0853 94.041 83.1027 95.3171 83.0261 96.1621C84.9525 96.186 86.8791 96.1991 88.8058 96.2015C90.261 96.2063 92.7766 96.4609 93.8511 95.4223C94.1143 95.1681 94.3395 94.8775 94.5198 94.5592C94.5499 91.5822 94.5576 88.605 94.543 85.6278C94.5423 83.9445 94.6103 81.7696 94.5158 80.1444C95.6448 80.2371 96.9915 80.1867 98.1396 80.1831C98.1865 82.999 98.2021 85.8152 98.1865 88.6314C98.1895 91.2285 98.2373 93.6849 98.0225 96.2799C99.208 96.1162 100.8 96.1516 102.02 96.1526L107.434 96.1601L114.296 96.1755C115.951 96.1793 118.738 96.0269 120.197 96.5875C120.505 97.0252 120.688 97.3146 121.094 97.6768V98.3994L121.032 98.4434C120.501 98.8272 120.144 99.6953 119.397 99.8008C118.376 99.9463 117.164 99.8946 116.128 99.8848C114.495 99.8653 112.861 99.8555 111.228 99.8535C96.4035 99.8457 81.5774 99.8614 66.7529 99.8623L27.761 99.8877L10.431 99.8653C8.34124 99.8672 3.96768 99.7471 2.11728 100H0V97.4134C0.39054 97.1578 0.558203 96.9231 0.851302 96.5685C2.30338 96.0066 5.04089 96.1677 6.66131 96.1679H13.3918L20.1667 96.1742C21.6542 96.1774 23.5679 96.1577 25.0152 96.3053C24.5559 93.5599 24.6918 91.3543 24.6936 88.5891L24.6978 75.4433C24.6972 73.6803 24.7903 70.1544 24.6093 68.4819ZM42.293 40.4727C42.1081 40.036 41.9325 39.6287 41.7785 39.1783C42.3249 37.7198 42.2521 37.7214 43.7269 37.2889C45.0937 37.805 46.7536 38.8679 48.0639 39.6252C50.6863 41.1323 53.291 42.6701 55.8771 44.2387C57.0731 44.9596 58.3584 45.8106 59.6077 46.374C61.249 47.1141 62.6353 44.9572 61.9089 43.5591C61.5347 42.8388 60.3006 42.4322 59.5876 41.9997L52.7403 37.8704L45.6803 33.6731C44.4329 32.9244 42.7571 31.6425 41.3928 31.2215C40.0201 30.7979 31.5446 30.8771 29.6649 30.9917C25.0172 31.4052 25.57 35.7574 25.5601 39.1307L25.5528 46.3743L25.5558 56.33C25.5582 58.6117 25.5462 60.8813 25.7007 63.1734C25.784 64.4097 26.1663 64.9942 27.0584 65.8793C27.474 66.2918 28.6671 66.807 29.2646 66.849C31.4208 67.0006 33.7437 66.9016 35.9197 66.9123C37.4131 66.9198 38.9752 66.9242 40.4491 66.882C41.5396 66.8507 42.8208 66.1261 43.5212 65.2721C44.001 64.6789 44.3132 63.9679 44.4252 63.2132C44.5477 62.3379 44.498 60.1625 44.4978 59.1804L44.4908 51.5793L44.4895 45.1285C44.4897 44.5308 44.5278 42.5214 44.4695 42.032C44.4519 41.8909 44.4258 41.7508 44.3913 41.6127C43.6817 41.2517 42.982 40.8715 42.293 40.4727ZM28.5412 94.682C29.0831 95.3959 29.7423 96.0907 30.6792 96.1355C33.6625 96.2783 36.6754 96.1057 39.6614 96.2976C39.5129 95.3091 39.5144 93.7268 39.5542 92.7295L38.4925 91.7976C36.9122 91.7573 35.2981 91.785 33.7306 91.6674C33.5589 91.3284 33.2953 90.9042 33.2513 90.5257C33.0798 89.0505 33.0744 77.3574 33.3756 76.491C33.5332 76.0378 34.0938 75.6636 34.5052 75.4659C34.6665 75.3884 34.8302 75.3758 35.0055 75.3671C35.0188 75.3664 35.0321 75.365 35.0455 75.3639C35.8924 75.6245 36.1423 75.7633 36.6648 76.5055C36.7582 77.3633 36.7482 78.2261 36.7548 79.0878C36.7777 82.0618 36.7154 85.0365 36.7452 88.0105C39.532 87.8854 41.5686 88.9093 42.8983 91.4005C44.0337 91.4976 45.307 91.4487 46.3399 91.5561C46.3763 90.3905 46.6402 88.7693 45.8796 87.6821C44.9067 86.2912 40.9256 87.7354 40.7202 85.9179C40.5351 84.28 40.615 82.3274 40.6148 80.7168L40.6235 70.599C38.0172 70.6367 35.4106 70.6506 32.8041 70.6408C31.8651 70.642 29.3765 70.7078 28.5844 70.5415C28.5493 70.5988 28.506 70.6695 28.4543 70.7536C28.4439 72.6913 28.4609 75.053 28.4594 76.9555L28.4538 88.193C28.4558 90.1618 28.3853 92.7815 28.5412 94.682ZM74.7979 38.6444C74.8116 37.9805 74.9153 34.795 74.7513 34.3458L74.5738 34.2674C73.3811 35.0235 64.6482 39.7555 64.3866 40.4825C64.8962 41.4628 65.2322 41.9909 65.5972 43.0414L65.8064 43.8441C68.3299 42.2909 72.1904 39.8916 74.7979 38.6444Z" fill="#1A3A8C"/>
<path d="M85.6701 0H89.3252C89.8114 0.285957 90.8221 0.420664 91.4063 0.634488C93.1745 1.28145 95.6225 3.58445 96.2026 5.41119C97.0981 8.56081 97.2766 14.5737 95.99 17.515C93.9507 22.1773 87.5369 23.7713 83.1914 21.5834C81.4386 20.7009 79.5955 19.0615 78.8985 17.1853C78.262 15.4719 78.3108 13.5904 78.2894 11.805C78.0345 6.99028 78.723 2.8799 83.5199 0.685049C84.1442 0.399405 84.9213 0.284211 85.5945 0.0290258L85.6701 0ZM88.9415 18.7709C94.1292 17.4914 93.6165 11.8977 93.0542 7.76101C92.8828 6.5001 91.7206 4.99048 90.6453 4.34532C89.4905 3.65252 87.882 3.59187 86.5729 3.73959C81.012 4.50776 82.0208 9.03336 81.9368 13.1075C81.8456 17.5357 84.8848 19.2523 88.9415 18.7709Z" fill="#1A3A8C"/>
</g>
<defs>
<clipPath id="clip0_1190_2286">
<rect width="121.094" height="100" fill="white"/>
</clipPath>
</defs>
</svg>
