<svg width="50" height="42" viewBox="0 0 50 42" fill="none" xmlns="http://www.w3.org/2000/svg">
<g clip-path="url(#clip0_1370_134)">
<path d="M34.5828 14.8537C34.7728 14.7928 35.0592 14.8877 35.2541 14.9383C35.5933 15.5461 35.4828 16.9345 35.4817 17.6767L35.4767 21.7646C35.4761 22.5013 35.3471 23.3821 35.7839 23.9858L36.3428 24.2046C36.5968 24.065 36.7609 23.9873 36.9721 23.787C37.4084 22.702 36.7536 18.6942 37.3638 18.0644C37.5363 17.8863 37.8775 17.9391 38.1079 17.9394C38.1704 17.9781 38.4401 18.1544 38.4547 18.1878C38.6882 18.721 38.6165 20.9081 38.5745 21.4375C41.5923 21.5236 43.2032 20.7085 42.9117 24.5171C42.8984 24.6898 42.9117 24.9576 42.9117 25.14C42.9178 26.8077 42.9133 28.4754 42.8972 30.1429C42.702 30.8701 42.3557 31.4052 41.5415 31.461C40.8803 31.5064 40.2234 31.4912 39.5609 31.4916L35.8692 31.4913L32.6651 31.4905C32.0827 31.4901 31.388 31.5103 30.8149 31.4354C30.5704 31.4035 30.1165 31.0367 29.883 30.8757C29.5828 30.0715 29.6869 28.8319 29.6873 27.9535L29.6861 23.7196C29.6863 23.1611 29.6144 22.4032 30.0465 21.9737C30.6426 21.381 31.3233 21.4416 32.1058 21.4394C32.7339 21.4377 33.3865 21.4469 34.0268 21.4558C34.0089 21.2609 34.0007 20.4524 34.0155 20.2814C34.0976 19.3373 33.8108 15.596 34.2051 14.9542C34.3105 14.8657 34.4429 14.8687 34.5828 14.8537ZM31.2262 30.0412C33.617 29.958 36.0814 30.0526 38.4761 30.0167C39.2884 30.0046 40.6811 30.0735 41.4206 30.0063C41.4553 29.0979 41.4464 28.1465 41.4436 27.2345C41.444 25.9449 41.5004 24.1962 41.4391 22.9458C40.5847 22.8533 39.5279 22.9874 38.6341 22.8998C38.5424 23.8387 38.5095 24.4939 37.7153 25.1638C37.277 25.5335 36.5794 25.699 36.0079 25.6318C35.4017 25.5641 34.8489 25.2531 34.4764 24.7701C34.0115 24.1677 34.0001 23.6219 34.0237 22.9111C33.2593 22.934 31.971 22.9605 31.2346 22.8982C31.2848 24.2754 31.2248 25.79 31.2398 27.1828C31.2465 27.805 31.2898 29.4888 31.2262 30.0412Z" fill="#680000"/>
<path d="M14.0505 0.382334C15.0261 0.294062 16.1645 0.53103 16.9744 1.09876C17.7035 1.61837 18.1976 2.40522 18.3488 3.28768C18.4542 3.91745 18.4491 6.36101 18.3076 6.95113C18.1923 7.41456 17.9893 7.85157 17.7097 8.23859C17.028 9.18193 16.1712 9.49238 15.0842 9.66923C13.9478 9.70121 13.162 9.64665 12.2219 8.97641C10.9139 8.04395 10.6637 6.63544 10.6779 5.13419C10.6895 3.91675 10.7122 2.89114 11.4543 1.84628C12.0674 0.983172 13.0444 0.547672 14.0505 0.382334ZM15.0193 8.15532C17.2786 7.8606 17.025 5.47097 16.9108 3.77536C16.818 2.39881 15.4083 1.74149 14.1695 1.90366C12.2178 2.44966 12.2614 3.29618 12.2108 5.05625C12.1522 7.08863 12.7173 8.27363 15.0193 8.15532Z" fill="#680000"/>
<path d="M10.1612 28.2764C10.0733 28.1979 9.86835 28.0442 9.81343 27.9887C9.34036 27.5054 9.06097 26.8654 9.02823 26.1898C8.98419 25.4191 9.01472 24.3697 9.01536 23.5761L9.01742 18.818L9.01383 15.9614C9.01133 15.4133 8.98161 14.4804 9.06814 13.9764C9.16718 13.4129 9.41875 12.8873 9.79552 12.4568C11.4445 10.609 14.4523 11.4769 16.6886 11.3062C17.5539 11.2401 18.871 12.1368 19.6273 12.5944L23.1911 14.7067C23.4808 14.8767 24.7948 15.7592 25.0558 15.6656C25.6294 15.46 26.338 14.9794 26.8821 14.6589L30.4735 12.5667C31.411 12.0265 32.5115 11.2204 33.5678 10.9854C34.7189 10.7291 36.0212 10.9139 37.2098 10.8626C39.4778 10.7648 41.594 11.5101 41.7286 14.0921C41.8 15.4549 41.6903 16.9026 41.7302 18.2732C41.7323 18.6716 41.698 19.468 41.7375 19.8208C41.2661 19.8341 40.7669 19.8143 40.3123 19.8321C40.2034 17.8813 40.3976 15.7772 40.2119 13.823C40.131 13.5869 39.8085 13.0026 39.6351 12.8534C39.4324 12.6791 38.8155 12.456 38.5555 12.4458C37.1015 12.3886 35.6129 12.4015 34.1587 12.4367C33.5741 12.4509 33.0168 12.7319 32.6841 13.2055C32.352 13.6783 32.4225 14.669 32.4222 15.2273L32.4231 17.3077C32.4235 17.7676 32.389 19.32 32.4342 19.6947C32.4397 19.7395 32.4462 19.7841 32.4537 19.8286C31.9477 19.8301 31.4221 19.8248 30.9179 19.8363C30.8937 19.1463 30.8805 18.3553 30.9028 17.666C30.0036 18.1598 29.1069 18.73 28.2246 19.2282C26.8558 20.001 25.8232 21.1324 24.1148 20.6392C23.4492 20.4471 20.2869 18.1876 19.9116 18.2106C19.7488 18.5143 19.9398 25.1665 19.838 26.2193C19.7608 27.0179 19.3562 27.7446 18.7719 28.2824C18.6299 28.4131 18.3783 28.5887 18.3062 28.7621C18.209 28.9965 18.2404 33.5139 18.2809 34.0461C19.2164 34.1967 19.5944 34.375 20.1577 35.1574C20.584 35.7495 20.6675 36.3355 20.6663 37.0515C20.6652 37.692 20.7252 38.3103 20.2367 38.8095C19.6212 39.4384 18.7211 39.1346 17.9557 39.2631C17.8938 39.2735 17.9152 39.5856 17.9924 39.6757C18.3124 39.7211 18.8924 39.6999 19.2321 39.7023C20.054 39.7118 20.876 39.7163 21.6981 39.7159L29.6332 39.7137L31.3513 39.7133C31.7586 39.7109 32.3862 39.6911 32.7766 39.7601L32.79 39.2229C31.2738 39.2504 30.1556 39.4313 30.0699 37.3977C29.9982 35.6965 30.6506 34.5323 32.4868 34.412C32.4681 33.9654 32.4868 33.5411 32.4805 33.0998C32.9813 33.1074 33.482 33.1099 33.9827 33.1072C33.9552 34.1149 34.124 34.8387 33.7958 35.7847C31.9412 36.2453 31.5814 35.2569 31.6257 37.7999C31.985 37.7849 32.6048 37.7831 32.9312 37.7454C33.1231 37.5362 33.2708 37.3151 33.4586 37.1136C34.0626 36.4654 34.769 36.3083 35.6033 36.3428C35.55 35.9265 35.5556 33.554 35.6141 33.1066C36.0092 33.1082 36.6871 33.0935 37.0615 33.1263C37.0433 34.3829 37.1211 36.0765 37.0037 37.341C36.9908 37.4803 36.7105 37.7297 36.6035 37.8576C36.0235 37.8902 35.477 37.8779 34.9137 37.9022C34.633 38.0935 34.5466 38.1744 34.3279 38.4505C34.3062 38.8298 34.3134 39.3568 34.2817 39.7057C35.0772 39.7155 35.8727 39.7209 36.6682 39.7219C37.2691 39.7239 38.3077 39.829 38.7514 39.4002C38.8601 39.2952 38.9531 39.1752 39.0275 39.0438C39.04 37.8146 39.0431 36.5853 39.0371 35.356C39.0368 34.661 39.0649 33.7629 39.0259 33.0919C39.4921 33.1302 40.0481 33.1093 40.5222 33.1079C40.5415 34.2706 40.548 35.4334 40.5415 36.5962C40.5427 37.6685 40.5625 38.6828 40.4738 39.7543C40.9633 39.6867 41.6206 39.7013 42.1242 39.7017L44.3597 39.7048L47.1931 39.7112C47.8766 39.7128 49.0274 39.6498 49.6298 39.8813C49.7569 40.062 49.8323 40.1815 50 40.3311V40.6295L49.9746 40.6476C49.7552 40.8061 49.6077 41.1645 49.2996 41.2081C48.8778 41.2682 48.3774 41.2468 47.9496 41.2428C47.2754 41.2347 46.6008 41.2307 45.9262 41.2299C39.8053 41.2266 33.6836 41.2331 27.5625 41.2335L11.4626 41.244L4.30698 41.2347C3.44413 41.2355 1.63827 41.1859 0.87423 41.2904H0V40.2223C0.161255 40.1168 0.230484 40.0199 0.351505 39.8735C0.951073 39.6414 2.0814 39.708 2.75048 39.7081H5.52952L8.3269 39.7106C8.94109 39.712 9.73125 39.7039 10.3289 39.7648C10.1392 38.6312 10.1953 37.7205 10.196 36.5787L10.1978 31.1508C10.1975 30.4229 10.236 28.967 10.1612 28.2764ZM17.4629 16.7113C17.3866 16.531 17.3141 16.3629 17.2505 16.1769C17.4761 15.5746 17.446 15.5753 18.055 15.3967C18.6193 15.6098 19.3047 16.0487 19.8457 16.3614C20.9285 16.9837 22.004 17.6187 23.0719 18.2663C23.5657 18.564 24.0964 18.9154 24.6122 19.148C25.2899 19.4536 25.8623 18.563 25.5624 17.9857C25.4079 17.6883 24.8983 17.5204 24.6039 17.3418L21.7767 15.6368L18.8615 13.9037C18.3465 13.5946 17.6546 13.0653 17.0912 12.8915C16.5244 12.7166 13.0249 12.7493 12.2488 12.7966C10.3297 12.9673 10.5579 14.7643 10.5538 16.1572L10.5508 19.1481L10.5521 23.2589C10.5531 24.201 10.5481 25.1381 10.6119 26.0845C10.6463 26.595 10.8042 26.8363 11.1725 27.2018C11.3441 27.3721 11.8367 27.5848 12.0834 27.6022C12.9737 27.6648 13.9329 27.6239 14.8314 27.6283C15.448 27.6314 16.093 27.6333 16.7016 27.6158C17.1519 27.6029 17.6808 27.3037 17.97 26.9511C18.1681 26.7062 18.2971 26.4126 18.3433 26.101C18.3939 25.7395 18.3734 24.8413 18.3733 24.4358L18.3704 21.2973L18.3698 18.6337C18.37 18.3869 18.3857 17.5572 18.3616 17.3552C18.3543 17.2969 18.3435 17.2391 18.3293 17.182C18.0363 17.033 17.7474 16.876 17.4629 16.7113ZM11.7848 39.0945C12.0085 39.3893 12.2807 39.6762 12.6675 39.6947C13.8994 39.7536 15.1434 39.6824 16.3763 39.7616C16.315 39.3535 16.3156 38.7001 16.3321 38.2883L15.8937 37.9035C15.2412 37.8869 14.5747 37.8983 13.9275 37.8498C13.8566 37.7098 13.7477 37.5347 13.7296 37.3784C13.6588 36.7693 13.6565 31.9411 13.7809 31.5834C13.846 31.3963 14.0775 31.2418 14.2473 31.1601C14.3139 31.1281 14.3815 31.1229 14.4539 31.1193C14.4594 31.1191 14.4649 31.1185 14.4704 31.118C14.8201 31.2256 14.9233 31.2829 15.139 31.5894C15.1776 31.9436 15.1735 32.2998 15.1762 32.6556C15.1856 33.8836 15.1599 35.1118 15.1722 36.3398C16.3229 36.2882 17.1638 36.711 17.7129 37.7396C18.1817 37.7797 18.7074 37.7595 19.1339 37.8038C19.1489 37.3225 19.2579 36.6531 18.9438 36.2042C18.5421 35.6299 16.8983 36.2262 16.8135 35.4758C16.7371 34.7995 16.7701 33.9933 16.77 33.3283L16.7736 29.1506C15.6974 29.1662 14.6212 29.1719 13.5449 29.1678C13.1572 29.1683 12.1296 29.1955 11.8026 29.1268C11.7881 29.1505 11.7702 29.1797 11.7489 29.2144C11.7446 30.0145 11.7516 30.9896 11.751 31.7752L11.7487 36.4152C11.7495 37.2281 11.7204 38.3098 11.7848 39.0945ZM30.8843 15.9564C30.89 15.6823 30.9328 14.367 30.865 14.1815L30.7918 14.1491C30.2993 14.4613 26.6935 16.4152 26.5854 16.7154C26.7958 17.1201 26.9346 17.3382 27.0853 17.772L27.1717 18.1034C28.2136 17.4621 29.8077 16.4714 30.8843 15.9564Z" fill="#680000"/>
<path d="M35.3735 0H36.8827C37.0834 0.118073 37.5007 0.173694 37.742 0.261982C38.4721 0.529117 39.4828 1.48003 39.7224 2.2343C40.0921 3.53479 40.1658 6.01754 39.6346 7.23202C38.7926 9.1571 36.1443 9.81524 34.35 8.91185C33.6263 8.54746 32.8653 7.87056 32.5775 7.09589C32.3146 6.38839 32.3348 5.61153 32.3259 4.87431C32.2207 2.88631 32.505 1.18912 34.4857 0.282859C34.7434 0.164916 35.0643 0.117352 35.3423 0.0119848L35.3735 0ZM36.7242 7.75056C38.8663 7.22226 38.6546 4.91258 38.4224 3.20454C38.3516 2.68391 37.8717 2.06058 37.4278 1.7942C36.9509 1.50814 36.2868 1.4831 35.7462 1.54409C33.4501 1.86127 33.8667 3.7299 33.832 5.41214C33.7943 7.24056 35.0492 7.94935 36.7242 7.75056Z" fill="#680000"/>
</g>
<defs>
<clipPath id="clip0_1370_134">
<rect width="50" height="41.2903" fill="white"/>
</clipPath>
</defs>
</svg>
