<svg width="98" height="100" viewBox="0 0 98 100" fill="none" xmlns="http://www.w3.org/2000/svg">
<path d="M9.19434 1.65297C9.65987 1.56671 12.8237 1.60169 13.4795 1.60159L23.357 1.60295L43.113 1.59948C46.9774 1.59812 50.884 1.54433 54.7433 1.66665C55.5255 1.69144 58.1328 4.52554 58.808 5.20716L63.0811 9.49279L70.6085 17.0339C71.2033 17.6297 75.1161 21.3467 75.2889 22.0645C75.4513 22.7391 75.3883 25.9254 75.3872 26.823L75.3741 39.9495C75.3726 41.8286 75.3499 43.9398 75.3944 45.8154C75.6338 47.0105 76.5931 48.3119 77.0068 49.4214C79.558 56.2635 79.0015 63.0539 75.2128 69.3536C75.89 69.76 77.2738 70.9835 77.9401 71.5392L83.2922 76.0261L90.4499 81.9975C91.8349 83.1502 93.5276 84.405 94.7104 85.7426C99.096 90.7024 94.695 98.2633 88.3642 97.7738C85.1849 97.5276 83.5552 95.3004 81.6795 93.048C79.9126 90.8761 76.8267 87.5215 75.3462 85.3042C75.4736 88.4432 75.6544 91.4847 73.6847 94.0768C72.4982 95.6379 70.245 97.02 68.3283 97.1664C65.6585 97.3698 62.3929 97.2662 59.6876 97.2653L41.9752 97.2567L19.6712 97.2577L12.7975 97.2691C11.533 97.271 9.81966 97.3166 8.5978 97.193C7.13475 97.0362 5.74239 96.482 4.57114 95.5913C0.971475 92.8667 1.37567 89.4043 1.37688 85.3745L1.38088 78.2815L1.3775 53.7014L1.37545 23.6892L1.37564 14.3183C1.37605 12.7569 1.31246 10.402 1.44527 8.90589C1.57682 7.42188 2.1328 6.0071 3.04679 4.83056C4.723 2.66573 6.61225 1.97705 9.19434 1.65297ZM72.0621 81.6569C71.1542 80.1808 69.1056 78.1386 67.9969 76.5652C66.6965 77.262 65.6783 77.8246 64.2996 78.3586C59.7687 80.1149 54.7847 80.3259 50.1216 78.9587C49.1274 78.6589 47.0968 77.727 46.2239 77.7017C43.5967 77.6251 40.8331 77.6637 38.2011 77.667L22.6709 77.6694L18.0354 77.6706C16.1422 77.6723 14.7137 78.1287 14.3464 75.8402C14.5777 75.3429 14.7703 74.7899 15.3292 74.5836C16.2041 74.2606 39.0938 74.4045 41.9849 74.4662C39.8741 72.9283 37.0336 69.1809 36.1295 66.7221C32.5969 66.8073 28.8786 66.7486 25.3327 66.7465L19.151 66.7586C17.8442 66.7617 16.0153 66.9687 14.892 66.325C13.9518 64.7448 14.4692 63.3861 16.3946 63.4216C22.524 63.5348 28.8288 63.2257 34.9401 63.4244C34.3455 61.5781 34.0565 57.6441 34.3024 55.7395C28.7751 55.905 23.069 55.5796 17.5241 55.7393C16.6333 55.765 15.7507 55.7641 14.9194 55.414C13.9048 53.8035 14.4448 52.481 16.4307 52.4263C22.5261 52.2583 28.7437 52.6068 34.8258 52.4126C35.5912 49.7114 36.6124 47.0098 38.3557 44.7717L23.0483 44.7725L18.7979 44.7777C17.3704 44.7924 14.3196 45.2573 14.4088 43.0615C14.4552 41.9213 15.2355 41.504 16.2746 41.4741C18.9949 41.3957 21.7231 41.4346 24.4454 41.435L41.1676 41.4347C42.2094 40.6152 43.1686 39.7718 44.2775 39.0336C52.7925 33.3646 65.0257 34.5596 72.1575 42.0533C71.9911 41.126 72.0388 39.7461 72.0389 38.7751L72.0404 34.1009L72.046 27.7039C72.0472 26.6211 72.0073 25.194 72.0772 24.1485L60.9283 24.1719C58.918 24.1749 56.8479 24.2019 54.8388 24.1507C54.5104 24.1423 53.6102 23.9799 53.3722 23.7585C53.1301 23.5334 52.8353 22.9657 52.823 22.6326C52.7572 20.8331 52.7847 18.9021 52.7844 17.107C52.7838 13.4071 52.7842 9.73151 52.7869 6.03385C52.7872 5.70738 52.8274 5.25665 52.8638 4.93334L21.8077 4.94754C17.6096 4.92959 13.4114 4.93809 9.21333 4.97305C5.90641 5.50675 4.60918 7.61733 4.65039 10.821C4.67241 12.5322 4.65423 14.3164 4.65868 16.0337L4.6641 26.6883L4.6615 61.2402L4.66071 80.81L4.65437 86.4203C4.65354 88.9076 4.38123 91.3988 6.71355 93.0367C8.63942 94.3893 11.7402 94.022 14.0262 94.0176L21.8095 94.0122L46.5201 94.0105L60.5792 94.0134C62.5717 94.0188 66.0767 94.2321 67.8557 93.9012C69.18 93.6549 70.4347 92.9072 71.1972 91.7838C72.5564 89.7815 71.9734 84.2678 72.0621 81.6569ZM54.7805 38.8449C44.3957 39.7211 36.6855 48.8472 37.5562 59.2325C38.4268 69.6178 47.5487 77.3328 57.9344 76.4678C68.3281 75.6022 76.0504 66.4718 75.1792 56.0786C74.3079 45.6853 65.1734 37.968 54.7805 38.8449Z" fill="#1A3A8C"/>
<path d="M15.8248 30.5461C16.8639 30.4846 18.3148 30.5254 19.3862 30.5261L25.863 30.5316C29.9786 30.5346 34.1167 30.5088 38.2332 30.5397C38.4649 30.5601 38.9822 30.5546 39.1704 30.6856C40.5302 31.632 40.1964 33.2438 38.6962 33.727C33.5893 33.9331 28.2114 33.6269 23.071 33.7424C20.6649 33.7965 17.8105 33.8425 15.4295 33.6977C13.9681 32.7877 13.9826 30.9326 15.8248 30.5461Z" fill="#1A3A8C"/>
</svg>
