<svg width="50" height="52" viewBox="0 0 50 52" fill="none" xmlns="http://www.w3.org/2000/svg">
<path d="M4.72285 0.849062C4.96198 0.804751 6.58718 0.822719 6.92404 0.822671L11.9978 0.823369L22.1459 0.821586C24.1309 0.820888 26.1377 0.793256 28.1201 0.856088C28.5218 0.868823 29.8612 2.32462 30.208 2.67475L32.403 4.87616L36.2696 8.7498C36.5751 9.05586 38.585 10.9652 38.6738 11.3339C38.7572 11.6804 38.7248 13.3171 38.7242 13.7782L38.7175 20.5209C38.7168 21.4861 38.7051 22.5706 38.728 23.5341C38.8509 24.1479 39.3437 24.8165 39.5562 25.3864C40.8667 28.9009 40.5808 32.389 38.6347 35.625C38.9825 35.8337 39.6934 36.4622 40.0356 36.7477L42.7848 39.0524L46.4615 42.1198C47.173 42.7119 48.0425 43.3564 48.65 44.0436C50.9028 46.5913 48.6422 50.4751 45.3902 50.2236C43.7571 50.0972 42.9199 48.9531 41.9564 47.7961C41.0489 46.6805 39.4637 44.9573 38.7032 43.8184C38.7686 45.4308 38.8615 46.9931 37.8497 48.3246C37.2403 49.1265 36.0829 49.8364 35.0983 49.9116C33.7269 50.0161 32.0494 49.9629 30.6598 49.9624L21.5614 49.958L10.1045 49.9585L6.5737 49.9644C5.92414 49.9653 5.04406 49.9888 4.41643 49.9253C3.6649 49.8447 2.94968 49.5601 2.34805 49.1025C0.499 47.703 0.706622 45.9245 0.707247 43.8544L0.709298 40.211L0.707565 27.5849L0.70651 12.1685L0.706608 7.35488C0.706818 6.55283 0.674157 5.34321 0.742374 4.57468C0.809948 3.81239 1.09554 3.08565 1.56503 2.4813C2.42605 1.36929 3.39651 1.01553 4.72285 0.849062ZM37.0162 41.9448C36.5499 41.1866 35.4976 40.1376 34.9281 39.3293C34.2601 39.6873 33.7371 39.9763 33.0289 40.2506C30.7015 41.1527 28.1413 41.2611 25.746 40.5588C25.2353 40.4048 24.1923 39.9262 23.7439 39.9131C22.3944 39.8738 20.9748 39.8937 19.6228 39.8953L11.6454 39.8966L9.26428 39.8972C8.29177 39.898 7.55798 40.1325 7.36931 38.9569C7.48816 38.7015 7.58708 38.4174 7.87414 38.3115C8.32356 38.1456 20.0814 38.2195 21.5664 38.2512C20.4822 37.4612 19.0231 35.5363 18.5587 34.2732C16.7441 34.317 14.8341 34.2869 13.0127 34.2858L9.83733 34.292C9.16604 34.2936 8.22658 34.3999 7.64958 34.0693C7.16662 33.2576 7.43239 32.5596 8.42141 32.5779C11.5699 32.636 14.8085 32.4772 17.9477 32.5793C17.6423 31.6309 17.4939 29.6101 17.6201 28.6318C14.7809 28.7168 11.8499 28.5497 9.00163 28.6317C8.54406 28.6449 8.09069 28.6444 7.66364 28.4646C7.1425 27.6373 7.41985 26.958 8.43996 26.9299C11.571 26.8436 14.7648 27.0226 17.889 26.9229C18.2822 25.5353 18.8068 24.1476 19.7022 22.9979L11.8392 22.9983L9.65593 23.001C8.92268 23.0086 7.35554 23.2474 7.40139 22.1194C7.42522 21.5338 7.82605 21.3194 8.35979 21.3041C9.75715 21.2638 11.1585 21.2838 12.5569 21.284L21.1466 21.2838C21.6818 20.8628 22.1745 20.4296 22.7441 20.0504C27.118 17.1384 33.4019 17.7522 37.0653 21.6016C36.9798 21.1252 37.0043 20.4164 37.0043 19.9177L37.0051 17.5167L37.008 14.2307C37.0086 13.6745 36.9881 12.9414 37.024 12.4044L31.2971 12.4164C30.2645 12.418 29.2011 12.4318 28.1691 12.4055C28.0005 12.4012 27.538 12.3178 27.4158 12.2041C27.2914 12.0884 27.14 11.7968 27.1337 11.6257C27.0999 10.7014 27.114 9.70947 27.1138 8.78735C27.1135 6.88682 27.1137 4.99878 27.1151 3.09939C27.1153 2.9317 27.1359 2.70017 27.1546 2.5341L11.202 2.54139C9.04553 2.53217 6.88903 2.53653 4.73261 2.55449C3.03394 2.82864 2.36759 3.91278 2.38876 5.5584C2.40006 6.4374 2.39073 7.35391 2.39301 8.23603L2.3958 13.709L2.39446 31.4573L2.39406 41.5098L2.3908 44.3916C2.39037 45.6693 2.25049 46.949 3.44854 47.7903C4.43781 48.4851 6.03059 48.2964 7.20486 48.2942L11.2029 48.2914L23.8961 48.2905L31.1178 48.292C32.1413 48.2948 33.9417 48.4043 34.8555 48.2344C35.5358 48.1079 36.1803 47.7238 36.572 47.1467C37.2701 46.1182 36.9707 43.286 37.0162 41.9448ZM28.1392 19.9535C22.8048 20.4036 18.8443 25.0914 19.2915 30.426C19.7387 35.7607 24.4244 39.7237 29.7592 39.2793C35.0982 38.8347 39.0649 34.1447 38.6174 28.806C38.1698 23.4672 33.4777 19.5031 28.1392 19.9535Z" fill="#680000"/>
<path d="M8.12876 15.6906C8.6625 15.6591 9.40781 15.68 9.95815 15.6803L13.2851 15.6832C15.3992 15.6847 17.5248 15.6715 19.6393 15.6873C19.7583 15.6978 20.0241 15.695 20.1208 15.7623C20.8192 16.2484 20.6478 17.0763 19.8771 17.3246C17.2539 17.4304 14.4914 17.2732 11.8509 17.3325C10.615 17.3603 9.14878 17.3839 7.92573 17.3095C7.17505 16.8421 7.18247 15.8892 8.12876 15.6906Z" fill="#680000"/>
</svg>
