<svg width="50" height="50" viewBox="0 0 50 50" fill="none" xmlns="http://www.w3.org/2000/svg">
<g clip-path="url(#clip0_1370_229)">
<path d="M17.068 0.558914C20.2798 0.433757 23.4613 1.22186 26.2433 2.83178C30.0453 5.01302 33.027 8.79236 34.1723 13.0324C34.5884 14.5587 34.8097 16.1315 34.8309 17.7133C34.8412 20.0622 34.1267 23.4074 32.9385 25.4727C32.9587 25.4854 32.9788 25.4982 32.9988 25.5112C33.735 25.9927 34.4745 27.3776 34.6226 28.247C34.9697 30.2859 34.6243 31.2861 33.5689 32.8961C33.9383 33.146 34.9663 34.218 35.2764 34.577C36.0255 34.1386 36.5571 33.8803 37.4323 33.8108C39.6173 33.6372 40.9594 35.4865 42.3652 36.8916L46.2006 40.7292L48.1588 42.6808C48.7881 43.3073 49.5513 43.8522 49.5601 44.7974C49.5713 46.0748 48.1416 46.8798 47.3677 47.7628C46.8916 48.3059 46.3046 48.8852 45.7475 49.3325C45.1999 49.7524 44.301 49.7563 43.7823 49.2895C41.9941 47.6803 40.3225 45.8449 38.5888 44.1767C37.7994 43.2769 36.7781 42.428 35.9598 41.5428C35.458 41 34.8438 40.5106 34.4224 39.896C34.1531 39.506 33.9611 39.0679 33.8568 38.6054C33.5957 37.4041 33.8812 36.3658 34.5283 35.3574C34.0504 34.8547 33.3124 34.1178 32.8031 33.6571C31.5478 34.4823 30.3571 34.9879 28.8001 34.8002C27.5657 34.6513 26.1719 34.0119 25.4057 33.0012C23.6156 34.0946 20.4305 34.7971 18.3551 34.8885C13.7685 35.0592 9.30258 33.3969 5.94375 30.2688C2.5559 27.1555 0.615876 22.7928 0.493678 18.1992C0.2406 8.68567 7.55425 0.918856 17.068 0.558914ZM17.3585 33.7777C26.2278 33.9374 33.55 26.8823 33.7199 18.0132C33.8898 9.14402 26.8432 1.81367 17.9742 1.63355C9.09082 1.45314 1.74588 8.5138 1.57571 17.3974C1.40554 26.281 8.47466 33.6178 17.3585 33.7777ZM44.4361 40.4948C43.9903 40.0577 42.5041 38.445 42.1056 38.2021C41.6823 39.0837 40.0867 40.8728 39.1292 41.1718C38.4766 41.3756 38.3162 41.2915 37.6297 41.7143C38.256 42.2438 39.3706 43.3863 39.9456 44.0035C41.0264 43.0465 41.1444 43.544 42.1697 42.9785C42.9971 42.5222 43.8063 41.1413 44.4361 40.4948ZM44.3845 48.4036C44.5614 48.4972 44.7816 48.5651 44.9811 48.5018C45.3354 48.3894 48.2778 45.3885 48.4651 44.987C48.5118 44.8868 48.5308 44.822 48.4872 44.7172C48.4118 44.536 48.2647 44.3617 48.1344 44.2152C47.4897 43.4908 46.7547 42.8193 46.0677 42.1334C45.7886 41.8548 45.5007 41.4849 45.2015 41.2449C44.4127 42.327 43.3859 43.762 42.0802 44.2429C41.6392 44.4054 40.9436 44.3167 40.8024 44.8195C41.2183 45.3307 42.1756 46.2104 42.6915 46.7337C43.0819 47.1298 43.9951 48.0767 44.3845 48.4036ZM32.4029 26.4288C32.196 26.9328 31.795 27.4606 31.4669 27.9044C29.9484 29.958 28.4532 31.1728 26.342 32.5154C26.8673 32.8825 27.3839 33.3126 28.0134 33.4944C32.1324 34.8314 35.3518 30.1371 32.728 26.7595C32.6311 26.6346 32.556 26.4852 32.4029 26.4288ZM37.4266 34.9309C35.8546 35.0499 34.7423 36.4016 34.8732 37.9643C34.95 38.8822 35.3416 39.3947 35.9751 40.0153C36.2465 40.2806 36.5562 40.7028 36.9213 40.8242C37.3074 40.7423 37.4958 40.3776 38.3184 40.2583C39.4585 39.9878 40.8566 38.4261 41.3293 37.4178C40.328 36.3398 39.0444 34.7165 37.4266 34.9309Z" fill="#680000"/>
<path d="M16.7407 3.85228C24.4022 3.35085 31.0147 9.16612 31.4964 16.8289C31.978 24.4917 26.1457 31.0892 18.4816 31.5509C10.8456 32.0111 4.27749 26.2046 3.79762 18.5698C3.31775 10.935 9.10718 4.35188 16.7407 3.85228ZM9.86123 27.867C9.74439 26.8416 9.86318 25.0218 9.8354 23.9413C9.82031 23.3549 9.80625 21.5135 9.88726 21.035C9.95679 20.6206 10.1282 20.2299 10.386 19.8982C10.986 19.13 11.9052 18.9715 12.8147 18.9947C13.4772 19.0117 14.1572 18.9829 14.818 19.0128C14.8088 18.7837 14.7978 18.5554 14.7985 18.3261C12.8173 16.7913 12.7227 15.1065 12.7565 12.7917C12.7831 10.98 12.6693 9.64717 13.8613 8.12086C14.632 7.13599 15.7628 6.49815 17.0043 6.34805C17.4804 6.2898 17.9418 6.31207 18.4183 6.35801C19.809 6.66407 20.9352 7.28228 21.7202 8.51295C22.04 9.01446 22.2648 9.57052 22.3835 10.1534C22.6541 11.4988 22.4717 14.0962 22.3617 15.5364C22.3125 16.1799 21.5932 17.2612 21.1432 17.7235C20.6742 18.2052 20.5081 18.3359 20.4914 19.0139C21.6975 18.963 23.7357 18.7989 24.6789 19.6553C25.9119 20.7748 25.4104 23.1669 25.517 24.7164C25.5702 25.4878 25.5897 27.0641 25.4737 27.7824C27.9357 26.0076 29.7699 22.8142 30.2492 19.8377C30.7984 16.4457 29.9836 12.9741 27.9826 10.1807C25.9007 7.31788 22.9069 5.59151 19.4227 5.04971C18.5648 4.91759 17.6947 4.88399 16.8292 4.94957C13.1913 5.29957 10.1406 6.71417 7.78296 9.5713C5.61069 12.2198 4.58587 15.6261 4.93613 19.0336C5.19424 21.7113 6.42661 24.3933 8.24531 26.3654C8.84854 27.0195 9.27681 27.3145 9.86123 27.867ZM14.8236 20.1166C13.9245 20.1231 12.8682 20.0933 11.9893 20.1324C11.3719 20.3544 10.9425 20.7713 10.9001 21.4638C10.8495 22.291 10.8738 23.1442 10.8755 23.9753L10.8817 28.5644C11.8892 29.1234 12.502 29.4079 13.5731 29.8398C13.5239 29.2417 13.1186 24.8633 14.5696 26.0341C14.7667 26.1932 14.6714 29.6541 14.6615 30.1489C16.7698 30.5529 18.466 30.5874 20.5808 30.1495C20.5409 29.2087 20.5689 28.2714 20.5647 27.319C20.5629 26.921 20.5163 25.9262 21.0871 25.8247C21.2508 25.7956 21.5575 25.985 21.665 26.1205C21.753 27.3244 21.664 28.6336 21.7053 29.8541C22.6924 29.3839 23.3711 29.1109 24.395 28.5919C24.4323 27.9858 24.426 27.3085 24.4158 26.7002C24.3859 24.9014 24.4703 23.0718 24.3773 21.2787C24.3421 20.5986 23.5721 20.1319 22.939 20.1164C22.1405 20.0967 21.3099 20.1656 20.5217 20.109C20.509 20.7724 20.5075 21.2699 20.2008 21.8835C19.7148 22.856 18.6801 23.5258 17.5779 23.4876C16.7994 23.4593 16.0645 23.1207 15.5372 22.5472C15.009 21.966 14.7587 21.1715 14.8012 20.3932C14.8065 20.3008 14.814 20.2086 14.8236 20.1166ZM15.8743 18.9194C15.9484 19.5897 15.8223 20.3694 15.9466 20.9906C16.2428 22.4695 18.1312 22.8563 19.0482 21.6904C19.0608 21.6744 19.0733 21.6582 19.0856 21.6419C19.5759 20.8573 19.3361 19.8693 19.4208 18.9019C17.8636 19.4688 17.3952 19.3634 15.8743 18.9194ZM21.3859 11.5359C21.3666 11.2993 21.3426 11.0312 21.3434 10.795C21.3468 9.84757 20.7727 8.87569 20.0619 8.27618C19.3459 7.68458 18.441 7.37061 17.5125 7.3918C15.6951 7.53843 14.9254 8.32242 14.1007 9.83668C15.516 9.75128 16.2989 9.95201 17.4231 10.8001C17.62 10.9485 18.1536 11.2944 18.3743 11.37C19.1871 11.717 20.5113 11.6638 21.3859 11.5359ZM14.2767 10.9146C14.0274 10.9344 14.0551 10.8906 13.9201 11.0325C13.8328 11.3346 13.8836 14.4564 13.9388 14.999C13.9706 15.3123 14.2112 15.9318 14.3748 16.2301C14.8577 17.1008 15.6674 17.7435 16.6251 18.0161C17.875 18.3766 19.0162 18.0679 20.0333 17.2946C21.8756 15.5248 21.1355 14.8393 21.3744 12.6874C20.4957 12.7335 19.3613 12.8227 18.5211 12.5774C16.6252 12.0241 16.4637 10.7817 14.2767 10.9146Z" fill="#680000"/>
</g>
<defs>
<clipPath id="clip0_1370_229">
<rect width="50" height="50" fill="white"/>
</clipPath>
</defs>
</svg>
