<svg width="100" height="100" viewBox="0 0 100 100" fill="none" xmlns="http://www.w3.org/2000/svg">
<path d="M34.136 1.11783C40.5597 0.867515 46.9226 2.44372 52.4865 5.66355C60.0906 10.026 66.0539 17.5847 68.3446 26.0648C69.1769 29.1173 69.6194 32.2629 69.6618 35.4266C69.6824 40.1244 68.2534 46.8149 65.877 50.9455C65.9174 50.9708 65.9576 50.9964 65.9976 51.0224C67.47 51.9854 68.949 54.7551 69.2451 56.4939C69.9394 60.5717 69.2486 62.5722 67.1378 65.7921C67.8767 66.2919 69.9325 68.436 70.5527 69.154C72.0511 68.2772 73.1143 67.7607 74.8646 67.6216C79.2346 67.2744 81.9187 70.973 84.7305 73.7833L92.4013 81.4585L96.3177 85.3616C97.5762 86.6145 99.1025 87.7045 99.1201 89.5949C99.1426 92.1497 96.2833 93.7596 94.7354 95.5255C93.7831 96.6119 92.6092 97.7705 91.495 98.665C90.3999 99.5048 88.602 99.5127 87.5645 98.5791C83.9882 95.3605 80.645 91.6899 77.1776 88.3535C75.5988 86.5538 73.5561 84.856 71.9195 83.0855C70.916 82 69.6877 81.0212 68.8448 79.792C68.3061 79.012 67.9222 78.1357 67.7137 77.2109C67.1914 74.8082 67.7624 72.7317 69.0565 70.7148C68.1009 69.7094 66.6248 68.2356 65.6061 67.3142C63.0957 68.9645 60.7143 69.9757 57.6002 69.6004C55.1313 69.3027 52.3437 68.0239 50.8113 66.0024C47.2312 68.1891 40.861 69.5942 36.7102 69.7769C27.537 70.1183 18.6052 66.7938 11.8875 60.5377C5.1118 54.311 1.23175 45.5855 0.987357 36.3985C0.481201 17.3713 15.1085 1.83771 34.136 1.11783ZM34.717 67.5554C52.4556 67.8748 67.1 53.7645 67.4397 36.0263C67.7796 18.288 53.6863 3.62735 35.9484 3.26711C18.1816 2.90628 3.49175 17.0276 3.15142 34.7949C2.81108 52.5621 16.9493 67.2356 34.717 67.5554ZM88.8722 80.9895C87.9806 80.1154 85.0081 76.8899 84.2111 76.4043C83.3645 78.1673 80.1734 81.7457 78.2585 82.3436C76.9532 82.7511 76.6323 82.583 75.2595 83.4287C76.512 84.4877 78.7411 86.7725 79.8912 88.0071C82.0528 86.093 82.2888 87.088 84.3394 85.9571C85.9941 85.0445 87.6127 82.2827 88.8722 80.9895ZM88.7689 96.8073C89.1228 96.9945 89.5633 97.1302 89.9621 97.0037C90.6709 96.7788 96.5557 90.7769 96.9302 89.9741C97.0236 89.7737 97.0616 89.6441 96.9744 89.4343C96.8236 89.0719 96.5295 88.7234 96.2687 88.4303C94.9795 86.9817 93.5094 85.6386 92.1354 84.2669C91.5772 83.7096 91.0015 82.9698 90.403 82.4898C88.8255 84.654 86.7718 87.5241 84.1603 88.4859C83.2783 88.8108 81.8871 88.6335 81.6049 89.639C82.4365 90.6614 84.3513 92.4209 85.3829 93.4673C86.1638 94.2595 87.9902 96.1534 88.7689 96.8073ZM64.8058 52.8576C64.392 53.8656 63.59 54.9211 62.9338 55.8087C59.8968 59.9161 56.9064 62.3457 52.6841 65.0307C53.7347 65.7651 54.7678 66.6252 56.0269 66.9887C64.2647 69.6629 70.7036 60.2743 65.4561 53.5189C65.2621 53.2692 65.1119 52.9705 64.8058 52.8576ZM74.8531 69.8618C71.7093 70.0999 69.4846 72.8032 69.7464 75.9287C69.9001 77.7643 70.6832 78.7893 71.9503 80.0305C72.493 80.5612 73.1125 81.4055 73.8427 81.6485C74.6147 81.4845 74.9916 80.7551 76.6367 80.5167C78.917 79.9756 81.7133 76.8522 82.6587 74.8356C80.656 72.6796 78.0888 69.4331 74.8531 69.8618Z" fill="#680000"/>
<path d="M33.4814 7.70456C48.8045 6.7017 62.0295 18.3322 62.9928 33.6578C63.9561 48.9834 52.2913 62.1783 36.9633 63.1019C21.6912 64.0222 8.55497 52.4093 7.59524 37.1397C6.63551 21.87 18.2144 8.70376 33.4814 7.70456ZM19.7225 55.7341C19.4888 53.6831 19.7264 50.0436 19.6708 47.8826C19.6406 46.7099 19.6125 43.0271 19.7745 42.0699C19.9136 41.2411 20.2563 40.4599 20.772 39.7963C21.9721 38.26 23.8104 37.943 25.6295 37.9895C26.9543 38.0234 28.3145 37.9658 29.636 38.0256C29.6176 37.5675 29.5955 37.1109 29.597 36.6523C25.6346 33.5825 25.4453 30.213 25.5131 25.5834C25.5662 21.96 25.3387 19.2943 27.7226 16.2417C29.264 14.272 31.5256 12.9963 34.0087 12.6961C34.9608 12.5796 35.8837 12.6241 36.8366 12.716C39.618 13.3281 41.8704 14.5646 43.4404 17.0259C44.08 18.0289 44.5296 19.141 44.767 20.3068C45.3082 22.9976 44.9434 28.1923 44.7233 31.0728C44.625 32.3599 43.1864 34.5224 42.2863 35.447C41.3484 36.4104 41.0162 36.6718 40.9828 38.0278C43.395 37.926 47.4714 37.5979 49.3578 39.3106C51.8237 41.5495 50.8207 46.3339 51.0341 49.4327C51.1403 50.9756 51.1793 54.1282 50.9475 55.5648C55.8714 52.0152 59.5399 45.6284 60.4984 39.6754C61.5969 32.8914 59.9673 25.9483 55.9652 20.3614C51.8014 14.6358 45.8139 11.183 38.8453 10.0994C37.1296 9.83517 35.3894 9.76798 33.6584 9.89913C26.3825 10.5991 20.2813 13.4283 15.5659 19.1426C11.2214 24.4397 9.17175 31.2523 9.87227 38.0673C10.3885 43.4226 12.8532 48.7866 16.4906 52.7309C17.6971 54.0391 18.5536 54.629 19.7225 55.7341ZM29.6472 40.2332C27.849 40.2462 25.7364 40.1866 23.9785 40.2649C22.7438 40.7087 21.8851 41.5427 21.8003 42.9276C21.6989 44.582 21.7477 46.2884 21.751 47.9506L21.7634 57.1287C23.7784 58.2468 25.004 58.8158 27.1463 59.6795C27.0478 58.4833 26.2371 49.7267 29.1392 52.0683C29.5335 52.3864 29.3428 59.3081 29.323 60.2979C33.5396 61.1058 36.932 61.1748 41.1616 60.299C41.0817 58.4175 41.1378 56.5428 41.1293 54.638C41.1258 53.842 41.0325 51.8524 42.1741 51.6494C42.5016 51.5912 43.115 51.97 43.3301 52.241C43.5061 54.6488 43.328 57.2672 43.4106 59.7082C45.3849 58.7679 46.7422 58.2219 48.7899 57.1837C48.8646 55.9715 48.852 54.6169 48.8316 53.4003C48.7719 49.8027 48.9405 46.1436 48.7547 42.5574C48.6843 41.1972 47.1442 40.2639 45.878 40.2327C44.281 40.1935 42.6197 40.3312 41.0435 40.2181C41.018 41.5447 41.0149 42.5398 40.4017 43.767C39.4297 45.712 37.3603 47.0517 35.1558 46.9751C33.5987 46.9187 32.129 46.2413 31.0744 45.0944C30.018 43.9319 29.5174 42.343 29.6024 40.7863C29.6131 40.6017 29.6279 40.4172 29.6472 40.2332ZM31.7485 37.8389C31.8969 39.1794 31.6445 40.7388 31.8933 41.9813C32.4855 44.9391 36.2623 45.7126 38.0964 43.3809C38.1217 43.3487 38.1466 43.3163 38.1712 43.2837C39.1519 41.7147 38.6723 39.7387 38.8416 37.8038C35.7272 38.9376 34.7904 38.7269 31.7485 37.8389ZM42.7719 23.0719C42.7332 22.5986 42.6852 22.0623 42.6868 21.5901C42.6937 19.6951 41.5454 17.7514 40.1237 16.5524C38.6919 15.3692 36.8819 14.7412 35.025 14.7836C31.3902 15.0769 29.8509 16.6448 28.2014 19.6734C31.0319 19.5026 32.5978 19.904 34.8462 21.6001C35.2399 21.8971 36.3071 22.5889 36.7485 22.74C38.3742 23.4341 41.0227 23.3276 42.7719 23.0719ZM28.5534 21.8291C28.0548 21.8688 28.1103 21.7813 27.8402 22.0651C27.6655 22.6693 27.7672 28.9128 27.8775 29.9981C27.9412 30.6245 28.4225 31.8636 28.7495 32.4603C29.7154 34.2017 31.3349 35.487 33.2502 36.0322C35.7499 36.7532 38.0324 36.1359 40.0666 34.5892C43.7513 31.0495 42.2711 29.6785 42.7487 25.3747C40.9914 25.4669 38.7227 25.6453 37.0422 25.1548C33.2505 24.0482 32.9273 21.5635 28.5534 21.8291Z" fill="#680000"/>
</svg>
