<svg width="186" height="73" viewBox="0 0 186 73" fill="none" xmlns="http://www.w3.org/2000/svg">
<path d="M40.779 5.44555C42.4977 5.31338 45.5412 5.86314 47.316 6.18232C48.9541 6.47691 51.2591 7.07278 52.8478 7.59317C54.0186 7.95994 55.1597 8.74317 56.2322 9.2497C60.4383 11.2363 63.9895 14.438 66.7805 18.1296C67.1694 18.6442 68.9283 20.7272 68.7944 21.4261C68.5208 21.7337 66.611 22.3498 66.0789 22.5589C61.0687 24.5286 55.493 26.0386 50.1879 26.9151C47.4138 27.3735 44.3238 27.5634 41.5363 27.8515C39.2758 27.9209 36.9346 27.9309 34.674 27.8178C33.4183 27.7659 32.1146 27.4692 30.8739 27.3894C27.6057 27.1744 24.3772 26.7706 21.2206 25.8601C20.3059 25.5962 13.0986 24.1444 13.2717 23.356C13.766 21.1054 15.8745 18.5947 17.319 16.7422C19.1474 14.3972 21.9812 12.1942 24.4453 10.4994C24.6855 10.3649 24.9488 10.1925 25.2006 10.0825C26.7901 9.38833 28.39 8.20877 30.0228 7.66607C33.4522 6.52621 37.1886 5.84165 40.779 5.44555Z" fill="white"/>
<path d="M70.2652 24.6534C71.1012 24.9346 72.4417 30.2958 72.5663 31.3088C72.8914 33.5051 72.7281 35.7976 72.7851 37.9947C73.0624 47.8583 67.1203 57.6401 58.9874 62.959C56.2398 64.7558 52.7078 66.3316 49.5085 67.0512C48.5469 67.2676 47.5201 67.6158 46.5583 67.7727C42.0636 68.5061 37.4243 68.2665 33.0621 66.9341C31.4617 66.4532 30.05 66.168 28.4782 65.4274C27.7354 65.0395 23.574 62.908 23.3653 62.4374C23.4092 61.7391 23.1028 62.185 22.8853 61.7843C23.0444 61.6067 23.4713 61.6596 23.7412 61.59C26.7569 60.8117 29.7363 59.7185 32.6332 58.5778C33.5157 58.251 34.4593 57.6743 35.3292 57.3517C37.2861 56.6258 38.8422 55.8684 40.5563 54.6867C41.7812 54.0505 42.861 53.4895 44.0196 52.728C45.7662 51.5801 47.5588 50.4414 49.2569 49.2119C49.9209 48.7311 50.5333 48.1233 51.1702 47.6136C57.507 42.6347 62.9712 36.6363 67.3392 29.864C68.4722 28.0687 69.6197 26.6976 70.2652 24.6534Z" fill="white"/>
<path d="M61.3223 29.6752L61.4398 29.7196L61.4564 29.8343C61.173 30.2202 60.8449 30.3793 60.5389 30.692C59.4334 31.822 58.2798 32.6 57.093 33.5513C54.3847 35.7223 51.6086 37.6892 48.6247 39.4671C47.9145 39.8919 47.0824 40.2247 46.379 40.6448C44.3839 41.8359 42.3568 42.8021 40.1894 43.6336C39.3582 43.9524 38.5069 44.5299 37.6552 44.8324C36.7641 45.1488 35.8453 45.4336 34.9431 45.7253C32.665 46.4675 30.3693 47.1539 28.0577 47.7839C25.6732 48.4458 22.9776 48.7455 20.5332 49.2002C19.1803 49.4518 17.57 49.4989 16.2113 49.7007C14.8048 49.9097 12.3313 50.3598 11.9941 48.4694C11.8989 48.0257 11.7397 47.5341 11.6228 47.0883C11.2174 45.4116 10.7261 44.1378 10.4617 42.3237C10.1663 40.2979 10.3569 38.347 10.1948 36.4203C10.8154 36.4563 11.6479 36.6485 12.2786 36.7672L15.337 37.3262C16.7686 37.586 19.1467 37.8216 20.6266 37.9296C31.0795 38.714 41.5816 37.3252 51.4713 33.8508C52.2185 33.5905 53.0606 33.3299 53.8248 33.1127C56.0666 32.4755 57.9136 31.0696 60.1285 30.349C60.6394 30.1828 60.9201 30.0225 61.3223 29.6752Z" fill="white"/>
<path d="M85.5757 46.1141V25.62H90.3186V42.2495H100.595V46.1141H85.5757Z" fill="white"/>
<path d="M103.245 46.1141V25.62H107.988V46.1141H103.245ZM102.952 23.9512L106.905 19.7352H111.823L106.524 23.9512H102.952Z" fill="white"/>
<path d="M112.852 46.1141V25.62H122.162C124.387 25.62 126.348 26.0494 128.046 26.9082C129.745 27.7474 131.072 28.9283 132.028 30.4507C132.985 31.9731 133.463 33.7786 133.463 35.867C133.463 37.9359 132.985 39.7414 132.028 41.2833C131.072 42.8057 129.745 43.9963 128.046 44.8551C126.348 45.6944 124.387 46.1141 122.162 46.1141H112.852ZM117.595 42.2202H121.928C123.294 42.2202 124.475 41.9664 125.47 41.459C126.485 40.932 127.266 40.1903 127.812 39.2339C128.378 38.2775 128.661 37.1552 128.661 35.867C128.661 34.5593 128.378 33.437 127.812 32.5001C127.266 31.5437 126.485 30.8118 125.47 30.3043C124.475 29.7773 123.294 29.5138 121.928 29.5138H117.595V42.2202Z" fill="white"/>
<path d="M137.04 46.1141V25.62H152.527V29.426H141.753V42.308H152.908V46.1141H137.04ZM141.402 37.5651V33.8762H151.268V37.5651H141.402Z" fill="white"/>
<path d="M156.682 46.1141V25.62H165.436C168.285 25.62 170.501 26.2836 172.082 27.6108C173.663 28.9185 174.453 30.7337 174.453 33.0564C174.453 34.5788 174.092 35.8963 173.37 37.0088C172.648 38.1018 171.623 38.9411 170.296 39.5267C168.968 40.1122 167.387 40.405 165.553 40.405H159.317L161.425 38.3263V46.1141H156.682ZM169.71 46.1141L164.587 38.6776H169.652L174.834 46.1141H169.71ZM161.425 38.8533L159.317 36.6282H165.289C166.753 36.6282 167.846 36.3159 168.568 35.6913C169.29 35.0472 169.652 34.1689 169.652 33.0564C169.652 31.9243 169.29 31.046 168.568 30.4214C167.846 29.7969 166.753 29.4846 165.289 29.4846H159.317L161.425 27.2302V38.8533Z" fill="white"/>
<path d="M178.211 46.1141V25.62H182.954V46.1141H178.211Z" fill="white"/>
<path d="M102.823 57.4042C102.314 57.4042 101.84 57.3226 101.401 57.1594C100.967 56.9899 100.591 56.7513 100.271 56.4436C99.9503 56.136 99.6992 55.775 99.5171 55.3606C99.3413 54.9462 99.2534 54.491 99.2534 53.995C99.2534 53.499 99.3413 53.0438 99.5171 52.6295C99.6992 52.2151 99.9503 51.8541 100.271 51.5464C100.597 51.2388 100.977 51.0033 101.41 50.8401C101.843 50.6706 102.317 50.5858 102.832 50.5858C103.403 50.5858 103.918 50.6863 104.377 50.8872C104.841 51.0818 105.231 51.3706 105.544 51.7536L104.565 52.6577C104.339 52.4003 104.088 52.2088 103.812 52.0832C103.535 51.9514 103.234 51.8855 102.907 51.8855C102.6 51.8855 102.317 51.9357 102.06 52.0361C101.802 52.1366 101.58 52.281 101.391 52.4694C101.203 52.6577 101.055 52.8806 100.949 53.138C100.848 53.3954 100.798 53.6811 100.798 53.995C100.798 54.309 100.848 54.5946 100.949 54.852C101.055 55.1095 101.203 55.3323 101.391 55.5207C101.58 55.7091 101.802 55.8535 102.06 55.9539C102.317 56.0544 102.6 56.1046 102.907 56.1046C103.234 56.1046 103.535 56.0418 103.812 55.9162C104.088 55.7844 104.339 55.5866 104.565 55.3229L105.544 56.227C105.231 56.61 104.841 56.902 104.377 57.1029C103.918 57.3038 103.4 57.4042 102.823 57.4042Z" fill="white"/>
<path d="M109.39 57.4042C108.869 57.4042 108.386 57.3195 107.94 57.15C107.501 56.9804 107.118 56.7419 106.791 56.4342C106.471 56.1266 106.22 55.7656 106.038 55.3512C105.862 54.9368 105.774 54.4848 105.774 53.995C105.774 53.5053 105.862 53.0533 106.038 52.6389C106.22 52.2245 106.474 51.8635 106.801 51.5558C107.127 51.2482 107.51 51.0096 107.95 50.8401C108.389 50.6706 108.866 50.5858 109.381 50.5858C109.902 50.5858 110.379 50.6706 110.813 50.8401C111.252 51.0096 111.632 51.2482 111.952 51.5558C112.279 51.8635 112.533 52.2245 112.715 52.6389C112.897 53.047 112.988 53.499 112.988 53.995C112.988 54.4848 112.897 54.9399 112.715 55.3606C112.533 55.775 112.279 56.136 111.952 56.4436C111.632 56.745 111.252 56.9804 110.813 57.15C110.379 57.3195 109.905 57.4042 109.39 57.4042ZM109.381 56.1046C109.676 56.1046 109.946 56.0544 110.191 55.9539C110.442 55.8535 110.662 55.7091 110.85 55.5207C111.039 55.3323 111.183 55.1095 111.283 54.852C111.39 54.5946 111.444 54.309 111.444 53.995C111.444 53.6811 111.39 53.3954 111.283 53.138C111.183 52.8806 111.039 52.6577 110.85 52.4694C110.668 52.281 110.452 52.1366 110.2 52.0361C109.949 51.9357 109.676 51.8855 109.381 51.8855C109.086 51.8855 108.813 51.9357 108.562 52.0361C108.317 52.1366 108.1 52.281 107.912 52.4694C107.724 52.6577 107.576 52.8806 107.469 53.138C107.369 53.3954 107.319 53.6811 107.319 53.995C107.319 54.3027 107.369 54.5883 107.469 54.852C107.576 55.1095 107.72 55.3323 107.902 55.5207C108.091 55.7091 108.311 55.8535 108.562 55.9539C108.813 56.0544 109.086 56.1046 109.381 56.1046Z" fill="white"/>
<path d="M114.135 57.2912V50.6988H115.397L119.286 55.4454H118.674V50.6988H120.181V57.2912H118.928L115.029 52.5447H115.642V57.2912H114.135Z" fill="white"/>
<path d="M123.907 57.4042C123.379 57.4042 122.874 57.3352 122.39 57.1971C121.907 57.0527 121.518 56.8674 121.223 56.6414L121.741 55.4924C122.023 55.6934 122.356 55.8597 122.739 55.9916C123.128 56.1172 123.521 56.1799 123.916 56.1799C124.217 56.1799 124.459 56.1517 124.641 56.0952C124.83 56.0324 124.968 55.9476 125.056 55.8409C125.144 55.7342 125.187 55.6117 125.187 55.4736C125.187 55.2978 125.118 55.1597 124.98 55.0592C124.842 54.9525 124.66 54.8677 124.434 54.805C124.208 54.7359 123.957 54.6731 123.681 54.6166C123.411 54.5538 123.138 54.4785 122.861 54.3906C122.591 54.3027 122.343 54.1897 122.117 54.0515C121.891 53.9134 121.706 53.7313 121.562 53.5053C121.424 53.2793 121.354 52.9905 121.354 52.6389C121.354 52.2622 121.455 51.92 121.656 51.6123C121.863 51.2984 122.171 51.0504 122.579 50.8683C122.993 50.68 123.511 50.5858 124.133 50.5858C124.547 50.5858 124.955 50.636 125.357 50.7365C125.759 50.8307 126.114 50.9751 126.421 51.1697L125.95 52.3281C125.643 52.1523 125.335 52.0236 125.027 51.942C124.72 51.8541 124.418 51.8101 124.123 51.8101C123.828 51.8101 123.586 51.8447 123.398 51.9137C123.21 51.9828 123.075 52.0738 122.993 52.1868C122.912 52.2936 122.871 52.4191 122.871 52.5635C122.871 52.7331 122.94 52.8712 123.078 52.9779C123.216 53.0784 123.398 53.16 123.624 53.2228C123.85 53.2856 124.098 53.3483 124.368 53.4111C124.644 53.4739 124.917 53.5461 125.187 53.6277C125.464 53.7094 125.715 53.8192 125.941 53.9574C126.167 54.0955 126.349 54.2776 126.487 54.5036C126.632 54.7296 126.704 55.0153 126.704 55.3606C126.704 55.731 126.6 56.0701 126.393 56.3777C126.186 56.6854 125.875 56.9334 125.461 57.1217C125.052 57.3101 124.535 57.4042 123.907 57.4042Z" fill="white"/>
<path d="M130.675 57.4042C129.74 57.4042 129.008 57.1437 128.481 56.6226C127.953 56.1015 127.69 55.3575 127.69 54.3906V50.6988H129.215V54.3341C129.215 54.9619 129.344 55.414 129.602 55.6902C129.859 55.9665 130.22 56.1046 130.685 56.1046C131.149 56.1046 131.51 55.9665 131.768 55.6902C132.025 55.414 132.154 54.9619 132.154 54.3341V50.6988H133.661V54.3906C133.661 55.3575 133.397 56.1015 132.869 56.6226C132.342 57.1437 131.611 57.4042 130.675 57.4042Z" fill="white"/>
<path d="M135.168 57.2912V50.6988H136.694V56.0481H139.999V57.2912H135.168Z" fill="white"/>
<path d="M141.509 57.2912V51.942H139.4V50.6988H145.145V51.942H143.035V57.2912H141.509Z" fill="white"/>
<path d="M149.076 57.4042C148.554 57.4042 148.071 57.3195 147.625 57.15C147.186 56.9804 146.803 56.7419 146.476 56.4342C146.156 56.1266 145.905 55.7656 145.723 55.3512C145.547 54.9368 145.459 54.4848 145.459 53.995C145.459 53.5053 145.547 53.0533 145.723 52.6389C145.905 52.2245 146.159 51.8635 146.486 51.5558C146.812 51.2482 147.195 51.0096 147.635 50.8401C148.074 50.6706 148.551 50.5858 149.066 50.5858C149.587 50.5858 150.064 50.6706 150.498 50.8401C150.937 51.0096 151.317 51.2482 151.637 51.5558C151.964 51.8635 152.218 52.2245 152.4 52.6389C152.582 53.047 152.673 53.499 152.673 53.995C152.673 54.4848 152.582 54.9399 152.4 55.3606C152.218 55.775 151.964 56.136 151.637 56.4436C151.317 56.745 150.937 56.9804 150.498 57.15C150.064 57.3195 149.59 57.4042 149.076 57.4042ZM149.066 56.1046C149.361 56.1046 149.631 56.0544 149.876 55.9539C150.127 55.8535 150.347 55.7091 150.535 55.5207C150.724 55.3323 150.868 55.1095 150.968 54.852C151.075 54.5946 151.129 54.309 151.129 53.995C151.129 53.6811 151.075 53.3954 150.968 53.138C150.868 52.8806 150.724 52.6577 150.535 52.4694C150.353 52.281 150.137 52.1366 149.885 52.0361C149.634 51.9357 149.361 51.8855 149.066 51.8855C148.771 51.8855 148.498 51.9357 148.247 52.0361C148.002 52.1366 147.785 52.281 147.597 52.4694C147.409 52.6577 147.261 52.8806 147.154 53.138C147.054 53.3954 147.004 53.6811 147.004 53.995C147.004 54.3027 147.054 54.5883 147.154 54.852C147.261 55.1095 147.405 55.3323 147.588 55.5207C147.776 55.7091 147.996 55.8535 148.247 55.9539C148.498 56.0544 148.771 56.1046 149.066 56.1046Z" fill="white"/>
<path d="M153.82 57.2912V50.6988H156.636C157.552 50.6988 158.265 50.9123 158.773 51.3392C159.282 51.7599 159.536 52.3438 159.536 53.0909C159.536 53.5807 159.42 54.0044 159.188 54.3623C158.955 54.7139 158.626 54.9839 158.199 55.1722C157.772 55.3606 157.263 55.4548 156.673 55.4548H154.667L155.345 54.7861V57.2912H153.82ZM158.011 57.2912L156.362 54.8991H157.992L159.659 57.2912H158.011ZM155.345 54.9556L154.667 54.2399H156.589C157.059 54.2399 157.411 54.1394 157.643 53.9385C157.876 53.7313 157.992 53.4488 157.992 53.0909C157.992 52.7268 157.876 52.4442 157.643 52.2433C157.411 52.0424 157.059 51.942 156.589 51.942H154.667L155.345 51.2168V54.9556Z" fill="white"/>
<path d="M160.745 57.2912V50.6988H162.271V57.2912H160.745Z" fill="white"/>
<path d="M162.969 57.2912L165.907 50.6988H167.414L170.362 57.2912H168.761L166.35 51.4711H166.952L164.532 57.2912H162.969ZM164.438 55.8786L164.843 54.7202H168.233L168.648 55.8786H164.438Z" fill="white"/>
</svg>
