<svg width="64" height="64" viewBox="0 0 64 64" fill="none" xmlns="http://www.w3.org/2000/svg">
<path d="M31.1251 4.92767L31.1746 4.92414C32.5041 4.83799 33.793 4.94309 35.1039 5.05328C40.602 5.51547 45.6392 7.55839 49.7944 11.1096C51.6352 12.6823 53.3494 14.5028 54.6005 16.5598C54.8068 16.8986 55.5319 17.9044 55.0839 18.231C54.3065 18.7986 53.2449 18.9973 52.3391 19.3331C51.3616 19.6231 50.3283 20.1693 49.3508 20.4246C46.6778 21.1229 43.9144 21.9387 41.1979 22.4204C39.7768 22.6724 38.1962 22.7672 36.7614 22.9355C35.4446 23.09 33.8415 23.3273 32.5439 23.3275C27.4061 23.4962 22.4178 23.1761 17.3004 22.3082C16.227 22.1262 9.18107 20.4342 8.54765 19.9257C7.68959 19.237 11.4069 14.4903 12.3091 13.5103C17.3068 8.08183 23.7063 5.3299 31.1251 4.92767Z" fill="#680000"/>
<path d="M56.4925 21.0199C57.0442 21.209 57.3549 21.9301 57.5418 22.4544C65.1218 43.6817 42.7827 63.6358 21.6546 54.6281C20.6611 54.229 16.9037 52.3962 16.6681 51.4564C16.9953 51.2367 17.6364 51.2141 18.0147 51.0632C19.5279 50.4597 21.1303 50.0882 22.6583 49.5247C35.5401 44.833 46.5166 36.2128 53.9479 24.9515C54.7368 23.7678 55.8117 22.2342 56.4925 21.0199Z" fill="#680000"/>
<path d="M48.8426 24.96C48.87 25.4486 47.9908 26.0553 47.6198 26.3711C37.1394 35.2971 23.9124 40.7499 9.98074 41.5464C9.44249 41.5772 8.83705 41.7191 8.34467 41.5399C7.65422 41.2885 7.17441 39.6241 6.9976 39.1277C6.11342 35.9557 5.48132 33.8036 5.68771 30.4519C7.12846 30.5141 7.94375 30.7444 9.26231 30.8974C11.1927 31.1214 13.4127 31.4123 15.3352 31.5408C19.3604 31.8592 23.2476 31.6186 27.2448 31.2218C33.8495 30.5663 40.3496 28.6943 46.4032 26.071C47.2081 25.7222 48.0864 25.4085 48.8426 24.96Z" fill="#680000"/>
</svg>
