<svg width="118" height="100" viewBox="0 0 118 100" fill="none" xmlns="http://www.w3.org/2000/svg">
<path d="M55.9161 1.12283C58.9977 1.05666 63.043 1.36862 66.1125 1.87321C69.7306 2.46797 73.8816 4.06607 77.1849 5.61341C89.1327 11.1818 98.3438 21.3154 102.749 33.7391C101.768 34.1446 100.158 34.774 99.292 35.3202C98.9619 34.5607 98.8574 34.2063 98.6543 33.4012C98.1123 33.8467 97.5663 34.2859 97.015 34.719C95.7552 34.1997 95.2096 34.1617 93.8168 33.9851C94.5506 33.6421 95.528 32.9906 96.2372 32.5461C95.5083 32.2716 94.6133 31.9685 94.2154 31.264C93.6588 30.2781 92.6841 27.8202 94.1674 27.205C94.5031 27.0657 94.9072 26.9148 95.2521 26.789C94.1215 25.3455 93.2842 23.7281 92.1692 22.2842C90.5848 20.2321 86.9795 16.5582 84.9869 14.9602C83.3471 13.6451 81.2613 12.3015 79.4835 11.1663C76.6592 9.36265 73.64 8.14313 70.4613 7.14216C62.5016 4.63573 54.8018 4.16195 46.6348 5.98202C43.8495 6.60272 40.4601 7.60273 37.8834 8.76273C32.4134 11.2254 27.0706 15.249 23.0425 19.6775C22.2393 20.5606 21.4016 21.4399 20.7589 22.4506C21.0511 22.6338 21.5212 22.8642 21.8376 23.0317C22.1547 22.9936 24.2076 22.467 24.4719 22.3445C26.5607 21.3761 29.0813 25.1852 30.5576 24.6731L30.6292 24.466C30.5158 23.6065 28.7775 21.1552 28.2499 20.0877C29.5738 17.9792 32.0725 17.7031 33.497 15.7387C34.0669 14.9529 34.3476 13.9615 35.3549 13.5761C38.7741 12.2092 42.5009 12.0784 46.0325 11.3458C47.7871 10.9817 49.0808 9.87898 51.1769 9.72699C53.5409 9.55557 56.1782 8.76984 58.519 8.30029C59.7704 8.04926 60.3419 8.32178 60.8925 9.5314C61.4979 10.9228 60.4615 11.2977 59.4616 11.9062C58.2514 12.6724 56.6953 13.3194 55.6334 14.2778C54.9655 15.0823 54.4543 15.7537 53.7272 16.5184C52.0091 18.3254 48.0325 18.7456 46.4002 20.0378C45.9153 21.083 45.8314 22.0446 45.7699 23.1732C46.6355 22.739 47.0582 22.4372 48.0268 22.6423C50.222 23.107 50.0932 24.7596 51.021 26.195C51.4318 26.8305 52.5877 27.517 53.1434 28.3496C52.663 28.6526 51.5113 29.2041 51.4278 29.7407C51.5806 30.1251 52.6971 30.6162 53.1054 31.0103C53.5599 31.449 53.6993 31.6352 54.0738 32.1411C53.6211 32.7867 53.3562 33.0369 52.7817 33.5495C51.7366 32.9322 51.7111 32.5906 50.9628 32.1064L50.8402 32.1546C50.701 32.6593 51.0182 33.9748 51.1277 34.5139C51.4183 35.9446 51.206 36.1246 49.9952 36.6817C48.5674 35.9905 48.7546 35.3688 47.8685 34.0962C47.3043 33.9168 46.2291 33.7101 46.1037 33.0622C46.3591 32.5881 47.8637 32.1641 48.4581 31.9406C48.7029 31.2747 48.9534 30.3955 49.172 29.7047C48.7843 29.1391 47.5144 27.0215 46.9893 26.968C46.6137 27.2915 46.1758 28.6857 45.6888 29.3177C44.9152 30.3214 44.1006 30.9512 43.1494 31.7707C43.6153 32.3245 44.5769 33.3226 44.0535 34.0267C43.323 34.3765 42.2347 33.8862 41.519 33.6327C41.1274 33.4938 40.8414 33.1501 40.5756 32.8438C39.2605 33.8989 37.1257 35.3226 36.1472 36.6351C35.2381 37.8546 37.812 40.2672 38.7418 40.9613C40.6213 42.3641 41.7666 41.8348 40.067 44.4322C40.4594 44.7221 41.143 45.2669 41.5914 45.359C42.0604 44.7505 42.455 43.486 42.8992 42.7817C43.0435 42.4608 43.7801 41.1857 43.7418 40.9161C43.2233 37.2602 44.8314 32.5491 48.683 37.7645C48.6489 38.3687 48.3329 39.5485 48.8365 39.9317C49.3448 39.851 49.9115 39.007 50.2441 38.5898C50.4192 38.3297 50.891 37.908 51.1361 37.6746C51.3669 39.2826 51.2404 41.3518 51.5204 42.7655C54.8081 43.7909 54.2397 44.039 53.6745 46.902C53.3975 48.3055 55.4916 47.6717 55.4321 48.6491C54.9163 49.2795 52.555 48.7312 51.9471 48.3504C51.8114 47.8901 52.4958 46.4603 52.6602 45.6308C50.6502 46.4886 50.203 46.5356 48.0475 46.7324C48.1271 46.8221 48.2047 46.9134 48.2803 47.0064C48.8544 47.7157 48.6631 48.4652 48.568 49.3915C49.1427 49.9501 49.8412 49.1502 50.6053 49.4866C50.8461 49.754 50.7859 49.6272 50.8537 49.9633C50.2395 51.0464 47.5483 50.6131 46.6001 50.9003C45.9586 51.0946 45.3494 52.3024 44.7532 52.7256C43.8859 53.3412 42.9799 53.4684 42.0891 54.0281C41.5736 54.9589 41.3741 55.9819 41.3773 57.034C40.4087 58.7505 39.093 58.7151 38.0056 59.9279C37.5265 60.4624 37.8857 63.1752 37.5666 63.7971C36.8959 63.8072 35.7175 60.3761 34.641 60.4579C32.6029 60.6128 30.9278 60.6577 28.8938 60.3405C28.3925 62.0265 27.6531 62.0701 26.9325 63.4642C26.8172 63.6875 27.3381 65.5899 27.5177 65.9069C28.0744 66.89 30.2743 66.9181 30.9947 66.0282C31.5686 65.3446 32.6616 63.9489 33.7007 64.1889C34.6729 64.9913 32.8531 67.2552 32.2374 67.9672C33.0652 67.9177 35.6139 67.5919 36.0442 68.5131C36.628 69.7628 32.7904 71.949 36.5311 72.1831C36.9881 72.2117 37.7947 71.8893 38.2607 71.7894C39.7768 71.4967 42.0401 70.6017 43.5318 70.7234C45.2733 70.8653 47.949 70.7852 48.5969 72.7312C48.8648 73.5362 49.2161 73.639 49.764 74.096C50.3932 74.6207 51.9599 74.686 52.2996 75.0473L52.2433 75.2106C50.3958 75.8665 48.5952 76.7305 46.7404 77.3501C43.0545 78.5814 39.5502 79.7491 35.6747 80.2163C35.8136 79.5755 35.9128 78.6146 36.0081 77.9365C37.7905 76.1778 38.9172 77.248 38.025 74.0611C36.4834 73.9361 36.3256 74.2524 34.875 74.5995C34.4893 74.676 34.1051 74.6641 33.7695 74.4265C32.4102 73.4639 33.5255 70.9685 32.42 70.0348C32.1761 69.8287 30.9846 69.8092 30.5815 69.6696C29.8422 69.4137 29.1836 68.9453 28.4136 68.802C26.4327 68.563 24.9194 68.8482 23.135 67.713C22.7895 66.8698 22.4414 64.6565 22.1355 64.2178C21.0019 62.5923 19.4146 61.643 18.615 59.5612C17.9546 57.8417 16.3825 56.9157 14.9932 55.8316C14.6501 55.001 14.5625 54.1542 14.3421 53.4205C13.4242 50.3658 14.6115 49.0705 15.6813 46.3346C16.5167 44.1978 16.0951 42.0095 14.7832 40.1424C14.227 39.3507 13.4372 38.4632 13.0289 37.58L13.0067 37.5311C12.1189 40.2405 11.5721 43.6618 11.314 46.5596C10.4721 56.0131 13.0619 65.3349 17.7717 73.4917C19.3817 76.2801 21.9552 79.0522 24.0361 81.4951C22.0509 81.3883 20.5377 81.3231 18.58 80.9746C18.339 80.7705 18.1039 80.5596 17.8751 80.3419C17.1414 79.6379 15.7749 77.3983 15.156 76.4284C10.2652 68.9001 7.58274 60.1515 7.41298 51.1757C7.06967 38.2703 11.8671 25.7573 20.7499 16.3892C23.6933 13.3277 26.6185 10.9238 30.1358 8.53206C31.1089 7.90051 32.2295 7.44293 33.2312 6.87292C40.514 2.72841 47.5777 1.28536 55.9161 1.12283Z" fill="#680000"/>
<path d="M113.939 35.8857C114.323 35.903 114.65 35.8855 114.99 36.0624C116.344 37.2842 111.751 45.0453 110.555 46.2375C109.272 47.516 107.68 48.7068 106.508 49.9672C106.618 51.6681 107.127 53.714 107.213 55.4261C109.18 54.7289 111.771 54.7632 110.146 57.6583C109.659 58.5251 108.693 59.1374 107.889 59.734C108.15 60.9745 108.286 62.3562 108.496 63.6192C109.048 66.9446 109.405 70.4521 110.012 73.7506C109.211 74.4319 108.639 74.8153 107.818 75.5949C106.722 73.516 106.041 71.6928 105.089 69.5991C103.655 66.4476 101.979 63.339 100.496 60.2064C99.8389 58.8169 99.3789 57.3763 98.7041 55.9789C96.4835 57.4166 94.2168 59.1596 92.0615 60.7023C90.8762 61.5508 89.6573 62.1411 88.4795 62.9169C87.1346 63.8026 85.9463 64.6702 84.5587 65.5267C84.739 67.4679 85.0152 72.1939 84.9824 74.0341C84.4002 74.6581 83.6102 75.2227 82.907 75.9818C82.0063 74.1698 81.1476 72.226 80.5125 70.304C80.2773 69.5925 80.0581 68.9219 79.7857 68.2203C79.308 68.4599 77.8929 69.3163 77.4511 68.9497L77.461 68.6562C77.7706 68.1527 78.2273 67.5447 78.579 67.0521C76.8293 66.2459 73.199 63.9016 71.3422 62.7822C72.0768 62.2059 72.9349 61.6189 73.7004 61.0715C75.7675 61.7556 79.571 61.9695 81.8606 62.5139C83.1775 61.3985 85.6714 58.0522 86.9625 56.6278C89.0306 54.3461 91.1349 52.0802 93.2156 49.8123C89.818 48.0531 86.7205 45.4447 83.3141 43.5815C80.4487 42.0143 77.7674 39.6585 74.8187 38.138C75.6628 37.6993 76.2752 36.9125 77.1654 36.3938C81.3982 37.5154 85.6492 38.611 89.8446 39.856C90.153 39.9475 90.4531 40.0533 90.754 40.1678C91.4353 39.4144 94.1906 36.5672 95.5579 38.4869C95.939 39.022 95.2536 40.7271 94.9237 41.4092C96.0204 41.5389 99.1777 42.4898 100.253 42.8786C103.564 39.7931 105.175 38.223 109.57 36.9084C111.183 36.4265 112.104 35.9989 113.939 35.8857Z" fill="#680000"/>
<path d="M4.43347 59.0212C4.47204 59.0417 4.61345 59.1215 4.62283 59.1681C4.80318 60.0636 5.5182 62.2914 5.44455 63.1187C5.30702 64.6633 4.44155 66.1661 4.25421 67.7678C3.81236 71.5457 3.60037 75.6411 6.00268 78.8526C9.06277 82.7608 14.0012 84.7902 18.754 85.4424C29.2654 86.8849 40.277 84.2967 50.0932 80.635C51.1919 80.2251 52.6542 79.886 53.6435 79.4572C56.9504 78.0239 60.1831 76.502 63.3454 74.7722C64.256 74.2373 65.4439 73.8601 66.3247 73.306C68.6277 71.8572 71.2337 70.4348 73.4134 68.8319C74.0718 71.5766 74.2807 71.9972 76.8377 73.2322C76.3828 73.4251 75.909 73.6636 75.4611 73.8787C74.4455 74.3558 73.4941 74.9961 72.5182 75.5519C70.3351 76.795 68.1149 78.0582 65.8539 79.1538C64.7912 79.6686 63.6858 80.0722 62.61 80.555C58.5629 82.371 54.5191 84.131 50.3078 85.5426C48.6316 86.1044 46.8821 86.4995 45.1761 86.9664C35.1978 89.6973 23.2695 91.8539 13.2089 88.3357C8.18852 86.5801 4.68722 83.8823 2.37501 79.0377C0.0463763 74.1588 0.721271 68.5306 2.53562 63.6054C3.1077 62.0525 3.88505 60.5873 4.43347 59.0212Z" fill="#680000"/>
<path d="M71.5303 9.4019C73.3235 9.18502 74.1318 10.0219 74.4074 11.679C74.4266 11.7939 74.4499 12.1583 74.321 12.2247C73.6536 12.5678 71.3388 12.5967 70.9065 13.1552L70.9746 13.3366C72.1676 14.0548 77.5263 13.8941 79.1925 14.0413C78.7897 14.5063 77.9059 15.3708 77.4408 15.7226C75.3233 17.3241 75.1296 20.6957 75.036 23.1774C74.9569 25.2743 74.5653 25.6178 73.7407 27.6025C73.4 28.4226 72.859 30.5277 72.2117 31.1465C71.0679 32.2403 68.4767 31.932 66.993 32.7202C66.0689 33.1443 65.427 33.9786 64.6649 34.5884C62.9546 35.957 62.5485 35.929 62.4918 38.2012C61.9312 39.5057 61.0354 40.5984 60.1145 38.7977C59.5137 37.6228 59.0043 36.4888 58.5058 35.2627C57.8453 33.6387 57.6403 32.0502 58.8198 30.5849C59.6015 29.6084 59.9914 28.5823 59.7378 27.3264C59.3627 25.4564 59.2268 23.589 58.7185 21.748C58.1504 19.6905 55.1665 20.8988 54.8958 19.444C54.3461 16.4894 57.5011 16.0752 59.3239 14.9233C60.0262 14.4795 60.663 13.2881 61.5143 12.9215C62.8239 12.3306 64.3177 12.3774 65.6661 11.9023C67.8864 11.0625 69.0575 9.78296 71.5303 9.4019Z" fill="#680000"/>
<path d="M98.9267 65.7625C99.1562 65.9243 100.624 69.6367 100.834 70.1203C101.042 70.6008 100.135 72.3225 99.8584 72.8865C97.8613 76.9671 94.9188 80.4704 91.9842 83.8983C91.0247 85.0177 89.7713 85.9691 88.6472 86.9149C87.6485 87.7589 86.7065 88.6573 85.663 89.4445C81.8557 92.2523 76.4595 95.072 72.0115 96.57C59.5843 100.649 46.0463 99.6338 34.367 93.7453C36.6504 93.287 39.1313 92.8404 41.4477 92.5021C41.7238 92.4618 41.843 92.5684 42.0901 92.3674C42.4165 92.2589 42.8182 92.1678 43.1569 92.0895C46.402 91.3394 49.526 90.3102 52.6812 89.2487C55.7763 88.2075 58.7466 86.7648 61.8659 85.7866C61.4708 86.8675 60.9185 89.5039 60.5524 90.2458C59.1104 93.1683 56.463 91.2855 54.8895 95.1895C61.9838 95.3495 69.9886 93.7745 76.3393 90.5895C85.323 86.1135 92.594 78.819 97.0408 69.8208C97.5319 68.8336 98.5947 66.7618 98.9267 65.7625Z" fill="#680000"/>
<path d="M36.105 64.8419C36.5846 64.7807 40.0196 65.8562 40.2351 66.2415C40.1145 66.6623 40.0662 66.6071 39.7157 66.9595C39.3017 67.2637 39.2041 67.2604 38.7556 67.1516C37.9641 66.3527 37.1484 65.712 36.2028 65.1104C36.2028 65.1104 36.1136 64.8654 36.105 64.8419Z" fill="#680000"/>
<path d="M41.9618 66.8195C42.4637 66.7625 44.1714 66.8654 43.9982 67.6481C43.4867 68.0682 42.7434 67.9195 42.0654 67.8853C41.5393 67.9032 40.4563 68.0637 40.0985 67.5958L40.173 67.4167C40.7309 67.0412 41.3086 66.9573 41.9618 66.8195Z" fill="#680000"/>
</svg>
