<svg width="50" height="43" viewBox="0 0 50 43" fill="none" xmlns="http://www.w3.org/2000/svg">
<g clip-path="url(#clip0_1370_22)">
<path d="M23.8575 0.479102C25.1723 0.450869 26.8983 0.583973 28.208 0.799265C29.7517 1.05303 31.5228 1.73489 32.9322 2.39509C38.03 4.77094 41.96 9.0946 43.8396 14.3954C43.4208 14.5684 42.7342 14.8369 42.3646 15.07C42.2238 14.7459 42.1792 14.5947 42.0925 14.2512C41.8612 14.4413 41.6283 14.6287 41.3931 14.8135C40.8555 14.5919 40.6228 14.5757 40.0285 14.5004C40.3416 14.354 40.7586 14.076 41.0612 13.8864C40.7502 13.7692 40.3683 13.6399 40.1986 13.3394C39.9611 12.9187 39.5452 11.87 40.1781 11.6075C40.3213 11.5481 40.4938 11.4837 40.6409 11.43C40.1585 10.8141 39.8013 10.124 39.3255 9.50794C38.6495 8.63239 37.1113 7.06485 36.2611 6.38306C35.5614 5.82194 34.6715 5.24869 33.913 4.76431C32.7079 3.99476 31.4198 3.47443 30.0635 3.04735C26.6673 1.97794 23.3821 1.77579 19.8975 2.55236C18.7091 2.81719 17.263 3.24386 16.1636 3.73879C13.8297 4.78952 11.5501 6.50627 9.83146 8.39577C9.48875 8.77256 9.13133 9.14773 8.85713 9.57894C8.98179 9.6571 9.18238 9.75544 9.31738 9.82689C9.45267 9.81064 10.3286 9.58594 10.4413 9.53369C11.3326 9.12052 12.408 10.7457 13.0379 10.5272L13.0685 10.4389C13.0201 10.0721 12.2784 9.02623 12.0533 8.57077C12.6182 7.67114 13.6843 7.55335 14.292 6.71523C14.5352 6.37994 14.655 5.95694 15.0848 5.79252C16.5436 5.20927 18.1337 5.15348 19.6405 4.84089C20.3892 4.68556 20.9411 4.21506 21.8355 4.15021C22.8441 4.07707 23.9694 3.74183 24.9681 3.54149C25.502 3.43438 25.7459 3.55066 25.9808 4.06676C26.2391 4.66044 25.7969 4.82039 25.3703 5.08002C24.8539 5.40694 24.19 5.68298 23.7369 6.09189C23.452 6.43514 23.2338 6.7216 22.9236 7.04789C22.1905 7.81885 20.4939 7.99814 19.7974 8.54948C19.5905 8.99544 19.5548 9.40573 19.5285 9.88727C19.8978 9.70202 20.0782 9.57323 20.4914 9.66073C21.428 9.85902 21.3731 10.5641 21.769 11.1766C21.9443 11.4477 22.4374 11.7406 22.6745 12.0959C22.4695 12.2251 21.9782 12.4604 21.9425 12.6894C22.0077 12.8534 22.4841 13.0629 22.6583 13.2311C22.8522 13.4183 22.9117 13.4977 23.0715 13.7136C22.8783 13.989 22.7653 14.0958 22.5202 14.3145C22.0743 14.0511 22.0634 13.9054 21.7441 13.6988L21.6918 13.7193C21.6324 13.9346 21.7677 14.4959 21.8145 14.726C21.9385 15.3364 21.8479 15.4132 21.3313 15.6509C20.7221 15.356 20.802 15.0907 20.4239 14.5477C20.1832 14.4712 19.7244 14.383 19.6709 14.1066C19.7799 13.9043 20.4218 13.7234 20.6755 13.628C20.7799 13.3439 20.8868 12.9688 20.98 12.674C20.8146 12.4327 20.2728 11.5292 20.0488 11.5064C19.8885 11.6444 19.7017 12.2393 19.4939 12.5089C19.1638 12.9371 18.8163 13.2059 18.4104 13.5555C18.6092 13.7918 19.0195 14.2177 18.7962 14.5181C18.4845 14.6674 18.0201 14.4581 17.7148 14.35C17.5477 14.2907 17.4257 14.1441 17.3122 14.0134C16.7511 14.4636 15.8403 15.071 15.4228 15.631C15.0349 16.1513 16.1331 17.1807 16.5298 17.4769C17.3318 18.0754 17.8204 17.8496 17.0953 18.9578C17.2627 19.0815 17.5543 19.3139 17.7457 19.3532C17.9458 19.0936 18.1141 18.5541 18.3037 18.2536C18.3652 18.1166 18.6795 17.5726 18.6632 17.4576C18.442 15.8977 19.128 13.8876 20.7714 16.1129C20.7569 16.3707 20.622 16.8741 20.8369 17.0376C21.0538 17.0031 21.2956 16.643 21.4375 16.465C21.5122 16.354 21.7135 16.1741 21.8181 16.0745C21.9165 16.7606 21.8626 17.6435 21.982 18.2466C23.3848 18.6841 23.1423 18.79 22.9011 20.0116C22.7829 20.6104 23.6764 20.3399 23.651 20.757C23.431 21.0259 22.4235 20.792 22.1641 20.6295C22.1062 20.4331 22.3982 19.8231 22.4683 19.4692C21.6108 19.8351 21.42 19.8552 20.5003 19.9392C20.5342 19.9774 20.5673 20.0164 20.5996 20.0561C20.8445 20.3587 20.7629 20.6785 20.7223 21.0737C20.9675 21.3121 21.2656 20.9708 21.5916 21.1143C21.6943 21.2284 21.6687 21.1743 21.6976 21.3177C21.4355 21.7798 20.2873 21.5949 19.8827 21.7175C19.609 21.8004 19.3491 22.3157 19.0947 22.4963C18.7247 22.7589 18.3381 22.8132 17.958 23.052C17.7381 23.4491 17.653 23.8856 17.6543 24.3345C17.241 25.0669 16.6797 25.0518 16.2157 25.5693C16.0113 25.7973 16.1646 26.9548 16.0284 27.2201C15.7423 27.2244 15.2395 25.7605 14.7802 25.7954C13.9106 25.8615 13.1959 25.8806 12.328 25.7453C12.1141 26.4647 11.7987 26.4833 11.4912 27.0781C11.442 27.1734 11.6643 27.9851 11.7409 28.1203C11.9784 28.5398 12.917 28.5518 13.2244 28.1721C13.4693 27.8804 13.9356 27.2849 14.379 27.3873C14.7938 27.7296 14.0173 28.6956 13.7546 28.9994C14.1078 28.9782 15.1952 28.8392 15.3789 29.2323C15.628 29.7655 13.9906 30.6983 15.5866 30.7981C15.7816 30.8104 16.1258 30.6728 16.3246 30.6302C16.9714 30.5053 17.9371 30.1234 18.5736 30.1754C19.3166 30.2359 20.4583 30.2017 20.7347 31.032C20.849 31.3755 20.9989 31.4194 21.2326 31.6143C21.5011 31.8382 22.1695 31.8661 22.3145 32.0202L22.2905 32.0899C21.5022 32.3697 20.734 32.7384 19.9426 33.0027C18.3699 33.5281 16.8748 34.0263 15.2212 34.2256C15.2805 33.9522 15.3228 33.5423 15.3635 33.2529C16.124 32.5026 16.6047 32.9592 16.224 31.5994C15.5663 31.5461 15.4989 31.6811 14.88 31.8291C14.7154 31.8618 14.5515 31.8567 14.4083 31.7554C13.8283 31.3446 14.3042 30.2799 13.8325 29.8815C13.7285 29.7936 13.2201 29.7853 13.0481 29.7257C12.7327 29.6165 12.4517 29.4167 12.1231 29.3556C11.278 29.2536 10.6323 29.3753 9.87092 28.8909C9.7235 28.5311 9.575 27.5868 9.44446 27.3996C8.96079 26.7061 8.28358 26.3011 7.94242 25.4128C7.66063 24.6791 6.98988 24.2841 6.39708 23.8215C6.25071 23.4671 6.21333 23.1058 6.11929 22.7928C5.72767 21.4894 6.23425 20.9368 6.69067 19.7694C7.04713 18.8578 6.86725 17.9241 6.3075 17.1274C6.07017 16.7896 5.73321 16.411 5.559 16.0341L5.54954 16.0133C5.17075 17.1693 4.93742 18.6291 4.82729 19.8655C4.46808 23.8989 5.57308 27.8763 7.58258 31.3565C8.26954 32.5462 9.36754 33.729 10.2554 34.7713C9.40838 34.7257 8.76275 34.6979 7.92746 34.5492C7.82463 34.4621 7.72433 34.3721 7.62671 34.2792C7.31367 33.9789 6.73063 33.0233 6.46654 32.6095C4.37983 29.3974 3.2353 25.6647 3.16287 21.835C3.01639 16.3287 5.06329 10.9898 8.85329 6.99277C10.1091 5.68652 11.3572 4.66085 12.858 3.64037C13.2731 3.37091 13.7512 3.17568 14.1786 2.93247C17.286 1.16415 20.2998 0.548448 23.8575 0.479102Z" fill="#680000"/>
<path d="M48.6142 15.3112C48.7779 15.3185 48.9175 15.311 49.0625 15.3865C49.64 15.9078 47.6804 19.2192 47.17 19.7279C46.6229 20.2734 45.9433 20.7815 45.4433 21.3192C45.4904 22.0449 45.7075 22.9179 45.7442 23.6484C46.5833 23.3509 47.6892 23.3655 46.9954 24.6008C46.7879 24.9706 46.3758 25.2319 46.0325 25.4864C46.1442 26.0157 46.2021 26.6052 46.2917 27.1441C46.5271 28.563 46.6796 30.0595 46.9383 31.4668C46.5967 31.7575 46.3525 31.9211 46.0025 32.2537C45.5346 31.3667 45.2442 30.5888 44.8379 29.6955C44.2262 28.3509 43.5108 27.0245 42.8783 25.688C42.5979 25.0951 42.4017 24.4805 42.1137 23.8842C41.1663 24.4977 40.1992 25.2413 39.2796 25.8996C38.7738 26.2616 38.2538 26.5134 37.7512 26.8444C37.1774 27.2224 36.6704 27.5925 36.0784 27.9579C36.1553 28.7862 36.2732 30.8027 36.2592 31.5878C36.0107 31.854 35.6737 32.0949 35.3737 32.4188C34.9893 31.6457 34.623 30.8163 34.352 29.9963C34.2517 29.6927 34.1581 29.4066 34.0419 29.1072C33.8381 29.2095 33.2343 29.5749 33.0458 29.4184L33.05 29.2932C33.1821 29.0784 33.377 28.819 33.527 28.6088C32.7805 28.2648 31.2316 27.2646 30.4393 26.787C30.7527 26.5411 31.1189 26.2907 31.4455 26.0571C32.3275 26.3489 33.9503 26.4402 34.9272 26.6725C35.4891 26.1966 36.5531 24.7689 37.104 24.1611C37.9864 23.1876 38.8842 22.2208 39.772 21.2532C38.3223 20.5026 37.0007 19.3897 35.5473 18.5947C34.3248 17.926 33.1807 16.9209 31.9226 16.2721C32.2828 16.0849 32.5441 15.7492 32.9239 15.5279C34.7299 16.0065 36.5437 16.4739 38.3337 17.0051C38.4653 17.0442 38.5933 17.0893 38.7217 17.1382C39.0124 16.8167 40.188 15.6019 40.7714 16.421C40.934 16.6493 40.6415 17.3768 40.5008 17.6678C40.9687 17.7232 42.3158 18.1289 42.7746 18.2948C44.1875 16.9783 44.8746 16.3084 46.75 15.7475C47.4379 15.5419 47.8308 15.3594 48.6142 15.3112Z" fill="#680000"/>
<path d="M1.89162 25.1824C1.90807 25.1911 1.96841 25.2252 1.97241 25.245C2.04936 25.6271 2.35443 26.5776 2.32301 26.9306C2.26433 27.5897 1.89506 28.2308 1.81513 28.9142C1.62661 30.5261 1.53616 32.2735 2.56114 33.6437C3.86678 35.3112 5.97384 36.1771 8.00171 36.4554C12.4866 37.0709 17.1848 35.9666 21.3731 34.4042C21.8419 34.2294 22.4658 34.0847 22.8879 33.9017C24.2988 33.2902 25.6781 32.6408 27.0274 31.9028C27.4159 31.6745 27.9227 31.5136 28.2985 31.2772C29.2812 30.659 30.393 30.0522 31.323 29.3682C31.604 30.5393 31.6931 30.7188 32.7841 31.2457C32.59 31.328 32.3878 31.4298 32.1968 31.5215C31.7634 31.7251 31.3575 31.9983 30.9411 32.2355C30.0096 32.7658 29.0624 33.3048 28.0977 33.7722C27.6443 33.9919 27.1726 34.1641 26.7136 34.3701C24.9868 35.145 23.2615 35.8959 21.4647 36.4982C20.7495 36.7379 20.003 36.9064 19.2751 37.1056C15.0177 38.2708 9.92834 39.191 5.63579 37.6899C3.49377 36.9408 1.99988 35.7897 1.01334 33.7227C0.0197869 31.6411 0.307742 29.2397 1.08187 27.1383C1.32595 26.4757 1.65762 25.8505 1.89162 25.1824Z" fill="#680000"/>
<path d="M30.5196 4.01147C31.2847 3.91893 31.6295 4.27601 31.7472 4.98301C31.7553 5.03205 31.7653 5.18755 31.7103 5.21584C31.4255 5.36226 30.4379 5.37459 30.2534 5.61288L30.2825 5.69026C30.7915 5.99671 33.0779 5.92813 33.7888 5.99092C33.6169 6.18934 33.2398 6.55821 33.0414 6.7083C32.1379 7.39159 32.0553 8.83017 32.0153 9.88901C31.9816 10.7837 31.8145 10.9303 31.4627 11.777C31.3173 12.127 31.0865 13.0251 30.8103 13.2892C30.3223 13.7558 29.2167 13.6243 28.5837 13.9606C28.1894 14.1415 27.9155 14.4975 27.5903 14.7577C26.8606 15.3416 26.6873 15.3297 26.6632 16.2992C26.424 16.8558 26.0418 17.322 25.6488 16.5537C25.3925 16.0524 25.1752 15.5685 24.9625 15.0454C24.6807 14.3525 24.5932 13.6748 25.0965 13.0495C25.43 12.6329 25.5963 12.1951 25.4881 11.6593C25.3281 10.8614 25.2701 10.0646 25.0532 9.27913C24.8108 8.40126 23.5377 8.9168 23.4222 8.29609C23.1877 7.03547 24.5338 6.85876 25.3115 6.36726C25.6112 6.17792 25.8829 5.66959 26.2461 5.51317C26.8049 5.26105 27.4422 5.28101 28.0175 5.0783C28.9649 4.72001 29.4645 4.17405 30.5196 4.01147Z" fill="#680000"/>
<path d="M42.2087 28.0586C42.3067 28.1276 42.9329 29.7116 43.0225 29.9179C43.1112 30.123 42.7242 30.8576 42.6062 31.0982C41.7542 32.8393 40.4987 34.334 39.2466 35.7966C38.8372 36.2742 38.3024 36.6801 37.8228 37.0836C37.3967 37.4438 36.9948 37.8271 36.5495 38.1629C34.9251 39.3609 32.6227 40.564 30.7249 41.2031C25.4226 42.9437 19.6464 42.5104 14.6632 39.9979C15.6375 39.8024 16.696 39.6118 17.6843 39.4675C17.8022 39.4503 17.853 39.4958 17.9585 39.4101C18.0977 39.3638 18.2691 39.3249 18.4136 39.2915C19.7982 38.9714 21.1311 38.5323 22.4773 38.0794C23.7979 37.6351 25.0652 37.0196 26.3961 36.6022C26.2275 37.0634 25.9919 38.1883 25.8357 38.5048C25.2205 39.7518 24.0909 38.9484 23.4195 40.6141C26.4464 40.6824 29.8618 40.0104 32.5715 38.6515C36.4045 36.7417 39.5068 33.6294 41.4041 29.7901C41.6136 29.369 42.0671 28.485 42.2087 28.0586Z" fill="#680000"/>
<path d="M15.4048 27.6659C15.6094 27.6398 17.075 28.0987 17.167 28.263C17.1155 28.4426 17.0949 28.419 16.9454 28.5694C16.7687 28.6992 16.7271 28.6978 16.5357 28.6514C16.198 28.3105 15.85 28.0371 15.4465 27.7804C15.4465 27.7804 15.4085 27.6759 15.4048 27.6659Z" fill="#680000"/>
<path d="M17.9037 28.5096C18.1178 28.4853 18.8465 28.5292 18.7726 28.8632C18.5543 29.0424 18.2372 28.979 17.9479 28.9643C17.7235 28.972 17.2614 29.0405 17.1087 28.8408L17.1405 28.7644C17.3785 28.6042 17.625 28.5684 17.9037 28.5096Z" fill="#680000"/>
</g>
<defs>
<clipPath id="clip0_1370_22">
<rect width="50" height="42.6667" fill="white"/>
</clipPath>
</defs>
</svg>
