<svg width="50" height="50" viewBox="0 0 50 50" fill="none" xmlns="http://www.w3.org/2000/svg">
<path d="M10.2942 5.12861C14.4631 1.93963 19.5737 0.226951 24.8223 0.259991C31.5486 0.318842 38.1479 3.26519 42.5239 8.39685C42.5799 8.46254 42.6389 8.57016 42.6787 8.6482C42.3177 8.79 41.959 8.93749 41.6026 9.09058C41.4852 8.92089 41.5281 8.92576 41.3654 8.8734C40.8217 8.98078 40.2177 9.2387 39.6846 9.40646C37.7507 10.015 35.7721 10.3364 33.7706 10.6359C33.8453 11.3804 34.0687 12.2571 34.1939 13.014C34.4964 14.8072 34.7154 16.6134 34.8505 18.4269C34.885 18.8951 34.9592 19.518 34.9585 19.9753C37.5709 19.8456 37.3691 19.6894 38.1262 22.2497C38.2322 22.5837 38.2949 22.837 38.3461 23.1866C38.3182 24.3138 37.9274 24.1824 37.7132 25.1321C37.6709 25.3191 37.6973 26.4142 37.6996 26.6781C37.7069 27.6023 37.7045 28.5265 37.6921 29.4506C37.6694 30.6469 37.9252 31.0959 36.4122 31.0275C35.9098 31.0048 35.2075 30.9863 34.6972 30.9856L33.5848 30.9762C32.3125 30.9958 31.04 31.0037 29.7675 30.9999C28.8688 31.0058 27.6407 31.0467 26.7736 30.9669C26.5817 30.0386 26.8467 24.8094 26.5301 24.5152C25.804 24.5818 24.438 24.564 23.6802 24.5429C20.9792 24.4679 17.9281 24.2906 15.2541 23.9261C15.2713 25.8555 15.293 28.3117 15.5322 30.2316C17.8932 30.7928 19.2111 32.9159 18.6465 35.2806C18.5505 35.6979 18.4002 36.1007 18.1996 36.4789C18.0622 36.7295 17.6785 37.3366 17.6032 37.5315C17.3263 37.8294 17.1183 38.1424 16.8581 38.4495C17.1264 39.421 17.3415 40.4235 17.6116 41.4102C18.0269 42.9414 18.5141 44.452 19.0716 45.9373C21.2413 46.6983 24.0692 46.7247 26.3358 46.6689C26.3431 46.9558 26.3427 47.475 26.3935 47.7378C24.9233 47.7874 23.2918 47.8284 21.8298 47.648C18.0317 47.179 14.1244 45.6345 10.9972 43.4455C5.71828 39.8266 2.13975 34.215 1.08532 27.9023C0.136543 22.4456 1.48018 15.5851 4.69049 11.0315C4.32286 10.5447 3.89922 10.1363 3.5442 9.6135C2.52576 8.1136 1.90894 6.34251 2.77761 4.61361C4.39968 1.38525 9.13121 1.60928 10.2942 5.12861ZM15.2493 22.7964C16.1781 22.8852 17.1098 23.022 18.0343 23.1003C20.7517 23.3329 23.4784 23.4398 26.2057 23.4204C26.2541 23.7503 26.3892 24.2128 26.5301 24.5152C26.8467 24.8094 26.5817 30.0386 26.7736 30.9669C27.6407 31.0467 28.8688 31.0058 29.7675 30.9999C31.04 31.0037 32.3125 30.9958 33.5848 30.9762L34.6972 30.9856C35.2075 30.9863 35.9098 31.0048 36.4122 31.0275C37.9252 31.0959 37.6694 30.6469 37.6921 29.4506C37.7045 28.5265 37.7069 27.6023 37.6996 26.6781C37.6973 26.4142 37.6709 25.3191 37.7132 25.1321C37.9274 24.1824 38.3182 24.3138 38.3461 23.1866C38.2949 22.837 38.2322 22.5837 38.1262 22.2497C37.3691 19.6894 37.5709 19.8456 34.9585 19.9753C34.5633 19.9763 34.2242 19.9779 33.8311 19.9448C33.7238 19.0358 33.7386 18.0967 33.6107 17.1746C33.454 16.0448 33.3323 14.8773 33.1545 13.7517C32.9957 12.7464 32.7749 11.724 32.6059 10.7166C31.3325 11.0156 28.5909 11.0997 27.2559 11.1393C24.4018 11.2241 21.3882 11.1981 18.5388 10.9528C18.0798 10.9133 17.0411 10.8218 16.6275 10.6829C16.3791 11.6705 16.2353 12.5946 16.0707 13.6C15.5681 16.6407 15.2936 19.7148 15.2493 22.7964ZM10.8367 35.5104C10.7981 35.3342 10.7483 35.1265 10.7192 34.9523C10.5355 33.8653 10.7881 32.7497 11.4224 31.8481C12.202 30.7537 13.1163 30.3789 14.378 30.1664C14.314 27.9676 14.0832 25.9696 14.0968 23.7113C13.0102 23.6182 12.1732 23.4421 11.1087 23.2314C8.912 22.794 6.74 22.2404 4.60187 21.5731C3.88394 21.3475 2.824 21.0207 2.15658 20.699C2.12359 21.358 2.01186 22.0085 1.97495 22.6764C1.75812 26.5999 2.424 30.613 4.30543 34.0953C5.73503 34.4291 7.1608 34.7903 8.59796 35.0902C9.34024 35.2452 10.0904 35.3482 10.8367 35.5104ZM2.29588 19.6844C2.88829 19.792 3.61345 20.0719 4.20036 20.2641C5.08812 20.553 5.9817 20.8238 6.88054 21.0762C9.40119 21.7786 11.5523 22.1537 14.0885 22.6345C14.2105 19.3234 14.4458 16.2093 15.0045 12.9515C15.1056 12.3622 15.2832 11.1193 15.4636 10.6092C14.3666 10.4867 10.358 9.79989 9.49429 9.37692C8.92031 10.131 7.50559 12.0477 6.47639 12.3881C6.22079 12.4726 5.7345 11.9575 5.48343 11.7919C5.20197 12.3055 4.87248 12.8157 4.60058 13.3291C3.98741 14.5049 3.47137 15.7289 3.05762 16.9887C2.77922 17.8186 2.59298 18.9172 2.29588 19.6844ZM17.7241 45.5508C17.2052 44.0471 16.7434 42.5245 16.3396 40.986C16.2684 40.7157 16.0068 39.5043 15.9188 39.3888C15.7027 39.5859 14.9139 40.3809 14.6619 40.2655C13.7675 39.856 12.7773 38.6468 12.1606 37.914C11.8104 37.4979 11.5903 37.0918 11.3322 36.711C10.8039 36.6695 9.77417 36.4646 9.21688 36.3476C7.9051 36.0722 6.27224 35.7865 5.0037 35.3881C5.37214 36.0835 6.36017 37.429 6.86765 38.052C9.67957 41.5549 13.4526 44.1609 17.7241 45.5508ZM6.3704 3.39393C5.76215 3.46596 5.37243 3.57957 4.84936 3.91025C3.92416 4.49513 3.36522 5.7038 3.50652 6.79169C3.71689 8.41143 4.98633 9.69159 6.05814 10.8249C6.17422 10.9476 6.32161 11.08 6.49116 11.1104C7.76514 9.83512 9.37446 8.29058 9.37084 6.35892C9.37441 5.55979 9.05361 4.79337 8.48174 4.23513C7.98382 3.74373 7.0733 3.35312 6.3704 3.39393ZM14.3281 31.2918C13.4449 31.4771 12.7612 31.8217 12.2617 32.6055C10.941 34.6779 12.5361 36.8579 14.0038 38.3199C14.1813 38.4966 14.5363 38.8942 14.75 38.983C14.8661 38.94 14.8333 38.97 14.8987 38.8772C16.0881 37.4071 17.8798 36.1521 17.629 33.8439C17.5486 33.0836 17.1652 32.3878 16.5654 31.9136C15.8634 31.3514 15.1901 31.2584 14.3281 31.2918ZM32.3926 9.64772C31.6292 6.83821 31.1854 4.85506 30.0347 2.0716C28.343 1.61798 25.9857 1.33518 24.2298 1.42043C23.227 1.47743 22.2621 1.52743 21.2674 1.67478C20.5509 1.78092 19.8135 1.99739 19.1116 2.09169C18.5141 3.62878 17.9937 5.19473 17.5523 6.78373C17.2871 7.74357 17.0745 8.71196 16.8136 9.66133C17.5879 9.67827 18.5806 9.82919 19.3801 9.88368C21.1995 10.0077 23.1204 10.1428 24.9397 10.1093C27.4303 10.0872 29.9181 9.9331 32.3926 9.64772ZM10.0131 8.43551C10.8722 8.57803 11.8377 8.87079 12.716 9.03049C13.6726 9.20448 14.7103 9.33498 15.653 9.54217C16.1204 7.50916 16.9858 4.37356 17.7552 2.48195C15.7374 2.99575 12.1091 4.96452 10.5297 6.35028C10.4313 7.1316 10.3455 7.70115 10.0131 8.43551ZM33.464 9.58213C35.1258 9.1913 37.6847 8.97378 39.2472 8.35313C39.6676 8.2234 40.1724 8.08102 40.5744 7.91958C38.2438 5.78778 36.1766 4.27419 33.2043 3.05861C32.7298 2.86456 31.8854 2.52883 31.4037 2.42754C32.116 4.4751 33.1455 7.43691 33.464 9.58213Z" fill="#680000"/>
<path d="M33.8311 19.9449C34.2242 19.978 34.5633 19.9764 34.9585 19.9754C37.5709 19.8457 37.3691 19.6895 38.1262 22.2497C38.2322 22.5838 38.2949 22.837 38.3461 23.1867C38.3182 24.3139 37.9275 24.1824 37.7132 25.1321C37.6709 25.3192 37.6973 26.4143 37.6996 26.6781C37.707 27.6023 37.7045 28.5265 37.6921 29.4507C37.6694 30.647 37.9252 31.0959 36.4122 31.0276C35.9098 31.0049 35.2075 30.9864 34.6973 30.9856L33.5848 30.9763C32.3125 30.9959 31.04 31.0037 29.7675 31C28.8688 31.0058 27.6407 31.0468 26.7736 30.9669C26.5818 30.0386 26.8467 24.8095 26.5301 24.5153C26.3892 24.2128 26.2541 23.7504 26.2057 23.4205C26.0848 22.6182 26.8054 20.7841 27.2539 20.0858C27.393 19.8693 29.279 19.9425 29.648 19.943L33.8311 19.9449ZM34.2243 25.8193C34.435 26.5431 34.3678 27.208 34.3657 27.9681C34.3664 28.5682 34.3896 29.3396 34.3622 29.9256C35.0911 29.9145 35.8659 29.896 36.5941 29.9292C36.5082 29.3877 36.5369 28.1754 36.54 27.5835C36.5434 26.9209 36.5097 25.7704 36.584 25.1367C36.1256 25.0582 35.6315 24.6451 35.3198 24.8324C34.5584 25.29 34.0574 25.2488 33.3202 24.669C33.084 24.9347 32.7299 25.12 32.3697 25.1404C31.7646 25.1747 31.5069 24.7495 31.1651 24.7237C30.7453 24.692 30.2437 25.7276 28.8693 24.663C28.6055 24.9884 28.3587 25.0627 27.9403 25.105C27.8879 25.1102 27.8354 25.1149 27.7828 25.1188C27.8012 26.1441 27.8073 27.1696 27.8012 28.1951C27.8012 28.6795 27.8233 29.4708 27.7881 29.9272C28.5223 29.914 29.3014 29.8983 30.0356 29.9286C29.9498 29.3509 29.9091 26.328 30.1312 25.9735C30.2121 25.8443 30.4895 25.7925 30.6278 25.7737C31.377 25.6714 33.4982 25.6941 34.2243 25.8193ZM36.1149 23.4654C36.106 23.9458 36.6335 24.2377 37.0394 23.9091C37.1524 23.7344 37.2037 23.7203 37.2034 23.5459C37.0584 23.4148 36.3837 23.4951 36.1149 23.4654ZM32.6662 23.8792C32.7726 23.7075 32.7938 23.7325 32.7924 23.5598C32.5307 23.3676 32.1223 23.5564 31.6625 23.4636C31.674 23.6196 31.7846 23.8131 31.9001 23.9112C32.18 24.1489 32.4261 24.0193 32.6662 23.8792ZM33.8526 23.5127L34.1681 23.9639C34.6144 24.2257 34.8362 23.9369 35.079 23.5731L35.0627 23.5002L35.0397 23.4927C34.6511 23.4997 34.2392 23.5144 33.8526 23.5127ZM29.4211 23.5077L29.7166 23.9693C30.2041 24.2054 30.383 23.9809 30.6404 23.5716L30.6205 23.5031L30.5991 23.4954C30.2196 23.5002 29.7969 23.515 29.4211 23.5077ZM36.59 21.0793C33.8109 21.0063 30.8382 21.0953 28.0204 21.0578C27.7392 21.2859 27.7974 21.8838 27.4848 22.3977L33.2755 22.3855C34.3224 22.3858 35.4852 22.3616 36.5227 22.3878C36.7372 22.3951 36.8061 22.432 36.9748 22.341C37.035 22.1737 36.6699 21.3437 36.59 21.0793ZM27.5682 24.0041C27.9877 24.1237 28.4988 23.8399 28.3431 23.4811L28.2839 23.4885C28.0576 23.4862 27.4816 23.441 27.3262 23.5779C27.3098 23.7696 27.438 23.874 27.5682 24.0041ZM33.2904 26.8528C32.6208 26.8827 31.7563 26.8857 31.0921 26.85C31.0481 27.0754 31.0599 27.4294 31.0661 27.6653C31.0862 28.4261 31.0723 29.1677 31.0519 29.9263C31.4258 29.9191 33.0954 29.9362 33.2883 29.9002C33.2257 29.3439 33.2333 27.437 33.2904 26.8528Z" fill="#680000"/>
<path d="M14.3781 30.1665C14.7525 30.1849 15.1618 30.197 15.5323 30.2317C17.8932 30.793 19.2111 32.916 18.6465 35.2807C18.5505 35.698 18.4003 36.1008 18.1996 36.479C18.0622 36.7296 17.6785 37.3367 17.6032 37.5316C17.3263 37.8295 17.1184 38.1425 16.8581 38.4496C16.6611 38.6333 16.0621 39.1901 15.9188 39.3889C15.7028 39.5861 14.914 40.381 14.6619 40.2656C13.7675 39.8561 12.7773 38.6469 12.1606 37.9141C11.8104 37.498 11.5904 37.0919 11.3323 36.7111L10.8367 35.5105C10.7981 35.3343 10.7483 35.1266 10.7193 34.9524C10.5355 33.8654 10.7881 32.7499 11.4225 31.8482C12.202 30.7538 13.1164 30.379 14.3781 30.1665ZM14.8987 38.8773C16.0881 37.4072 17.8798 36.1522 17.629 33.844C17.5486 33.0837 17.1652 32.3879 16.5655 31.9138C15.8634 31.3515 15.1901 31.2585 14.3282 31.2919C13.4449 31.4772 12.7613 31.8218 12.2617 32.6056C10.941 34.678 12.5361 36.858 14.0038 38.32C14.1813 38.4967 14.5363 38.8944 14.75 38.9831C14.8661 38.9401 14.8333 38.9701 14.8987 38.8773Z" fill="#680000"/>
<path d="M14.3571 32.1586C15.1033 32.0289 15.8617 32.3098 16.3432 32.8943C16.8248 33.479 16.9553 34.2771 16.685 34.9846C16.4148 35.6921 15.7854 36.2 15.0367 36.3147C13.8954 36.4894 12.8262 35.7125 12.6399 34.573C12.4535 33.4335 13.2196 32.3565 14.3571 32.1586ZM14.7943 35.2523C15.2263 35.2218 15.5917 34.9211 15.7047 34.503C15.8178 34.0848 15.6536 33.641 15.2957 33.397C15.1081 33.2691 14.8831 33.2076 14.6566 33.2224C14.0948 33.259 13.6696 33.7448 13.7077 34.3064C13.7458 34.868 14.2327 35.2919 14.7943 35.2523Z" fill="#680000"/>
<path d="M4.69052 11.0316C4.32288 10.5448 3.89924 10.1364 3.54422 9.61361C2.52579 8.11371 1.90896 6.34262 2.77763 4.61372C4.3997 1.38536 9.13124 1.60939 10.2943 5.12872C10.3492 5.45893 10.4316 6.05333 10.5297 6.35039C10.4313 7.13171 10.3456 7.70126 10.0131 8.43562C9.89021 8.65941 9.62105 9.18736 9.49432 9.37703C8.92033 10.1311 7.50561 12.0478 6.47641 12.3882C6.22081 12.4727 5.73452 11.9576 5.48346 11.792C5.33437 11.5713 4.90643 11.1987 4.69052 11.0316ZM6.49118 11.1105C7.76517 9.83523 9.37448 8.29069 9.37086 6.35903C9.37443 5.5599 9.05363 4.79348 8.48177 4.23523C7.98384 3.74384 7.07332 3.35323 6.37043 3.39404C5.76217 3.46607 5.37245 3.57967 4.84938 3.91036C3.92419 4.49523 3.36525 5.70391 3.50654 6.7918C3.71691 8.41154 4.98635 9.6917 6.05817 10.825C6.17424 10.9477 6.32163 11.0801 6.49118 11.1105Z" fill="#680000"/>
<path d="M6.02891 4.3242C7.17525 4.1011 8.28495 4.85088 8.50575 5.99765C8.7265 7.14442 7.97447 8.25262 6.82727 8.47106C5.68331 8.68891 4.57898 7.93949 4.35884 6.79601C4.13869 5.65252 4.88586 4.54666 6.02891 4.3242ZM5.41299 6.34659C5.39933 6.62197 5.4974 6.89123 5.6849 7.0934C5.92631 7.35363 6.28524 7.47024 6.63345 7.40161C6.99523 7.33027 7.29069 7.06995 7.40695 6.72004C7.52322 6.37014 7.44233 5.98471 7.19523 5.71107C6.94812 5.43742 6.57293 5.31782 6.21299 5.39794C5.76323 5.49808 5.43577 5.88636 5.41299 6.34659Z" fill="#680000"/>
<path d="M46.8111 28.4699C47.1123 28.471 47.6598 28.4901 47.9412 28.4684C48.5898 28.4527 48.7587 28.6889 48.7795 29.294C48.8055 30.0375 48.7973 30.776 48.7959 31.5195L48.791 35.4087L48.792 46.8221C48.7896 47.1851 48.8113 47.3679 48.5743 47.643C48.2017 47.8247 44.3874 47.8608 44.1781 47.57C44.0086 47.041 44.065 45.4925 44.0648 44.867L44.0661 39.4952C44.0666 39.0193 44.1225 37.9894 44.1051 37.5879C44.0624 37.49 44.1382 35.9519 44.0591 35.5501L44.0739 35.5035L44.0292 35.4073C43.618 35.5126 43.2057 35.6135 42.7922 35.71C42.7508 35.3522 42.7641 34.966 42.7711 34.606C43.1011 34.4834 43.9174 34.346 44.0968 34.2226C44.0523 33.1065 44.1005 31.874 44.0592 30.7853C43.9483 27.8639 44.2386 28.5081 46.8111 28.4699ZM45.1489 46.7416C46.0374 46.6867 46.8573 46.7429 47.6832 46.7126L47.6841 35.7439C47.6844 33.7038 47.6582 31.6021 47.6977 29.5701C47.1202 29.5976 45.6844 29.6473 45.1616 29.5615C45.2562 33.0236 45.1746 36.8486 45.1766 40.3361L45.1782 44.4463C45.1783 45.099 45.2094 46.1335 45.1489 46.7416Z" fill="#680000"/>
<path d="M42.7711 34.606C43.1011 34.4833 43.9174 34.346 44.0968 34.2225C44.1031 34.4507 44.1426 35.3497 44.0739 35.5035L44.0292 35.4072C43.618 35.5126 43.2057 35.6135 42.7922 35.7099C42.7508 35.3522 42.7641 34.966 42.7711 34.606Z" fill="#680000"/>
<path d="M38.1042 35.5751L38.0997 35.4415C38.085 34.9727 37.9611 33.6695 38.2535 33.3578C39.0273 33.0744 40.8857 33.2916 41.777 33.2236C42.9539 33.1337 42.8372 33.656 42.7711 34.606C42.7641 34.966 42.7508 35.3522 42.7922 35.71C42.8042 36.1091 42.8313 37.0195 42.7748 37.3892C42.8012 37.8643 42.6875 38.9209 42.8209 39.3119C42.7392 41.862 42.8662 44.4526 42.7893 47.005C42.7837 47.1881 42.7134 47.5121 42.5848 47.651C42.2121 47.8203 38.4112 47.8604 38.2039 47.5794C38.0109 47.0923 38.0557 44.3754 38.115 43.7584C38.0793 43.3616 38.1448 42.8517 38.0979 42.3615C38.1231 42.0316 38.0845 40.9947 38.0835 40.6001L38.0899 36.6749C38.1036 36.2952 38.1138 35.9545 38.1042 35.5751ZM39.1912 46.7203C39.9347 46.7109 40.9827 46.6685 41.7014 46.7208L41.7021 38.4962C41.7032 37.2857 41.6524 35.4239 41.7222 34.2628C41.0821 34.2759 39.7593 34.3333 39.1841 34.2512C39.2319 38.3745 39.2012 42.5917 39.1912 46.7203Z" fill="#680000"/>
<path d="M33.2324 33.5313C33.6048 33.3934 33.992 33.299 34.3861 33.25C34.3043 33.8135 34.2219 34.8453 34.0609 35.3374C34.6506 35.3455 35.4225 35.3064 35.9803 35.3422C36.312 35.3654 36.5896 35.3655 36.7321 35.7198L36.7831 36.8719L36.784 40.8947C36.7833 41.6309 36.8048 42.5433 36.7584 43.2634C36.7773 43.6673 36.7497 44.1321 36.7769 44.5046C36.7827 45.0671 36.89 47.2572 36.6307 47.6068C36.0157 47.925 33.1673 47.7393 32.3524 47.6967C32.0374 47.6803 32.0928 46.8827 32.1061 46.6567C31.8254 46.7301 31.0359 46.9126 30.83 47.0188C30.7569 46.6401 30.8517 44.9319 30.8225 44.4174C31.0643 43.8995 31.9125 41.0734 32.0139 40.4814C32.1283 39.9464 32.1151 38.1541 32.1133 37.5114C32.1235 37.1581 32.1471 36.7387 32.1142 36.3932C32.0526 35.6528 32.0895 35.3883 32.9195 35.3322C33.0002 35.1858 33.1868 33.8111 33.2324 33.5313ZM32.1088 45.4668C32.0803 44.9832 32.1409 44.463 32.1336 43.9548C31.9582 44.2934 31.6634 45.2487 31.5106 45.6605L32.1088 45.4668ZM33.178 46.7083C33.9811 46.7068 34.8967 46.6755 35.6851 46.7197C35.6596 46.1689 35.6907 45.5683 35.6815 45.0022C35.6576 42.8305 35.6642 40.6585 35.7015 38.487C35.7136 37.8946 35.61 36.8868 35.647 36.4076C35.1759 36.435 33.6127 36.4792 33.1897 36.402C33.1675 37.1826 33.2014 38.0929 33.2028 38.8868L33.2002 43.9412C33.2003 44.8114 33.225 45.8516 33.178 46.7083Z" fill="#680000"/>
<path d="M30.8225 44.4174C31.0643 43.8995 31.9125 41.0734 32.0139 40.4814C32.1267 41.0768 32.121 41.3552 32.1351 41.9211C32.1428 42.2289 32.0801 43.7907 32.1336 43.9548C31.9582 44.2934 31.6634 45.2488 31.5106 45.6605L32.1088 45.4669C32.132 45.8962 32.1228 46.2255 32.1061 46.6567C31.8254 46.7301 31.0359 46.9127 30.83 47.0188C30.7569 46.6401 30.8517 44.9319 30.8225 44.4174Z" fill="#680000"/>
<path d="M33.2324 33.5313C33.6048 33.3934 33.992 33.299 34.3861 33.25C34.3043 33.8135 34.2219 34.8453 34.0609 35.3374C34.6506 35.3455 35.4225 35.3064 35.9803 35.3422C35.6125 35.3865 33.2138 35.411 32.9195 35.3322C33.0002 35.1858 33.1868 33.8111 33.2324 33.5313Z" fill="#680000"/>
<path d="M42.6787 8.64831C44.0236 8.44078 45.1024 8.51607 46.2406 9.35333C47.0794 9.96925 47.6397 10.8927 47.7986 11.9211C48.0125 13.3328 47.59 14.5258 46.874 15.7269C46.6166 16.0189 46.2847 16.4708 46.0654 16.8007C45.9248 16.9826 45.776 17.1582 45.6195 17.3266C45.2592 17.7198 44.1477 18.8469 43.6205 18.8692C43.2913 18.7747 43.034 18.4801 42.7795 18.2556C40.655 16.3825 38.5577 13.4485 40.1585 10.5897C40.5351 9.91694 41.0069 9.54937 41.6027 9.09068C41.959 8.93759 42.3178 8.7901 42.6787 8.64831ZM43.9053 17.4328C45.1573 16.2776 46.666 14.574 46.7549 12.7874C46.8474 10.9276 45.2282 9.43851 43.3767 9.67152C41.7246 9.78016 40.5541 11.4588 40.7229 13.045C40.9136 14.8369 42.3233 16.2747 43.5478 17.4804C43.5919 17.5233 43.6678 17.5562 43.7236 17.5762C43.8286 17.5444 43.8338 17.5238 43.9053 17.4328Z" fill="#680000"/>
<path d="M43.3931 10.5298C44.5912 10.3478 45.7094 11.1734 45.8881 12.3721C46.0668 13.5708 45.238 14.6867 44.0389 14.8621C42.8444 15.0368 41.7337 14.212 41.5558 13.018C41.3778 11.8239 42.1995 10.7111 43.3931 10.5298ZM42.614 12.6758C42.6074 13.0026 42.7467 13.3153 42.9939 13.5292C43.2411 13.743 43.5706 13.8358 43.8931 13.7823C44.4924 13.6829 44.8975 13.1163 44.7977 12.517C44.6979 11.9178 44.1311 11.513 43.5319 11.6132C43.0101 11.7005 42.6245 12.1469 42.614 12.6758Z" fill="#680000"/>
<path d="M26.3358 46.6689C26.1626 44.544 26.398 42.1583 26.3004 40.0091C26.2842 39.653 26.294 39.0971 26.4269 38.772C26.7525 38.5095 28.6409 38.6766 29.1346 38.6183C29.4654 38.5793 30.3944 38.5897 30.6748 38.7732C31.023 39.3121 30.7651 43.4647 30.82 44.3798L30.8225 44.4174C30.8517 44.9319 30.7568 46.6401 30.83 47.0189C30.8347 47.2148 30.8631 47.4553 30.7183 47.6101C30.4739 47.8716 27.4293 47.7586 26.918 47.7558C26.7427 47.7549 26.568 47.7579 26.3935 47.7379C26.3427 47.4751 26.3431 46.9559 26.3358 46.6689ZM27.3271 46.6985L29.6742 46.709L29.7689 46.6414C29.8127 46.2117 29.7512 45.397 29.768 44.9148C29.8259 43.2586 29.6926 41.3083 29.7863 39.6785C29.3313 39.7163 27.7286 39.762 27.319 39.6737C27.4265 40.6525 27.3455 42.4862 27.3654 43.5363C27.3774 44.1698 27.3973 46.1442 27.3271 46.6985Z" fill="#680000"/>
<path d="M34.5914 32.0492C35.3552 31.8183 37.0447 31.543 37.6329 31.1781C37.7728 31.0912 44.136 24.1556 44.4146 23.7304C44.33 23.6541 43.3458 23.7747 43.3376 23.1656C43.3325 22.7851 43.6818 22.53 44.0211 22.5544C44.5697 22.5939 45.8192 22.3904 46.2458 22.7378C46.5017 23.2267 46.44 24.6767 46.3192 25.2388C46.2934 25.3586 46.147 25.5864 46.0286 25.6167C45.2114 25.8259 45.3123 24.7608 45.3451 24.3423C44.8021 25.1028 44.1308 25.7762 43.4967 26.4613L41.2179 28.9578L39.3833 30.9858C39.2023 31.1856 38.508 32.0094 38.335 32.1086C37.3764 32.6582 35.392 32.8655 34.3861 33.25C33.992 33.2991 33.6048 33.3935 33.2324 33.5313C32.5476 33.7094 31.3801 33.9522 30.7748 34.1739C30.3237 34.9245 29.5178 36.0112 29.1443 36.6915C28.7654 37.4227 28.2162 37.5553 27.8318 36.728C28.5656 35.7176 29.2598 34.2266 30.0732 33.3297C30.4019 32.9671 32.7858 32.5365 33.404 32.336C33.4933 31.9296 33.4496 31.4941 33.5848 30.9763L34.6972 30.9856C34.685 31.2873 34.5914 31.8854 34.5914 32.0492Z" fill="#680000"/>
<path d="M33.5848 30.9763L34.6972 30.9856C34.685 31.2874 34.5914 31.8854 34.5913 32.0492C34.3011 32.1347 33.6738 32.3353 33.404 32.3361C33.4933 31.9296 33.4496 31.4941 33.5848 30.9763Z" fill="#680000"/>
<path d="M46.874 15.7269C47.0842 16.4086 47.2906 16.9219 47.4932 17.6597C48.278 20.4844 48.5352 23.4295 48.2525 26.3476C48.2078 26.8353 48.0996 28.066 47.9412 28.4684C47.6598 28.4902 47.1123 28.471 46.8111 28.47C47.3016 25.6467 47.2712 23.6157 47.0706 20.7641C45.5213 21.4404 40.0217 23.1244 38.3462 23.1867C38.2949 22.8371 38.2323 22.5838 38.1262 22.2498C38.5112 22.0752 39.4924 21.8791 39.9479 21.7743C40.6828 21.6066 41.4139 21.4226 42.1407 21.2224C43.8569 20.754 45.176 20.2456 46.8294 19.6988C46.5745 18.7695 46.4007 17.7222 46.0654 16.8007C46.2847 16.4708 46.6166 16.0189 46.874 15.7269Z" fill="#680000"/>
<path d="M29.1444 36.6915C30.1324 36.5496 31.1529 36.5321 32.1142 36.3932C32.1471 36.7387 32.1235 37.1581 32.1133 37.5114C31.3017 37.6335 30.1048 37.6841 29.2641 37.737C26.2474 37.9398 23.2206 37.9435 20.2035 37.7479C19.3847 37.6949 18.3908 37.656 17.6032 37.5315C17.6785 37.3366 18.0622 36.7295 18.1996 36.4789C18.8268 36.6083 20.2361 36.6542 20.9141 36.6835C22.5648 36.7555 24.2172 36.7789 25.8692 36.7535C26.4651 36.7475 27.2467 36.7609 27.8319 36.728C28.2162 37.5553 28.7654 37.4226 29.1444 36.6915Z" fill="#680000"/>
<path d="M42.7748 37.3892L42.8024 37.3852C43.0565 37.2308 43.8645 35.8771 44.0591 35.5502C44.1382 35.952 44.0624 37.49 44.1051 37.5879C43.8918 37.8552 42.9081 39.1078 42.8208 39.3119C42.6874 38.921 42.8012 37.8644 42.7748 37.3892Z" fill="#680000"/>
<path d="M36.7583 43.2634C37.086 43.0157 37.7392 42.5287 38.0979 42.3616C38.1448 42.8517 38.0793 43.3616 38.115 43.7584C37.8926 43.8281 37.0985 44.3415 36.7769 44.5046C36.7497 44.1321 36.7773 43.6673 36.7583 43.2634Z" fill="#680000"/>
<path d="M36.732 35.7199C37.0559 35.7138 37.7597 35.6147 38.1042 35.5752C38.1137 35.9546 38.1036 36.2953 38.0899 36.675C37.8505 36.7048 36.9524 36.8019 36.7831 36.872L36.732 35.7199Z" fill="#680000"/>
</svg>
