<svg width="102" height="100" viewBox="0 0 102 100" fill="none" xmlns="http://www.w3.org/2000/svg">
<path d="M20.8298 10.3774C29.2651 3.92474 39.6062 0.459241 50.2264 0.526096C63.8366 0.645177 77.1898 6.60693 86.0444 16.9905C86.1578 17.1234 86.2772 17.3412 86.3577 17.4991C85.6273 17.786 84.9014 18.0845 84.1804 18.3942C83.9428 18.0509 84.0296 18.0607 83.7003 17.9548C82.6002 18.1721 81.3781 18.6939 80.2994 19.0334C76.3862 20.2648 72.3827 20.9151 68.3328 21.5212C68.4838 23.0276 68.9358 24.8016 69.1891 26.3331C69.8013 29.9614 70.2445 33.6162 70.5178 37.2856C70.5877 38.233 70.7378 39.4936 70.7363 40.4189C76.0224 40.1564 75.614 39.8403 77.146 45.0208C77.3605 45.6968 77.4873 46.2092 77.591 46.9167C77.5346 49.1976 76.7438 48.9315 76.3102 50.8532C76.2248 51.2317 76.2782 53.4476 76.2827 53.9814C76.2976 55.8515 76.2927 57.7216 76.2677 59.5915C76.2217 62.0121 76.7393 62.9206 73.6777 62.7822C72.6613 62.7363 71.2401 62.6989 70.2077 62.6974L67.9568 62.6785C65.3823 62.7181 62.8075 62.734 60.2327 62.7264C58.4141 62.7383 55.9293 62.8211 54.1747 62.6596C53.7865 60.7812 54.3225 50.2003 53.682 49.6051C52.2129 49.7397 49.4487 49.7037 47.9155 49.6611C42.4502 49.5093 36.2764 49.1505 30.8657 48.413C30.9006 52.317 30.9445 57.287 31.4285 61.1717C36.2058 62.3074 38.8724 66.6033 37.7301 71.3882C37.5357 72.2324 37.2317 73.0476 36.8258 73.8128C36.5476 74.3198 35.7713 75.5482 35.619 75.9427C35.0587 76.5455 34.6379 77.1788 34.1113 77.8002C34.6542 79.766 35.0894 81.7944 35.636 83.791C36.4763 86.8892 37.4621 89.9459 38.5901 92.9513C42.9806 94.4911 48.7026 94.5445 53.2888 94.4315C53.3037 95.0121 53.3028 96.0628 53.4057 96.5945C50.4307 96.6948 47.1295 96.7778 44.1713 96.4127C36.486 95.4639 28.5798 92.3387 22.2521 87.9092C11.5706 80.5867 4.32967 69.232 2.1961 56.4586C0.276305 45.4172 2.99506 31.5354 9.49094 22.3215C8.74705 21.3366 7.88985 20.5103 7.17149 19.4523C5.11075 16.4174 3.86264 12.8337 5.62034 9.33538C8.90249 2.80299 18.4765 3.2563 20.8298 10.3774ZM30.856 46.1271C32.7353 46.3068 34.6207 46.5836 36.4913 46.742C41.9898 47.2127 47.5071 47.4289 53.0257 47.3897C53.1235 48.0573 53.397 48.9931 53.682 49.6051C54.3225 50.2003 53.7865 60.7812 54.1747 62.6596C55.9293 62.8211 58.4141 62.7383 60.2327 62.7264C62.8075 62.734 65.3823 62.7181 67.9568 62.6785L70.2077 62.6974C71.2401 62.6989 72.6613 62.7363 73.6777 62.7822C76.7393 62.9206 76.2217 62.0121 76.2677 59.5915C76.2927 57.7216 76.2976 55.8515 76.2827 53.9814C76.2782 53.4476 76.2248 51.2317 76.3102 50.8532C76.7438 48.9315 77.5346 49.1976 77.591 46.9167C77.4873 46.2092 77.3605 45.6968 77.146 45.0208C75.614 39.8403 76.0224 40.1564 70.7363 40.4189C69.9366 40.4208 69.2506 40.4241 68.4551 40.3571C68.2381 38.5179 68.268 36.6176 68.0092 34.7517C67.6922 32.4657 67.4459 30.1032 67.086 27.8258C66.7647 25.7915 66.318 23.7229 65.9761 21.6845C63.3994 22.2895 57.8518 22.4595 55.1507 22.5397C49.3756 22.7112 43.2776 22.6587 37.5122 22.1624C36.5833 22.0824 34.4815 21.8973 33.6447 21.6162C33.1421 23.6146 32.8512 25.4845 32.5182 27.5189C31.5012 33.6715 30.9456 39.8916 30.856 46.1271ZM21.9273 71.853C21.8492 71.4966 21.7485 71.0764 21.6897 70.7238C21.3179 68.5244 21.8291 66.2671 23.1126 64.4426C24.6899 62.2282 26.5401 61.4698 29.0931 61.0398C28.9636 56.5906 28.4965 52.5479 28.5239 47.9784C26.3254 47.7899 24.6317 47.4336 22.4778 47.0072C18.0329 46.1222 13.638 45.0022 9.31162 43.6518C7.85892 43.1954 5.71421 42.5341 4.36372 41.8831C4.29697 43.2166 4.07089 44.5329 3.99621 45.8843C3.55746 53.8232 4.90483 61.9436 8.71179 68.9897C11.6045 69.6652 14.4894 70.3961 17.3975 71.0029C18.8994 71.3164 20.4174 71.5249 21.9273 71.853ZM4.64558 39.8302C5.8443 40.048 7.31161 40.6142 8.49919 41.0032C10.2955 41.5878 12.1036 42.1356 13.9224 42.6464C19.0227 44.0677 23.3753 44.8267 28.5071 45.7996C28.7541 39.0997 29.2302 32.7984 30.3606 26.2065C30.5652 25.0141 30.9246 22.4992 31.2897 21.467C29.0699 21.2191 20.9589 19.8295 19.2111 18.9736C18.0497 20.4994 15.1871 24.3777 13.1046 25.0665C12.5874 25.2375 11.6034 24.1952 11.0954 23.8603C10.5259 24.8994 9.85917 25.9317 9.309 26.9706C8.06829 29.3498 7.02412 31.8264 6.18693 34.3757C5.62359 36.0549 5.24674 38.2777 4.64558 39.8302ZM35.8636 92.1691C34.8137 89.1267 33.8792 86.0457 33.0621 82.9326C32.9182 82.3857 32.3889 79.9345 32.2107 79.7008C31.7735 80.0997 30.1774 81.7083 29.6674 81.4748C27.8576 80.6462 25.8541 78.1994 24.6061 76.7166C23.8975 75.8747 23.4523 75.0529 22.9301 74.2825C21.861 74.1985 19.7774 73.7838 18.6498 73.5471C15.9955 72.9899 12.6915 72.4118 10.1247 71.6057C10.8702 73.0128 12.8694 75.7354 13.8963 76.9959C19.586 84.0837 27.2206 89.3569 35.8636 92.1691ZM12.8901 6.86743C11.6594 7.01317 10.8708 7.24305 9.8124 7.91216C7.94032 9.09563 6.80934 11.5413 7.09524 13.7426C7.52091 17.02 10.0895 19.6104 12.2583 21.9035C12.4932 22.1519 12.7914 22.4197 13.1345 22.4813C15.7123 19.9008 18.9686 16.7755 18.9613 12.8669C18.9685 11.2499 18.3194 9.69911 17.1623 8.56953C16.1548 7.57523 14.3124 6.78485 12.8901 6.86743ZM28.9921 63.317C27.205 63.692 25.8216 64.3892 24.8108 65.9752C22.1384 70.1687 25.366 74.5797 28.3358 77.538C28.6949 77.8955 29.4133 78.7001 29.8457 78.8797C30.0806 78.7926 30.0142 78.8534 30.1466 78.6655C32.5532 75.691 36.1786 73.1515 35.6712 68.4811C35.5085 66.9427 34.7327 65.5348 33.5191 64.5753C32.0985 63.4376 30.7362 63.2495 28.9921 63.317ZM65.5443 19.5216C63.9997 13.8367 63.1016 9.82393 60.7734 4.19177C57.3504 3.2739 52.5805 2.70168 49.0275 2.87418C46.9984 2.9895 45.0459 3.09068 43.0332 3.38884C41.5835 3.6036 40.0913 4.04162 38.6712 4.23242C37.4621 7.34264 36.4091 10.5112 35.5159 13.7265C34.9793 15.6687 34.5491 17.6281 34.0214 19.5491C35.5881 19.5834 37.5967 19.8888 39.2144 19.999C42.8959 20.2499 46.7826 20.5233 50.4639 20.4555C55.5036 20.4107 60.5375 20.099 65.5443 19.5216ZM20.2609 17.0688C21.9993 17.3571 23.9528 17.9495 25.7301 18.2727C27.6657 18.6247 29.7654 18.8888 31.6728 19.308C32.6185 15.1943 34.3697 8.84965 35.9266 5.02209C31.8436 6.06174 24.502 10.0454 21.3061 12.8494C21.107 14.4304 20.9336 15.5828 20.2609 17.0688ZM67.7124 19.3889C71.0748 18.598 76.2526 18.1579 79.4143 16.9021C80.2648 16.6396 81.2864 16.3515 82.0997 16.0248C77.384 11.7112 73.2011 8.64859 67.1868 6.18893C66.2267 5.79628 64.5181 5.11694 63.5433 4.912C64.9848 9.05511 67.068 15.0481 67.7124 19.3889Z" fill="#680000"/>
<path d="M68.4551 40.3573C69.2506 40.4243 69.9366 40.4209 70.7363 40.419C76.0224 40.1565 75.6141 39.8405 77.146 45.0209C77.3605 45.6969 77.4873 46.2093 77.591 46.9168C77.5346 49.1977 76.7438 48.9317 76.3102 50.8534C76.2248 51.2319 76.2782 53.4477 76.2827 53.9816C76.2977 55.8516 76.2927 57.7217 76.2677 59.5916C76.2217 62.0123 76.7394 62.9207 73.6777 62.7824C72.6613 62.7365 71.2401 62.6991 70.2077 62.6975L67.9568 62.6787C65.3823 62.7182 62.8075 62.7341 60.2327 62.7265C58.4142 62.7384 55.9293 62.8212 54.1747 62.6597C53.7865 60.7813 54.3226 50.2004 53.682 49.6052C53.397 48.9932 53.1235 48.0575 53.0257 47.3899C52.781 45.7666 54.2391 42.0554 55.1466 40.6423C55.4279 40.2043 59.2442 40.3525 59.9909 40.3534L68.4551 40.3573ZM69.2507 52.2437C69.677 53.7083 69.541 55.0538 69.5368 56.5918C69.5382 57.8061 69.5852 59.3669 69.5297 60.5527C71.0046 60.5302 72.5724 60.4927 74.0458 60.5598C73.872 59.4642 73.9301 57.0113 73.9363 55.8136C73.9433 54.4728 73.875 52.1448 74.0255 50.8626C73.0979 50.7038 72.0981 49.8679 71.4674 50.2469C69.9269 51.1727 68.9131 51.0895 67.4214 49.9163C66.9434 50.4539 66.2269 50.8289 65.4981 50.8702C64.2736 50.9395 63.7521 50.0791 63.0606 50.0269C62.2112 49.9628 61.1962 52.0582 58.4152 49.904C57.8813 50.5624 57.382 50.7129 56.5355 50.7984C56.4294 50.809 56.3231 50.8184 56.2167 50.8264C56.2539 52.901 56.2663 54.9761 56.254 57.051C56.254 58.0312 56.2986 59.6324 56.2275 60.5559C57.7132 60.5292 59.2895 60.4974 60.7751 60.5587C60.6016 59.3897 60.5191 53.2732 60.9686 52.5557C61.1323 52.2943 61.6936 52.1896 61.9735 52.1514C63.4894 51.9446 67.7814 51.9904 69.2507 52.2437ZM73.0763 47.4807C73.0583 48.4529 74.1256 49.0435 74.9469 48.3787C75.1756 48.025 75.2794 47.9966 75.2787 47.6437C74.9853 47.3784 73.6201 47.541 73.0763 47.4807ZM66.098 48.3181C66.3134 47.9707 66.3562 48.0213 66.3534 47.6717C65.8238 47.2829 64.9975 47.665 64.0672 47.4771C64.0903 47.7928 64.3142 48.1843 64.5479 48.3829C65.1143 48.8639 65.6122 48.6016 66.098 48.3181ZM68.4986 47.5766L69.1371 48.4894C70.04 49.0192 70.4888 48.4348 70.9801 47.6988L70.9472 47.5513L70.9007 47.536C70.1143 47.5501 69.2809 47.58 68.4986 47.5766ZM59.5318 47.5664L60.1297 48.5004C61.1161 48.9782 61.4781 48.5239 61.9989 47.6957L61.9586 47.5572L61.9153 47.5415C61.1475 47.5512 60.2922 47.5812 59.5318 47.5664ZM74.0376 42.6528C68.4143 42.5049 62.3991 42.6851 56.6976 42.6091C56.1285 43.0707 56.2463 44.2805 55.6137 45.3205L67.331 45.2957C69.4493 45.2962 71.8021 45.2474 73.9014 45.3003C74.3353 45.3151 74.4749 45.3897 74.8162 45.2057C74.938 44.8672 74.1992 43.1877 74.0376 42.6528ZM55.7826 48.5708C56.6313 48.8128 57.6656 48.2385 57.3506 47.5126L57.2307 47.5275C56.7728 47.5229 55.6072 47.4314 55.2929 47.7085C55.2597 48.0963 55.519 48.3077 55.7826 48.5708ZM67.361 54.3349C66.0061 54.3955 64.2568 54.4015 62.9129 54.3293C62.8238 54.7855 62.8478 55.5017 62.8603 55.9789C62.9009 57.5185 62.8728 59.0191 62.8316 60.554C63.5881 60.5395 66.9665 60.5741 67.3567 60.5013C67.2301 59.3756 67.2455 55.517 67.361 54.3349Z" fill="#680000"/>
<path d="M29.0931 61.04C29.8508 61.0773 30.6789 61.1018 31.4285 61.1719C36.2058 62.3076 38.8725 66.6035 37.7301 71.3884C37.5358 72.2326 37.2318 73.0478 36.8258 73.813C36.5477 74.32 35.7713 75.5484 35.6191 75.9429C35.0587 76.5457 34.6379 77.179 34.1113 77.8004C33.7127 78.172 32.5006 79.2987 32.2108 79.701C31.7736 80.0999 30.1775 81.7085 29.6674 81.475C27.8576 80.6464 25.8541 78.1996 24.6062 76.7168C23.8976 75.8749 23.4524 75.0531 22.9301 74.2827L21.9274 71.8532C21.8492 71.4968 21.7486 71.0766 21.6898 70.724C21.3179 68.5246 21.8291 66.2673 23.1126 64.4428C24.69 62.2284 26.5402 61.47 29.0931 61.04ZM30.1466 78.6657C32.5532 75.6912 36.1786 73.1517 35.6712 68.4813C35.5085 66.9429 34.7327 65.535 33.5192 64.5755C32.0985 63.4378 30.7362 63.2497 28.9921 63.3172C27.205 63.6922 25.8216 64.3894 24.8109 65.9754C22.1384 70.1688 25.366 74.5799 28.3359 77.5382C28.6949 77.8957 29.4133 78.7003 29.8457 78.8799C30.0806 78.7928 30.0143 78.8536 30.1466 78.6657Z" fill="#680000"/>
<path d="M29.0508 65.0709C30.5606 64.8083 32.0952 65.3768 33.0695 66.5596C34.0439 67.7425 34.308 69.3575 33.7611 70.7891C33.2143 72.2207 31.9407 73.2484 30.4259 73.4804C28.1164 73.834 25.9529 72.2619 25.576 69.9563C25.1989 67.6505 26.749 65.4712 29.0508 65.0709ZM29.9353 71.3308C30.8095 71.2691 31.5488 70.6607 31.7775 69.8146C32.0063 68.9685 31.6741 68.0703 30.9499 67.5767C30.5703 67.3179 30.115 67.1935 29.6566 67.2234C28.52 67.2974 27.6597 68.2804 27.7367 69.4167C27.8138 70.5532 28.799 71.4109 29.9353 71.3308Z" fill="#680000"/>
<path d="M9.49095 22.3217C8.74707 21.3368 7.88986 20.5105 7.1715 19.4525C5.11076 16.4176 3.86265 12.8339 5.62035 9.33558C8.90251 2.80319 18.4765 3.2565 20.8298 10.3776C20.941 11.0458 21.1077 12.2485 21.3062 12.8496C21.107 14.4306 20.9336 15.583 20.2609 17.069C20.0122 17.5218 19.4676 18.59 19.2111 18.9738C18.0497 20.4996 15.1871 24.3779 13.1046 25.0667C12.5874 25.2377 11.6034 24.1954 11.0954 23.8605C10.7938 23.4139 9.92784 22.6599 9.49095 22.3217ZM13.1345 22.4815C15.7123 19.901 18.9687 16.7757 18.9613 12.8671C18.9686 11.2501 18.3194 9.69931 17.1623 8.56973C16.1548 7.57543 14.3124 6.78506 12.8901 6.86764C11.6594 7.01337 10.8708 7.24325 9.81241 7.91236C7.94033 9.09583 6.80935 11.5415 7.09525 13.7428C7.52092 17.0202 10.0896 19.6106 12.2583 21.9037C12.4932 22.1521 12.7914 22.4199 13.1345 22.4815Z" fill="#680000"/>
<path d="M12.1991 8.74966C14.5187 8.29823 16.7641 9.81537 17.2108 12.1358C17.6575 14.4562 16.1358 16.6986 13.8146 17.1406C11.4998 17.5814 9.26528 16.065 8.81983 13.7512C8.37438 11.4374 9.88624 9.1998 12.1991 8.74966ZM10.9528 12.8418C10.9252 13.3991 11.1236 13.9439 11.503 14.353C11.9915 14.8795 12.7178 15.1155 13.4224 14.9766C14.1544 14.8323 14.7523 14.3055 14.9875 13.5975C15.2228 12.8895 15.0591 12.1096 14.5591 11.5559C14.0591 11.0022 13.2999 10.7602 12.5716 10.9223C11.6615 11.1249 10.9989 11.9106 10.9528 12.8418Z" fill="#680000"/>
<path d="M94.7194 57.6071C95.3288 57.6093 96.4365 57.6479 97.0061 57.604C98.3184 57.5724 98.6602 58.0503 98.7022 59.2746C98.7549 60.7791 98.7383 62.2734 98.7354 63.7777L98.7256 71.6475L98.7275 94.7417C98.7227 95.4761 98.7666 95.846 98.2871 96.4026C97.5332 96.7703 89.8152 96.8434 89.3915 96.255C89.0486 95.1846 89.1627 92.0514 89.1624 90.7857L89.165 79.9161C89.166 78.9531 89.279 76.8693 89.2439 76.0567C89.1575 75.8587 89.311 72.7465 89.1508 71.9335L89.1809 71.8393L89.0902 71.6444C88.2582 71.8576 87.4239 72.0618 86.5874 72.2569C86.5035 71.533 86.5304 70.7516 86.5445 70.0232C87.2123 69.775 88.8642 69.4971 89.2272 69.2473C89.1371 66.989 89.2346 64.4951 89.151 62.2923C88.9267 56.3809 89.5141 57.6845 94.7194 57.6071ZM91.356 94.5787C93.1538 94.4678 94.8129 94.5814 96.484 94.5201L96.4859 72.3257C96.4864 68.1976 96.4334 63.9449 96.5134 59.8333C95.3447 59.8891 92.4396 59.9894 91.3817 59.816C91.5731 66.8212 91.4079 74.5609 91.4119 81.6177L91.4153 89.9344C91.4154 91.2551 91.4784 93.3482 91.356 94.5787Z" fill="#680000"/>
<path d="M86.5445 70.0233C87.2123 69.7751 88.8642 69.4971 89.2272 69.2473C89.2399 69.7089 89.3198 71.5281 89.1809 71.8393L89.0902 71.6445C88.2582 71.8577 87.4239 72.0619 86.5874 72.257C86.5035 71.5331 86.5304 70.7516 86.5445 70.0233Z" fill="#680000"/>
<path d="M77.1015 71.984L77.0923 71.7137C77.0625 70.7652 76.8118 68.1281 77.4036 67.4974C78.9693 66.924 82.7297 67.3635 84.5331 67.2258C86.9146 67.0441 86.6784 68.1008 86.5445 70.0232C86.5304 70.7515 86.5035 71.533 86.5874 72.2569C86.6116 73.0646 86.6664 74.9067 86.5521 75.6546C86.6056 76.6162 86.3754 78.7541 86.6453 79.5452C86.48 84.7051 86.7371 89.9471 86.5814 95.1117C86.5702 95.4823 86.4278 96.1377 86.1676 96.4188C85.4136 96.7615 77.7227 96.8426 77.3031 96.2739C76.9126 95.2883 77.0032 89.7909 77.1234 88.5424C77.0511 87.7395 77.1836 86.7077 77.0888 85.716C77.1397 85.0483 77.0615 82.9502 77.0595 82.1517L77.0726 74.2093C77.1002 73.4412 77.1208 72.7517 77.1015 71.984ZM79.301 94.5357C80.8054 94.5166 82.926 94.4308 84.3802 94.5366L84.3816 77.8947C84.3839 75.4454 84.2811 71.6781 84.4223 69.3286C83.1271 69.3552 80.4504 69.4713 79.2865 69.3052C79.3833 77.6484 79.3212 86.1817 79.301 94.5357Z" fill="#680000"/>
<path d="M67.2437 67.8484C67.9973 67.5695 68.7807 67.3785 69.5781 67.2793C69.4126 68.4194 69.2458 70.5072 68.9201 71.503C70.1134 71.5193 71.6752 71.4402 72.8039 71.5128C73.4751 71.5597 74.0367 71.5599 74.325 72.2769L74.4283 74.608L74.4302 82.7479C74.4287 84.2376 74.4722 86.0838 74.3782 87.5407C74.4166 88.358 74.3607 89.2985 74.4158 90.0522C74.4274 91.1905 74.6445 95.6221 74.1198 96.3293C72.8756 96.9732 67.1119 96.5975 65.463 96.5113C64.8257 96.478 64.9378 94.8643 64.9647 94.4069C64.3967 94.5554 62.7991 94.9248 62.3825 95.1397C62.2346 94.3732 62.4265 90.9168 62.3674 89.8758C62.8566 88.8279 64.573 83.1094 64.778 81.9116C65.0096 80.829 64.9829 77.2023 64.9793 75.9021C64.9999 75.1871 65.0477 74.3385 64.9811 73.6394C64.8564 72.1412 64.9311 71.6061 66.6105 71.4926C66.7738 71.1963 67.1514 68.4146 67.2437 67.8484ZM64.9701 91.9993C64.9125 91.0207 65.0351 89.9681 65.0203 88.9398C64.6654 89.6249 64.0688 91.558 63.7597 92.3911L64.9701 91.9993ZM67.1335 94.5112C68.7586 94.5082 70.6112 94.445 72.2065 94.5345C72.1549 93.4199 72.218 92.2046 72.1993 91.0592C72.1509 86.6648 72.1643 82.27 72.2396 77.8761C72.2642 76.6774 72.0547 74.6382 72.1295 73.6686C71.1762 73.7239 68.0132 73.8133 67.1572 73.6571C67.1123 75.2366 67.181 77.0786 67.1837 78.685L67.1784 88.9122C67.1788 90.673 67.2286 92.7779 67.1335 94.5112Z" fill="#680000"/>
<path d="M62.3674 89.8758C62.8566 88.8279 64.573 83.1094 64.778 81.9116C65.0064 83.1163 64.9947 83.6796 65.0233 84.8247C65.0389 85.4475 64.912 88.6077 65.0203 88.9397C64.6654 89.6249 64.0688 91.558 63.7597 92.3911L64.9701 91.9993C65.0171 92.868 64.9984 93.5343 64.9647 94.4069C64.3967 94.5554 62.7991 94.9248 62.3825 95.1396C62.2346 94.3732 62.4265 90.9168 62.3674 89.8758Z" fill="#680000"/>
<path d="M67.2436 67.8484C67.9973 67.5695 68.7807 67.3785 69.5781 67.2793C69.4126 68.4194 69.2458 70.5072 68.9201 71.503C70.1134 71.5193 71.6752 71.4402 72.8039 71.5128C72.0597 71.6024 67.206 71.6519 66.6105 71.4926C66.7738 71.1963 67.1514 68.4146 67.2436 67.8484Z" fill="#680000"/>
<path d="M86.3577 17.4993C89.0789 17.0794 91.2618 17.2318 93.5649 18.9259C95.2621 20.1722 96.3959 22.0407 96.7174 24.1216C97.1503 26.9781 96.2954 29.3921 94.8465 31.8225C94.3258 32.4133 93.6542 33.3278 93.2104 33.9951C92.9259 34.3633 92.6249 34.7185 92.3082 35.0594C91.5792 35.855 89.3301 38.1355 88.2633 38.1806C87.5973 37.9895 87.0767 37.3934 86.5615 36.9392C82.2629 33.149 78.0191 27.2122 81.2581 21.4277C82.0203 20.0663 82.9749 19.3226 84.1804 18.3945C84.9015 18.0847 85.6273 17.7863 86.3577 17.4993ZM88.8396 35.2741C91.373 32.9367 94.4257 29.4897 94.6056 25.8746C94.7928 22.1114 91.5165 19.0983 87.7701 19.5698C84.4271 19.7896 82.0587 23.1862 82.4002 26.3957C82.7861 30.0216 85.6386 32.9309 88.1163 35.3705C88.2055 35.4573 88.359 35.524 88.472 35.5644C88.6845 35.4999 88.6949 35.4584 88.8396 35.2741Z" fill="#680000"/>
<path d="M87.8031 21.3062C90.2276 20.938 92.4902 22.6086 92.8517 25.0341C93.2133 27.4596 91.5363 29.7175 89.11 30.0724C86.693 30.4259 84.4456 28.7569 84.0855 26.3409C83.7253 23.9249 85.3881 21.673 87.8031 21.3062ZM86.2267 25.6485C86.2135 26.3098 86.4952 26.9426 86.9954 27.3753C87.4957 27.808 88.1624 27.9957 88.815 27.8875C90.0277 27.6864 90.8474 26.5399 90.6454 25.3273C90.4435 24.1148 89.2965 23.2958 88.0841 23.4985C87.0283 23.6751 86.248 24.5784 86.2267 25.6485Z" fill="#680000"/>
<path d="M53.2887 94.4315C52.9384 90.1318 53.4147 85.3045 53.2172 80.9559C53.1844 80.2352 53.2042 79.1104 53.4732 78.4526C54.1319 77.9215 57.9531 78.2595 58.952 78.1416C59.6214 78.0626 61.5012 78.0838 62.0684 78.4551C62.773 79.5455 62.2512 87.948 62.3624 89.7996L62.3674 89.8758C62.4264 90.9168 62.2345 94.3732 62.3825 95.1397C62.3922 95.5361 62.4496 96.0227 62.1566 96.3359C61.6621 96.8649 55.5015 96.6364 54.467 96.6308C54.1121 96.6288 53.7588 96.6351 53.4056 96.5945C53.3028 96.0628 53.3037 95.0121 53.2887 94.4315ZM55.2946 94.4913L60.0439 94.5125L60.2354 94.3759C60.3242 93.5064 60.1997 91.8579 60.2338 90.8821C60.3509 87.531 60.081 83.5846 60.2707 80.2867C59.3501 80.3633 56.107 80.4558 55.2782 80.2772C55.4959 82.2576 55.3318 85.9681 55.3721 88.0928C55.3964 89.3747 55.4368 93.3697 55.2946 94.4913Z" fill="#680000"/>
<path d="M69.9934 64.8496C71.5389 64.3824 74.9576 63.8253 76.1477 63.0869C76.4308 62.9112 89.3065 48.8774 89.8701 48.017C89.6989 47.8627 87.7075 48.1067 87.6909 46.8741C87.6805 46.1043 88.3875 45.588 89.074 45.6375C90.184 45.7173 92.7124 45.3056 93.5755 46.0085C94.0933 46.9977 93.9684 49.9318 93.7239 51.0692C93.6718 51.3115 93.3755 51.7724 93.136 51.8338C91.4824 52.2572 91.6867 50.1019 91.753 49.255C90.6542 50.794 89.2959 52.1566 88.0127 53.5427L83.4018 58.5944L79.6896 62.6978C79.3234 63.1022 77.9184 64.7691 77.5684 64.9698C75.6288 66.0818 71.6134 66.5013 69.5781 67.2794C68.7806 67.3786 67.9972 67.5696 67.2436 67.8485C65.8581 68.2089 63.4957 68.7003 62.2709 69.1487C61.3582 70.6675 59.7274 72.8664 58.9717 74.243C58.2049 75.7224 57.0937 75.9909 56.316 74.3169C57.8006 72.2723 59.2054 69.2553 60.8511 67.4405C61.5164 66.7069 66.3399 65.8356 67.5909 65.4299C67.7715 64.6076 67.6832 63.7263 67.9568 62.6786L70.2077 62.6974C70.183 63.308 69.9935 64.5181 69.9934 64.8496Z" fill="#680000"/>
<path d="M67.9568 62.6787L70.2077 62.6976C70.183 63.3081 69.9935 64.5183 69.9934 64.8497C69.4062 65.0226 68.1368 65.4286 67.5909 65.4301C67.7716 64.6077 67.6832 63.7265 67.9568 62.6787Z" fill="#680000"/>
<path d="M94.8465 31.8223C95.2719 33.2017 95.6895 34.2402 96.0995 35.733C97.6875 41.4486 98.208 47.408 97.6359 53.3125C97.5454 54.2993 97.3266 56.7896 97.0061 57.6039C96.4365 57.6479 95.3288 57.6092 94.7193 57.607C95.7117 51.8943 95.6503 47.7847 95.2443 42.0147C92.1095 43.3831 80.9813 46.7906 77.591 46.9167C77.4873 46.2092 77.3605 45.6968 77.146 45.0208C77.925 44.6676 79.9104 44.2709 80.832 44.0588C82.3191 43.7193 83.7984 43.3471 85.269 42.9421C88.7416 41.9941 91.4107 40.9655 94.7563 39.8591C94.2406 37.9788 93.889 35.8595 93.2104 33.9949C93.6542 33.3275 94.3258 32.4131 94.8465 31.8223Z" fill="#680000"/>
<path d="M58.9718 74.243C60.971 73.9559 63.036 73.9206 64.9812 73.6394C65.0477 74.3385 64.9999 75.1872 64.9793 75.9021C63.3371 76.1492 60.9153 76.2515 59.214 76.3585C53.11 76.7689 46.9855 76.7763 40.8805 76.3805C39.2237 76.2734 37.2126 76.1947 35.6191 75.9427C35.7713 75.5483 36.5477 74.3199 36.8258 73.8128C38.0948 74.0748 40.9465 74.1676 42.3184 74.2268C45.6584 74.3726 49.002 74.4198 52.3447 74.3684C53.5505 74.3564 55.132 74.3834 56.316 74.3168C57.0938 75.9909 58.205 75.7224 58.9718 74.243Z" fill="#680000"/>
<path d="M86.552 75.6548L86.6079 75.6467C87.122 75.3343 88.757 72.5951 89.1507 71.9336C89.3109 72.7466 89.1575 75.8588 89.2438 76.0568C88.8123 76.5977 86.8218 79.1322 86.6453 79.5453C86.3754 78.7542 86.6055 76.6163 86.552 75.6548Z" fill="#680000"/>
<path d="M74.3782 87.5409C75.0413 87.0396 76.363 86.0542 77.0887 85.7161C77.1836 86.7078 77.0511 87.7396 77.1233 88.5425C76.6734 88.6834 75.0665 89.7223 74.4158 90.0524C74.3607 89.2987 74.4166 88.3582 74.3782 87.5409Z" fill="#680000"/>
<path d="M74.325 72.277C74.9804 72.2645 76.4045 72.064 77.1014 71.9841C77.1208 72.7518 77.1002 73.4413 77.0725 74.2094C76.5881 74.2698 74.7708 74.4663 74.4283 74.6082L74.325 72.277Z" fill="#680000"/>
</svg>
