<svg width="22" height="27" viewBox="0 0 22 27" fill="none" xmlns="http://www.w3.org/2000/svg">
<path d="M11.3027 0.512695C13.8498 0.641432 16.265 1.72839 18.0732 3.56836C20.0015 5.53085 21.0828 8.19035 21.083 10.96C21.0829 14.2387 19.3097 17.4965 17.3535 20.1123C15.381 22.7498 13.1321 24.8543 12.0039 25.8457H12.0029C11.9897 25.8573 11.9784 25.8667 11.9727 25.8711C11.9697 25.8734 11.9661 25.876 11.9648 25.877L11.9639 25.8779C11.6695 26.103 11.3175 26.2381 10.9502 26.2686L10.792 26.2754C10.3685 26.2753 9.95589 26.1354 9.61914 25.8779L9.61719 25.876C9.60622 25.8675 9.59624 25.8591 9.59082 25.8545C9.58648 25.8508 9.58143 25.8468 9.58008 25.8457C8.45199 24.8544 6.20197 22.7496 4.22949 20.1123C2.27344 17.4967 0.500114 14.2385 0.5 10.96C0.500205 8.19028 1.58149 5.53085 3.50977 3.56836C5.43867 1.60543 8.0585 0.500133 10.792 0.5L11.3027 0.512695ZM10.792 7.56934C8.95831 7.5694 7.46391 9.08366 7.46387 10.9609L7.46777 11.1357C7.55736 12.9312 9.01573 14.3525 10.792 14.3525L10.9629 14.3477C12.7174 14.2569 14.1199 12.7793 14.1201 10.9609L14.1162 10.7861C14.0297 9.04853 12.6609 7.66208 10.9629 7.57422L10.792 7.56934Z" fill="#87240E"/>
<path d="M11.3027 0.512695L11.328 0.0131685L11.3152 0.0128497L11.3027 0.512695ZM18.0732 3.56836L18.4299 3.21793L18.4299 3.21789L18.0732 3.56836ZM21.083 10.96L21.583 10.96V10.9599L21.083 10.96ZM17.3535 20.1123L17.7539 20.4118L17.7539 20.4118L17.3535 20.1123ZM12.0039 25.8457V26.3457C12.1254 26.3457 12.2427 26.3015 12.334 26.2213L12.0039 25.8457ZM12.0029 25.8457V25.3457C11.8818 25.3457 11.7648 25.3897 11.6737 25.4694L12.0029 25.8457ZM11.9727 25.8711L12.2778 26.2672L12.2781 26.2669L11.9727 25.8711ZM11.9648 25.877L11.6636 25.4779C11.6451 25.4918 11.6277 25.507 11.6113 25.5234L11.9648 25.877ZM11.9639 25.8779L12.2676 26.2751C12.2852 26.2617 12.3018 26.2471 12.3174 26.2315L11.9639 25.8779ZM10.9502 26.2686L10.9718 26.7681C10.9784 26.7678 10.9849 26.7674 10.9915 26.7668L10.9502 26.2686ZM10.792 26.2754L10.7918 26.7754C10.7991 26.7754 10.8063 26.7752 10.8136 26.7749L10.792 26.2754ZM9.61914 25.8779L9.26559 26.2315C9.28122 26.2471 9.29788 26.2617 9.31544 26.2751L9.61914 25.8779ZM9.61719 25.876L9.97074 25.5224C9.95582 25.5075 9.93996 25.4935 9.92327 25.4806L9.61719 25.876ZM9.59082 25.8545L9.2652 26.2339L9.26585 26.2345L9.59082 25.8545ZM9.58008 25.8457L9.25003 26.2213C9.25532 26.2259 9.26071 26.2305 9.26619 26.2349L9.58008 25.8457ZM4.22949 20.1123L3.82907 20.4117L3.82909 20.4118L4.22949 20.1123ZM0.5 10.96L0 10.9599V10.96L0.5 10.96ZM3.50977 3.56836L3.15313 3.21791L3.15312 3.21793L3.50977 3.56836ZM10.792 0.5L10.8044 -5.96046e-07L10.792 0L10.792 0.5ZM10.792 7.56934L10.8063 7.06954C10.8015 7.0694 10.7967 7.06934 10.792 7.06934L10.792 7.56934ZM7.46387 10.9609L6.96374 10.9609L6.96399 10.9721L7.46387 10.9609ZM7.46777 11.1357L6.96771 11.1469L6.96839 11.1607L7.46777 11.1357ZM10.792 14.3525L10.792 14.8525C10.7967 14.8525 10.8015 14.8525 10.8063 14.8523L10.792 14.3525ZM10.9629 14.3477L10.9772 14.8476L10.9887 14.847L10.9629 14.3477ZM14.1201 10.9609L14.6202 10.961L14.62 10.9498L14.1201 10.9609ZM14.1162 10.7861L14.6163 10.775L14.6156 10.7613L14.1162 10.7861ZM10.9629 7.57422L10.9887 7.07475L10.9772 7.07442L10.9629 7.57422ZM11.3027 0.512695L11.2775 1.01206C13.6984 1.13442 15.9955 2.16757 17.7166 3.91883L18.0732 3.56836L18.4299 3.21789C16.5344 1.2892 14.0013 0.148448 11.328 0.0133327L11.3027 0.512695ZM18.0732 3.56836L17.7166 3.91878C19.552 5.78687 20.5828 8.32018 20.583 10.96L21.083 10.96L21.583 10.9599C21.5828 8.06053 20.4509 5.27483 18.4299 3.21793L18.0732 3.56836ZM21.083 10.96L20.583 10.9599C20.5829 14.073 18.891 17.2216 16.9531 19.8129L17.3535 20.1123L17.7539 20.4118C19.7285 17.7715 21.5829 14.4044 21.583 10.96L21.083 10.96ZM17.3535 20.1123L16.9531 19.8128C15.0098 22.4112 12.7894 24.4898 11.6739 25.4701L12.0039 25.8457L12.334 26.2213C13.4748 25.2188 15.7521 23.0883 17.7539 20.4118L17.3535 20.1123ZM12.0039 25.8457V25.3457H12.0029V25.8457V26.3457H12.0039V25.8457ZM12.0029 25.8457L11.6737 25.4694C11.6697 25.4729 11.6664 25.4757 11.6642 25.4775C11.6631 25.4784 11.6626 25.4788 11.6628 25.4787C11.6628 25.4787 11.6632 25.4784 11.6638 25.4779C11.6644 25.4774 11.6656 25.4765 11.6672 25.4753L11.9727 25.8711L12.2781 26.2669C12.2959 26.2533 12.3161 26.2361 12.3322 26.222L12.0029 25.8457ZM11.9727 25.8711L11.6676 25.475C11.6694 25.4736 11.6704 25.4728 11.6696 25.4734C11.6693 25.4737 11.6691 25.4738 11.6682 25.4744C11.6679 25.4747 11.6673 25.4751 11.6667 25.4756C11.6662 25.476 11.665 25.4768 11.6636 25.4779L11.9648 25.877L12.2661 26.276C12.265 26.2768 12.2642 26.2774 12.2641 26.2775C12.264 26.2776 12.2639 26.2777 12.2641 26.2775C12.2644 26.2773 12.2655 26.2765 12.2666 26.2757C12.2686 26.2741 12.2729 26.2709 12.2778 26.2672L11.9727 25.8711ZM11.9648 25.877L11.6113 25.5234L11.6103 25.5244L11.9639 25.8779L12.3174 26.2315L12.3184 26.2305L11.9648 25.877ZM11.9639 25.8779L11.6601 25.4808C11.442 25.6476 11.1811 25.7477 10.9089 25.7703L10.9502 26.2686L10.9915 26.7668C11.454 26.7285 11.8971 26.5584 12.2676 26.2751L11.9639 25.8779ZM10.9502 26.2686L10.9286 25.769L10.7704 25.7759L10.792 26.2754L10.8136 26.7749L10.9718 26.7681L10.9502 26.2686ZM10.792 26.2754L10.7922 25.7754C10.4785 25.7753 10.1725 25.6716 9.92284 25.4807L9.61914 25.8779L9.31544 26.2751C9.73924 26.5992 10.2585 26.7752 10.7918 26.7754L10.792 26.2754ZM9.61914 25.8779L9.97269 25.5244L9.97074 25.5224L9.61719 25.876L9.26363 26.2295L9.26559 26.2315L9.61914 25.8779ZM9.61719 25.876L9.92327 25.4806C9.92237 25.4799 9.92094 25.4788 9.91921 25.4774C9.91752 25.476 9.91624 25.4749 9.91579 25.4745L9.59082 25.8545L9.26585 26.2345C9.27507 26.2424 9.29166 26.2563 9.31111 26.2713L9.61719 25.876ZM9.59082 25.8545L9.91644 25.4751C9.90891 25.4686 9.90227 25.4632 9.89861 25.4602C9.89656 25.4586 9.89483 25.4572 9.89374 25.4563C9.89347 25.4561 9.89322 25.4559 9.89305 25.4558C9.89284 25.4556 9.89277 25.4555 9.89269 25.4555C9.89235 25.4552 9.89304 25.4558 9.89397 25.4565L9.58008 25.8457L9.26619 26.2349C9.26746 26.2359 9.2686 26.2368 9.26881 26.237C9.26954 26.2376 9.26923 26.2373 9.26969 26.2377C9.27006 26.238 9.27012 26.238 9.27004 26.238C9.26998 26.2379 9.26958 26.2376 9.26893 26.2371C9.26833 26.2366 9.26702 26.2355 9.2652 26.2339L9.59082 25.8545ZM9.58008 25.8457L9.91013 25.4701C8.79459 24.4898 6.5731 22.411 4.62989 19.8128L4.22949 20.1123L3.82909 20.4118C5.83085 23.0882 8.10939 25.219 9.25003 26.2213L9.58008 25.8457ZM4.22949 20.1123L4.62991 19.8129C2.69219 17.2217 1.00011 14.0727 1 10.9599L0.5 10.96L0 10.96C0.000119269 14.4042 1.85468 17.7716 3.82907 20.4117L4.22949 20.1123ZM0.5 10.96L1 10.96C1.0002 8.3201 2.03091 5.78687 3.86641 3.91879L3.50977 3.56836L3.15312 3.21793C1.13208 5.27483 0.000214636 8.06047 0 10.9599L0.5 10.96ZM3.50977 3.56836L3.8664 3.91881C5.70221 2.0506 8.19394 1.00013 10.792 1L10.792 0.5L10.792 0C7.92306 0.000139982 5.17512 1.16025 3.15313 3.21791L3.50977 3.56836ZM10.792 0.5L10.7796 0.999846L11.2903 1.01254L11.3027 0.512695L11.3152 0.0128497L10.8044 0.000154406L10.792 0.5ZM10.792 7.56934L10.792 7.06934C8.67412 7.06941 6.96392 8.81562 6.96387 10.9609L7.46387 10.9609L7.96387 10.9609C7.9639 9.3517 9.24249 8.06939 10.792 8.06934L10.792 7.56934ZM7.46387 10.9609L6.96399 10.9721L6.9679 11.1469L7.46777 11.1357L7.96765 11.1246L7.96374 10.9498L7.46387 10.9609ZM7.46777 11.1357L6.96839 11.1607C7.07082 13.2134 8.7405 14.8525 10.792 14.8525L10.792 14.3525L10.792 13.8525C9.29097 13.8525 8.0439 12.649 7.96715 11.1108L7.46777 11.1357ZM10.792 14.3525L10.8063 14.8523L10.9772 14.8475L10.9629 14.3477L10.9486 13.8479L10.7777 13.8527L10.792 14.3525ZM10.9629 14.3477L10.9887 14.847C13.0149 14.7422 14.6198 13.0394 14.6201 10.961L14.1201 10.9609L13.6201 10.9609C13.6199 12.5192 12.4198 13.7716 10.9371 13.8483L10.9629 14.3477ZM14.1201 10.9609L14.62 10.9498L14.6161 10.775L14.1162 10.7861L13.6163 10.7973L13.6202 10.9721L14.1201 10.9609ZM14.1162 10.7861L14.6156 10.7613C14.5167 8.77409 12.9495 7.17635 10.9887 7.07489L10.9629 7.57422L10.9371 8.07355C12.3723 8.14782 13.5428 9.32296 13.6168 10.811L14.1162 10.7861ZM10.9629 7.57422L10.9772 7.07442L10.8063 7.06954L10.792 7.56934L10.7777 8.06913L10.9486 8.07401L10.9629 7.57422Z" fill="#FFF9F8"/>
</svg>
