<svg width="99" height="100" viewBox="0 0 99 100" fill="none" xmlns="http://www.w3.org/2000/svg">
<path d="M88.4608 12.3986C90.9016 13.173 93.7664 16.3978 96.0859 17.7287C97.0019 20.7042 93.5991 22.1407 93.2133 23.6628C93.3977 24.2871 96.6824 26.3288 97.334 27.3798C97.4971 27.6435 97.6409 28.0114 97.557 28.3224C97.3668 29.0282 96.0398 30.658 95.5625 31.296C94.4078 32.8395 93.1169 34.2888 91.9244 35.805C90.8878 37.123 85.3667 44.6242 84.5694 45.0549C84.3652 45.1653 84.1443 45.1821 83.9252 45.106C83.5345 44.9701 83.1008 44.5005 82.9298 44.1312C82.7209 43.6794 82.9698 43.1443 83.1838 42.7397C83.9125 41.3616 85.8277 39.1521 86.861 37.8241C88.6991 35.4614 90.4925 33.0615 92.3021 30.6769C93.0327 29.7142 94.0257 28.8017 94.4242 27.6573C93.6709 27.3497 93.264 27.0749 92.6063 26.6326C92.4071 26.4988 92.3969 26.5478 92.1728 26.6112C91.6264 26.4616 91.0921 26.7612 90.8313 27.2452L90.8237 27.493C90.9661 27.5655 90.9636 27.5709 91.1198 27.5961L91.1876 27.7155C90.6069 28.5982 88.853 30.7408 88.5672 31.3472C88.3901 31.4709 88.0037 31.7506 87.8095 31.8106C87.4599 31.9301 86.7432 31.6432 86.5043 31.9401C83.1828 36.0667 79.9011 40.3244 76.6802 44.532L64.6335 60.0865C62.5753 62.7187 60.4569 65.3055 58.4532 67.9803C56.8511 70.1191 55.1799 72.1888 53.549 74.3061C52.4833 75.6896 51.4763 77.4626 50.1232 78.5607C49.2743 79.2494 48.2259 79.7326 47.3028 80.3197C45.5678 81.4229 43.8326 82.4838 42.0719 83.543C41.2929 84.0116 40.5013 84.5766 39.6843 84.9613C39.3587 85.1146 38.9792 85.2086 38.6184 85.1619C38.3383 85.1257 38.0758 84.9901 37.9156 84.7511C37.1119 83.5517 39.8422 76.2884 40.2333 74.6954C36.4608 74.845 32.4957 74.679 28.7093 74.6858C28.4378 74.6863 27.8925 74.5136 27.6203 74.4253C27.1948 72.9111 27.3082 72.4327 29.087 72.2584C30.5165 72.1183 32.0358 72.1811 33.4763 72.1855L40.9753 72.2144C41.3039 71.1384 43.3905 68.4435 44.2699 67.6673C43.0935 67.5716 41.2462 67.6704 40.0012 67.6682C36.5372 67.6621 33.0631 67.7096 29.5978 67.6829C29.1068 67.6792 27.9225 67.6116 27.5899 67.2328C27.3242 66.9304 27.4322 66.1544 27.4563 65.7332C27.9108 65.523 28.3549 65.3365 28.8606 65.3121C34.5984 65.0354 40.4475 65.4468 46.1816 65.2323C47.2233 64.0269 48.0964 62.6827 49.0703 61.4184C50.2237 59.921 51.6449 58.3348 52.6355 56.7358C51.7403 56.9061 50.0992 56.8537 49.1382 56.8531L43.6603 56.8501L34.3596 56.8509C32.5163 56.8503 30.2294 56.9051 28.4212 56.7589C27.8285 56.4075 26.8102 55.3041 27.6058 54.7323C28.624 54.0007 31.0967 54.2136 32.3966 54.2121L37.8378 54.2101C43.4284 54.1925 49.019 54.2051 54.6094 54.248C55.2512 53.2622 57.7263 50.4921 57.9399 49.7563C57.5806 49.4685 53.4023 49.6442 52.6295 49.6404L36.1924 49.6394C34.7101 49.6397 28.8589 49.9201 27.7971 49.3082C27.6178 49.2048 27.4922 49.0845 27.4441 48.8733C27.3516 48.4668 27.4179 47.9283 27.6359 47.5747C28.2873 47.1219 29.4792 47.1724 30.2559 47.171C32.569 47.1666 34.8822 47.1767 37.1955 47.176L51.8726 47.1785C54.5556 47.1805 57.6067 47.2501 60.2611 47.1488C61.381 45.5266 63.5433 42.9262 64.8207 41.3044L73.6795 29.9589C74.6615 28.7054 75.6875 27.4904 76.6942 26.2674C77.5947 25.1736 77.5805 24.0023 78.0871 22.8477C78.2588 22.4562 79.4972 20.8373 79.8453 20.4642C80.7277 19.5183 82.0536 17.3929 82.9307 16.6432L84.0074 16.4618C85.9275 15.0081 85.9026 13.037 88.4608 12.3986ZM80.5956 23.7056C81.9931 24.1538 86.4156 28.6079 87.2528 28.8097C87.7873 28.114 89.687 25.6263 90.1474 25.2132C89.8626 24.9641 83.5241 20.0517 83.4428 20.0254C82.5015 21.2705 81.5194 22.453 80.5956 23.7056ZM43.7514 79.4287C44.557 78.9246 46.8146 77.8748 47.0426 77.2041C46.8177 76.3681 43.9805 74.7431 43.2757 74.0713C42.6312 75.5012 41.6592 79.0433 41.2679 80.6474L41.3601 80.832C41.779 80.7135 43.3836 79.71 43.7514 79.4287Z" fill="#680000"/>
<path d="M2.92134 1.76667C5.03791 1.66527 7.6954 1.73892 9.85424 1.73965L22.627 1.74428L40.7905 1.73912C43.8703 1.73774 46.951 1.73163 50.031 1.74509C50.717 1.74808 51.8279 1.77238 52.491 1.95886C52.6246 1.99643 54.3614 3.79988 54.5543 3.99237C56.1806 5.61417 57.7678 7.25319 59.3727 8.88347C63.8075 13.3026 68.2079 17.7564 72.5733 22.2443C72.6611 23.6846 72.703 25.5193 72.3718 26.9027L71.3037 27.3823C70.9591 27.2465 70.5854 27.0046 70.2621 26.81C69.8855 25.8588 69.928 25.1109 70.0824 24.126C67.4014 24.1893 51.7884 24.4047 50.6981 23.8838C50.5247 23.5137 50.434 22.7668 50.4256 22.3438C50.3355 17.7887 50.4024 13.2258 50.3785 8.66922C50.3708 7.22253 50.3647 5.74638 50.4756 4.30518C48.5353 4.17713 46.2318 4.22573 44.2628 4.22393L34.2881 4.22159L4.22739 4.22992C4.32916 9.51522 4.24693 15.095 4.2479 20.4028L4.24521 51.4373L4.24877 80.1905C4.24963 85.2749 4.33498 90.6447 4.22557 95.7104C5.69187 95.8334 8.6028 95.7429 10.1627 95.7419L21.7423 95.7354L70.3674 95.728C70.3309 94.6047 70.3395 93.4562 70.3386 92.3305C70.3305 81.9426 70.2737 71.5529 70.3456 61.1657C70.3559 59.6755 70.6847 58.0694 72.5195 59.2838C72.6609 59.3774 72.8054 60.4183 72.7921 60.6395C72.8077 62.8754 72.7842 65.1206 72.7847 67.3595L72.7897 81.4941L72.7898 91.3285C72.7889 93.5801 72.8667 95.9195 72.612 98.1438C71.2442 98.3127 69.4192 98.2615 68.0131 98.2606L61.2293 98.2577L38.0652 98.2548H14.011L6.83347 98.2625C5.26837 98.2644 3.44646 98.3195 1.91251 98.138C1.65353 94.9691 1.79694 90.2431 1.79733 86.9339L1.80007 67.0268L1.80158 22.4034C1.80126 20.0802 1.58612 3.06651 1.97716 2.05529C2.20157 1.81741 2.58064 1.81388 2.92134 1.76667Z" fill="#680000"/>
<path d="M28.4491 29.1735C30.1539 29.0577 32.4694 29.1133 34.2024 29.1129L44.0277 29.113L54.7333 29.1169C56.7675 29.1179 61.1243 28.9512 62.8817 29.4425C62.9483 30.0121 63.1159 30.9617 62.7714 31.4343C62.575 31.7038 62.3422 31.6662 62.0032 31.7171C60.0411 31.7805 57.7982 31.7296 55.8166 31.7283L44.2908 31.7199L34.7731 31.7235C33.0166 31.7279 29.7045 31.9058 27.9077 31.4723C27.4734 31.3674 27.2747 30.1494 27.5465 29.7585C27.8361 29.3421 27.9366 29.3477 28.4491 29.1735Z" fill="#680000"/>
<path d="M28.4628 36.3318C29.9795 36.2337 31.7772 36.2701 33.3134 36.2704L40.9934 36.2719L48.0225 36.2592C48.9542 36.2573 52.4613 36.075 53.3201 36.637C53.8347 36.9738 53.7227 38.7913 52.4372 38.9154C50.8686 38.9998 48.9838 38.9511 47.3798 38.9494L38.6123 38.9391L32.5124 38.951C31.1063 38.9557 29.4467 38.9968 28.0671 38.8556C27.8741 38.5977 27.6181 38.3021 27.41 38.0486L27.4261 36.7541C27.791 36.5582 28.0713 36.4685 28.4628 36.3318Z" fill="#680000"/>
<path d="M21.5105 63.0168C22.2544 63.1281 23.2815 63.69 22.7525 64.506C21.8272 65.9333 17.4234 72.1639 16.2121 72.6163C14.9099 72.6214 14.5901 71.596 13.4689 70.7726C12.0952 69.6295 11.7625 69.6088 12.2021 67.8229L12.9531 67.5001L14.1607 67.6209C14.593 68.164 15.3559 68.7459 15.9051 69.2675C17.0045 67.4808 19.0967 64.9495 20.6351 63.4398C20.7806 63.2971 21.3026 63.0945 21.5105 63.0168Z" fill="#680000"/>
<path d="M21.3268 45.2824C23.0214 45.2611 23.2706 46.4639 22.2994 47.6051C22.1339 47.7997 21.9138 48.1424 21.7545 48.3602C21.0676 49.3112 20.3463 50.2369 19.5922 51.1356C18.6988 52.2051 17.8305 53.1012 17.1729 54.326C15.4695 55.2618 14.5881 54.3836 13.4254 53.0547C12.1909 51.624 11.7425 52.2585 12.1689 49.9886C13.0911 49.769 13.2409 49.7778 14.1219 50.0106C14.5701 50.6148 15.2954 51.0992 15.8962 51.6079C16.8226 50.1918 19.8841 45.9052 21.3268 45.2824Z" fill="#680000"/>
<path d="M15.9352 33.2957C17.0126 31.2121 19.0552 29.1798 20.534 27.3538C20.9457 26.8455 22.9167 26.8063 22.8291 27.7973C22.7091 29.1537 20.9401 31.1126 20.106 32.1227C19.9631 31.8891 19.9276 31.825 19.9489 31.5502L19.8336 31.5151C19.3101 32.4859 19.0859 32.5079 18.3605 33.3039C18.2664 33.4072 18.3049 33.542 18.3204 33.6684L18.4345 33.7106L18.5437 33.6527L18.7048 33.7027C18.3548 34.3894 17.1102 35.9388 16.5036 36.3076C15.5764 36.8712 12.4937 34.1295 12.1505 33.4047C11.9767 33.0467 11.9583 32.6328 12.0998 32.2608C12.2802 31.7912 12.5859 31.6521 12.9882 31.378C13.434 31.4708 13.8841 31.6154 14.3215 31.7462C14.709 32.2594 15.393 32.6937 15.9352 33.2957Z" fill="#680000"/>
<path d="M18.7048 33.7027L18.5437 33.6527L18.4345 33.7105L18.3204 33.6683C18.3049 33.5419 18.2664 33.4071 18.3605 33.3038C19.0859 32.5078 19.3101 32.4858 19.8336 31.515L19.9489 31.5501C19.9276 31.825 19.9631 31.889 20.106 32.1226C19.8579 32.5151 19.0743 33.4569 18.7048 33.7027Z" fill="#680000"/>
<path d="M91.1876 27.7155L91.1198 27.5961C90.9636 27.5709 90.9661 27.5655 90.8238 27.493L90.8313 27.2452C91.0921 26.7612 91.6265 26.4616 92.1728 26.6112C91.8656 27.1328 91.6307 27.3127 91.1876 27.7155Z" fill="black" fill-opacity="0.945098"/>
</svg>
