<svg width="50" height="51" viewBox="0 0 50 51" fill="none" xmlns="http://www.w3.org/2000/svg">
<path d="M44.7487 6.27191C45.9835 6.66366 47.4326 8.29496 48.606 8.9682C49.0693 10.4734 47.348 11.2001 47.1528 11.9701C47.2461 12.2858 48.9077 13.3186 49.2373 13.8503C49.3198 13.9837 49.3926 14.1698 49.3501 14.3271C49.2539 14.6842 48.5826 15.5086 48.3412 15.8314C47.7571 16.6121 47.1041 17.3453 46.5008 18.1123C45.9765 18.779 43.1836 22.5736 42.7802 22.7914C42.6769 22.8473 42.5652 22.8558 42.4544 22.8173C42.2567 22.7485 42.0373 22.511 41.9508 22.3242C41.8451 22.0956 41.9711 21.8249 42.0793 21.6203C42.448 20.9231 43.4168 19.8055 43.9395 19.1337C44.8693 17.9385 45.7765 16.7244 46.6919 15.5182C47.0615 15.0312 47.5638 14.5696 47.7654 13.9907C47.3843 13.8351 47.1785 13.6961 46.8458 13.4724C46.745 13.4046 46.7398 13.4294 46.6265 13.4615C46.3501 13.3858 46.0798 13.5374 45.9479 13.7822L45.9441 13.9076C46.0161 13.9443 46.0148 13.947 46.0938 13.9598L46.1281 14.0202C45.8343 14.4666 44.9471 15.5505 44.8025 15.8573C44.7129 15.9198 44.5175 16.0613 44.4192 16.0917C44.2424 16.1521 43.8798 16.007 43.759 16.1572C42.0788 18.2447 40.4187 20.3985 38.7894 22.5269L32.6955 30.3953C31.6543 31.7268 30.5827 33.0354 29.5691 34.3885C28.7586 35.4704 27.9133 36.5174 27.0883 37.5884C26.5492 38.2883 26.0398 39.1852 25.3553 39.7407C24.9259 40.089 24.3955 40.3335 23.9286 40.6305C23.0509 41.1885 22.1731 41.7252 21.2825 42.261C20.8884 42.498 20.488 42.7838 20.0747 42.9785C19.91 43.056 19.718 43.1036 19.5355 43.0799C19.3938 43.0616 19.261 42.993 19.18 42.8721C18.7734 42.2654 20.1545 38.5912 20.3524 37.7853C18.444 37.861 16.4382 37.777 14.5229 37.7805C14.3856 37.7808 14.1097 37.6934 13.972 37.6487C13.7567 36.8828 13.8141 36.6408 14.7139 36.5526C15.4371 36.4817 16.2056 36.5135 16.9343 36.5157L20.7277 36.5303C20.894 35.986 21.9495 34.6228 22.3943 34.2301C21.7993 34.1817 20.8648 34.2317 20.235 34.2306C18.4827 34.2275 16.7253 34.2515 14.9723 34.238C14.724 34.2361 14.1249 34.2019 13.9566 34.0103C13.8222 33.8574 13.8769 33.4648 13.889 33.2517C14.1189 33.1454 14.3436 33.0511 14.5994 33.0387C17.5019 32.8988 20.4607 33.1069 23.3614 32.9984C23.8883 32.3886 24.33 31.7086 24.8227 31.0691C25.4062 30.3116 26.1251 29.5092 26.6262 28.7003C26.1733 28.7865 25.3432 28.7599 24.857 28.7597L22.086 28.7581L17.3812 28.7585C16.4487 28.7582 15.2919 28.786 14.3772 28.712C14.0773 28.5343 13.5622 27.9761 13.9647 27.6869C14.4797 27.3167 15.7306 27.4245 16.3881 27.4237L19.1406 27.4227C21.9687 27.4138 24.7967 27.4202 27.6247 27.4418C27.9493 26.9432 29.2014 25.5419 29.3094 25.1697C29.1277 25.0241 27.0141 25.113 26.6232 25.111L18.3083 25.1105C17.5585 25.1107 14.5985 25.2525 14.0614 24.943C13.9708 24.8907 13.9072 24.8298 13.8829 24.723C13.8361 24.5174 13.8696 24.245 13.9799 24.0661C14.3094 23.837 14.9124 23.8626 15.3052 23.8619C16.4753 23.8597 17.6455 23.8648 18.8157 23.8644L26.2402 23.8657C27.5975 23.8667 29.1409 23.9019 30.4836 23.8506C31.0502 23.0301 32.144 21.7146 32.7901 20.8942L37.2715 15.155C37.7682 14.5209 38.2872 13.9062 38.7965 13.2876C39.252 12.7343 39.2448 12.1418 39.5011 11.5577C39.5879 11.3597 40.2144 10.5407 40.3905 10.352C40.8369 9.87352 41.5076 8.79833 41.9513 8.41908L42.496 8.32733C43.4672 7.59198 43.4546 6.59486 44.7487 6.27191ZM40.77 11.9917C41.477 12.2184 43.7142 14.4716 44.1377 14.5736C44.408 14.2217 45.369 12.9633 45.6019 12.7543C45.4579 12.6283 42.2515 10.1433 42.2103 10.13C41.7342 10.7599 41.2374 11.358 40.77 11.9917ZM22.1321 40.1797C22.5396 39.9247 23.6816 39.3937 23.7969 39.0544C23.6832 38.6315 22.248 37.8095 21.8914 37.4697C21.5654 38.193 21.0737 39.9848 20.8757 40.7962L20.9224 40.8896C21.1343 40.8297 21.946 40.3221 22.1321 40.1797Z" fill="#680000"/>
<path d="M1.4778 0.89372C2.54849 0.842426 3.89281 0.879682 4.98488 0.880053L11.4461 0.882392L20.6343 0.879785C22.1922 0.879086 23.7506 0.875996 25.3087 0.882802C25.6557 0.884316 26.2176 0.896606 26.5531 0.990942C26.6207 1.00995 27.4992 1.92224 27.5968 2.01961C28.4195 2.84001 29.2224 3.66913 30.0342 4.49382C32.2776 6.7293 34.5036 8.98228 36.7119 11.2525C36.7563 11.9811 36.7775 12.9092 36.61 13.609L36.0696 13.8516C35.8953 13.7829 35.7063 13.6606 35.5427 13.5621C35.3523 13.081 35.3737 12.7026 35.4519 12.2044C34.0956 12.2364 26.1977 12.3454 25.6461 12.0819C25.5584 11.8946 25.5125 11.5169 25.5083 11.3028C25.4627 8.99864 25.4965 6.69043 25.4844 4.38544C25.4806 3.65362 25.4775 2.90689 25.5336 2.17785C24.5521 2.11307 23.3868 2.13766 22.3908 2.13675L17.345 2.13557L2.13848 2.13978C2.18996 4.8134 2.14836 7.63599 2.14886 10.321L2.14749 26.0201L2.14929 40.5651C2.14973 43.1372 2.1929 45.8535 2.13756 48.416C2.8793 48.4783 4.35182 48.4325 5.14093 48.432L10.9985 48.4287L35.596 48.425C35.5776 47.8567 35.5819 47.2757 35.5815 46.7063C35.5774 41.4515 35.5486 36.1958 35.585 30.9413C35.5902 30.1875 35.7565 29.375 36.6847 29.9893C36.7562 30.0366 36.8293 30.5632 36.8226 30.6751C36.8305 31.8062 36.8186 32.9419 36.8189 34.0745L36.8214 41.2246L36.8214 46.1994C36.821 47.3384 36.8603 48.5218 36.7315 49.647C36.0396 49.7324 35.1164 49.7066 34.4051 49.7061L30.9734 49.7046L19.2556 49.7031H7.08761L3.45679 49.707C2.66507 49.708 1.74344 49.7358 0.967478 49.6441C0.836468 48.041 0.909011 45.6503 0.909212 43.9764L0.910598 33.9062L0.91136 11.333C0.911199 10.1578 0.802371 1.55125 1.00018 1.03972C1.1137 0.919389 1.30546 0.917602 1.4778 0.89372Z" fill="#680000"/>
<path d="M14.3912 14.7577C15.2536 14.6991 16.4249 14.7272 17.3016 14.7271L22.2718 14.7271L27.6873 14.7291C28.7163 14.7296 30.9203 14.6453 31.8093 14.8938C31.843 15.1819 31.9278 15.6623 31.7535 15.9014C31.6541 16.0377 31.5364 16.0187 31.3649 16.0444C30.3724 16.0765 29.2377 16.0507 28.2353 16.0501L22.4049 16.0459L17.5903 16.0477C16.7017 16.0499 15.0263 16.1398 14.1174 15.9206C13.8977 15.8675 13.7972 15.2514 13.9347 15.0536C14.0811 14.843 14.132 14.8458 14.3912 14.7577Z" fill="#680000"/>
<path d="M14.3982 18.3788C15.1654 18.3292 16.0748 18.3476 16.8519 18.3477L20.7369 18.3485L24.2926 18.3421C24.764 18.3411 26.538 18.2489 26.9725 18.5332C27.2328 18.7035 27.1761 19.6229 26.5258 19.6857C25.7324 19.7284 24.7789 19.7038 23.9675 19.7029L19.5324 19.6977L16.4467 19.7037C15.7354 19.7061 14.8959 19.7269 14.198 19.6554C14.1004 19.525 13.9709 19.3755 13.8656 19.2472L13.8737 18.5924C14.0583 18.4933 14.2001 18.4479 14.3982 18.3788Z" fill="#680000"/>
<path d="M10.8813 31.8777C11.2576 31.934 11.7772 32.2182 11.5096 32.631C11.0415 33.353 8.81378 36.5048 8.20103 36.7336C7.54229 36.7362 7.38053 36.2175 6.81339 35.801C6.11847 35.2228 5.95016 35.2123 6.17257 34.3089L6.55245 34.1456L7.16334 34.2067C7.38199 34.4814 7.76793 34.7758 8.04576 35.0396C8.60186 34.1358 9.66026 32.8553 10.4385 32.0917C10.5121 32.0194 10.7761 31.9169 10.8813 31.8777Z" fill="#680000"/>
<path d="M10.7884 22.9065C11.6456 22.8958 11.7716 23.5042 11.2804 24.0815C11.1966 24.1799 11.0853 24.3533 11.0047 24.4634C10.6572 24.9445 10.2924 25.4128 9.91088 25.8674C9.45898 26.4084 9.01972 26.8617 8.68706 27.4813C7.82539 27.9547 7.37954 27.5105 6.79135 26.8382C6.16689 26.1145 5.94003 26.4355 6.15576 25.2872C6.62226 25.1761 6.69804 25.1806 7.1437 25.2983C7.37041 25.604 7.7373 25.849 8.04126 26.1063C8.50986 25.39 10.0585 23.2216 10.7884 22.9065Z" fill="#680000"/>
<path d="M8.06095 16.8429C8.60596 15.7889 9.63927 14.7608 10.3873 13.8372C10.5956 13.58 11.5926 13.5602 11.5483 14.0615C11.4876 14.7477 10.5927 15.7386 10.1708 16.2496C10.0985 16.1314 10.0806 16.099 10.0913 15.96L10.033 15.9422C9.76817 16.4333 9.65479 16.4444 9.28785 16.8471C9.24024 16.8993 9.25972 16.9675 9.26754 17.0315L9.32525 17.0528L9.38053 17.0235L9.46202 17.0488C9.28497 17.3962 8.65533 18.18 8.34849 18.3665C7.87945 18.6516 6.32008 17.2647 6.14644 16.8981C6.0585 16.7169 6.04923 16.5076 6.12081 16.3194C6.21207 16.0818 6.36671 16.0115 6.57022 15.8729C6.79571 15.9198 7.0234 15.9929 7.24469 16.0591C7.44068 16.3187 7.78668 16.5384 8.06095 16.8429Z" fill="#680000"/>
<path d="M9.46202 17.0488L9.38053 17.0235L9.32525 17.0528L9.26754 17.0315C9.25973 16.9675 9.24024 16.8993 9.28785 16.8471C9.6548 16.4444 9.76817 16.4333 10.033 15.9422L10.0913 15.96C10.0806 16.099 10.0985 16.1314 10.1708 16.2496C10.0453 16.4481 9.64894 16.9245 9.46202 17.0488Z" fill="#680000"/>
<path d="M46.1281 14.0202L46.0938 13.9598C46.0148 13.947 46.0161 13.9443 45.944 13.9076L45.9479 13.7822C46.0798 13.5374 46.3501 13.3858 46.6265 13.4615C46.471 13.7254 46.3522 13.8164 46.1281 14.0202Z" fill="black" fill-opacity="0.945098"/>
</svg>
