<svg width="84" height="100" viewBox="0 0 84 100" fill="none" xmlns="http://www.w3.org/2000/svg">
<path d="M7.34412 39.4233C7.25684 39.3219 7.17353 39.217 7.09436 39.109C6.61496 38.4521 6.10397 37.2754 5.64549 36.5541C4.94262 35.4446 4.38322 34.4137 3.7354 33.2603C3.09657 32.158 2.07671 30.9538 2.10698 29.6133C2.22201 29.2663 2.80158 28.5681 3.06912 28.4059C4.82455 27.341 6.62443 26.2708 8.40526 25.2552L14.8122 21.5425C16.1937 20.7518 17.5579 20.1286 18.839 19.1516C19.3725 18.7448 20.7251 18.2522 21.1665 17.7119C21.7954 16.9422 22.1248 15.5566 22.5915 14.6482C23.9911 11.4647 26.6447 8.5773 29.567 6.74076C34.5114 3.56576 40.5215 2.50321 46.2549 3.79044C52.2294 5.21059 57.2656 9.20887 60.0036 14.7056C60.389 15.4631 61.4463 18.0469 61.9292 18.2597C63.864 19.1119 66.2494 20.6287 68.0656 21.6931L74.5558 25.5201C76.0577 26.4047 77.5728 27.2762 79.1151 28.0853C79.5794 28.3289 80.6196 29.3234 80.5034 29.9018C80.0002 32.4042 78.0754 34.562 76.8914 36.7872C76.364 37.7754 75.7947 38.3425 75.541 39.4223C75.9133 40.3968 76.3289 40.9283 76.8422 41.8073C77.4808 42.9844 78.1299 44.0999 78.8046 45.2646C79.533 46.4279 81.7045 49.3733 79.7426 50.4313C78.7139 50.9859 77.4277 51.5382 76.3531 52.1654C74.9512 52.9836 75.0589 53.3228 75.057 54.912L75.0832 69.4362C75.0866 71.7765 75.1087 74.1233 75.0701 76.4605C75.0041 77.3749 74.8925 77.7362 74.1198 78.2137C72.3417 79.3127 70.492 80.2992 68.6889 81.3588C67.8582 81.8466 67.2312 82.4018 66.337 82.7508C65.4849 83.0008 64.908 83.4148 64.2091 83.9611C63.8342 84.1388 63.0018 84.7281 62.553 84.9716C61.3989 85.5991 60.2311 86.25 59.0924 86.9051C58.3217 87.3491 57.5551 87.8767 56.7891 88.3312C56.3788 88.5747 55.8579 88.7143 55.4417 88.9538L47.604 93.5455L44.7238 95.2728C43.2981 96.1372 41.6883 97.2947 39.9601 96.3499C35.3741 93.8426 30.8967 91.1413 26.3619 88.5422L19.988 84.8247L11.975 80.2198C10.8609 79.5704 8.76865 78.4361 7.86585 77.6209C7.43402 76.3702 7.64829 70.9669 7.64653 69.2392C7.64108 63.8453 7.7019 58.4461 7.62995 53.0528C5.97977 51.817 4.16539 51.2727 2.64139 49.905C1.49081 48.8724 2.59539 47.148 3.2525 46.1264C4.08756 44.8948 4.74641 43.5241 5.5796 42.2926C6.15793 41.4378 6.62953 40.0999 7.34412 39.4233ZM28.0806 35.9515C28.7557 36.7134 29.4954 37.4157 30.2915 38.0504C37.6937 43.9522 48.4315 42.9754 54.6473 35.8347C60.8631 28.6939 60.3506 17.924 53.4846 11.4059C46.6188 4.88773 35.8368 4.93512 29.0285 11.5133C22.2201 18.0916 21.8023 28.8656 28.0806 35.9515ZM42.7739 87.8856C42.7759 88.9481 42.7533 91.1218 42.9352 92.1453L43.0151 92.2111C44.0484 91.8312 45.9819 90.4887 47.0956 89.8588L65.9488 78.9507C66.919 78.3823 70.9153 76.2646 71.5156 75.6866C71.6312 75.3951 71.6834 74.9957 71.6844 74.6792C71.7031 68.2139 71.7549 61.7409 71.6832 55.2788C71.6826 55.2222 71.5913 55.1309 71.556 55.0982C69.244 56.2732 66.892 57.6321 64.6493 58.947C62.509 60.2019 60.4292 61.5414 58.1952 62.6559C57.4892 63.0081 56.7338 63.7241 56.0148 64.1033C54.4925 64.8783 52.9942 65.7063 51.5178 66.5673C49.8371 67.5477 48.6359 68.5332 46.7516 69.1045C44.5296 68.4927 44.3843 65.5427 42.6616 64.2614C42.8926 66.4547 42.7734 70.1849 42.7726 72.5151L42.7739 87.8856ZM39.795 88.0885L39.805 72.7566C39.806 71.3006 39.9329 65.5108 39.6168 64.4586L39.5523 64.4609C38.4876 65.9202 37.2342 70.1799 34.782 68.7145C32.0579 67.0866 29.1036 65.5808 26.4027 63.9306C24.1008 62.524 21.6935 61.2266 19.4049 59.8587L14.0674 56.7312C13.294 56.2684 11.6738 55.2083 10.9553 54.8506C10.8537 55.3995 10.8853 56.8206 10.8842 57.4395L10.8826 62.2932L10.8865 70.4485C10.888 71.9491 10.8316 74.0823 10.998 75.5224C11.9463 76.4328 13.3083 77.0703 14.4567 77.7198L17.4389 79.4425C18.1886 79.8659 18.8923 80.4042 19.6496 80.8369L30.6958 87.1867C31.1959 87.4789 32.2337 87.9034 32.6239 88.1932C34.4441 89.5471 38.3187 91.1047 39.7336 92.7565C39.7614 91.1486 39.8063 89.7184 39.795 88.0885ZM22.5996 33.5972C20.9955 34.3159 19.2047 35.5579 17.6445 36.4427C15.8673 37.4506 14.318 38.2667 12.6348 39.4385C13.1704 39.7817 14.5121 40.6415 15.0107 40.8545C16.2471 41.3828 17.0456 41.9913 18.1634 42.6407L25.2805 46.7738C26.5419 47.5225 27.6705 48.0333 28.9012 48.9004C29.3376 49.1988 30.0195 49.5812 30.506 49.7981C30.7874 50.1024 33.4756 51.4681 33.9865 51.7013C34.2958 51.8426 35.2424 52.5917 35.4566 52.6969C36.7056 53.3098 40.2054 55.6095 41.2968 55.9006C42.2381 55.8219 48.0643 51.9183 49.442 51.3025C50.6733 50.7522 52.9122 49.2279 54.1724 48.5828C55.6238 47.8396 56.8547 46.958 58.2122 46.1809L65.3968 42.0792C66.7313 41.322 68.7143 40.2948 69.8851 39.3785C69.1227 38.7617 67.9578 38.1379 67.0876 37.6295L63.5313 35.5182C62.2215 34.7551 61.492 34.4085 60.2338 33.4937C59.0383 35.9681 57.7041 37.8724 55.6222 39.6842C55.4039 39.8742 54.3717 40.9585 54.1991 41.0374C52.6467 41.7467 51.3869 42.8729 49.8139 43.5495C43.372 46.1048 35.5131 45.8031 29.7394 41.7774C29.0048 41.2652 28.2115 40.7465 27.5437 40.1495C25.5225 38.3425 23.6613 36.117 22.5996 33.5972ZM6.21236 48.2002C6.7557 48.5703 7.52313 49.132 8.09778 49.4078C10.3319 50.4801 12.397 51.939 14.5387 53.1704L21.3868 57.0409C22.1388 57.4612 22.9121 57.8483 23.6632 58.2676C24.3506 58.6512 25.2144 59.4214 25.8881 59.7742C27.3419 60.5357 28.7257 61.3666 30.1845 62.1084C30.6506 62.3455 31.243 62.8453 31.7121 63.1045C32.2451 63.399 32.837 63.731 33.3741 64.009C33.9152 64.2889 34.6863 64.958 35.1741 65.1379C35.9395 64.0969 36.4955 62.9434 37.1318 61.8224C37.6666 60.8799 38.5643 59.8137 38.8609 58.795C38.6739 58.1874 36.5456 57.1761 35.9459 56.8334L30.9673 53.9903L17.547 46.1732C15.964 45.2596 11.0318 42.5631 9.98732 41.3637C9.38732 42.4042 8.77101 43.556 8.18513 44.5699C7.33232 46.046 6.7769 46.4415 6.21236 48.2002ZM72.7173 41.7972C71.7007 42.2593 70.7706 42.982 69.8006 43.4927C67.1616 44.8822 64.5858 46.4292 62.0501 47.9999C60.7588 48.8 59.1786 49.5866 57.8497 50.3673C57.2031 50.7472 56.5839 51.2081 55.9426 51.5975C55.6716 51.762 55.232 51.8275 54.9362 52.0134C54.411 52.3434 53.8216 52.7375 53.3075 53.064C52.4319 53.6202 51.0306 54.3279 50.2126 54.8084C49.3827 55.2961 44.0911 58.1908 43.8868 58.5935C43.987 59.7619 46.2549 62.9972 46.7927 64.247C46.988 64.7008 47.2352 64.9107 47.7256 64.9633L64.7082 54.9649C65.4484 54.5366 66.2574 54.1753 66.9846 53.7322C69.2487 52.3531 71.501 51.0113 73.8622 49.8049C74.7585 49.3469 75.7684 48.6112 76.6321 48.0748C75.4138 46.1811 74.3643 44.1318 73.2712 42.1641C73.1608 41.9653 72.9581 41.7746 72.7173 41.7972ZM20.3573 22.3098C19.7372 22.8093 19.2332 22.7752 18.7225 23.1238C15.7613 25.1465 12.4931 26.7217 9.46508 28.6311C8.91021 28.981 6.19949 30.0469 6.34287 30.6659C6.65238 32.0019 8.15258 34.3343 8.87385 35.6116C9.2301 36.1236 9.68822 36.8235 10.0666 37.2991C10.6769 36.2838 12.7214 35.313 13.7954 34.7L18.3577 32.0713C19.579 31.3772 20.2575 31.1348 21.2141 30.0995C20.7633 28.4418 20.5417 27.4638 20.408 25.7071C20.3614 25.0949 20.4602 22.615 20.3573 22.3098ZM74.0782 34.9264C74.8418 33.404 75.7216 32.1167 76.5978 30.6863C75.2713 29.579 73.9915 29.026 72.4932 28.2017C71.0092 27.3744 69.5355 26.529 68.072 25.6659C66.4627 24.7231 64.9383 23.6511 63.2851 22.7858C63.0915 22.6844 62.3999 22.276 62.2548 22.2138C62.0614 23.5387 62.2364 25.3763 62.0872 26.8017C62.0085 27.554 61.4062 30.0071 61.6203 30.4224C62.9794 31.4641 64.5277 32.1308 65.9733 32.9991C67.8662 34.1359 69.7762 35.2542 71.65 36.4239C71.9104 36.5865 72.4066 36.7925 72.7006 36.8632C73.3309 36.6543 73.6749 35.7295 73.9723 35.1379L74.0782 34.9264Z" fill="#680000"/>
<path d="M39.421 22.8739C40.8055 21.6789 42.0323 19.9177 43.5998 18.6347C45.9447 16.7157 47.6747 13.0809 51.366 14.07C53.9436 14.7607 55.0585 17.3682 54.4729 19.8386C54.3023 20.5489 52.524 22.7078 51.9872 23.2855C50.1629 25.2486 48.2141 27.1342 46.3289 29.0327L43.0433 32.3028C42.7413 32.5976 41.7762 33.6035 41.4562 33.7479C39.7198 34.5313 37.3505 34.7937 35.8666 33.37C34.6292 32.1828 33.6008 31.1474 32.4341 29.9278C31.1533 28.5891 29.6085 27.4252 28.6124 25.8538C27.6 23.9901 28.1859 20.6441 30.1844 19.6388C31.4357 19.0093 32.7624 19.0322 34.0206 19.3817C36.2347 20.5681 37.1301 22.4881 38.819 23.5035L39.421 22.8739ZM38.6146 27.6795C37.105 27.1053 36.1098 25.8408 35.0047 24.6963C34.1945 23.8611 33.3599 23.0498 32.5022 22.2634C31.8958 22.7024 30.6883 23.3552 31.4932 24.2261C32.0206 24.7969 32.59 25.3408 33.146 25.8845C34.4221 27.1886 37.4553 30.3812 38.7348 31.2933C39.6072 30.9498 39.9327 30.4524 40.5702 29.804L43.3549 26.9352C43.7338 26.5478 44.5857 26.017 44.8501 25.6799C45.6743 24.6294 46.7696 23.7551 47.6233 22.7873C48.9846 21.244 50.0624 19.9318 51.6601 18.5778C51.1795 17.6528 50.969 17.1766 49.8285 17.2974C49.4245 17.6565 49.2899 17.9631 48.9426 18.3381C46.1281 21.3765 43.0818 24.3324 39.9929 27.0922C39.7112 27.3439 38.9913 27.5614 38.6146 27.6795Z" fill="#680000"/>
</svg>
