<svg width="50" height="61" viewBox="0 0 50 61" fill="none" xmlns="http://www.w3.org/2000/svg">
<path d="M4.41795 23.7155C4.36545 23.6545 4.31533 23.5914 4.26771 23.5265C3.97932 23.1313 3.67192 22.4234 3.39612 21.9895C2.9733 21.3221 2.63679 20.7019 2.24708 20.0081C1.86278 19.345 1.24928 18.6206 1.26749 17.8142C1.33669 17.6054 1.68533 17.1855 1.84627 17.0878C2.90228 16.4473 3.98502 15.8035 5.05629 15.1925L8.91049 12.9591C9.74155 12.4835 10.5622 12.1086 11.3329 11.5209C11.6538 11.2761 12.4674 10.9798 12.733 10.6547C13.1113 10.1917 13.3095 9.35821 13.5902 8.81172C14.4322 6.89669 16.0285 5.15972 17.7864 4.05493C20.7608 2.14497 24.3762 1.50578 27.8252 2.28013C31.4192 3.13443 34.4488 5.53965 36.0959 8.8463C36.3278 9.30196 36.9638 10.8563 37.2543 10.9843C38.4182 11.4969 39.8532 12.4094 40.9457 13.0497L44.85 15.3519C45.7535 15.884 46.6649 16.4083 47.5927 16.895C47.872 17.0416 48.4977 17.6398 48.4278 17.9878C48.1251 19.4931 46.9672 20.7912 46.255 22.1297C45.9377 22.7242 45.5953 23.0653 45.4426 23.7149C45.6666 24.3011 45.9166 24.6209 46.2254 25.1496C46.6096 25.8577 47 26.5288 47.4059 27.2294C47.8441 27.9292 49.1504 29.7011 47.9702 30.3375C47.3514 30.6711 46.5776 31.0034 45.9311 31.3807C45.0878 31.8729 45.1526 32.077 45.1515 33.033L45.1672 41.7702C45.1693 43.178 45.1826 44.5898 45.1594 45.9957C45.1197 46.5458 45.0525 46.7631 44.5877 47.0504C43.5181 47.7115 42.4054 48.3049 41.3207 48.9423C40.8209 49.2358 40.4438 49.5698 39.9059 49.7797C39.3933 49.9301 39.0462 50.1792 38.6258 50.5078C38.4003 50.6147 37.8995 50.9692 37.6295 51.1157C36.9352 51.4931 36.2328 51.8847 35.5478 52.2788C35.0841 52.5459 34.623 52.8632 34.1622 53.1367C33.9154 53.2832 33.602 53.3671 33.3517 53.5112L28.6368 56.2734L26.9041 57.3125C26.0465 57.8325 25.0781 58.5288 24.0385 57.9604C21.2797 56.4521 18.5863 54.8271 15.8583 53.2636L12.024 51.0273L7.20371 48.2572C6.53354 47.8665 5.2749 47.1841 4.7318 46.6938C4.47203 45.9414 4.60093 42.691 4.59987 41.6517C4.59659 38.4069 4.63318 35.1589 4.5899 31.9145C3.59721 31.1711 2.50575 30.8437 1.58897 30.0209C0.896822 29.3998 1.56129 28.3624 1.95659 27.7479C2.45893 27.007 2.85526 26.1824 3.35648 25.4416C3.70439 24.9274 3.98808 24.1226 4.41795 23.7155ZM16.8922 21.627C17.2984 22.0854 17.7434 22.5078 18.2222 22.8896C22.6751 26.4399 29.1346 25.8523 32.8738 21.5567C36.613 17.2611 36.3046 10.7823 32.1744 6.86129C28.0441 2.94022 21.5581 2.96873 17.4624 6.92593C13.3668 10.8832 13.1154 17.3644 16.8922 21.627ZM25.7312 52.8686C25.7324 53.5078 25.7188 54.8154 25.8282 55.4311L25.8763 55.4707C26.4978 55.2421 27.661 54.4345 28.331 54.0556L39.6723 47.4937C40.256 47.1518 42.66 45.8779 43.0211 45.5302C43.0906 45.3548 43.1221 45.1146 43.1226 44.9241C43.1339 41.0349 43.1651 37.1409 43.1219 33.2536C43.1216 33.2195 43.0666 33.1646 43.0454 33.1449C41.6546 33.8518 40.2397 34.6692 38.8906 35.4603C37.6031 36.2151 36.3519 37.021 35.0081 37.6914C34.5833 37.9032 34.129 38.3339 33.6964 38.5621C32.7807 39.0283 31.8793 39.5264 30.9912 40.0443C29.9801 40.6341 29.2576 41.227 28.124 41.5706C26.7873 41.2026 26.6999 39.428 25.6636 38.6572C25.8026 39.9766 25.7309 42.2206 25.7304 43.6223L25.7312 52.8686ZM23.9392 52.9907L23.9452 43.7676C23.9458 42.8917 24.0222 39.4088 23.832 38.7758L23.7932 38.7772C23.1527 39.6551 22.3987 42.2175 20.9235 41.336C19.2849 40.3567 17.5077 39.4509 15.8829 38.4582C14.4981 37.612 13.05 36.8315 11.6733 36.0087L8.46245 34.1273C7.99716 33.8489 7.02255 33.2112 6.59033 32.996C6.52919 33.3262 6.54819 34.1811 6.54751 34.5534L6.54658 37.4732L6.54892 42.3791C6.5498 43.2818 6.51591 44.565 6.61596 45.4314C7.18642 45.9791 8.00576 46.3626 8.69663 46.7532L10.4906 47.7896C10.9416 48.0442 11.3649 48.3681 11.8205 48.6284L18.4654 52.4482C18.7663 52.624 19.3906 52.8794 19.6253 53.0537C20.7203 53.8681 23.0511 54.8051 23.9022 55.7988C23.919 54.8315 23.946 53.9711 23.9392 52.9907ZM13.5951 20.2107C12.6301 20.6431 11.5528 21.3902 10.6143 21.9225C9.54516 22.5288 8.61318 23.0197 7.60063 23.7247C7.9228 23.9311 8.72993 24.4483 9.02988 24.5765C9.77368 24.8943 10.254 25.2604 10.9264 25.651L15.2078 28.1373C15.9666 28.5877 16.6456 28.895 17.3859 29.4166C17.6484 29.5961 18.0586 29.8261 18.3513 29.9566C18.5206 30.1397 20.1377 30.9612 20.445 31.1015C20.631 31.1865 21.2005 31.6371 21.3294 31.7004C22.0807 32.0691 24.1861 33.4525 24.8426 33.6276C25.4088 33.5803 28.9137 31.232 29.7425 30.8616C30.4831 30.5306 31.83 29.6136 32.5881 29.2255C33.4612 28.7785 34.2017 28.2481 35.0183 27.7806L39.3403 25.3132C40.1431 24.8577 41.3359 24.2398 42.0402 23.6886C41.5816 23.3175 40.8809 22.9423 40.3574 22.6364L38.2181 21.3664C37.4301 20.9073 36.9913 20.6988 36.2344 20.1485C35.5152 21.637 34.7126 22.7826 33.4602 23.8725C33.3289 23.9868 32.708 24.639 32.6041 24.6865C31.6703 25.1132 30.9124 25.7907 29.9662 26.1977C26.091 27.7349 21.3634 27.5534 17.8901 25.1316C17.4482 24.8235 16.971 24.5115 16.5692 24.1523C15.3534 23.0653 14.2338 21.7266 13.5951 20.2107ZM3.73713 28.9954C4.06398 29.218 4.52564 29.5559 4.87132 29.7218C6.21528 30.3669 7.45756 31.2445 8.74594 31.9853L12.8655 34.3136C13.3179 34.5665 13.7831 34.7993 14.2349 35.0515C14.6484 35.2823 15.1681 35.7456 15.5733 35.9579C16.4479 36.416 17.2803 36.9158 18.1579 37.362C18.4383 37.5046 18.7946 37.8053 19.0768 37.9612C19.3975 38.1384 19.7535 38.3381 20.0766 38.5053C20.4021 38.6737 20.866 39.0762 21.1594 39.1845C21.6199 38.5583 21.9543 37.8643 22.3371 37.1899C22.6588 36.623 23.1988 35.9816 23.3772 35.3688C23.2648 35.0033 21.9845 34.3949 21.6237 34.1888L18.6288 32.4785L10.5556 27.776C9.60336 27.2264 6.63632 25.6043 6.008 24.8828C5.64707 25.5087 5.27631 26.2016 4.92387 26.8115C4.41085 27.6995 4.07673 27.9374 3.73713 28.9954ZM43.744 25.1436C43.1325 25.4215 42.5729 25.8563 41.9894 26.1635C40.4019 26.9994 38.8524 27.93 37.327 28.8749C36.5502 29.3562 35.5996 29.8294 34.8002 30.299C34.4112 30.5275 34.0388 30.8048 33.653 31.0391C33.4899 31.138 33.2255 31.1774 33.0476 31.2893C32.7316 31.4878 32.377 31.7249 32.0678 31.9212C31.5411 32.2558 30.6981 32.6816 30.206 32.9706C29.7068 33.264 26.5235 35.0053 26.4007 35.2476C26.4609 35.9504 27.8252 37.8967 28.1487 38.6485C28.2662 38.9215 28.4149 39.0478 28.7099 39.0795L38.926 33.0648C39.3713 32.8071 39.858 32.5898 40.2955 32.3232C41.6574 31.4936 43.0123 30.6864 44.4327 29.9607C44.9719 29.6852 45.5794 29.2426 46.099 28.9199C45.3661 27.7808 44.7348 26.548 44.0772 25.3643C44.0108 25.2447 43.8889 25.13 43.744 25.1436ZM12.2462 13.4207C11.8731 13.7211 11.57 13.7006 11.2628 13.9104C9.48139 15.1272 7.51538 16.0747 5.69384 17.2233C5.36005 17.4338 3.72939 18.0751 3.81564 18.4474C4.00183 19.2511 4.90429 20.6542 5.33818 21.4226C5.55249 21.7306 5.82807 22.1516 6.05571 22.4377C6.4228 21.8269 7.65273 21.2429 8.29877 20.8742L11.0433 19.2928C11.778 18.8753 12.1861 18.7294 12.7616 18.1067C12.4904 17.1095 12.3571 16.5211 12.2767 15.4644C12.2487 15.0961 12.3081 13.6043 12.2462 13.4207ZM44.5627 21.0104C45.022 20.0945 45.5513 19.3201 46.0784 18.4597C45.2804 17.7936 44.5105 17.4609 43.6092 16.965C42.7165 16.4673 41.8299 15.9588 40.9496 15.4396C39.9815 14.8724 39.0644 14.2275 38.07 13.707C37.9535 13.6461 37.5374 13.4003 37.4501 13.3629C37.3338 14.1599 37.4391 15.2654 37.3494 16.1229C37.302 16.5754 36.9397 18.0511 37.0685 18.3009C37.886 18.9275 38.8175 19.3286 39.6871 19.8509C40.8258 20.5348 41.9748 21.2075 43.1019 21.9112C43.2586 22.009 43.5571 22.1329 43.734 22.1754C44.1131 22.0498 44.3201 21.4935 44.499 21.1376L44.5627 21.0104Z" fill="#680000"/>
<path d="M23.7142 13.7601C24.5471 13.0412 25.2851 11.9817 26.228 11.21C27.6386 10.0555 28.6793 7.869 30.8999 8.46402C32.4505 8.87949 33.1211 10.448 32.7689 11.9342C32.6662 12.3615 31.5965 13.6602 31.2736 14.0077C30.1762 15.1886 29.0038 16.323 27.8698 17.465L25.8932 19.4322C25.7116 19.6095 25.131 20.2146 24.9385 20.3015C23.894 20.7728 22.4687 20.9306 21.576 20.0741C20.8317 19.36 20.213 18.7371 19.5112 18.0035C18.7407 17.1981 17.8114 16.498 17.2121 15.5527C16.6032 14.4315 16.9556 12.4187 18.1578 11.814C18.9106 11.4353 19.7087 11.4491 20.4656 11.6593C21.7974 12.373 22.3361 13.528 23.3521 14.1388L23.7142 13.7601ZM23.2291 16.651C22.321 16.3055 21.7223 15.5449 21.0576 14.8564C20.5702 14.354 20.0681 13.8659 19.5521 13.3928C19.1873 13.6569 18.461 14.0496 18.9452 14.5735C19.2624 14.9169 19.605 15.2441 19.9394 15.5711C20.7071 16.3557 22.5317 18.2762 23.3014 18.8249C23.8263 18.6182 24.022 18.319 24.4056 17.929L26.0807 16.2032C26.3086 15.9702 26.8211 15.6508 26.9802 15.448C27.476 14.8161 28.1348 14.2902 28.6484 13.708C29.4673 12.7796 30.1157 11.9902 31.0768 11.1757C30.7877 10.6192 30.6611 10.3328 29.975 10.4055C29.732 10.6215 29.651 10.8059 29.442 11.0315C27.749 12.8593 25.9164 14.6375 24.0582 16.2977C23.8888 16.4491 23.4557 16.5799 23.2291 16.651Z" fill="#680000"/>
</svg>
