<svg width="50" height="31" viewBox="0 0 50 31" fill="none" xmlns="http://www.w3.org/2000/svg">
<g clip-path="url(#clip0_1370_418)">
<path d="M35.7761 1.81702C36.3105 2.11944 36.5063 1.9568 37.0526 2.11154C37.1925 2.1512 37.1773 2.47278 37.3036 2.54156C37.4918 2.5997 37.7023 2.5388 37.8952 2.56399C38.0741 2.58737 38.2277 2.70526 38.4139 2.6938C38.6582 2.67877 38.741 2.51459 39.0057 2.54097C39.2217 2.5625 39.3347 2.60702 39.4989 2.76653C39.6206 2.87214 39.7715 3.07884 39.9363 3.08791C39.9886 3.04148 39.9894 3.02416 40.015 2.95599C40.1672 2.8857 40.595 2.964 40.7279 2.92356C40.741 2.86798 40.72 2.83342 40.6991 2.77887C40.7998 2.65785 41.3878 2.74183 41.5466 2.75479C41.903 2.78385 42.2789 2.99112 42.625 3.03344C43.0871 3.08998 43.3404 2.90646 43.7462 3.25166C43.7642 3.26697 43.7821 3.28249 43.7996 3.2982C44.146 3.3104 44.5191 3.30839 44.8682 3.29311C44.9474 3.28965 45.1078 3.54009 45.2862 3.49559C45.2715 3.38905 45.0591 3.31558 45.0629 3.22702C45.6051 3.00109 47.6743 3.93663 48.3189 4.00782C48.3578 4.01212 48.4254 4.06975 48.4507 4.10512C48.4513 4.25814 48.3739 4.22394 48.4172 4.38445L48.4227 4.40496C48.4273 4.42021 48.4316 4.43543 48.4363 4.45068C48.2347 4.56433 47.3881 4.10286 47.2328 4.15354C47.2642 4.25681 47.3532 4.24058 47.345 4.32334C47.2677 4.4009 47.2007 4.3948 47.092 4.42179C47.3254 4.568 47.5689 4.73739 47.8088 4.88598C47.6931 4.88707 47.5773 4.88745 47.4616 4.88717C47.265 5.0164 47.1645 5.13116 47.0313 5.33295C46.9109 5.51544 46.9088 5.38791 46.7748 5.36081C46.7023 5.34616 46.2192 5.53004 46.1446 5.55101C46.1544 5.58826 46.2056 5.78211 46.226 5.80335C46.4809 6.07026 46.7465 6.32143 46.7884 6.72021C46.6658 6.84167 46.7007 6.77536 46.6914 6.95158C46.6765 7.23878 46.7805 7.33415 46.6215 7.57296L46.6225 7.59943C46.6258 7.68015 46.6313 7.71212 46.5847 7.7808L46.5618 7.77359C46.5575 7.72903 46.5332 7.46882 46.5193 7.44957C45.781 6.42566 45.3897 6.58625 45.9183 5.24107C45.8764 5.13903 45.8126 4.95177 45.7383 4.88192C45.6324 4.97318 45.7337 5.27143 45.546 5.29823C45.4483 5.2515 45.4011 5.14837 45.3467 5.05335C45.2255 5.06168 45.0983 5.0726 44.9774 5.07565C44.9502 5.31746 44.875 5.43971 45.055 5.61182C44.8856 5.88001 44.6506 5.62838 44.4469 5.58859C44.3456 5.56885 44.0858 5.64769 43.9736 5.64954C43.8347 5.67862 43.5114 5.64638 43.4259 5.72149C43.2666 6.04183 43.3284 6.2286 43.0782 6.64643C43.1539 6.67424 43.5904 6.8747 43.6138 6.86591C44.207 6.64319 44.223 7.28982 44.3589 7.55801C44.6672 8.16577 44.5351 8.61686 44.2851 9.21482C44.1174 9.59888 43.8698 9.24766 43.8306 9.25104C43.5812 9.70896 43.8263 9.72838 43.4306 10.1394C43.6531 10.2877 44.1844 10.747 44.0019 11.0691C43.966 11.1325 43.6795 11.2284 43.5948 11.2596C43.5722 11.1003 43.4989 10.577 43.384 10.5536C42.9848 10.4722 43.1879 10.2115 43.0471 10.0774C42.7576 9.93742 42.7176 10.2231 42.5384 10.2441C42.402 10.1719 42.534 9.96533 42.4611 9.82653L42.4085 9.81885C42.2097 9.99308 42.2026 10.1594 41.9717 10.3146C42.2157 10.4126 42.25 10.5246 42.3706 10.5567C42.4444 10.5228 42.4567 10.509 42.5199 10.4559C42.6678 10.5045 42.8219 10.5531 42.9684 10.604C42.7135 10.7341 42.588 10.8047 42.4414 11.0732C42.8404 11.3818 43.247 12.0796 43.1479 12.5756C43.1182 12.7236 42.8257 13.4451 42.732 13.5699C42.4867 13.8962 41.9368 14.0072 41.5899 14.2051C41.5624 14.2209 41.5735 14.342 41.5771 14.3831L41.5433 14.4171C41.4333 14.3269 41.4208 14.239 41.2843 14.1301C41.0754 14.104 40.8807 14.4519 40.8589 14.6129C40.8192 14.9037 41.2849 15.2413 41.4237 15.4866C41.5907 15.7815 41.5901 15.9987 41.5131 16.3176C41.3249 16.5438 41.1076 16.6843 40.8687 16.9893C40.8666 16.9505 40.8562 16.7733 40.8437 16.7505C40.6501 16.3959 40.2546 16.1363 39.9989 15.8377C39.9837 16.1696 39.9325 16.3834 39.8723 16.7072C40.0103 16.904 40.0281 17.0249 40.1427 17.2126C40.2367 17.3662 40.561 17.5572 40.5989 17.759C40.6675 18.1237 40.6675 18.2982 40.7835 18.664C40.1171 18.2628 40.2505 17.944 39.9706 17.3046C39.9338 17.221 39.7925 17.0457 39.7293 16.966C39.8252 16.3653 39.7233 15.9652 39.5471 15.3973C39.4066 14.9441 39.3328 15.3811 39.049 15.4709C38.8704 15.4203 38.96 15.1919 38.9935 15.0539C38.8314 14.4822 38.5569 14.5272 38.4169 13.8635C38.1901 14.1165 38.1288 14.1187 37.802 14.2351C37.6296 14.5713 37.0408 15.2773 36.719 15.496C36.7661 15.931 36.8088 16.4639 36.5237 16.8316C36.454 16.9216 36.3853 17.0554 36.2772 17.0961C36.0959 16.9613 35.4733 15.1183 35.3551 14.7933C35.3096 14.6685 35.3486 14.3232 35.2783 14.1398L35.2544 14.1461C35.1422 14.6475 34.662 14.155 34.6751 13.9665C34.7391 13.9482 34.7549 13.9474 34.808 13.9093C34.6182 13.6782 34.5079 13.7948 34.2007 13.3126C33.4839 13.3312 33.4169 13.3327 32.7181 13.2133C32.677 13.0963 32.6639 13.0678 32.5994 12.9622L32.5536 12.9217C32.3788 12.9843 32.3505 13.0988 32.1746 13.008C32.0419 12.9397 31.9273 12.8459 31.8167 12.7495C31.6231 12.5805 31.5106 12.1663 31.238 12.2417C30.9935 12.5037 31.3862 12.7611 31.5161 12.9836C31.5741 13.0828 31.5005 13.1256 31.5673 13.2343L31.5953 13.2268C31.6375 13.1435 31.6378 13.106 31.7075 13.0684C31.8649 13.156 31.7993 13.3852 31.7813 13.5437C31.9232 13.5226 32.0645 13.4996 32.2078 13.4884C32.2911 13.3468 32.4218 13.1581 32.5297 13.0331C32.552 13.0799 32.5733 13.1086 32.5629 13.1579C32.5763 13.2601 32.6236 13.3751 32.6596 13.4734C32.9611 13.6154 33.021 13.6469 33.2421 13.8939C32.6013 15.2944 31.8456 15.5004 30.527 16.1224C30.3578 15.7599 30.3625 15.4438 30.2435 15.0897C30.2124 14.8712 29.7691 14.4151 29.729 14.2638C29.5686 13.6584 29.281 13.1937 28.9404 12.6637C28.8064 12.6282 28.8916 12.705 28.7026 12.6776C28.665 12.5819 28.6261 12.447 28.5479 12.3886L28.531 12.4171C28.5615 12.519 28.6038 12.5954 28.6683 12.6808C28.8254 12.9688 28.9346 13.3132 29.0771 13.6C29.2644 13.9773 29.3764 14.1338 29.4126 14.5496C29.4224 14.6627 29.7416 15.1886 29.8058 15.3462C29.8696 15.5026 30.2546 15.8095 30.3442 15.9891C30.4992 16.2758 30.3804 16.2689 30.6201 16.5478C30.9986 16.3903 31.4651 16.37 31.8434 16.1687C31.8124 16.6961 31.4785 17.7097 31.1285 18.0968C30.4788 18.8155 30.0455 19.1988 29.6713 20.1498C29.8208 20.4952 30.0942 22.1118 29.8219 22.3308C29.5643 22.5381 29.1898 22.8395 28.9033 23.1779C29.0155 23.5979 29.0294 23.7031 28.9913 24.125C28.5133 24.3173 28.6018 24.2518 28.5093 24.7013C28.4221 25.124 27.7535 26.019 27.3083 26.1136C27.0293 26.1728 26.7462 26.1415 26.4636 26.2639C26.3764 26.3017 26.1728 26.3457 26.0944 26.2832C25.8587 26.13 26.0283 25.8638 25.9672 25.6575C25.8649 25.3129 25.6637 24.9712 25.5568 24.6334C25.4407 24.2666 25.4513 23.8798 25.3421 23.5016C25.2631 23.2278 25.0502 22.8978 25.004 22.6523C24.9218 22.216 25.1522 21.7143 25.3885 21.3619C25.2191 20.7072 25.24 20.0685 24.7789 19.5356C24.6652 19.4042 24.581 19.235 24.5062 19.0785C24.6188 18.7645 24.6634 18.4568 24.7159 18.1281C24.6496 18.0483 24.5626 17.9632 24.4892 17.8877C24.3592 17.9172 24.1548 17.9379 24.0175 17.9559C23.9139 17.7265 23.888 17.6486 23.7436 17.4414C23.3804 17.5193 23.0403 17.6733 22.7098 17.8401C22.2898 17.6801 22.1463 17.7755 21.7424 17.951C21.1481 17.6556 20.7536 16.7397 20.2758 16.2221C20.2768 15.965 20.2853 15.9028 20.1822 15.6688C20.4317 15.2517 20.4591 14.9551 20.3374 14.4809C20.2288 14.0572 20.7122 13.2324 20.959 12.8928C21.0923 12.7093 21.3767 12.5713 21.5508 12.3292C21.5651 12.2137 21.5582 12.0574 21.5977 11.9497C21.7564 11.5159 22.0862 11.3795 22.3143 10.9488L22.1167 10.7041C22.0425 10.7121 21.9802 10.7145 21.9063 10.7171C21.5897 10.5039 21.8514 9.95869 21.8639 9.6542C21.8705 9.49164 21.8554 9.42421 21.816 9.26656C22.168 9.13837 22.3727 9.19219 22.7341 9.24725C23.1263 9.30703 23.1047 8.95066 23.1291 8.67634C23.0526 8.58298 22.9898 8.4732 22.9267 8.36969C22.801 8.32432 22.6218 8.2753 22.6164 8.12721C22.756 7.94918 22.9487 8.12356 23.1046 8.01351C23.0966 7.94287 23.0931 7.93132 23.1057 7.86253C23.2184 7.82182 23.2588 7.93045 23.3161 7.89229C23.8602 7.52949 24.0361 6.96256 24.7273 6.8671C24.6881 6.70814 24.5551 6.3326 24.6726 6.1765C24.7193 6.11446 24.858 6.00757 24.9394 5.99605C25.1492 6.17228 24.8382 6.41795 24.894 6.67179C24.9939 6.7847 25.1026 6.77026 25.2455 6.75755C25.3866 6.74496 25.378 6.76506 25.5081 6.82201C25.6123 6.81419 25.9295 6.66087 26.0519 6.60874C26.1212 6.66719 26.1491 6.69711 26.2374 6.72631C26.5684 6.67664 26.4578 5.99003 26.778 5.7006C27.1004 5.40923 27.4605 5.65398 27.634 5.48418L27.631 5.43963L27.5014 5.33644C27.2674 5.3759 27.0709 5.43731 26.8431 5.50428C26.6824 5.42702 26.6315 5.43225 26.5637 5.26122C26.3618 4.75196 26.7313 4.62173 27.0609 4.28483C27.0377 4.27511 27.0143 4.26566 26.9908 4.25646C26.6214 4.11253 26.5368 4.27184 26.4403 4.59426C26.0197 4.85302 25.752 5.0299 26.1333 5.4052C26.2567 5.52669 25.9324 5.82903 25.8864 5.95019C25.8504 6.04499 25.8282 6.1661 25.8056 6.2789C25.6023 6.36021 25.6003 6.3942 25.4331 6.52947C25.3081 6.48709 25.156 6.56201 24.9852 6.59061L24.9702 6.56819C25.0653 6.46827 25.1981 6.38799 25.3141 6.31062C25.1614 6.05493 25.1158 5.8759 25.0267 5.59235C24.2718 6.37546 24.0254 5.44929 24.3685 4.90305C24.3949 4.86103 24.6783 4.72734 24.7621 4.6799C25.0372 4.52427 25.5296 4.01226 25.6417 3.72465C25.6038 3.68118 25.5935 3.67527 25.5859 3.61719C25.7017 3.49161 25.7124 3.53143 25.8413 3.5701C25.8436 3.56808 26.0119 3.41111 25.999 3.41803C26.325 3.24281 26.903 3.1253 27.2761 3.14246C27.5359 3.15441 27.732 3.32928 27.9491 3.38965C28.3083 3.48963 28.7887 3.55395 29.0577 3.83491C29.11 3.88952 29.101 3.94066 29.0956 4.00243C28.8962 4.282 28.2334 4.02985 27.966 3.94197C28.262 4.14104 28.2977 4.15959 28.439 4.49567C28.4842 4.60341 28.6536 4.65414 28.7609 4.56705C28.7244 4.47555 28.619 4.48105 28.5754 4.38764C28.7391 4.33644 28.8102 4.44455 29.0142 4.43167L29.0289 4.40128C28.9948 4.35474 28.9747 4.33726 28.9719 4.27979C29.0422 4.19965 29.2358 4.06408 29.3489 4.04248C29.3853 4.03546 29.4322 4.09777 29.5223 4.05817C29.5509 3.91885 29.3625 3.76659 29.4303 3.60275C29.5583 3.56626 29.6991 3.58758 29.7524 3.72152C29.7282 3.8052 29.7111 3.84017 29.6746 3.9164L29.7051 3.94632C30.0193 3.95376 30.2021 3.63704 30.3489 3.62092C30.6427 3.58865 31.1942 3.56738 31.4937 3.55801L31.5103 3.52244C31.4611 3.4393 31.2729 3.34191 31.1806 3.28497L31.1914 3.26558C31.5673 3.26272 32.3946 3.59069 32.7454 3.73516C32.5752 3.55036 32.5035 3.51705 32.2816 3.40782L32.1566 3.13587C32.281 2.95594 32.2887 2.77478 32.4553 2.6507C32.6991 2.64913 33.3295 3.70866 33.1027 4.00248L33.0302 4.0966L33.0553 4.12413C33.5414 4.08151 33.2827 3.67827 33.3584 3.57326C33.6457 3.56367 33.6212 3.67636 33.7805 3.76002L33.7914 3.73265C33.6359 3.38734 33.4281 3.61332 33.2141 3.48007C33.1337 3.43007 32.9984 3.07786 32.9864 2.96275C33.0177 2.91781 33.0605 2.90057 33.1087 2.8731C33.2214 2.93766 33.2413 3.2036 33.4586 3.10812L33.3445 3.0067L33.3548 2.96555L33.549 2.85022C33.6324 2.87704 33.9033 2.97854 33.9725 2.97454C33.82 2.8552 33.7358 2.78481 33.5986 2.64806C33.7557 2.63839 34.1032 2.62664 34.2372 2.58506C34.2437 2.53549 34.2228 2.50796 34.1999 2.4626L34.1893 2.44234L34.2092 2.38844C34.5425 2.15393 35.079 2.20539 35.3791 2.09667L35.3965 2.09014C35.5155 2.04697 35.6528 1.90843 35.7508 1.8199L35.7761 1.81702ZM25.6359 10.8035C25.5065 10.7242 25.3127 10.623 25.2305 10.5048L25.2511 10.4619C25.3534 10.4263 25.4677 10.4548 25.5767 10.4715C26.2008 10.245 25.2316 9.69894 25.0666 9.54126C24.9484 9.42827 24.8641 9.16757 24.7121 9.07092C24.5505 9.14303 24.3716 9.25744 24.2178 9.34938C24.1155 9.31424 23.9432 9.24902 23.8423 9.23274C23.8048 9.35956 23.7612 9.49652 23.7295 9.62394C23.6346 9.6902 23.4556 9.80912 23.3844 9.89137C23.1684 10.1413 23.2761 10.4544 22.9792 10.6714C22.8248 10.7841 22.4349 10.7687 22.3389 10.9411C22.3683 11.1285 22.7244 11.1069 22.8773 11.1073C22.9792 11.0424 23.3101 10.8281 23.399 10.8009C23.5929 10.7417 24.8359 10.5891 24.9307 10.7032C24.9435 10.8374 24.958 10.9714 24.9741 11.1053C24.9246 11.1951 24.8678 11.2703 24.8839 11.3686C25.0015 11.6263 25.4652 11.5044 25.7907 11.9338L25.8194 11.9416C26.0045 11.9937 26.2368 12.151 26.3462 12.162C26.4569 12.0351 26.3545 11.5965 26.6965 11.5724C26.8435 11.5621 26.9543 11.7257 27.1144 11.7846C27.3796 11.882 27.656 11.9477 27.93 12.014L28.2563 11.8827C28.4175 11.9402 28.5523 12.0104 28.7157 11.956C28.884 11.8385 29.0071 11.0127 28.9526 10.7995C28.8358 10.7119 28.6108 10.872 28.4951 10.9349C28.4431 10.8904 28.3143 10.7642 28.2489 10.7824C27.9205 10.874 27.8597 10.8446 27.5904 10.636L27.585 10.6241C27.4741 10.3815 27.4529 9.92906 27.3516 9.83181C27.0638 9.78023 27.1399 9.9905 26.9012 9.99627C26.8275 10.1533 27.1026 10.2503 27.1358 10.4301C27.0804 10.5266 26.9395 10.6987 26.8768 10.8017C26.6117 10.7963 26.5766 10.2043 26.4015 10.0212C26.3411 9.95795 26.3433 9.7101 26.3423 9.60725C26.1601 9.44627 25.951 9.3045 25.7568 9.15583C25.6434 9.06901 25.4114 8.82827 25.2902 8.80379C25.1446 8.97939 25.5154 9.41808 25.6459 9.54927C25.7817 9.68581 26.1342 9.79194 26.1894 9.99475L26.1653 10.0166C26.0764 9.97484 26.0189 9.92702 25.9381 9.9414C25.8805 10.0816 26.0797 10.3042 25.7036 10.5142C25.6773 10.5881 25.6529 10.7225 25.6359 10.8035ZM37.0667 2.39406C36.9417 2.47011 36.8007 2.54595 36.7013 2.65131L36.717 2.67986C36.8034 2.66787 36.823 2.66319 36.9039 2.63195L36.9823 2.55298C37.0673 2.55579 37.1141 2.55296 37.1974 2.54611C37.1838 2.49799 37.1285 2.43535 37.0937 2.39815L37.0667 2.39406ZM28.6487 8.67296C28.8331 8.85346 28.8385 8.77062 29.0343 8.83508C29.1133 8.78924 29.1217 8.78181 29.1748 8.70755C29.1923 8.56588 29.1797 8.58116 29.2691 8.47549L29.3118 8.42549L29.2859 8.40392C29.1509 8.42802 28.7587 8.59303 28.6487 8.67296ZM28.113 8.52222C27.9594 8.7542 27.5014 9.3972 27.7312 9.6552C28.1255 9.80278 28.2002 9.61525 28.576 9.55725C28.8775 9.51068 29.6078 10.1304 29.8453 9.72378C29.8235 9.47304 29.1816 9.00577 28.9703 8.87228C28.7731 8.91381 28.6923 8.95101 28.5191 9.04758C28.4646 8.93761 28.3404 8.82838 28.3881 8.71999L28.5044 8.68097C28.3755 8.59758 28.3012 8.65316 28.113 8.52222Z" fill="#680000"/>
<path d="M24.5951 9.76288C24.8881 9.80354 24.8107 10.1482 24.6661 10.2963C24.4943 10.2178 24.6483 10.0239 24.5693 9.86647C24.556 9.83987 24.584 9.79145 24.5951 9.76288Z" fill="#680000"/>
<path d="M28.5044 8.68098C28.5586 8.71728 28.5564 8.7144 28.6228 8.71739L28.6487 8.67297C28.8331 8.85347 28.8385 8.77063 29.0343 8.83509L28.9703 8.87229C28.7731 8.91382 28.6923 8.95102 28.5191 9.04759C28.4646 8.93763 28.3404 8.82839 28.3881 8.72001L28.5044 8.68098Z" fill="#680000"/>
<path d="M25.6359 10.8035C25.5065 10.7242 25.3127 10.623 25.2305 10.5048L25.2511 10.4619C25.3534 10.4263 25.4677 10.4548 25.5767 10.4715L25.7036 10.5142C25.6773 10.5881 25.6529 10.7225 25.6359 10.8035Z" fill="#680000"/>
<path d="M37.0667 2.3941L37.0937 2.39819C37.1285 2.43539 37.1838 2.49803 37.1974 2.54615C37.1141 2.553 37.0673 2.55583 36.9823 2.55301L36.9039 2.63199C36.823 2.66323 36.8034 2.66791 36.7171 2.6799L36.7013 2.65135C36.8007 2.54599 36.9417 2.47015 37.0667 2.3941Z" fill="#680000"/>
<path d="M47.2083 21.2292L47.2443 21.2643C47.2655 21.5569 47.4404 21.9374 47.5166 22.2253C47.5801 22.4658 47.6054 22.7462 47.6351 22.9947C47.7015 23.0563 47.78 23.1365 47.8284 23.2072C47.9265 23.3507 48.3486 24.2074 48.3617 24.3198C48.4564 25.1398 47.9216 25.7358 47.4082 26.2814C47.2761 26.4219 47.0112 26.7985 46.8881 26.9664C46.6974 27.0119 46.2922 27.1846 46.2195 27.1899C45.9608 26.9442 45.771 27.2563 45.4853 27.0693C45.2843 26.9002 45.5068 26.6627 45.3755 26.4828C45.1408 26.161 45.3859 26.1115 45.3726 25.9847C45.3107 25.9889 45.0575 26.2274 44.9385 26.2962C44.8892 26.263 44.7849 25.8981 44.7435 25.8056C44.1506 25.4487 43.4943 25.9189 42.9382 26.1253C42.8881 26.144 42.6506 26.1481 42.5839 26.1495C42.1582 26.2487 42.0575 26.5761 41.6204 26.1928C41.7909 25.9959 41.8135 25.9265 41.9107 25.6896C41.89 25.5999 41.8794 25.51 41.881 25.4178C41.8867 25.1181 41.8377 24.8215 41.7808 24.5285L41.7797 24.5241C41.918 24.3715 41.8769 24.3661 41.8889 24.2005C41.9515 23.3296 42.7625 23.4362 43.3001 23.0897C43.3728 23.0428 43.5645 22.7112 43.6465 22.6118C43.765 22.4531 43.9504 22.3002 44.0814 22.1645C44.5877 21.6406 44.5978 22.141 44.8924 22.1531C44.9755 22.0633 44.9491 21.8845 45.2339 21.5776L45.4338 21.5335C45.4839 21.4738 45.472 21.5037 45.4643 21.4087C45.5199 21.3621 45.6098 21.4081 45.6841 21.4347C45.93 21.5225 46.0959 21.5447 46.3527 21.5462C46.1258 21.7838 46.0967 21.8741 45.9605 22.1696C46.1669 22.366 46.4619 22.594 46.6923 22.8066C47.0719 22.0959 46.8785 21.8407 47.2083 21.2292Z" fill="#680000"/>
<path d="M20.1152 0.991155C20.1386 0.989709 20.1619 0.988519 20.1853 0.987582C20.4535 0.976341 21.2818 0.987808 21.4848 1.17525L21.472 1.21443L21.3723 1.24702C21.2566 1.19908 21.1196 1.18443 21.0168 1.26541L21.039 1.30685C21.1308 1.34736 21.2385 1.30305 21.3623 1.29627C21.3775 1.31211 21.4239 1.37993 21.4451 1.38238C21.6437 1.40536 22.4067 1.19917 22.5253 1.3463C22.3105 1.4791 21.3972 1.67611 21.3849 1.98751L21.5256 2.11412L21.5179 2.14684C21.4126 2.15141 21.2528 2.13312 21.1996 2.23307C21.2744 2.2794 21.2859 2.28585 21.3358 2.3577C21.3607 2.44695 21.3022 2.54956 21.2647 2.63911C21.2029 2.68412 21.0948 2.77032 21.0223 2.78094C20.845 2.80689 20.5309 2.68017 20.4626 2.91226C20.5268 3.02639 20.705 3.03622 20.8012 3.17988C20.809 3.24742 20.819 3.26139 20.7744 3.32446C20.7233 3.39668 20.6183 3.46711 20.5496 3.51471C20.2423 3.79213 19.6514 3.73549 19.3437 3.85341C19.0105 3.98118 18.9712 4.24616 18.4788 4.26182C18.126 4.27304 17.6845 4.96346 17.4927 5.2722C17.4319 5.36114 17.4108 5.38767 17.3346 5.46365C17.1428 5.51512 17.095 5.39796 16.9291 5.32168C16.892 5.30466 16.745 5.30087 16.6967 5.29949C16.4574 4.73552 16.5249 4.72198 16.406 4.15828C16.4309 4.11495 16.4852 3.93873 16.5041 3.88102C16.5352 3.85441 16.6657 3.7503 16.6843 3.75684C16.9422 3.84777 17.159 3.41637 16.9517 3.18995C16.8106 3.14208 16.8369 3.17321 16.6657 3.19178L16.633 3.15855C16.6398 2.80526 16.9593 3.01106 16.6204 2.36697C16.2519 2.28718 15.9816 2.32945 15.6142 2.32854C15.5401 2.32836 15.3804 2.18079 15.4004 2.07281C15.4454 2.05381 15.471 2.04251 15.5135 2.01848C15.4322 1.98602 15.4013 1.98315 15.3583 1.90844C15.4405 1.78864 16.2394 1.83999 16.3323 1.65715L16.2546 1.59095C16.3007 1.50278 16.5048 1.4651 16.6006 1.43697C16.8647 1.35943 17.1495 1.25535 17.4237 1.22811C17.6984 1.20081 18.6465 1.29531 18.8117 1.19433C19.1735 0.973168 19.697 1.04286 20.1152 0.991155ZM20.8771 1.28348L20.8697 1.23599C20.7621 1.21031 20.3918 1.22667 20.2692 1.23469L20.296 1.30065C20.4172 1.31846 20.7168 1.27995 20.8771 1.28348Z" fill="#680000"/>
<path d="M20.2692 1.23467C20.3918 1.22665 20.7621 1.21029 20.8697 1.23597L20.8771 1.28345C20.7168 1.27992 20.4172 1.31844 20.296 1.30063L20.2692 1.23467Z" fill="#680000"/>
<path d="M45.5493 18.9561C46.0836 18.9217 45.8499 19.3576 46.0577 19.5677C46.2002 19.5738 46.3524 19.3241 46.5376 19.1716C46.8932 19.396 47.3192 19.5156 47.6495 19.7563C47.6629 19.766 48.2309 20.3152 48.2198 20.2954L48.2015 20.34L48.0632 20.397L48.0487 20.4422C48.317 20.8535 48.439 20.9689 48.7516 21.3171C48.5558 21.2444 48.4423 21.1724 48.2247 21.1067C47.9297 21.0366 47.8687 20.5462 47.6694 20.5945C47.2519 20.6957 47.3342 21.2731 46.8091 20.6705C46.665 20.7125 46.5972 20.7541 46.4752 20.6883L46.4695 20.6352C46.5065 20.5416 46.5817 20.5003 46.6639 20.4406L46.4877 20.0594C46.3562 19.9797 45.9444 19.7608 45.8077 19.7292C45.7612 19.7659 45.7525 19.773 45.6993 19.7983C45.6506 19.7658 45.622 19.7151 45.6149 19.657C45.585 19.4171 45.7138 19.5177 45.7884 19.4136C45.5074 19.3197 45.524 19.3172 45.3039 19.1077L45.5493 18.9561Z" fill="#680000"/>
<path d="M15.7576 1.02081C15.984 1.0226 16.907 1.05775 17.0691 1.16469C17.0236 1.26794 15.4067 1.65765 15.1591 1.76897C14.8079 1.92689 14.5172 2.04249 14.1867 2.26755C13.9291 2.20109 13.0685 2.29161 13.0357 2.12277L13.0809 2.11869C13.2123 2.09353 13.4618 2.04652 13.4647 1.87134C13.3672 1.83124 13.1578 1.86603 13.0108 1.84926C12.9983 1.83776 12.9858 1.82627 12.9733 1.81478C12.9746 1.80731 12.9897 1.7206 12.9897 1.7206C12.967 1.66729 12.9541 1.62342 12.9425 1.5682C13.088 1.34032 13.6788 1.22353 13.8309 1.47529C13.8476 1.50287 14.4878 1.51138 14.4997 1.50527C14.397 1.41179 13.8451 1.48332 13.7811 1.27557L13.8125 1.24354C14.1102 1.1606 15.4397 1.02293 15.7576 1.02081Z" fill="#680000"/>
<path d="M42.8905 17.2771C43.0008 17.3049 43.0441 17.4522 43.0874 17.5493C43.1735 17.5903 43.2579 17.6417 43.3407 17.6895C42.6615 18.3869 43.3311 18.4017 43.2209 18.6954C43.1688 18.7032 43.1454 18.7075 43.095 18.7221C42.9578 19.0534 42.8227 19.347 42.7538 19.7005C42.744 19.7063 42.7342 19.712 42.7241 19.7175C42.6125 19.778 42.6141 19.7915 42.5171 19.763C42.4493 19.6876 42.4213 19.6659 42.3322 19.6172C42.1215 19.6154 41.9817 19.5968 41.7726 19.5694C41.723 19.3124 41.4412 18.7387 41.5801 18.4831C41.6378 18.3768 41.7315 18.5093 41.8603 18.4897C42.1789 18.1488 42.6661 17.6642 42.8905 17.2771Z" fill="#680000"/>
<path d="M31.4137 21.4103C31.6277 21.4772 31.6536 21.9427 31.6046 22.102C31.4107 22.7333 31.2258 23.7155 30.9306 24.2807C30.7838 24.3556 30.6953 24.3991 30.531 24.3899C30.0937 24.0799 30.345 23.4811 30.5136 23.1012C30.4551 22.7791 30.4131 22.6949 30.5218 22.3826C30.9627 22.0488 31.1615 22.0551 31.4137 21.4103Z" fill="#680000"/>
<path d="M39.1386 17.5889C39.2309 17.6014 39.4583 17.6712 39.558 17.6989C39.7056 17.8732 39.8535 18.0234 40.0101 18.201C40.1974 18.413 40.6457 18.6803 40.6623 18.977C40.6708 19.125 40.8143 19.2625 40.9055 19.3631C40.9635 19.2949 40.9523 19.2874 41.0311 19.2595C41.226 19.4029 41.0136 19.7522 41.0084 19.9999L41.0082 20.0133C40.9513 20.2362 40.7849 20.2438 40.6304 20.106C40.1727 19.6975 40.0381 19.0701 39.7653 18.5427C39.6343 18.2893 39.1087 17.8638 39.1386 17.5889Z" fill="#680000"/>
<path d="M23.0155 5.72839L23.0602 5.7288C23.0656 5.81091 22.9876 5.83907 22.9237 5.95037C22.9605 5.9956 23.06 5.9797 23.1607 6.00416C23.223 6.13272 23.0447 6.22567 23.0808 6.37752C23.2708 6.59468 23.3597 6.77913 23.5009 7.02946C23.5513 7.05998 23.5935 7.08558 23.6276 7.1062C23.6578 7.18899 23.591 7.43063 23.5544 7.51254C23.3755 7.64422 23.0813 7.59765 22.8423 7.6629L22.8161 7.67028C22.7299 7.69514 22.6462 7.72951 22.5608 7.70554L22.5644 7.66527C22.6762 7.55734 22.7099 7.53765 22.8464 7.4602C22.7633 7.43937 22.6314 7.42493 22.5958 7.36712C22.629 7.26543 22.9685 6.82488 22.9217 6.78286C22.6541 6.54234 22.6101 6.48929 22.5368 6.15356C22.6221 6.03289 22.6376 5.97001 22.6853 5.82831C22.7784 5.79334 22.9167 5.75726 23.0155 5.72839Z" fill="#680000"/>
<path d="M45.4739 10.3225C45.4374 10.1389 45.3331 9.82228 45.3954 9.67168L45.4352 9.66296C45.6062 9.78761 45.7541 9.97786 45.7669 10.1887C45.7824 10.4443 45.881 10.8172 45.9036 11.0596C45.6362 11.1005 45.5678 11.1234 45.3077 11.2215C45.2816 11.315 45.2783 11.338 45.2113 11.4139L45.1699 11.4071C45.107 11.302 45.0697 11.1912 44.9788 11.1532L44.8548 11.1721C44.8339 11.0751 44.7895 11.0479 44.8017 10.9459C44.905 10.9373 45 10.9441 45.0694 10.8719C45.1152 10.697 45.0607 10.5665 45.3115 10.5853C45.3987 10.5397 45.4355 10.4163 45.4739 10.3225Z" fill="#680000"/>
<path d="M20.5624 4.23682C20.702 4.31282 20.621 4.28919 20.7331 4.42369C20.9104 4.41759 21.3211 4.315 21.4845 4.2409C21.6077 4.36124 21.7036 4.42663 21.6719 4.60536C21.6187 4.69308 21.5291 4.73526 21.4402 4.78932C21.2876 4.8482 21.133 4.89918 20.9789 4.95909C20.8495 4.91645 20.6788 4.89768 20.5891 4.83894C20.561 4.71348 20.494 4.70604 20.4811 4.6211C20.5347 4.57696 20.5411 4.57407 20.5764 4.51566C20.5054 4.41944 20.4548 4.50032 20.3722 4.4217C20.405 4.34428 20.4921 4.29145 20.5624 4.23682Z" fill="#680000"/>
<path d="M31.8674 2.04962C31.9088 2.0547 31.9355 2.07006 31.973 2.08724C31.9717 2.23726 29.9592 2.56223 31.1048 3.2639C30.9956 3.25684 30.8764 3.23119 30.7677 3.21087C30.5673 3.15309 30.3952 3.09957 30.1983 3.03002C30.2367 2.98321 30.3726 2.76556 30.4107 2.69971C30.7429 2.1262 31.2481 2.17251 31.8674 2.04962Z" fill="#680000"/>
<path d="M43.4148 18.7957L43.454 18.85L43.4853 18.8199C43.4654 19.4859 43.7884 18.9335 44.0403 18.976L44.0547 19.0208C44.0076 19.1032 43.8069 19.25 43.7225 19.3179C43.8224 19.469 44.0452 19.9803 43.9229 20.1404L43.8551 20.1421L43.835 20.0995C43.8671 20.054 43.8826 20.0413 43.8843 19.9855C43.7595 19.8912 43.8442 20.0092 43.7029 19.9384C43.6149 19.7933 43.6179 19.6816 43.5975 19.5117L43.5534 19.4879C43.454 19.5932 43.5327 19.9783 43.4793 20.1199C43.3965 20.173 43.4333 20.1635 43.3404 20.1619C43.2557 20.0516 43.3557 19.9773 43.3325 19.835C43.3194 19.756 43.2631 19.6462 43.2274 19.5715C43.2898 19.3686 43.335 18.9537 43.4148 18.7957Z" fill="#680000"/>
<path d="M12.3896 1.70319C12.5452 1.74602 12.6028 1.73228 12.6635 1.88286C12.6586 2.00973 12.5668 2.0165 12.5573 2.1194C12.6599 2.1772 12.7136 2.11605 12.816 2.12629C12.9032 2.13502 12.901 2.29932 12.977 2.31924C13.2094 2.38023 13.8371 2.26303 14.0069 2.39188L14.0024 2.44293C13.9338 2.51305 13.8366 2.52956 13.7404 2.55738C13.3715 2.57264 12.6904 2.56072 12.3463 2.48964C12.4224 2.4169 12.5252 2.35232 12.5477 2.25876C12.4775 2.12793 12.268 2.31851 12.2014 2.12384L12.2269 2.08948C12.312 2.07682 12.3974 2.06561 12.4829 2.05585L12.4969 2.02218C12.3844 1.89376 12.3165 1.86952 12.3896 1.70319Z" fill="#680000"/>
<path d="M9.96928 1.89886L9.99695 1.91059C9.9674 1.98257 9.95362 2.00433 9.95087 2.08247C10.0331 2.15174 10.2614 2.32097 10.3651 2.31139C10.5235 2.24699 10.4728 2.09099 10.6485 2.0648L10.6861 2.09716C10.6865 2.1675 10.6782 2.20034 10.7171 2.2541C10.7777 2.23221 10.8075 2.22307 10.8705 2.21L10.8948 2.25098L10.8748 2.3109C10.6961 2.4511 10.0924 2.45866 9.8168 2.49811C9.72647 2.47377 9.5588 2.39644 9.47274 2.35242L9.4665 2.30124C9.52478 2.24617 9.73622 2.19371 9.8457 2.10134C9.67285 2.0614 9.20498 2.26611 9.03644 2.14962L9.05899 2.10999C9.3018 2.01926 9.71324 1.89891 9.96928 1.89886Z" fill="#680000"/>
<path d="M25.615 1.62727C25.7269 1.591 25.8116 1.5519 25.9263 1.57508L25.9405 1.5856C25.9777 1.61276 25.9922 1.62945 26.0378 1.63188L26.0406 1.63008L26.0877 1.66371C26.221 1.78355 26.5924 1.85586 26.6475 1.94953C26.5633 2.12762 26.2986 1.94116 26.2022 1.85227C25.9358 1.81403 25.8966 2.13575 25.694 2.15539C25.6178 2.14458 25.5086 2.04592 25.4868 1.97714C25.3813 1.87208 25.2265 1.82956 25.1385 1.67201L25.1615 1.63827C25.358 1.59017 25.4089 1.62559 25.615 1.62727Z" fill="#680000"/>
<path d="M25.4868 1.97717C25.3813 1.8721 25.2265 1.82959 25.1385 1.67204L25.1615 1.6383C25.358 1.59019 25.4089 1.62561 25.615 1.6273L25.663 1.71692C25.6233 1.80727 25.578 1.93674 25.4868 1.97717Z" fill="#680000"/>
<path d="M22.335 6.53455L22.4569 6.55045C22.6454 6.6919 22.5369 7.09144 22.395 7.23147C22.3552 7.27074 22.0461 7.39141 21.9695 7.42403C21.883 7.42079 21.8652 7.41475 21.8161 7.36238C21.8112 7.22787 21.9285 7.18106 21.9509 7.06927C21.9648 7.00004 21.8879 6.97776 21.8922 6.85064C21.9539 6.75342 22.228 6.58773 22.335 6.53455Z" fill="#680000"/>
<path d="M42.4109 20.7654C42.1206 20.7216 40.973 20.6039 40.9232 20.3089C40.9553 20.2406 40.9562 20.2369 41.0106 20.1866C41.2497 20.1282 41.3799 20.3228 41.5831 20.3546C41.7617 20.3826 42.1383 20.3323 42.2979 20.395L42.2998 20.4451L42.1827 20.525C42.2279 20.5781 42.2996 20.5867 42.3761 20.6123L42.4109 20.7654Z" fill="#680000"/>
<path d="M45.0806 8.73226C45.1569 8.72918 45.9303 9.14285 45.9918 9.20938C45.8633 9.29429 45.7427 9.43585 45.6705 9.48166L45.6095 9.46654C45.5153 9.42899 45.3995 9.37057 45.3034 9.42087L45.3932 9.53275C45.3894 9.60747 45.4022 9.57477 45.3502 9.63256C45.0858 9.6185 45.1857 9.22169 45.2198 9.0651C45.2478 8.93659 45.156 8.82975 45.0806 8.73226Z" fill="#680000"/>
<path d="M43.6462 15.8211C43.6228 15.814 43.5684 15.8063 43.5419 15.8017L43.518 15.8325C43.582 15.9299 43.6122 15.9715 43.6536 16.0799L43.6304 16.114L43.549 16.1053C43.3638 15.7867 43.171 15.1153 43.3573 14.7685C43.3968 14.7473 43.4728 14.7252 43.5131 14.745C43.8693 14.9194 43.476 15.421 43.6354 15.6381L43.6462 15.8211Z" fill="#680000"/>
<path d="M44.3927 16.6822C44.4395 16.6948 44.436 16.6995 44.4747 16.7329C44.5716 16.965 44.637 17.3965 44.3853 17.5517C44.2399 17.5607 44.1579 17.4835 44.1324 17.3441C44.1089 17.226 44.1302 17.2336 44.0561 17.1664C43.9553 17.1548 43.7682 17.2697 43.6601 17.32C43.6876 17.2743 43.7996 17.0867 43.829 17.0695C44.1765 16.8661 44.1786 17.0455 44.3927 16.6822Z" fill="#680000"/>
<path d="M42.3761 20.6123C42.9368 20.8161 43.5814 20.6964 44.1724 20.7113C44.2383 20.713 44.2187 20.8145 44.2892 20.7965C44.4017 20.7884 44.5433 20.656 44.6166 20.7487C44.5411 20.8222 44.0294 21.1756 43.9431 21.2046L43.9145 21.1746C43.9357 20.9886 44.0477 20.9683 44.1653 20.8605C44.1522 20.8285 44.149 20.7995 44.1207 20.7985C43.6893 20.7839 43.7179 20.9786 43.2917 20.7851C42.8875 20.9284 42.8184 20.8724 42.411 20.7654L42.3761 20.6123Z" fill="#00123B"/>
<path d="M9.34072 13.6699C9.56517 13.7231 10.1884 14.0826 10.3099 14.272L10.3098 14.3272C10.2179 14.3987 10.0026 14.3829 9.88603 14.3731C9.80199 14.3175 9.76626 14.1516 9.66727 14.0645C9.57015 13.9791 9.22356 13.8937 9.16506 13.8376C9.26149 13.7768 9.27274 13.7587 9.34072 13.6699Z" fill="#680000"/>
<path d="M44.829 8.09178C44.8175 8.07484 44.7383 7.90235 44.7328 7.88606C44.6479 7.62321 44.1912 7.07378 44.2032 6.82294L44.2514 6.83544C44.3352 6.9139 45.0733 7.86507 45.0771 7.89391C44.9842 7.90297 44.9937 7.88819 44.9281 7.93489L44.9425 8.0606C44.8957 8.06738 44.8701 8.06727 44.829 8.09178Z" fill="#680000"/>
<path d="M10.539 14.3784C10.7489 14.3854 11.3464 14.4493 11.3794 14.7149C11.2893 14.7833 11.1932 14.7302 11.0088 14.7662L10.9816 14.7717C10.8745 14.8329 10.4512 14.8091 10.3445 14.7886L10.3423 14.758C10.4813 14.6652 10.515 14.7081 10.6401 14.644C10.6435 14.5469 10.5869 14.468 10.539 14.3784Z" fill="#680000"/>
<path d="M34.339 1.24762C34.4316 1.27415 35.0014 1.52115 35.0991 1.59205C35.1405 1.62201 35.1342 1.65701 35.1337 1.69959C35.0683 1.7383 35.058 1.72035 34.9681 1.70722C34.7876 1.69206 34.1046 1.63977 34.1283 1.41559C34.1746 1.33184 34.2554 1.29657 34.339 1.24762Z" fill="#680000"/>
<path d="M45.777 27.5912C45.7854 27.5932 45.8077 27.597 45.8154 27.6016C45.9763 27.6988 46.1702 27.6019 46.2941 27.6868C46.2922 27.8249 46.1588 27.9308 46.058 28.0343C45.9703 28.0975 45.8794 28.1751 45.775 28.1936C45.5768 28.1324 45.7386 27.741 45.777 27.5912Z" fill="#680000"/>
<path d="M11.2874 2.6576C11.372 2.64971 11.4541 2.63496 11.5354 2.6546C11.5304 2.79832 11.3893 3.02174 11.2601 3.09584C11.2145 3.12196 11.0306 3.1426 10.9711 3.15063C10.8959 3.06351 10.8262 2.98023 10.7423 2.9009L10.7274 2.88696L10.7412 2.85101C10.8307 2.82138 10.8705 2.86133 10.9826 2.89777C11.0581 2.83974 11.041 2.83816 11.0803 2.73628C11.1371 2.67467 11.2051 2.67239 11.2874 2.6576Z" fill="#680000"/>
<path d="M36.7307 16.706C36.8943 16.7614 37.0253 17.0805 37.046 17.245C37.064 17.3897 37.0425 17.4323 36.9621 17.5427C36.5643 17.7285 36.704 16.8927 36.7307 16.706Z" fill="#680000"/>
<path d="M39.8358 2.0705C40.0493 2.07443 40.7348 2.05247 40.8587 2.21636L40.8423 2.27723C40.5986 2.30043 39.8015 2.47496 39.8358 2.0705Z" fill="#680000"/>
<path d="M43.6353 15.6381C43.808 15.6892 43.8802 15.7095 44.043 15.7969L44.0466 15.8103C44.137 16.1588 44.5259 16.142 44.3301 16.534C44.3064 16.5815 44.2002 16.7121 44.1481 16.7298L44.1345 16.6784C44.18 16.6005 44.2347 16.5338 44.223 16.4508L44.1781 16.3864L44.1672 16.3599C44.2091 16.3254 44.2105 16.3057 44.2279 16.2545C44.1626 16.1386 44.0585 16.166 44.027 16.1295C43.9594 16.051 43.9749 15.9577 43.8557 15.8839C43.7666 15.8754 43.7228 15.8751 43.6462 15.8211L43.6353 15.6381Z" fill="#00123B"/>
<path d="M49.0463 19.7506C49.0869 19.7415 49.0714 19.744 49.1157 19.7556C49.1157 19.7714 49.1157 19.7871 49.1155 19.8029C48.9845 19.9203 48.9338 19.9681 48.8606 20.1273C48.8421 20.1381 48.8235 20.1486 48.8045 20.1586C48.6157 20.2583 48.5392 20.248 48.3396 20.1853C48.2906 20.1393 48.2688 20.186 48.2004 20.1094C48.2748 20.045 48.6013 20.0595 48.671 20.0155C48.9041 19.8682 48.7476 19.8199 49.0463 19.7506Z" fill="#680000"/>
<path d="M11.6964 2.09556C11.8184 2.09333 11.8943 2.0684 11.9702 2.16796L11.9543 2.23514C11.8431 2.36974 11.7209 2.43574 11.556 2.48257L11.4704 2.4477C11.4217 2.36607 11.3771 2.28429 11.4256 2.1955C11.5712 2.15626 11.4871 2.18153 11.6362 2.19529L11.6964 2.09556Z" fill="#680000"/>
<path d="M43.4148 18.7957C43.6269 18.4149 43.7304 18.6211 44.0531 18.6657C44.159 18.6804 44.2203 18.527 44.3279 18.5186C44.3606 18.606 44.3565 18.5684 44.3418 18.6621C44.1585 18.8981 43.6904 18.6396 43.4853 18.8199L43.454 18.8499L43.4148 18.7957Z" fill="#680000"/>
<path d="M44.6087 11.5246C44.6174 11.6485 44.6471 11.8805 44.5893 11.9796L44.5283 11.9777C44.418 11.8985 44.4088 11.7167 44.3459 11.6015C44.3211 11.5559 44.299 11.5787 44.2593 11.5057C44.3004 11.4435 44.3203 11.4101 44.3529 11.343L44.4439 11.3983L44.5787 11.4729L44.6087 11.5246Z" fill="#00123B"/>
<path d="M43.9839 16.9854C43.7546 16.6195 43.9041 16.7851 43.8745 16.5014C43.8287 16.493 43.8069 16.5106 43.7633 16.5317L43.7451 16.5406L43.7108 16.5069C43.7416 16.3818 43.7255 16.3584 43.6944 16.234L43.7247 16.2135C43.7982 16.2454 43.9017 16.3489 43.9657 16.4068C44.0455 16.3823 44.0847 16.3731 44.1672 16.3599L44.1781 16.3864C43.9973 16.545 43.9967 16.7641 43.9839 16.9854Z" fill="#000313"/>
<path d="M26.0406 1.63013L26.0299 1.55268C26.1259 1.4357 26.9191 1.53256 27.0874 1.57677C26.8295 1.6425 26.6074 1.69373 26.3382 1.65626C26.2247 1.64046 26.1995 1.63374 26.0877 1.66377L26.0406 1.63013Z" fill="#680000"/>
<path d="M44.3529 11.343C44.3652 11.3062 44.3815 11.2709 44.402 11.2378C44.5076 11.0663 44.6127 10.9944 44.8017 10.9459C44.7895 11.0479 44.8339 11.0751 44.8548 11.1721C44.7168 11.2457 44.5798 11.3211 44.4439 11.3983L44.3529 11.343Z" fill="#00123B"/>
<path d="M11.7091 1.63151C11.863 1.62669 12.0982 1.63673 12.1798 1.78034C12.1714 1.86578 12.1375 1.88894 12.0783 1.94893C11.8715 1.83927 11.7467 1.86541 11.6001 1.79036C11.6017 1.70783 11.6329 1.70656 11.7091 1.63151Z" fill="#680000"/>
<path d="M41.5433 14.4172L41.5771 14.3832C41.7029 14.5668 41.6947 14.8233 41.4273 14.8495C41.3265 14.8134 41.3584 14.8398 41.3042 14.7532C41.2949 14.5228 41.4414 14.5778 41.5433 14.4172Z" fill="#680000"/>
<path d="M35.7508 1.81991C35.5637 1.74174 35.3987 1.90392 35.2467 1.79285C35.2288 1.57919 35.5784 1.57257 35.7394 1.69498C35.7636 1.74515 35.7756 1.76026 35.7761 1.81703L35.7508 1.81991Z" fill="#680000"/>
<path d="M43.287 13.2964C43.3333 13.3067 43.3303 13.3104 43.3627 13.3465C43.3772 13.5345 43.3508 13.7637 43.3241 13.9509C43.2647 13.8916 43.1773 13.7814 43.1201 13.7138C43.183 13.5708 43.2326 13.4421 43.287 13.2964Z" fill="#00123B"/>
<path d="M16.7552 3.28949C16.8679 3.30055 16.9268 3.28927 16.9437 3.40872C16.8892 3.50765 16.8529 3.53821 16.7734 3.61729C16.6587 3.59477 16.5791 3.59924 16.5517 3.47729C16.5928 3.38693 16.6722 3.34592 16.7552 3.28949Z" fill="#680000"/>
<path d="M9.16506 13.8376C8.91699 13.5504 8.92982 13.9897 8.68293 13.9013L8.67593 13.8585C8.80828 13.6188 9.10814 13.6141 9.34071 13.6699C9.27274 13.7587 9.26149 13.7768 9.16506 13.8376Z" fill="#00123B"/>
<path d="M44.829 8.09179C44.8701 8.06728 44.8957 8.06739 44.9425 8.06061C45.0193 8.23964 45.1386 8.33874 45.2819 8.47019C45.2078 8.5111 45.1255 8.55405 45.0531 8.59653C44.991 8.38716 44.9316 8.28501 44.829 8.09179Z" fill="#680000"/>
<path d="M44.5787 11.4729C44.6732 11.3862 44.8012 11.2614 44.9311 11.2534L44.9872 11.278C45.0223 11.4803 44.7614 11.5315 44.6087 11.5246L44.5787 11.4729Z" fill="#000313"/>
<path d="M43.3314 16.3543C43.3987 16.5492 43.0948 16.8999 42.9458 17.0053C42.9197 16.8306 43.2236 16.5087 43.3314 16.3543Z" fill="#680000"/>
<path d="M13.4298 3.81098C13.4956 3.80961 13.599 3.80052 13.6419 3.84774C13.567 3.91479 13.5127 3.94499 13.4273 3.99673C13.3564 4.025 13.3459 4.02437 13.2694 4.01996L13.2464 3.97968C13.2815 3.88739 13.3456 3.86106 13.4298 3.81098Z" fill="#680000"/>
<path d="M32.5994 12.9623C32.664 13.0679 32.677 13.0963 32.7181 13.2133C32.7032 13.2196 32.6601 13.2264 32.6419 13.2299L32.5629 13.1579C32.5733 13.1086 32.552 13.08 32.5297 13.0331L32.5994 12.9623Z" fill="#172D5D" fill-opacity="0.0117647"/>
<path d="M28.6683 12.6808C28.6038 12.5954 28.5616 12.519 28.5311 12.4171L28.5479 12.3886C28.6261 12.447 28.665 12.582 28.7026 12.6776L28.6683 12.6808Z" fill="#172D5D" fill-opacity="0.635294"/>
<path d="M7.84967 2.87387C8.10079 2.77376 8.33916 2.57896 8.54529 2.51561C9.04586 2.3618 9.27968 2.64951 9.66302 2.84661C9.72121 2.87654 9.73603 2.7895 9.87843 2.78626C9.94357 2.85606 9.92952 2.88424 9.94891 2.99247C10.0815 2.97302 9.92285 2.66901 10.4041 2.74435C10.4594 2.69538 10.4718 2.68499 10.5374 2.65154L10.57 2.68396C10.5702 2.76513 10.5816 2.73879 10.5376 2.79565L10.4349 2.80276C10.3978 2.83609 10.2702 3.13383 10.1993 3.24132C10.3106 3.31616 10.4472 3.39522 10.5631 3.46635L10.5302 3.47196C10.3763 3.49914 10.3226 3.48076 10.1864 3.58503C10.0422 3.69546 9.84499 3.61039 9.65422 3.59576L9.62963 3.62673C9.74278 3.83694 9.9716 3.8483 10.1637 3.91532C10.5386 4.04609 10.6543 3.29154 10.9783 3.49775C11.0069 3.58912 11.0065 3.55017 10.9754 3.64527C10.7823 3.80881 10.7698 3.86423 10.6587 4.08983C10.8263 3.92082 11.183 3.74868 11.2166 3.58019C11.0209 3.12716 11.3781 3.22539 11.5525 3.01553L11.6462 3.04835C11.7338 3.25859 11.6541 3.39241 11.692 3.64753L11.7188 3.68242C11.7716 3.60241 11.8168 3.54617 11.9291 3.58024C11.9999 3.73424 11.859 3.88272 11.9052 3.97027C12.0563 3.92182 12.4657 3.61409 12.466 3.42891C12.3345 3.33855 12.2663 3.43138 12.1444 3.33432C12.1699 3.2657 12.1697 3.28245 12.2372 3.22912C12.1749 3.10102 12.1618 3.16858 12.187 3.05565C12.2805 2.94917 12.5603 2.7093 12.6884 2.74843C12.9099 2.81613 13.3736 2.65062 13.5116 2.74328C13.557 2.86374 13.4525 2.8715 13.5073 2.95265C13.6015 2.97049 13.6525 2.98332 13.7371 2.93887C13.6951 2.8843 13.6691 2.8606 13.619 2.81276L13.6264 2.77093C13.7403 2.71036 13.8803 2.71592 14.0105 2.71438C14.0628 2.83452 14.0998 2.9438 14.1986 3.02847L14.2129 3.04086C14.3891 3.19097 14.6852 3.29802 14.8847 3.43958C14.8188 3.56425 14.8021 3.60341 14.7017 3.69974L14.6932 3.77444C14.8485 3.93329 15.1652 3.9072 15.2665 4.12722C15.2396 4.25848 14.8833 4.4316 14.7575 4.51431C14.7123 4.42093 14.6619 4.28541 14.5779 4.23449C14.4691 4.21807 14.5138 4.21406 14.4077 4.25388C14.2716 4.53261 14.7292 4.42869 14.4459 5.03923C14.2553 4.9044 14.1287 4.80791 13.9123 4.7148C14.0187 4.83514 14.1395 4.93762 14.1954 5.07869L14.1914 5.10867C14.0983 5.15189 13.692 4.97882 13.5771 4.93122C13.1978 4.25058 12.992 4.76254 12.7864 4.60148L12.7619 4.51826C12.8852 4.31684 13.1686 4.42588 13.3253 4.39339C13.4272 4.37226 13.8181 4.00243 13.8732 3.91227C13.8298 3.78149 13.6421 3.72945 13.5549 3.64078C13.5105 3.59563 13.5408 3.48629 13.4666 3.41521C13.3938 3.43435 13.2635 3.49053 13.2172 3.49538C13.0889 3.50889 12.6893 3.37959 12.5858 3.45175C12.6986 3.5758 12.8726 3.45932 12.8676 3.66594C12.7242 3.83972 12.6698 3.74936 12.6679 3.97212C12.4245 4.341 11.9855 4.09895 11.8832 4.20377C11.9193 4.40412 12.3467 4.57392 12.3621 4.7657C12.2646 4.8057 12.1151 4.70911 11.9737 4.72166C11.7682 4.73988 11.7462 4.85565 11.5664 4.84851L11.5028 4.79993C11.4921 4.66788 11.7311 4.46749 11.8244 4.27893C11.7766 4.3206 11.5607 4.50941 11.5176 4.52793C11.1321 4.69334 9.91383 5.26085 9.84779 5.70227C9.8829 5.75358 9.91321 5.80216 9.94572 5.85513C9.92805 5.93672 9.90362 6.03138 9.93077 6.10965C9.96372 6.11006 10.1392 6.10317 10.145 6.10434C10.3648 6.14963 10.5348 6.40056 10.7219 6.49326C10.7579 6.51109 11.0418 6.53814 11.1186 6.54966C11.1288 6.65971 11.0071 6.92384 10.9807 7.0767C11.0318 7.22847 11.0684 7.31899 11.1364 7.46404C11.227 7.36412 11.3191 7.26548 11.4124 7.16809C11.4459 6.9926 11.485 6.80497 11.5124 6.62983C11.737 6.54394 12.2705 6.3547 12.1561 6.03247C12.1144 5.91513 12.0685 5.92493 12.0751 5.78972C12.1533 5.66412 12.2284 5.62918 12.2915 5.53539C12.3814 5.40173 12.3832 5.06542 12.5748 5.02888C12.692 5.00649 13.1237 4.99358 13.2156 5.06055C13.3598 5.16556 13.351 5.24432 13.5589 5.36069L13.4432 5.70559C13.4992 5.78027 13.5624 5.86875 13.623 5.93806C13.9309 5.76126 14.0007 5.66564 14.2469 5.40404C14.3311 5.86556 14.4391 5.9541 14.324 6.40339C14.6097 6.58108 15.0899 6.85295 14.8624 7.26156C14.8436 7.2953 14.7615 7.32961 14.7257 7.34554L14.7129 7.37871L14.7961 7.4194C14.7709 7.59571 14.5794 7.57632 14.6808 7.80657C14.8193 7.89849 14.8754 7.78059 14.9939 7.87114C15.0091 8.002 15.0408 8.46864 14.8608 8.4776C14.8297 8.42735 14.7992 8.37681 14.7691 8.32599C14.382 8.30075 14.3321 8.24377 13.9307 8.28577C14.0715 8.1014 14.5312 7.5929 14.564 7.42264L14.5338 7.40598C14.1979 7.53833 14.0098 7.77256 13.585 7.67694C13.2066 7.59176 12.8904 7.81589 12.5886 8.01651C12.471 8.09435 12.323 8.18699 12.2649 8.32177C12.3877 8.27035 12.5002 8.14236 12.6353 8.06295C12.7806 7.9865 13.1056 7.81047 13.2623 7.90216C13.3062 8.11409 13.0191 8.24217 13.1104 8.50513C13.271 8.58198 13.2811 8.45208 13.3778 8.5331C13.378 8.61788 13.3596 8.63855 13.3198 8.71278L13.479 8.8087C13.2929 8.88046 12.7797 9.15478 12.6718 9.12272L12.649 9.06834C12.6911 8.96818 12.8651 8.84331 12.9599 8.75679C12.8743 8.72572 12.456 8.92602 12.3577 8.97204C12.1143 9.08604 11.9721 9.16417 11.8554 9.40666C11.8709 9.4606 11.8995 9.4795 11.9403 9.51842C11.8338 9.65796 11.5444 9.67027 11.3693 9.7682C11.1658 9.88193 10.9316 10.3589 10.8166 10.4131C10.7646 10.3584 10.7729 10.3231 10.7558 10.2379C10.6887 10.3614 10.758 10.6601 10.7465 10.8521C10.2756 11.3815 9.4835 11.473 9.55504 12.225C9.59428 12.6373 9.64711 12.9446 9.42985 13.3101C9.2217 12.8989 9.21947 12.6647 9.12524 12.2281C9.09357 12.0813 8.87868 12.2302 8.79401 12.1259C8.78578 12.1162 8.71427 12.0606 8.69755 12.046C8.56225 12.0307 8.15248 12.0048 8.04363 12.0612C8.07067 12.1818 8.13685 12.2111 8.11721 12.2848C7.772 12.3627 7.54164 11.9859 7.1125 12.3097C7.03137 12.3709 6.84975 12.5106 6.80376 12.6114C6.63902 12.9726 6.41381 13.6796 6.51402 14.0648C6.55732 14.2313 6.62887 14.4066 6.69202 14.552L6.92985 14.7117C7.15602 14.6376 7.18625 14.6275 7.42685 14.611C7.62189 14.3283 7.63055 14.0289 7.92783 13.9826C8.029 13.9668 8.15207 13.9565 8.24812 13.9958C8.29709 14.0992 7.90776 15.1193 7.82056 15.2357C8.08962 15.2216 8.77914 15.1024 8.74003 15.5372C8.70741 15.9003 8.53028 16.1998 8.70596 16.5549C9.08135 17.1133 9.10068 16.5469 9.50839 16.7275L9.46786 16.8459L9.38878 16.8123C9.29003 16.8225 9.32682 16.8068 9.25065 16.8733C9.20087 16.9698 9.218 17.0735 9.22331 17.1839C9.09052 17.3102 8.57677 16.8447 8.48064 16.7223C8.39466 16.6689 8.30923 16.6147 8.22437 16.5596C8.21841 16.4505 8.20615 16.3396 8.19542 16.2307C7.80632 15.7245 7.72268 15.8998 7.25969 15.5954C6.87691 15.3438 7.15278 15.1085 6.52522 15.2863C6.19079 15.2046 5.47661 14.7781 5.21498 14.5228C4.8936 14.3016 5.21816 14.0195 5.13785 13.8275C4.82666 13.0835 4.33238 12.6445 4.33527 11.7797C4.23358 11.7216 4.1503 11.6474 4.03916 11.6983C3.98567 11.7851 3.99401 11.9158 3.99098 12.0214C4.15302 12.3161 4.26326 12.6623 4.34689 12.9887C4.24237 13.0164 4.22906 13.0364 4.15504 13.1135C4.1171 12.8109 3.80713 12.7728 3.80743 12.563C3.88497 12.5293 3.90787 12.5257 3.96081 12.4606C3.97462 12.3085 3.78619 12.1101 3.76326 11.9321C3.73399 11.7052 3.71217 11.4782 3.68614 11.251L3.40406 11.1008C3.32121 10.9286 3.30133 10.6826 3.27443 10.4954C3.12701 9.4703 3.74093 8.86011 4.08053 7.8858C3.7238 7.54168 3.87753 7.54816 4.04273 7.24595C4.07268 7.19119 4.10809 6.94761 4.07337 6.88424C4.02622 6.88457 3.99845 6.89053 3.96062 6.86336C3.97963 6.69756 4.15528 6.69963 4.09224 6.47801C4.02026 6.45946 3.95199 6.51651 3.86108 6.55772L3.82519 6.52871C3.82922 6.35668 3.97179 6.38955 4.06375 6.27752L4.02982 6.22586C3.90988 6.20366 3.91776 6.22392 3.84088 6.15156C3.79842 6.05813 3.83336 5.90562 3.84801 5.79742C3.58946 5.32743 3.35019 5.52218 2.93404 5.10393C2.66436 5.35862 2.40841 5.40864 2.06295 5.55807C2.12378 5.47234 2.19994 5.35682 2.27721 5.2868C2.32823 5.24059 2.47267 5.18204 2.50148 5.13291C2.41912 5.14301 2.01163 5.35159 1.94752 5.41725C1.70225 5.6685 1.56105 5.7124 1.23812 5.8423L1.24285 5.61376C1.11695 5.49609 0.841304 5.59623 0.734275 5.50107C0.786729 5.40347 0.852567 5.36469 0.853055 5.28269C0.763924 5.30151 0.658041 5.33825 0.580844 5.30576L0.576385 5.25276C0.64062 5.13822 0.672252 5.04293 0.716601 4.92074C1.16917 4.57362 1.21196 4.67161 1.72764 4.47822C1.77215 4.46153 1.9957 4.27629 2.04881 4.23225C1.8346 4.28566 1.50034 4.42417 1.31876 4.28095C1.27752 4.19609 1.28353 4.17338 1.29241 4.08133C1.50783 3.80971 2.02369 4.01553 2.28064 3.93985L2.29382 3.93585C2.23734 3.80625 2.07767 3.52831 2.14799 3.41153C2.29716 3.32212 2.46173 3.3523 2.59151 3.30178C2.92337 3.17259 3.17903 3.04029 3.53469 2.97487C3.69036 2.94644 3.84921 2.93991 4.00667 2.95543C4.18532 2.97455 4.40738 3.04339 4.58657 3.0877C5.09237 3.21284 5.46081 3.23468 5.90169 3.53359C6.33796 3.26387 7.00596 3.39486 7.21882 3.23574L7.28246 3.24693C7.38744 3.43748 7.47835 3.36003 7.68262 3.39456C7.91413 3.4337 8.35724 3.53495 8.53984 3.65867C8.53886 3.74375 8.48009 3.68626 8.3835 3.7819C8.53314 3.92528 8.77091 3.77586 8.98804 3.84568C9.04278 3.89748 9.05817 3.91246 9.12301 3.95015C9.18949 3.92234 9.26729 3.78454 9.31283 3.71649C9.44058 3.68117 9.52317 3.65061 9.64684 3.60173C9.16457 3.66041 8.86974 3.72847 8.41343 3.45306C8.42797 3.35813 8.53284 3.34018 8.53559 3.31681C8.54986 3.1947 8.54853 3.05611 8.6351 2.95282C8.70291 2.93302 8.72031 2.93245 8.77429 2.88972L8.75136 2.87014C8.42315 2.78688 8.12652 3.46845 7.84967 2.87387ZM12.7174 3.15105C12.7855 2.92354 12.9484 2.91812 12.9263 2.81336L12.9101 2.79851C12.7725 2.87528 12.6342 2.93855 12.6821 3.11741L12.7174 3.15105Z" fill="#680000"/>
<path d="M8.70596 16.5549C9.08135 17.1133 9.10068 16.5469 9.50839 16.7275L9.46786 16.8459L9.38878 16.8124C9.29003 16.8225 9.32682 16.8068 9.25065 16.8733C9.20087 16.9698 9.218 17.0735 9.22331 17.1839C9.09052 17.3102 8.57677 16.8447 8.48064 16.7223C8.62549 16.7438 8.6479 16.892 8.94434 17.0077L8.99553 16.9628L9.00158 16.9741C8.87339 16.7912 8.68881 16.7587 8.70596 16.5549Z" fill="#680000"/>
<path d="M3.84801 5.79747L3.90283 5.84769L3.93739 5.79159C4.09128 5.78361 4.09308 5.81435 4.18635 5.93472L4.18475 5.97609L4.08883 6.01433C4.058 6.1719 4.21018 6.10283 4.02982 6.2259C3.90988 6.20371 3.91775 6.22397 3.84087 6.15161C3.79842 6.05817 3.83336 5.90567 3.84801 5.79747Z" fill="#680000"/>
<path d="M12.9101 2.79852L12.9263 2.81336C12.9484 2.91813 12.7855 2.92355 12.7174 3.15106L12.6821 3.11742C12.6342 2.93856 12.7725 2.87529 12.9101 2.79852Z" fill="#172D5D" fill-opacity="0.0117647"/>
<path d="M9.7585 16.9255C9.83908 16.7915 10.0617 16.3305 10.1385 16.3317C10.3351 16.3347 10.6379 16.0387 10.7297 16.0164L10.7731 16.0402C10.7611 16.1903 10.6543 16.2604 10.6723 16.3696C10.7443 16.3926 10.7136 16.392 10.7966 16.3524C10.8622 16.26 10.8755 16.2318 10.9209 16.1284C11.0716 16.1463 11.2772 16.4131 11.3447 16.432C11.5475 16.489 11.5755 16.4443 11.8209 16.5615C11.939 16.4853 12.1117 16.3752 12.2561 16.3762L12.2745 16.3978C12.2466 16.4934 12.2329 16.4796 12.2688 16.5545C12.6932 16.8096 12.8722 17.1758 13.1815 17.4543C14.0344 17.5001 14.2068 17.75 14.4192 18.5743C14.4398 18.6544 14.2314 18.8224 14.2127 18.9307L14.2378 18.9501C14.2974 18.8738 14.3429 18.7823 14.4182 18.773C14.5344 18.8459 14.6419 18.9109 14.7664 18.9704C15.0078 19.0857 15.3143 19.0931 15.4313 19.3507C15.6195 19.4508 16.0631 19.4724 16.2102 19.5564C16.5402 19.7448 16.5377 19.8601 16.9188 20.021C17.0167 20.3509 17.0916 20.5555 16.9044 20.8867C16.7512 21.1576 16.5582 21.4301 16.3925 21.6979C16.4026 24.7274 15.3442 23.2449 14.8863 24.4043C14.9684 24.9423 14.9241 24.8943 14.6392 25.4217L14.5585 25.42C14.3896 25.9299 14.337 26.4797 13.6858 26.2328C13.5926 26.1968 13.5004 26.1581 13.4094 26.1168C13.5088 26.2018 13.593 26.2767 13.7039 26.3481C14.1163 27.2148 13.6136 26.9554 13.1155 27.1727C13.0895 27.3304 13.1761 27.4698 13.1298 27.5662C12.9344 27.6599 12.8528 27.5136 12.7521 27.5599C12.7576 27.7318 12.8734 27.8067 13.0267 27.8369C12.9173 28.0234 12.8692 27.9483 12.8555 28.2312C12.8505 28.3334 12.6866 28.4559 12.6821 28.5972C12.7533 28.7119 12.971 28.8018 13.0947 28.8587C12.9821 29.067 12.8778 29.2797 12.7821 29.4962C13.151 30.3061 13.5806 30.174 13.7029 30.3355C13.6399 30.3767 13.3704 30.4121 13.2178 30.4864C12.9956 30.4047 12.6927 30.295 12.4955 30.1768C12.2527 30.0311 11.5095 29.1678 11.5947 28.911L11.6793 28.8609C11.6823 28.7775 11.6911 28.811 11.6363 28.7348C11.5307 28.6975 11.5107 28.7127 11.4701 28.6345C11.477 28.4151 11.703 28.0902 11.5087 27.7566L11.4832 27.756C11.4488 27.8481 11.4406 27.8796 11.4211 27.9744L11.3989 27.9676C11.3462 27.8304 11.1072 26.7672 11.128 26.6809C11.2846 26.0288 11.1294 25.6871 11.0829 25.0593C11.032 24.3734 11.1359 23.5645 10.9871 22.8804C10.9199 22.5456 10.2459 22.31 10.0506 22.052C9.80087 21.6623 9.61397 21.1392 9.39395 20.7242C9.22789 20.411 9.01176 20.1449 8.91623 19.7971C9.00588 19.6286 9.03788 19.5831 9.16819 19.445C9.04455 19.3055 9.01784 19.2777 9.02576 19.0806C9.04006 18.7252 9.37979 18.306 9.61345 18.0431C9.59469 17.8684 9.58241 17.6867 9.56642 17.5109C9.55054 17.3362 9.46217 16.9962 9.46786 16.8459L9.50839 16.7276C9.62091 16.8023 9.65969 16.8332 9.7585 16.9255Z" fill="#680000"/>
<path d="M50 27.6288V28.0038C49.8173 28.1587 49.607 28.2767 49.4194 28.4251C49.2598 28.5512 48.5921 29.1184 48.4556 28.7203C48.494 28.5495 49.0771 28.2832 49.2437 28.1958C49.5498 28.0354 49.7418 27.8594 50 27.6288Z" fill="#680000"/>
<path d="M1.24285 5.61377L1.23812 5.84231C0.753284 6.09683 0.527301 6.18256 0 6.32499V6.23556C0.456209 6.08403 0.887105 5.94495 1.24285 5.61377Z" fill="#00123B"/>
<path d="M11.9374 2.62494C12.1204 2.63644 12.3037 2.64374 12.4871 2.64685C12.4071 2.69474 12.301 2.75945 12.2171 2.79679C11.995 2.89567 11.8117 2.86359 11.6462 3.04836L11.5525 3.01555C11.694 2.79651 11.7011 2.74226 11.9374 2.62494Z" fill="#680000"/>
<path d="M4.3469 12.9887C4.37209 13.2849 4.55379 13.5402 4.49592 13.7123C4.38315 13.7013 4.39257 13.5993 4.33976 13.5217C4.23102 13.3619 4.14881 13.3232 4.15504 13.1135C4.22906 13.0364 4.24238 13.0164 4.3469 12.9887Z" fill="#000313"/>
<path d="M13.3198 8.7128C13.5395 8.68987 13.6277 8.48568 13.845 8.29608C13.8169 8.41351 13.7808 8.54902 13.7587 8.66607C13.7003 8.69608 13.5311 8.78848 13.479 8.80872L13.3198 8.7128Z" fill="#680000"/>
<path d="M12.6353 8.06297C12.5002 8.14238 12.3877 8.27038 12.265 8.3218C12.323 8.18702 12.471 8.09437 12.5886 8.01654L12.6353 8.06297Z" fill="#172D5D" fill-opacity="0.396078"/>
</g>
<defs>
<clipPath id="clip0_1370_418">
<rect width="50" height="30.5011" fill="white"/>
</clipPath>
</defs>
</svg>
