<svg width="164" height="100" viewBox="0 0 164 100" fill="none" xmlns="http://www.w3.org/2000/svg">
<g clip-path="url(#clip0_458_873)">
<path d="M117.295 5.95728C119.046 6.94879 119.688 6.41555 121.479 6.9229C121.938 7.05291 121.888 8.10724 122.303 8.33274C122.92 8.52337 123.61 8.32369 124.242 8.40627C124.829 8.48294 125.332 8.86945 125.943 8.83188C126.744 8.78259 127.015 8.24431 127.883 8.3308C128.591 8.40141 128.962 8.54735 129.5 9.07033C129.899 9.41658 130.394 10.0943 130.934 10.124C131.105 9.97176 131.108 9.91497 131.192 9.69149C131.691 9.46104 133.094 9.71774 133.529 9.58515C133.572 9.40292 133.504 9.28961 133.435 9.11078C133.765 8.714 135.693 8.98935 136.213 9.03185C137.382 9.12711 138.614 9.80667 139.749 9.94542C141.264 10.1308 142.095 9.52908 143.425 10.6609C143.484 10.711 143.543 10.7619 143.6 10.8135C144.736 10.8535 145.959 10.8468 147.104 10.7968C147.363 10.7854 147.889 11.6065 148.474 11.4606C148.426 11.1113 147.729 10.8704 147.742 10.5801C149.52 9.83935 156.304 12.9066 158.417 13.14C158.545 13.1541 158.766 13.343 158.849 13.459C158.851 13.9607 158.597 13.8485 158.739 14.3748L158.757 14.442C158.772 14.492 158.787 14.5419 158.802 14.5919C158.141 14.9645 155.365 13.4516 154.856 13.6177C154.959 13.9563 155.251 13.9031 155.224 14.1744C154.971 14.4287 154.751 14.4087 154.395 14.4972C155.16 14.9766 155.958 15.5319 156.745 16.0191C156.365 16.0227 155.986 16.0239 155.606 16.023C154.962 16.4467 154.632 16.8229 154.196 17.4845C153.801 18.0828 153.794 17.6647 153.354 17.5759C153.117 17.5278 151.533 18.1307 151.288 18.1994C151.321 18.3216 151.488 18.9571 151.555 19.0268C152.391 19.9018 153.262 20.7253 153.399 22.0327C152.997 22.431 153.112 22.2135 153.081 22.7913C153.032 23.7329 153.373 24.0456 152.852 24.8285L152.855 24.9153C152.866 25.18 152.884 25.2848 152.731 25.51L152.656 25.4863C152.642 25.3402 152.563 24.4871 152.517 24.424C150.096 21.067 148.813 21.5935 150.546 17.1833C150.409 16.8487 150.2 16.2348 149.956 16.0058C149.609 16.305 149.941 17.2828 149.326 17.3707C149.005 17.2175 148.851 16.8793 148.672 16.5678C148.275 16.5952 147.858 16.631 147.462 16.641C147.372 17.4337 147.126 17.8345 147.716 18.3988C147.161 19.2781 146.39 18.4531 145.722 18.3227C145.39 18.2579 144.538 18.5164 144.171 18.5225C143.715 18.6178 142.655 18.5121 142.375 18.7584C141.853 19.8086 142.055 20.421 141.235 21.7909C141.483 21.882 142.914 22.5393 142.991 22.5104C144.936 21.7802 144.988 23.9002 145.434 24.7795C146.445 26.7721 146.012 28.251 145.192 30.2115C144.642 31.4707 143.83 30.3192 143.702 30.3302C142.884 31.8316 143.688 31.8952 142.39 33.2429C143.12 33.7289 144.862 35.2348 144.263 36.291C144.146 36.4988 143.206 36.8133 142.929 36.9155C142.854 36.3931 142.614 34.6776 142.238 34.6007C140.929 34.3338 141.595 33.4791 141.133 33.0394C140.184 32.5806 140.053 33.5174 139.465 33.5861C139.018 33.3493 139.451 32.6721 139.212 32.217L139.039 32.1918C138.388 32.7631 138.364 33.3083 137.607 33.8172C138.407 34.1385 138.52 34.5058 138.915 34.6109C139.157 34.4998 139.197 34.4547 139.404 34.2803C139.889 34.44 140.395 34.5992 140.875 34.766C140.039 35.1925 139.628 35.424 139.147 36.3043C140.455 37.3162 141.788 39.604 141.463 41.2301C141.366 41.7154 140.407 44.0807 140.1 44.4899C139.296 45.5596 137.493 45.9236 136.355 46.5725C136.265 46.6243 136.302 47.0214 136.313 47.1562L136.203 47.2677C135.842 46.9719 135.801 46.6835 135.354 46.3265C134.669 46.2411 134.03 47.3815 133.959 47.9094C133.829 48.8629 135.355 49.9696 135.811 50.774C136.358 51.7408 136.356 52.4529 136.104 53.4986C135.487 54.2402 134.774 54.7009 133.991 55.7008C133.984 55.5735 133.95 54.9926 133.909 54.9177C133.274 53.7553 131.978 52.9042 131.139 51.9252C131.089 53.0133 130.921 53.7142 130.724 54.776C131.177 55.421 131.235 55.8176 131.611 56.4327C131.919 56.9363 132.982 57.5627 133.106 58.2242C133.331 59.4201 133.331 59.9919 133.712 61.1913C131.527 59.876 131.964 58.8306 131.046 56.7343C130.926 56.4603 130.463 55.8855 130.255 55.6244C130.57 53.6548 130.236 52.3432 129.658 50.481C129.197 48.9954 128.955 50.428 128.025 50.7225C127.439 50.5567 127.733 49.8077 127.843 49.3554C127.312 47.4811 126.412 47.6285 125.953 45.4525C125.209 46.2819 125.008 46.2891 123.937 46.6709C123.371 47.7731 121.441 50.0878 120.386 50.8049C120.54 52.2309 120.68 53.9782 119.746 55.1835C119.517 55.4786 119.292 55.9174 118.938 56.0509C118.343 55.6088 116.302 49.5666 115.914 48.501C115.765 48.0918 115.893 46.9598 115.663 46.3585L115.584 46.3791C115.216 48.023 113.642 46.4083 113.685 45.7901C113.895 45.7302 113.946 45.7277 114.121 45.6027C113.498 44.8452 113.137 45.2272 112.129 43.6462C109.779 43.7073 109.56 43.7123 107.269 43.3207C107.134 42.9372 107.091 42.8438 106.879 42.4977L106.729 42.3649C106.156 42.57 106.063 42.9454 105.487 42.6477C105.052 42.4236 104.676 42.1161 104.313 41.8002C103.679 41.246 103.31 39.8881 102.416 40.1354C101.614 40.9943 102.902 41.8382 103.328 42.5678C103.518 42.8931 103.277 43.0333 103.496 43.3897L103.588 43.3651C103.726 43.0921 103.727 42.9691 103.955 42.8456C104.471 43.133 104.256 43.8843 104.197 44.4041C104.663 44.3348 105.126 44.2595 105.596 44.2227C105.869 43.7585 106.297 43.1399 106.651 42.73C106.724 42.8835 106.794 42.9774 106.76 43.1391C106.804 43.4741 106.959 43.8514 107.077 44.1736C108.065 44.6391 108.262 44.7424 108.987 45.5522C106.886 50.1439 104.408 50.8192 100.085 52.8586C99.5304 51.6702 99.5455 50.6337 99.1554 49.4727C99.0536 48.7562 97.6 47.2611 97.4688 46.7649C96.9429 44.7802 96 43.2565 94.883 41.5189C94.4437 41.4027 94.7232 41.6543 94.1036 41.5643C93.9804 41.2509 93.8527 40.8084 93.5964 40.6169L93.5411 40.7103C93.6411 41.0445 93.7795 41.2951 93.9911 41.5749C94.5062 42.5192 94.8643 43.6485 95.3313 44.5885C95.9455 45.8256 96.3125 46.3388 96.4313 47.7018C96.4634 48.0728 97.5098 49.7968 97.7205 50.3135C97.9295 50.8266 99.192 51.8326 99.4857 52.4214C99.9938 53.3614 99.6045 53.3389 100.39 54.2533C101.631 53.7367 103.161 53.6704 104.401 53.0102C104.299 54.7395 103.204 58.0626 102.057 59.3316C99.9268 61.6879 98.5063 62.9446 97.2795 66.0626C97.7696 67.1949 98.6661 72.4952 97.7732 73.2131C96.9286 73.8927 95.7009 74.881 94.7616 75.9905C95.1295 77.3674 95.175 77.7122 95.05 79.0955C93.483 79.726 93.7732 79.5114 93.4696 80.985C93.1839 82.3708 90.992 85.3053 89.5321 85.6152C88.6175 85.8093 87.6892 85.7068 86.7627 86.1082C86.477 86.2319 85.8095 86.3763 85.5524 86.1715C84.7797 85.6691 85.3358 84.7962 85.1352 84.1199C84.8 82.9902 84.1402 81.8698 83.7897 80.7626C83.4091 79.5599 83.4439 78.2916 83.086 77.0518C82.8269 76.1542 82.129 75.0721 81.9774 74.2671C81.708 72.8369 82.4634 71.1919 83.2379 70.0366C82.6828 67.8902 82.7511 65.796 81.2394 64.0489C80.8665 63.618 80.5905 63.0635 80.3452 62.5502C80.7145 61.5207 80.8608 60.5119 81.0328 59.4342C80.8154 59.1728 80.5304 58.8936 80.2896 58.646C79.8633 58.7428 79.1933 58.8106 78.7431 58.8698C78.4034 58.1176 78.3186 57.8623 77.845 57.1828C76.6544 57.4383 75.5394 57.9434 74.4556 58.4902C73.0786 57.9655 72.6084 58.2784 71.2839 58.8538C69.3357 57.8852 68.0421 54.8823 66.4756 53.1855C66.4788 52.3426 66.5067 52.1386 66.1687 51.3712C66.9869 50.004 67.0766 49.0313 66.6778 47.4769C66.3214 46.0877 67.9064 43.3835 68.7156 42.27C69.1528 41.6685 70.0852 41.216 70.6558 40.4224C70.7026 40.0435 70.6803 39.531 70.8095 39.1779C71.33 37.7557 72.4113 37.3085 73.159 35.8964L72.5111 35.0941C72.2679 35.1205 72.0638 35.1285 71.8215 35.1368C70.7833 34.4379 71.6414 32.6503 71.6823 31.652C71.7041 31.1191 71.6546 30.898 71.5253 30.3811C72.6793 29.9609 73.3504 30.1373 74.5353 30.3178C75.8212 30.5138 75.7503 29.3454 75.8305 28.446C75.5796 28.14 75.3738 27.7801 75.1668 27.4407C74.7547 27.2919 74.1671 27.1312 74.1495 26.6457C74.6071 26.062 75.2389 26.6337 75.75 26.2729C75.724 26.0413 75.7122 26.0035 75.7536 25.7779C76.1231 25.6444 76.2558 26.0006 76.4434 25.8755C78.2273 24.686 78.8039 22.8273 81.0703 22.5143C80.9418 21.9932 80.5055 20.7619 80.8909 20.2502C81.0439 20.0468 81.4986 19.6963 81.7656 19.6585C82.4535 20.2363 81.4338 21.0418 81.6167 21.874C81.9442 22.2442 82.3007 22.1968 82.7691 22.1552C83.2317 22.1139 83.2035 22.1798 83.6303 22.3665C83.9719 22.3409 85.0117 21.8382 85.413 21.6673C85.6403 21.8589 85.7318 21.957 86.0212 22.0527C87.1065 21.8899 86.7438 19.6388 87.7936 18.6899C88.8505 17.7346 90.0313 18.537 90.6 17.9803L90.5902 17.8343L90.1652 17.496C89.3982 17.6253 88.7538 17.8267 88.0071 18.0462C87.4801 17.7929 87.3133 17.8101 87.091 17.2493C86.429 15.5797 87.6406 15.1527 88.7213 14.0482C88.645 14.0163 88.5683 13.9853 88.4913 13.9552C87.2801 13.4833 87.0029 14.0056 86.6864 15.0627C85.3076 15.911 84.4297 16.491 85.6799 17.7214C86.0846 18.1197 85.0213 19.111 84.8704 19.5082C84.7522 19.819 84.6795 20.216 84.6054 20.5859C83.9391 20.8525 83.9323 20.9639 83.3844 21.4074C82.9743 21.2685 82.4756 21.5141 81.9156 21.6078L81.8666 21.5343C82.1784 21.2068 82.6138 20.9435 82.9942 20.6899C82.4935 19.8516 82.344 19.2646 82.0519 18.335C79.577 20.9025 78.7691 17.866 79.8939 16.0751C79.9805 15.9373 80.9095 15.499 81.1843 15.3435C82.0863 14.8332 83.7005 13.1545 84.068 12.2116C83.944 12.0691 83.9101 12.0497 83.8851 11.8593C84.265 11.4476 84.3 11.5781 84.7227 11.7049C84.7301 11.6983 85.2818 11.1836 85.2396 11.2063C86.3084 10.6318 88.2036 10.2466 89.4268 10.3028C90.2786 10.342 90.9214 10.9153 91.633 11.1133C92.8107 11.441 94.3857 11.6519 95.2679 12.5731C95.4393 12.7521 95.4098 12.9198 95.392 13.1223C94.7384 14.0389 92.5652 13.2122 91.6884 12.9241C92.6589 13.5768 92.7759 13.6376 93.2393 14.7394C93.3875 15.0927 93.9429 15.259 94.2946 14.9735C94.175 14.6735 93.8295 14.6915 93.6866 14.3852C94.2232 14.2174 94.4563 14.5718 95.125 14.5296L95.1732 14.43C95.0616 14.2774 94.9955 14.2201 94.9866 14.0317C95.217 13.7689 95.8518 13.3244 96.2223 13.2536C96.342 13.2306 96.4955 13.4349 96.7911 13.3051C96.8848 12.8483 96.267 12.3491 96.4893 11.8119C96.9089 11.6923 97.3705 11.7622 97.5455 12.2013C97.4661 12.4757 97.4098 12.5903 97.2902 12.8402L97.3902 12.9384C98.4205 12.9627 99.0196 11.9243 99.5009 11.8715C100.464 11.7657 102.272 11.696 103.254 11.6652L103.309 11.5486C103.147 11.276 102.53 10.9568 102.228 10.7701L102.263 10.7065C103.496 10.6971 106.208 11.7724 107.358 12.246C106.8 11.6402 106.565 11.531 105.838 11.1728L105.428 10.2812C105.836 9.69131 105.861 9.09738 106.407 8.69055C107.206 8.68543 109.273 12.1592 108.529 13.1225L108.292 13.431L108.374 13.5213C109.968 13.3816 109.12 12.0595 109.368 11.7152C110.31 11.6838 110.229 12.0533 110.752 12.3276L110.787 12.2378C110.278 11.1057 109.596 11.8466 108.895 11.4097C108.631 11.2458 108.188 10.091 108.148 9.71363C108.251 9.56631 108.391 9.50979 108.549 9.4197C108.919 9.6314 108.984 10.5033 109.696 10.1902L109.322 9.85774L109.356 9.72283L109.993 9.3447C110.266 9.43265 111.154 9.76542 111.381 9.75229C110.881 9.36104 110.605 9.13024 110.155 8.68192C110.671 8.6502 111.81 8.61167 112.249 8.47536C112.271 8.31283 112.202 8.22259 112.127 8.07386L112.092 8.00745L112.157 7.83073C113.25 7.06186 115.009 7.23058 115.993 6.87413L116.05 6.85273C116.44 6.71119 116.89 6.25699 117.212 5.96671L117.295 5.95728ZM84.0491 35.4202C83.6248 35.1601 82.9895 34.8284 82.7199 34.4407L82.7876 34.3002C83.123 34.1835 83.4977 34.2768 83.8552 34.3316C85.9013 33.5889 82.7236 31.7987 82.1827 31.2818C81.7951 30.9113 81.5188 30.0566 81.0203 29.7397C80.4905 29.9761 79.9042 30.3512 79.3996 30.6527C79.0643 30.5375 78.4996 30.3236 78.1687 30.2702C78.0456 30.686 77.9029 31.1351 77.799 31.5528C77.4879 31.7701 76.9007 32.16 76.6676 32.4296C75.9594 33.2491 76.3125 34.2756 75.3388 34.9869C74.8329 35.3566 73.5544 35.306 73.2398 35.8712C73.3362 36.4858 74.5037 36.4148 75.0048 36.416C75.3391 36.2035 76.4238 35.5006 76.7153 35.4117C77.3512 35.2175 81.4264 34.7172 81.7371 35.0912C81.7792 35.5312 81.8266 35.9707 81.8793 36.4094C81.7172 36.7039 81.5307 36.9506 81.5838 37.2728C81.9691 38.1177 83.4894 37.7181 84.5565 39.1259L84.6509 39.1515C85.2577 39.3223 86.0191 39.838 86.3778 39.8739C86.7407 39.4581 86.4052 38.0202 87.5264 37.9411C88.0082 37.9071 88.3717 38.4435 88.8966 38.6366C89.7661 38.9561 90.6723 39.1713 91.5705 39.3889L92.6402 38.9584C93.1687 39.1468 93.6107 39.377 94.1464 39.1985C94.6982 38.8135 95.1018 36.106 94.9232 35.4068C94.5402 35.1197 93.8027 35.6447 93.4232 35.851C93.2527 35.7052 92.8304 35.2912 92.6161 35.351C91.5393 35.6513 91.3402 35.5549 90.4571 34.871L90.4393 34.8319C90.0759 34.0364 90.0063 32.5532 89.6741 32.2343C88.7305 32.0652 88.9802 32.7546 88.1974 32.7735C87.9558 33.2883 88.8578 33.6063 88.9665 34.1959C88.7852 34.5123 88.323 35.0766 88.1175 35.4143C87.2484 35.3966 87.1332 33.4557 86.5592 32.8552C86.3611 32.6479 86.3683 31.8353 86.3653 31.4981C85.7678 30.9703 85.0821 30.5055 84.4455 30.0181C84.0736 29.7335 83.3131 28.9442 82.9157 28.8639C82.4383 29.4396 83.6541 30.8779 84.0819 31.308C84.5272 31.7557 85.683 32.1036 85.8638 32.7685L85.7847 32.8403C85.4933 32.7033 85.3047 32.5465 85.0398 32.5936C84.8512 33.0535 85.5041 33.783 84.271 34.4718C84.1847 34.714 84.105 35.1545 84.0491 35.4202ZM121.526 7.84917C121.116 8.09848 120.654 8.34712 120.328 8.69256L120.379 8.78617C120.663 8.74686 120.727 8.73151 120.992 8.62909L121.249 8.37017C121.528 8.37939 121.681 8.37013 121.954 8.34767C121.91 8.18989 121.729 7.98452 121.614 7.86256L121.526 7.84917ZM93.9268 28.435C94.5313 29.0268 94.5491 28.7551 95.1911 28.9665C95.45 28.8162 95.4777 28.7918 95.6518 28.5484C95.7089 28.0839 95.6679 28.134 95.9607 27.7876L96.1009 27.6236L96.0161 27.5529C95.5732 27.6319 94.2875 28.1729 93.9268 28.435ZM92.1705 27.9408C91.667 28.7013 90.1652 30.8094 90.9188 31.6553C92.2116 32.1392 92.4563 31.5243 93.6884 31.3342C94.6768 31.1815 97.0714 33.2133 97.85 31.8802C97.7786 31.0581 95.6741 29.5261 94.9813 29.0885C94.3348 29.2246 94.0696 29.3466 93.5018 29.6632C93.3232 29.3027 92.9161 28.9445 93.0723 28.5892L93.4536 28.4612C93.0313 28.1878 92.7875 28.3701 92.1705 27.9408Z" fill="#680000"/>
<path d="M80.6367 32.0083C81.5974 32.1416 81.3437 33.2717 80.8695 33.7572C80.3063 33.4997 80.8111 32.8641 80.5522 32.3479C80.5085 32.2607 80.6005 32.102 80.6367 32.0083Z" fill="#680000"/>
<path d="M93.4536 28.4613C93.6313 28.5803 93.6241 28.5709 93.842 28.5807L93.9268 28.4351C94.5313 29.0268 94.5491 28.7552 95.1911 28.9666L94.9813 29.0885C94.3348 29.2247 94.0697 29.3467 93.5018 29.6633C93.3232 29.3027 92.9161 28.9446 93.0723 28.5893L93.4536 28.4613Z" fill="#680000"/>
<path d="M84.0491 35.4201C83.6248 35.16 82.9895 34.8283 82.7199 34.4407L82.7876 34.3002C83.123 34.1834 83.4977 34.2767 83.8552 34.3316L84.271 34.4717C84.1847 34.714 84.105 35.1545 84.0491 35.4201Z" fill="#680000"/>
<path d="M121.526 7.84924L121.614 7.86264C121.729 7.98459 121.91 8.18997 121.954 8.34774C121.681 8.37021 121.528 8.37947 121.249 8.37024L120.992 8.62916C120.727 8.73158 120.663 8.74693 120.379 8.78624L120.328 8.69264C120.654 8.3472 121.116 8.09856 121.526 7.84924Z" fill="#680000"/>
<path d="M154.776 69.6014L154.894 69.7167C154.963 70.6758 155.537 71.9232 155.787 72.8672C155.995 73.6557 156.078 74.5751 156.175 75.3898C156.393 75.5919 156.65 75.8548 156.809 76.0865C157.13 76.5571 158.514 79.3656 158.557 79.7341C158.868 82.4227 157.114 84.3768 155.431 86.1656C154.998 86.6262 154.129 87.8607 153.726 88.4112C153.101 88.5606 151.772 89.1266 151.534 89.1441C150.686 88.3384 150.063 89.3616 149.127 88.7486C148.468 88.1941 149.197 87.4155 148.767 86.8258C147.997 85.7706 148.801 85.6083 148.757 85.1929C148.554 85.2066 147.724 85.9883 147.334 86.2138C147.172 86.1051 146.83 84.9088 146.695 84.6055C144.751 83.4355 142.599 84.9772 140.776 85.6538C140.612 85.7149 139.833 85.7285 139.614 85.733C138.219 86.0582 137.888 87.1317 136.455 85.8751C137.014 85.2295 137.088 85.0021 137.407 84.2253C137.339 83.9311 137.304 83.6364 137.31 83.3342C137.329 82.3516 137.168 81.379 136.981 80.4186L136.978 80.4041C137.431 79.9037 137.296 79.8861 137.336 79.343C137.541 76.488 140.2 76.8372 141.963 75.7012C142.201 75.5475 142.829 74.4602 143.098 74.1343C143.487 73.614 144.095 73.1128 144.524 72.668C146.184 70.9504 146.217 72.5908 147.183 72.6305C147.455 72.3362 147.369 71.7498 148.303 70.7437L148.958 70.5993C149.122 70.4036 149.083 70.5014 149.058 70.1898C149.24 70.0372 149.535 70.188 149.779 70.2752C150.585 70.5632 151.129 70.6359 151.971 70.6409C151.227 71.4199 151.131 71.7158 150.685 72.6846C151.362 73.3284 152.329 74.0761 153.084 74.773C154.329 72.443 153.695 71.6062 154.776 69.6014Z" fill="#680000"/>
<path d="M65.9492 3.24953C66.0257 3.24479 66.1023 3.24089 66.1789 3.23782C67.0583 3.20096 69.7738 3.23856 70.4395 3.85312L70.3976 3.98154L70.0705 4.08842C69.6914 3.93122 69.2422 3.88321 68.905 4.1487L68.9779 4.28455C69.2788 4.41738 69.6319 4.27209 70.0377 4.24988C70.0877 4.30179 70.2399 4.52415 70.3094 4.5322C70.9604 4.60753 73.462 3.93153 73.8507 4.41391C73.1467 4.84928 70.1523 5.4952 70.112 6.51617L70.5732 6.93124L70.5481 7.03854C70.2029 7.05353 69.6788 6.99355 69.5044 7.32123C69.7496 7.47315 69.7875 7.49428 69.9511 7.72985C70.0325 8.02245 69.8408 8.35889 69.7179 8.65248C69.5151 8.80005 69.1608 9.08265 68.923 9.11747C68.3419 9.20256 67.3121 8.78709 67.0882 9.54801C67.2985 9.9222 67.8829 9.95444 68.1981 10.4254C68.2237 10.6468 68.2566 10.6927 68.1104 10.8994C67.9429 11.1362 67.5985 11.3671 67.3732 11.5232C66.366 12.4327 64.4284 12.247 63.4198 12.6336C62.3271 13.0526 62.1983 13.9213 60.5841 13.9727C59.4275 14.0094 57.9799 16.273 57.3512 17.2852C57.1517 17.5768 57.0826 17.6638 56.8329 17.9129C56.2037 18.0817 56.047 17.6976 55.5032 17.4475C55.3818 17.3917 54.8996 17.3793 54.7414 17.3747C53.9569 15.5257 54.1782 15.4813 53.7882 13.6332C53.87 13.4911 54.0478 12.9134 54.11 12.7242C54.212 12.6369 54.6398 12.2956 54.7006 12.317C55.5461 12.6152 56.2571 11.2008 55.5775 10.4585C55.1146 10.3015 55.2011 10.4035 54.6396 10.4644L54.5323 10.3555C54.5547 9.1972 55.6022 9.87194 54.4911 7.76025C53.2829 7.49866 52.3967 7.63723 51.1921 7.63426C50.9493 7.63366 50.4256 7.14984 50.4912 6.79582C50.6389 6.73352 50.7228 6.69646 50.8621 6.61769C50.5956 6.51127 50.4944 6.50185 50.3532 6.25692C50.6229 5.86414 53.242 6.03251 53.5466 5.43305L53.2919 5.21602C53.443 4.92695 54.1121 4.80338 54.4262 4.71118C55.2922 4.45695 56.2258 4.11571 57.1247 4.02641C58.0256 3.9369 61.1339 4.24672 61.6754 3.91566C62.8616 3.19056 64.578 3.41906 65.9492 3.24953ZM68.447 4.20793L68.4229 4.05226C68.0701 3.96806 66.8559 4.02169 66.4539 4.04799L66.5421 4.26425C66.9392 4.32264 67.9216 4.19637 68.447 4.20793Z" fill="#680000"/>
<path d="M66.4539 4.04802C66.8559 4.02172 68.0701 3.96809 68.4229 4.05229L68.447 4.20796C67.9216 4.1964 66.9392 4.32267 66.5421 4.26428L66.4539 4.04802Z" fill="#680000"/>
<path d="M149.337 62.149C151.088 62.0362 150.322 63.4651 151.004 64.1541C151.471 64.174 151.97 63.3554 152.577 62.8554C153.743 63.5912 155.139 63.9832 156.222 64.7723C156.266 64.804 158.129 66.6048 158.092 66.54L158.032 66.6862L157.579 66.873L157.531 67.0212C158.411 68.3697 158.811 68.7481 159.836 69.8896C159.194 69.6512 158.821 69.4153 158.108 69.1999C157.141 68.97 156.941 67.362 156.288 67.5204C154.919 67.8523 155.188 69.7454 153.467 67.7695C152.995 67.9075 152.772 68.0437 152.372 67.8281L152.354 67.654C152.475 67.347 152.721 67.2116 152.991 67.016L152.413 65.7662C151.982 65.5048 150.632 64.787 150.184 64.6837C150.031 64.8039 150.003 64.8271 149.829 64.9102C149.669 64.8034 149.575 64.6372 149.552 64.4467C149.454 63.6604 149.876 63.99 150.121 63.6487C149.199 63.341 149.254 63.3326 148.532 62.6458L149.337 62.149Z" fill="#680000"/>
<path d="M51.6625 3.3468C52.4046 3.35267 55.4308 3.46792 55.9624 3.81852C55.8132 4.15702 50.512 5.43471 49.7003 5.7997C48.5487 6.31744 47.5955 6.69643 46.512 7.43431C45.6677 7.21643 42.846 7.51321 42.7384 6.95966L42.8868 6.94627C43.3174 6.86379 44.1356 6.70964 44.1448 6.13532C43.8253 6.00386 43.1389 6.11789 42.6567 6.06291C42.6157 6.02523 42.5747 5.98755 42.5338 5.94987C42.538 5.92538 42.5876 5.64111 42.5876 5.64111C42.5131 5.46632 42.471 5.32249 42.4329 5.14144C42.9098 4.39432 44.8469 4.01143 45.3456 4.83683C45.4003 4.92726 47.4993 4.95516 47.5382 4.93513C47.2016 4.62865 45.3921 4.86315 45.1822 4.18202L45.2853 4.07702C46.2614 3.80511 50.62 3.35375 51.6625 3.3468Z" fill="#680000"/>
<path d="M140.62 56.6443C140.981 56.7354 141.123 57.2185 141.265 57.5366C141.547 57.6712 141.824 57.8396 142.096 57.9964C139.869 60.2829 142.064 60.3315 141.703 61.2942C141.532 61.3198 141.455 61.334 141.29 61.3818C140.84 62.468 140.397 63.4307 140.171 64.5895C140.139 64.6086 140.107 64.6271 140.074 64.6453C139.708 64.8437 139.713 64.8878 139.396 64.7946C139.173 64.5472 139.081 64.4762 138.789 64.3165C138.098 64.3105 137.64 64.2497 136.954 64.1599C136.792 63.3172 135.868 61.4363 136.323 60.5982C136.513 60.2498 136.82 60.684 137.242 60.6197C138.287 59.5022 139.884 57.9133 140.62 56.6443Z" fill="#680000"/>
<path d="M102.992 70.1951C103.694 70.4146 103.779 71.9406 103.618 72.4628C102.982 74.5326 102.376 77.7527 101.408 79.606C100.927 79.8514 100.637 79.9943 100.098 79.9639C98.6643 78.9475 99.4884 76.9844 100.041 75.739C99.8491 74.6828 99.7116 74.4069 100.068 73.3827C101.513 72.2884 102.165 72.3091 102.992 70.1951Z" fill="#680000"/>
<path d="M128.319 57.6666C128.621 57.7074 129.367 57.9364 129.694 58.0273C130.178 58.5988 130.663 59.0909 131.176 59.6732C131.79 60.3685 133.26 61.2449 133.314 62.2175C133.342 62.7028 133.813 63.1537 134.112 63.4834C134.302 63.2597 134.265 63.2353 134.523 63.1438C135.163 63.6139 134.466 64.7591 134.449 65.5713L134.448 65.6151C134.262 66.3458 133.716 66.3707 133.21 65.9189C131.709 64.5797 131.268 62.5228 130.373 60.7937C129.944 59.9627 128.221 58.5678 128.319 57.6666Z" fill="#680000"/>
<path d="M75.458 18.781L75.6046 18.7823C75.6222 19.0515 75.3665 19.1439 75.157 19.5088C75.2776 19.6571 75.6039 19.6049 75.934 19.6851C76.1383 20.1066 75.5538 20.4114 75.6721 20.9092C76.295 21.6212 76.5865 22.2259 77.0495 23.0466C77.2147 23.1467 77.3531 23.2306 77.4647 23.2982C77.5638 23.5697 77.3448 24.3619 77.2248 24.6305C76.6384 25.0622 75.6736 24.9095 74.89 25.1234L74.8042 25.1476C74.5216 25.2291 74.2472 25.3418 73.9673 25.2632L73.9789 25.1312C74.3457 24.7773 74.4559 24.7128 74.9037 24.4589C74.6311 24.3906 74.1987 24.3432 74.0819 24.1537C74.1909 23.8203 75.3038 22.3759 75.1505 22.2381C74.2731 21.4496 74.1289 21.2756 73.8885 20.1749C74.1681 19.7793 74.219 19.5731 74.3755 19.1086C74.6806 18.994 75.1342 18.8756 75.458 18.781Z" fill="#680000"/>
<path d="M149.089 33.8429C148.97 33.241 148.628 32.203 148.832 31.7092L148.963 31.6807C149.523 32.0893 150.008 32.7131 150.05 33.4043C150.101 34.2423 150.424 35.465 150.498 36.2595C149.621 36.3937 149.397 36.4687 148.545 36.7905C148.459 37.0968 148.448 37.1724 148.229 37.4214L148.093 37.3989C147.887 37.0544 147.764 36.6911 147.466 36.5666L147.06 36.6285C146.991 36.3104 146.846 36.2214 146.886 35.8868C147.224 35.8585 147.536 35.8808 147.763 35.6441C147.913 35.0708 147.735 34.6431 148.557 34.7047C148.843 34.5549 148.963 34.1504 149.089 33.8429Z" fill="#680000"/>
<path d="M67.4154 13.8907C67.8729 14.1399 67.6073 14.0624 67.9748 14.5034C68.5563 14.4834 69.9026 14.1471 70.4385 13.9041C70.8424 14.2987 71.1569 14.5131 71.053 15.0991C70.8785 15.3866 70.5846 15.5249 70.2932 15.7022C69.7929 15.8952 69.2862 16.0624 68.7807 16.2588C68.3566 16.119 67.7971 16.0574 67.5027 15.8649C67.4106 15.4535 67.191 15.4291 67.1487 15.1507C67.3244 15.0059 67.3454 14.9965 67.4613 14.8049C67.2286 14.4895 67.0625 14.7547 66.7918 14.4969C66.8992 14.2431 67.1847 14.0699 67.4154 13.8907Z" fill="#680000"/>
<path d="M104.479 6.71985C104.615 6.7365 104.703 6.78686 104.826 6.8432C104.821 7.33502 98.2232 8.40048 101.979 10.7009C101.621 10.6778 101.23 10.5937 100.874 10.5271C100.217 10.3376 99.6527 10.1622 99.0071 9.93415C99.133 9.78067 99.5786 9.0671 99.7036 8.85122C100.793 6.97091 102.449 7.12276 104.479 6.71985Z" fill="#680000"/>
<path d="M142.338 61.623L142.467 61.8009L142.57 61.7023C142.504 63.8857 143.563 62.0747 144.389 62.2142L144.437 62.3609C144.282 62.6312 143.624 63.1123 143.347 63.3349C143.675 63.8305 144.405 65.5068 144.004 66.0317L143.782 66.0372L143.716 65.8975C143.821 65.7486 143.872 65.7069 143.878 65.5238C143.469 65.2147 143.746 65.6016 143.283 65.3693C142.995 64.8936 143.004 64.5274 142.938 63.9705L142.793 63.8923C142.467 64.2375 142.725 65.5004 142.55 65.9644C142.279 66.1387 142.399 66.1074 142.095 66.1022C141.817 65.7406 142.145 65.4969 142.069 65.0304C142.026 64.7714 141.841 64.4114 141.724 64.1664C141.929 63.5012 142.077 62.1411 142.338 61.623Z" fill="#680000"/>
<path d="M40.6203 5.58398C41.1304 5.72442 41.3191 5.67937 41.5183 6.17306C41.5021 6.589 41.2011 6.6112 41.1701 6.94857C41.5063 7.13806 41.6826 6.93757 42.018 6.97115C42.304 6.99978 42.297 7.53845 42.5459 7.60376C43.3081 7.80371 45.3661 7.41946 45.9227 7.84191L45.9078 8.0093C45.683 8.23919 45.3643 8.29331 45.0489 8.38451C43.8394 8.43456 41.6065 8.39548 40.4783 8.16244C40.7276 7.92393 41.0649 7.71221 41.1384 7.40548C40.9085 6.97654 40.2215 7.60136 40.0032 6.96313L40.0866 6.85048C40.3658 6.80898 40.6457 6.77223 40.9262 6.74023L40.9719 6.62981C40.6031 6.2088 40.3804 6.12932 40.6203 5.58398Z" fill="#680000"/>
<path d="M32.685 6.22546L32.7757 6.2639C32.6788 6.49988 32.6337 6.57124 32.6246 6.82742C32.8944 7.05452 33.6426 7.60937 33.9829 7.57795C34.5021 7.3668 34.3358 6.85536 34.912 6.7695L35.035 6.87558C35.0363 7.10621 35.0093 7.21386 35.1368 7.39014C35.3354 7.31837 35.433 7.28838 35.6396 7.24555L35.7194 7.37989L35.6538 7.57634C35.0678 8.036 33.0888 8.06078 32.1851 8.19012C31.8889 8.11034 31.3392 7.85678 31.0571 7.71246L31.0366 7.5447C31.2277 7.36412 31.9209 7.19214 32.2798 6.88929C31.7131 6.75836 30.1792 7.42949 29.6266 7.04759L29.7005 6.91765C30.4966 6.6202 31.8455 6.22562 32.685 6.22546Z" fill="#680000"/>
<path d="M83.9804 5.33518C84.3474 5.21626 84.6251 5.08808 85.0011 5.16408L85.0477 5.19858C85.1698 5.28761 85.2171 5.34232 85.3668 5.3503L85.3758 5.34438L85.5303 5.45466C85.9675 5.84754 87.1852 6.08464 87.3656 6.39172C87.0896 6.97561 86.222 6.36429 85.9056 6.07285C85.0324 5.94749 84.9039 7.00225 84.2396 7.06667C83.9897 7.03123 83.6317 6.70774 83.5604 6.48226C83.2143 6.13779 82.7069 5.99841 82.4185 5.48186L82.4939 5.37124C83.1379 5.21354 83.3047 5.32966 83.9804 5.33518Z" fill="#680000"/>
<path d="M83.5604 6.48225C83.2143 6.13778 82.7069 5.9984 82.4185 5.48185L82.4939 5.37123C83.1379 5.21353 83.3047 5.32964 83.9804 5.33517L84.138 5.62901C84.0077 5.92523 83.8592 6.3497 83.5604 6.48225Z" fill="#680000"/>
<path d="M73.2269 21.4241L73.6265 21.4762C74.2446 21.94 73.8888 23.2499 73.4237 23.709C73.2932 23.8377 72.2797 24.2334 72.0287 24.3403C71.7448 24.3297 71.6865 24.3099 71.5258 24.1382C71.5095 23.6972 71.8942 23.5437 71.9677 23.1772C72.0132 22.9502 71.7611 22.8772 71.7752 22.4604C71.9775 22.1417 72.8761 21.5984 73.2269 21.4241Z" fill="#680000"/>
<path d="M139.047 68.0809C138.096 67.9374 134.333 67.5515 134.17 66.5842C134.275 66.3603 134.278 66.3481 134.456 66.1832C135.24 65.9918 135.667 66.6297 136.333 66.7341C136.919 66.8259 138.154 66.661 138.677 66.8666L138.683 67.0307L138.299 67.2927C138.447 67.4669 138.682 67.4951 138.933 67.5789L139.047 68.0809Z" fill="#680000"/>
<path d="M147.8 28.6293C148.05 28.6192 150.586 29.9755 150.788 30.1936C150.366 30.472 149.971 30.9361 149.734 31.0863L149.534 31.0367C149.225 30.9136 148.846 30.7221 148.53 30.887L148.825 31.2538C148.813 31.4988 148.854 31.3916 148.684 31.581C147.817 31.535 148.145 30.234 148.256 29.7206C148.348 29.2992 148.047 28.949 147.8 28.6293Z" fill="#680000"/>
<path d="M143.097 51.8708C143.021 51.8475 142.842 51.8222 142.755 51.807L142.677 51.9082C142.887 52.2274 142.986 52.3638 143.121 52.7193L143.046 52.8309L142.779 52.8025C142.171 51.758 141.539 49.5566 142.15 48.4197C142.279 48.3502 142.529 48.2778 142.661 48.3426C143.829 48.9142 142.539 50.559 143.062 51.2706L143.097 51.8708Z" fill="#680000"/>
<path d="M145.545 54.6937C145.698 54.735 145.687 54.7504 145.813 54.8599C146.131 55.6208 146.346 57.0358 145.521 57.5446C145.044 57.5739 144.775 57.3208 144.691 56.8637C144.614 56.4765 144.684 56.5016 144.441 56.2811C144.111 56.2434 143.497 56.62 143.143 56.7847C143.233 56.635 143.6 56.02 143.696 55.9635C144.836 55.2967 144.843 55.8847 145.545 54.6937Z" fill="#680000"/>
<path d="M138.933 67.579C140.771 68.247 142.885 67.8546 144.822 67.9035C145.038 67.909 144.974 68.242 145.205 68.1828C145.574 68.1562 146.038 67.7222 146.279 68.026C146.031 68.2672 144.354 69.4259 144.071 69.5209L143.977 69.4224C144.046 68.8127 144.413 68.746 144.799 68.3926C144.756 68.2876 144.746 68.1926 144.653 68.1895C143.238 68.1417 143.332 68.7798 141.935 68.1454C140.61 68.6153 140.383 68.4318 139.047 68.081L138.933 67.579Z" fill="#00123B"/>
<path d="M30.6242 44.8176C31.3601 44.9923 33.4035 46.1708 33.8018 46.7918L33.8014 46.9726C33.5002 47.2072 32.7944 47.1552 32.4121 47.1232C32.1365 46.9408 32.0194 46.3972 31.6948 46.1116C31.3764 45.8315 30.2401 45.5516 30.0483 45.3676C30.3645 45.1682 30.4013 45.1089 30.6242 44.8176Z" fill="#680000"/>
<path d="M146.975 26.5295C146.937 26.474 146.678 25.9084 146.66 25.855C146.381 24.9933 144.884 23.1919 144.923 22.3695L145.081 22.4105C145.356 22.6677 147.776 25.7862 147.788 25.8808C147.484 25.9105 147.515 25.862 147.3 26.0151L147.347 26.4273C147.194 26.4495 147.11 26.4492 146.975 26.5295Z" fill="#680000"/>
<path d="M34.5529 47.1406C35.241 47.1634 37.2001 47.3729 37.308 48.2437C37.0129 48.4682 36.6977 48.2938 36.093 48.4121L36.0039 48.43C35.6528 48.6305 34.2649 48.5528 33.9153 48.4854L33.908 48.3851C34.3637 48.0807 34.4741 48.2215 34.8844 48.0114C34.8955 47.6929 34.71 47.4345 34.5529 47.1406Z" fill="#680000"/>
<path d="M112.583 4.09045C112.887 4.17744 114.754 4.98723 115.075 5.2197C115.211 5.31791 115.19 5.43268 115.188 5.57227C114.974 5.69918 114.94 5.64035 114.646 5.59728C114.054 5.54758 111.814 5.37614 111.892 4.64116C112.044 4.36657 112.309 4.25093 112.583 4.09045Z" fill="#680000"/>
<path d="M150.083 90.4598C150.111 90.4661 150.184 90.4786 150.209 90.4938C150.737 90.8125 151.372 90.4947 151.779 90.7732C151.772 91.2259 151.335 91.5732 151.004 91.9125C150.717 92.1197 150.419 92.3741 150.077 92.4348C149.427 92.2339 149.957 90.9509 150.083 90.4598Z" fill="#680000"/>
<path d="M37.0065 8.71311C37.2838 8.68725 37.5532 8.6389 37.8195 8.70328C37.8032 9.17446 37.3407 9.90696 36.9169 10.1499C36.7675 10.2355 36.1646 10.3032 35.9694 10.3296C35.723 10.0439 35.4944 9.77089 35.2196 9.5108L35.1704 9.46509L35.2157 9.34723C35.5093 9.25009 35.6398 9.38107 36.0071 9.50053C36.2549 9.31027 36.1988 9.30509 36.3274 8.97107C36.5138 8.76907 36.7368 8.76161 37.0065 8.71311Z" fill="#680000"/>
<path d="M120.424 54.7717C120.961 54.9535 121.39 55.9995 121.458 56.5389C121.517 57.0133 121.446 57.1529 121.183 57.5149C119.879 58.1241 120.337 55.384 120.424 54.7717Z" fill="#680000"/>
<path d="M130.604 6.78833C131.304 6.80121 133.552 6.72923 133.958 7.26655L133.904 7.46612C133.105 7.5422 130.492 8.11439 130.604 6.78833Z" fill="#680000"/>
<path d="M143.062 51.2705C143.628 51.4383 143.864 51.5047 144.398 51.7912L144.41 51.8352C144.706 52.9777 145.981 52.9227 145.339 54.2079C145.262 54.3635 144.913 54.7917 144.743 54.8498L144.698 54.6812C144.847 54.4259 145.027 54.2074 144.988 53.935L144.841 53.7241L144.805 53.637C144.943 53.5239 144.947 53.4594 145.004 53.2917C144.79 52.9115 144.449 53.0015 144.346 52.8818C144.124 52.6243 144.175 52.3185 143.784 52.0767C143.492 52.0486 143.348 52.0476 143.097 51.8707L143.062 51.2705Z" fill="#00123B"/>
<path d="M160.802 64.7536C160.935 64.7238 160.884 64.7321 161.029 64.7701C161.029 64.8218 161.029 64.8735 161.029 64.9253C160.599 65.3101 160.433 65.4668 160.193 65.9888C160.132 66.0243 160.071 66.0585 160.009 66.0914C159.39 66.4185 159.139 66.3844 158.485 66.1791C158.324 66.0281 158.253 66.1812 158.029 65.93C158.272 65.7191 159.343 65.7666 159.571 65.6222C160.336 65.1393 159.822 64.981 160.802 64.7536Z" fill="#680000"/>
<path d="M38.3476 6.87053C38.7476 6.86324 38.9963 6.78148 39.2451 7.1079L39.1929 7.32817C38.8285 7.76947 38.4277 7.98586 37.8873 8.13937L37.6067 8.02506C37.447 7.75743 37.3008 7.48931 37.4598 7.1982C37.9371 7.06954 37.6614 7.15239 38.15 7.19753L38.3476 6.87053Z" fill="#680000"/>
<path d="M142.338 61.623C143.034 60.3747 143.373 61.0508 144.431 61.1968C144.779 61.2449 144.979 60.7421 145.332 60.7146C145.439 61.0011 145.426 60.8777 145.378 61.1849C144.777 61.9586 143.242 61.1112 142.57 61.7023L142.467 61.8008L142.338 61.623Z" fill="#680000"/>
<path d="M146.253 37.7842C146.281 38.1906 146.379 38.951 146.189 39.2759L145.989 39.2698C145.628 39.0102 145.597 38.414 145.391 38.0364C145.31 37.887 145.237 37.9616 145.107 37.7224C145.242 37.5183 145.307 37.4091 145.414 37.189L145.712 37.3702L146.154 37.6148L146.253 37.7842Z" fill="#00123B"/>
<path d="M144.204 55.6877C143.453 54.4883 143.943 55.0312 143.846 54.101C143.696 54.0734 143.624 54.1312 143.481 54.2002L143.421 54.2296L143.309 54.1191C143.41 53.7089 143.357 53.6321 143.255 53.2242L143.354 53.1571C143.596 53.2616 143.935 53.6011 144.145 53.7909C144.406 53.7106 144.535 53.6804 144.805 53.637L144.841 53.7241C144.248 54.2441 144.246 54.9622 144.204 55.6877Z" fill="#000313"/>
<path d="M85.3758 5.34441L85.3408 5.09047C85.6555 4.70695 88.2561 5.0245 88.8081 5.16947C87.9624 5.38497 87.2342 5.55292 86.3517 5.43008C85.9796 5.37829 85.8968 5.35624 85.5303 5.4547L85.3758 5.34441Z" fill="#680000"/>
<path d="M145.414 37.1889C145.454 37.0684 145.508 36.9526 145.575 36.844C145.921 36.2818 146.266 36.0459 146.886 35.8868C146.846 36.2214 146.991 36.3104 147.06 36.6285C146.607 36.87 146.158 37.1172 145.713 37.3701L145.414 37.1889Z" fill="#00123B"/>
<path d="M38.389 5.349C38.8938 5.33319 39.6649 5.36613 39.9324 5.83695C39.9047 6.11707 39.7937 6.193 39.5996 6.38969C38.9214 6.03015 38.5124 6.11586 38.0316 5.86979C38.037 5.59924 38.1392 5.59505 38.389 5.349Z" fill="#680000"/>
<path d="M136.203 47.2677L136.313 47.1562C136.726 47.7584 136.699 48.5994 135.822 48.6852C135.492 48.5668 135.596 48.6533 135.419 48.3694C135.388 47.614 135.869 47.7944 136.203 47.2677Z" fill="#680000"/>
<path d="M117.212 5.96677C116.598 5.71047 116.057 6.24218 115.559 5.87803C115.5 5.17753 116.646 5.15585 117.174 5.55718C117.254 5.72165 117.293 5.7712 117.295 5.95733L117.212 5.96677Z" fill="#680000"/>
<path d="M141.92 43.5933C142.071 43.6267 142.062 43.6392 142.168 43.7575C142.215 44.3737 142.129 45.1252 142.041 45.7391C141.846 45.5444 141.56 45.1834 141.372 44.9617C141.579 44.4927 141.741 44.0709 141.92 43.5933Z" fill="#00123B"/>
<path d="M54.9332 10.7849C55.3027 10.8212 55.4957 10.7842 55.5512 11.1758C55.3725 11.5002 55.2536 11.6004 54.9927 11.8596C54.6169 11.7858 54.3557 11.8004 54.2658 11.4006C54.4007 11.1044 54.6609 10.9699 54.9332 10.7849Z" fill="#680000"/>
<path d="M30.0483 45.3677C29.235 44.426 29.2771 45.8662 28.4676 45.5763L28.4446 45.4362C28.8786 44.6501 29.8617 44.6349 30.6242 44.8177C30.4013 45.1089 30.3645 45.1682 30.0483 45.3677Z" fill="#00123B"/>
<path d="M146.975 26.5296C147.11 26.4492 147.194 26.4496 147.347 26.4274C147.599 27.0143 147.99 27.3392 148.46 27.7702C148.217 27.9043 147.947 28.0451 147.71 28.1844C147.506 27.498 147.312 27.1631 146.975 26.5296Z" fill="#680000"/>
<path d="M146.154 37.6148C146.464 37.3303 146.884 36.9212 147.31 36.8951L147.494 36.9757C147.609 37.6389 146.754 37.8067 146.253 37.7842L146.154 37.6148Z" fill="#000313"/>
<path d="M142.065 53.6189C142.286 54.2577 141.289 55.4076 140.801 55.7532C140.715 55.1803 141.712 54.125 142.065 53.6189Z" fill="#680000"/>
<path d="M44.0306 12.4946C44.2464 12.4901 44.5854 12.4603 44.726 12.6151C44.4804 12.8349 44.3023 12.934 44.0222 13.1036C43.7899 13.1963 43.7555 13.1942 43.5047 13.1798L43.4291 13.0477C43.5444 12.7451 43.7544 12.6588 44.0306 12.4946Z" fill="#680000"/>
<path d="M106.879 42.4977C107.091 42.8438 107.134 42.9372 107.269 43.3207C107.22 43.3414 107.079 43.3637 107.019 43.3752L106.76 43.1391C106.794 42.9774 106.724 42.8836 106.651 42.73L106.879 42.4977Z" fill="#172D5D" fill-opacity="0.0117647"/>
<path d="M93.9911 41.5749C93.7795 41.2951 93.6411 41.0445 93.5411 40.7103L93.5964 40.6169C93.8527 40.8084 93.9803 41.2509 94.1036 41.5644L93.9911 41.5749Z" fill="#172D5D" fill-opacity="0.635294"/>
<path d="M25.7357 9.42226C26.559 9.09404 27.3405 8.45538 28.0163 8.2477C29.6575 7.74341 30.4241 8.6867 31.6809 9.33288C31.8717 9.43101 31.9203 9.14565 32.3871 9.13503C32.6007 9.36386 32.5546 9.45628 32.6182 9.8111C33.053 9.74735 32.5328 8.75062 34.1105 8.99762C34.292 8.83706 34.3326 8.80302 34.5478 8.69336L34.6546 8.79964C34.6551 9.06574 34.6927 8.9794 34.5482 9.16583L34.2115 9.18913C34.0901 9.29842 33.6714 10.2746 33.4392 10.627C33.8039 10.8723 34.2518 11.1315 34.6318 11.3648L34.524 11.3832C34.0194 11.4723 33.8435 11.412 33.397 11.7539C32.9239 12.1159 32.2775 11.837 31.6521 11.789L31.5714 11.8906C31.9424 12.5798 32.6926 12.617 33.3225 12.8367C34.5514 13.2655 34.931 10.7916 35.993 11.4677C36.0868 11.7673 36.0857 11.6396 35.9835 11.9514C35.3505 12.4875 35.3096 12.6692 34.9455 13.4089C35.4946 12.8548 36.6643 12.2904 36.7743 11.738C36.133 10.2527 37.3039 10.5748 37.8758 9.88672L38.1829 9.99431C38.4702 10.6836 38.2087 11.1223 38.3331 11.9588L38.421 12.0732C38.5941 11.8108 38.7423 11.6265 39.1105 11.7382C39.3425 12.2431 38.8807 12.7298 39.0321 13.0169C39.5273 12.8581 40.8696 11.8491 40.8705 11.242C40.4396 10.9457 40.2158 11.2501 39.8164 10.9319C39.8998 10.7069 39.8992 10.7618 40.1206 10.587C39.9163 10.167 39.8734 10.3885 39.9558 10.0182C40.2624 9.66913 41.1799 8.88271 41.5999 9.01101C42.3261 9.23297 43.8464 8.69031 44.2987 8.99413C44.4477 9.38904 44.1049 9.41449 44.2846 9.68056C44.5934 9.73904 44.7607 9.7811 45.038 9.63538C44.9003 9.45645 44.8151 9.37878 44.6508 9.2219L44.6751 9.08476C45.0486 8.88619 45.5075 8.90441 45.9345 8.89938C46.1058 9.29324 46.2272 9.65154 46.5513 9.92913L46.598 9.96976C47.1755 10.4619 48.1463 10.8129 48.8005 11.277C48.5845 11.6857 48.5298 11.8141 48.2005 12.1299L48.1728 12.3748C48.682 12.8957 49.7203 12.8101 50.0522 13.5315C49.9642 13.9618 48.7961 14.5294 48.3837 14.8006C48.2354 14.4944 48.07 14.0501 47.7946 13.8832C47.438 13.8293 47.5846 13.8162 47.2366 13.9467C46.7906 14.8606 48.2907 14.5198 47.362 16.5215C46.7369 16.0795 46.3221 15.7632 45.6125 15.4579C45.9613 15.8524 46.3575 16.1884 46.5406 16.6509L46.5275 16.7492C46.2224 16.8909 44.8904 16.3235 44.5135 16.1674C43.2701 13.9359 42.5954 15.6144 41.9211 15.0864L41.8408 14.8135C42.2451 14.1532 43.1741 14.5107 43.688 14.4041C44.022 14.3348 45.3036 13.1223 45.4844 12.8267C45.3419 12.398 44.7267 12.2273 44.4408 11.9366C44.2951 11.7886 44.3946 11.4301 44.1512 11.1971C43.9124 11.2598 43.4853 11.444 43.3337 11.4599C42.9128 11.5042 41.6027 11.0803 41.2633 11.3169C41.6332 11.7236 42.2038 11.3417 42.1874 12.0191C41.7171 12.5889 41.5389 12.2926 41.5326 13.023C40.7345 14.2323 39.2954 13.4388 38.9598 13.7824C39.0782 14.4393 40.4796 14.996 40.53 15.6248C40.2104 15.7559 39.7203 15.4392 39.2566 15.4804C38.583 15.5401 38.5109 15.9197 37.9212 15.8963L37.7127 15.737C37.6778 15.304 38.4612 14.6471 38.7671 14.0289C38.6105 14.1655 37.9026 14.7845 37.7613 14.8452C36.4974 15.3875 32.5032 17.2482 32.2867 18.6954C32.4018 18.8636 32.5012 19.0229 32.6078 19.1965C32.5498 19.464 32.4697 19.7744 32.5588 20.031C32.6668 20.0323 33.2422 20.0098 33.261 20.0136C33.9818 20.1621 34.539 20.9848 35.1526 21.2887C35.2705 21.3472 36.2014 21.4358 36.453 21.4736C36.4865 21.8344 36.0876 22.7004 36.0012 23.2015C36.1686 23.6991 36.2885 23.9959 36.5113 24.4715C36.8087 24.1439 37.1104 23.8205 37.4164 23.5012C37.5262 22.9258 37.6544 22.3107 37.7444 21.7365C38.4805 21.4548 40.2296 20.8344 39.8546 19.778C39.718 19.3932 39.5673 19.4254 39.5889 18.9821C39.8454 18.5703 40.0918 18.4557 40.2987 18.1482C40.5934 17.71 40.5992 16.6074 41.2272 16.4876C41.6118 16.4142 43.027 16.3719 43.3283 16.5915C43.8012 16.9357 43.7722 17.194 44.4539 17.5755L44.0744 18.7063C44.2581 18.9511 44.4654 19.2412 44.6639 19.4684C45.6733 18.8888 45.9022 18.5753 46.7096 17.7176C46.9855 19.2307 47.3397 19.521 46.9624 20.994C47.8991 21.5766 49.4732 22.468 48.7274 23.8076C48.6659 23.9182 48.3966 24.0307 48.2791 24.083L48.2374 24.1917L48.51 24.3251C48.4275 24.9032 47.7996 24.8396 48.132 25.5945C48.5863 25.8958 48.7699 25.5093 49.1585 25.8062C49.2083 26.2352 49.3125 27.7651 48.7221 27.7945C48.6203 27.6298 48.5201 27.464 48.4214 27.2974C47.1524 27.2147 46.9889 27.0279 45.6729 27.1656C46.1346 26.5611 47.6417 24.894 47.749 24.3357L47.6501 24.2811C46.5488 24.715 45.9321 25.483 44.5396 25.1695C43.2988 24.8902 42.2621 25.625 41.2727 26.2828C40.887 26.538 40.4019 26.8417 40.2115 27.2836C40.614 27.115 40.9828 26.6954 41.4258 26.435C41.9022 26.1844 42.9676 25.6073 43.4814 25.9079C43.6255 26.6027 42.6839 27.0226 42.9834 27.8848C43.5098 28.1367 43.5431 27.7108 43.8601 27.9765C43.8607 28.2544 43.8003 28.3222 43.67 28.5656L44.192 28.88C43.5816 29.1153 41.8993 30.0147 41.5453 29.9096L41.4708 29.7313C41.6088 29.4029 42.179 28.9935 42.4898 28.7098C42.2092 28.608 40.8379 29.2647 40.5156 29.4156C39.7176 29.7893 39.2513 30.0455 38.8688 30.8405C38.9196 31.0173 39.0133 31.0793 39.147 31.2069C38.798 31.6644 37.8492 31.7048 37.2749 32.0258C36.608 32.3987 35.8401 33.9625 35.463 34.1403C35.2925 33.9607 35.3197 33.8451 35.2637 33.5657C35.0438 33.9706 35.2709 34.9499 35.233 35.5793C33.6894 37.3153 31.0923 37.6151 31.3269 40.0805C31.4555 41.4323 31.6288 42.44 30.9164 43.6381C30.234 42.29 30.2267 41.5223 29.9178 40.0907C29.8139 39.6096 29.1094 40.0977 28.8318 39.7556C28.8048 39.7238 28.5704 39.5415 28.5155 39.4936C28.072 39.4436 26.7285 39.3587 26.3716 39.5435C26.4603 39.9391 26.6772 40.035 26.6129 40.2765C25.4811 40.5321 24.7258 39.2968 23.3188 40.3583C23.0529 40.559 22.4574 41.017 22.3066 41.3476C21.7665 42.5318 21.0281 44.8496 21.3567 46.1124C21.4987 46.6583 21.7332 47.2332 21.9403 47.7098L22.72 48.2336C23.4615 47.9905 23.5606 47.9575 24.3495 47.9032C24.9889 46.9765 25.0173 45.9949 25.992 45.8429C26.3237 45.7912 26.7271 45.7576 27.0421 45.8863C27.2026 46.2252 25.9262 49.5697 25.6403 49.9515C26.5224 49.9051 28.783 49.5144 28.6548 50.94C28.5479 52.1303 27.9671 53.1122 28.5431 54.2764C29.7738 56.1073 29.8372 54.2501 31.1739 54.8424L31.0411 55.2305L30.7818 55.1206C30.458 55.1539 30.5787 55.1023 30.3289 55.3203C30.1657 55.6367 30.2219 55.9766 30.2393 56.3387C29.8039 56.7529 28.1196 55.2267 27.8044 54.8252C27.5225 54.6504 27.2424 54.4726 26.9642 54.2919C26.9446 53.9343 26.9045 53.5705 26.8693 53.2135C25.5936 51.554 25.3194 52.1287 23.8014 51.1308C22.5464 50.3058 23.4509 49.5342 21.3934 50.1173C20.297 49.8495 17.9554 48.4512 17.0977 47.614C16.044 46.8889 17.1081 45.964 16.8448 45.3344C15.8246 42.8953 14.204 41.4558 14.2135 38.6208C13.8801 38.4303 13.6071 38.1868 13.2427 38.3539C13.0673 38.6384 13.0946 39.0669 13.0847 39.4132C13.616 40.3791 13.9774 41.5144 14.2516 42.5845C13.9089 42.6752 13.8653 42.741 13.6226 42.9937C13.4982 42.0015 12.482 41.8766 12.4829 41.1889C12.7371 41.0783 12.8122 41.0664 12.9858 40.8531C13.0311 40.3542 12.4133 39.704 12.3381 39.1203C12.2421 38.3763 12.1706 37.6323 12.0853 36.8874L11.1604 36.3948C10.8888 35.8304 10.8237 35.0236 10.7354 34.4101C10.2521 31.0491 12.2649 29.0486 13.3783 25.8542C12.2088 24.726 12.7128 24.7473 13.2544 23.7565C13.3526 23.5769 13.4687 22.7783 13.3548 22.5706C13.2003 22.5716 13.1092 22.5912 12.9852 22.5021C13.0475 21.9585 13.6234 21.9653 13.4167 21.2387C13.1807 21.1779 12.9569 21.3649 12.6588 21.5L12.5412 21.4049C12.5544 20.8409 13.0218 20.9487 13.3233 20.5814L13.2121 20.412C12.8188 20.3392 12.8446 20.4057 12.5926 20.1684C12.4534 19.8621 12.5679 19.3621 12.616 19.0073C11.7683 17.4665 10.9838 18.1049 9.61947 16.7337C8.73531 17.5687 7.89614 17.7327 6.76353 18.2226C6.96297 17.9415 7.21267 17.5628 7.46598 17.3332C7.63326 17.1817 8.10684 16.9898 8.20127 16.8287C7.93125 16.8618 6.59528 17.5457 6.38509 17.7609C5.58097 18.5847 5.11803 18.7286 4.05927 19.1545L4.07476 18.4052C3.66199 18.0194 2.75828 18.3477 2.40738 18.0357C2.57935 17.7157 2.79521 17.5886 2.79681 17.3198C2.50458 17.3815 2.15744 17.5019 1.90434 17.3954L1.88972 17.2216C2.10032 16.8461 2.20403 16.5337 2.34943 16.1331C3.8332 14.995 3.9735 15.3163 5.66421 14.6823C5.81013 14.6275 6.54306 14.0202 6.71719 13.8758C6.01486 14.0509 4.91898 14.505 4.32364 14.0355C4.18846 13.7573 4.20816 13.6828 4.23726 13.381C4.94355 12.4905 6.63482 13.1653 7.47726 12.9172L7.52047 12.904C7.3353 12.4791 6.81178 11.5679 7.04236 11.185C7.53142 10.8919 8.07097 10.9908 8.49647 10.8252C9.58447 10.4016 10.4227 9.96788 11.5888 9.75342C12.0991 9.6602 12.6199 9.63878 13.1362 9.68967C13.7219 9.75235 14.4499 9.97806 15.0374 10.1233C16.6957 10.5336 17.9037 10.6052 19.3491 11.5852C20.7795 10.7009 22.9696 11.1304 23.6674 10.6087L23.8761 10.6454C24.2203 11.2701 24.5183 11.0162 25.188 11.1294C25.9471 11.2577 27.3998 11.5897 27.9985 11.9953C27.9953 12.2742 27.8026 12.0857 27.4859 12.3993C27.9765 12.8694 28.7561 12.3795 29.4679 12.6084C29.6474 12.7782 29.6979 12.8273 29.9105 12.9509C30.1284 12.8598 30.3835 12.408 30.5328 12.1848C30.9516 12.069 31.2224 11.9689 31.6279 11.8086C30.0467 12.001 29.0801 12.2241 27.584 11.3212C27.6317 11.0099 27.9755 10.9511 27.9846 10.8745C28.0313 10.4741 28.027 10.0198 28.3108 9.6811C28.5331 9.61619 28.5902 9.61431 28.7671 9.47422L28.692 9.41003C27.6159 9.13708 26.6434 11.3716 25.7357 9.42226ZM41.6948 10.331C41.9181 9.58511 42.4523 9.56735 42.3797 9.22386L42.3267 9.1752C41.8756 9.4269 41.4222 9.63431 41.5792 10.2207L41.6948 10.331Z" fill="#680000"/>
<path d="M28.5431 54.2764C29.7738 56.1073 29.8372 54.2501 31.1739 54.8424L31.0411 55.2305L30.7818 55.1206C30.458 55.1539 30.5787 55.1023 30.3289 55.3203C30.1657 55.6367 30.2219 55.9766 30.2393 56.3387C29.8039 56.7529 28.1196 55.2267 27.8044 54.8252C28.2793 54.8958 28.3528 55.3817 29.3246 55.7609L29.4925 55.6139L29.5123 55.6508C29.0921 55.0512 28.4869 54.9447 28.5431 54.2764Z" fill="#680000"/>
<path d="M12.616 19.0073L12.7957 19.1719L12.909 18.988C13.4136 18.9618 13.4195 19.0627 13.7253 19.4573L13.72 19.5929L13.4055 19.7183C13.3045 20.2349 13.8034 20.0085 13.2121 20.4119C12.8188 20.3392 12.8446 20.4056 12.5926 20.1684C12.4534 19.862 12.5679 19.362 12.616 19.0073Z" fill="#680000"/>
<path d="M42.3267 9.17517L42.3797 9.22383C42.4523 9.56731 41.9181 9.58508 41.6948 10.331L41.5792 10.2207C41.4222 9.63428 41.8756 9.42687 42.3267 9.17517Z" fill="#172D5D" fill-opacity="0.0117647"/>
<path d="M31.9939 55.4913C32.2581 55.0521 32.988 53.5407 33.2396 53.5446C33.8843 53.5543 34.8772 52.5841 35.178 52.5107L35.3205 52.589C35.281 53.081 34.931 53.3108 34.9899 53.669C35.2261 53.7442 35.1252 53.7424 35.3976 53.6126C35.6124 53.3097 35.6562 53.2172 35.805 52.878C36.2991 52.9368 36.9732 53.8115 37.1945 53.8736C37.8595 54.0603 37.9511 53.9137 38.7555 54.2982C39.1429 54.0481 39.7089 53.6872 40.1826 53.6905L40.2429 53.7613C40.1514 54.0748 40.1063 54.0297 40.2241 54.2749C41.6155 55.1115 42.2023 56.312 43.2165 57.2253C46.0127 57.3752 46.578 58.1948 47.2744 60.8973C47.3421 61.1599 46.6587 61.7107 46.5975 62.0657L46.6797 62.1292C46.8749 61.8792 47.0242 61.5791 47.271 61.5486C47.6521 61.7875 48.0044 62.0006 48.4127 62.1957C49.2042 62.574 50.2091 62.5982 50.5925 63.4426C51.2096 63.7707 52.6639 63.8416 53.1463 64.117C54.2281 64.7348 54.22 65.1129 55.4694 65.6404C55.7905 66.722 56.0361 67.3928 55.4222 68.4784C54.9199 69.3666 54.2872 70.2602 53.7438 71.138C53.7771 81.0705 50.3071 76.21 48.8058 80.0113C49.0748 81.7752 48.9298 81.6176 47.9957 83.3468L47.7312 83.3411C47.1772 85.0132 47.0047 86.8157 44.87 86.0059C44.5643 85.8879 44.2621 85.7612 43.9636 85.6259C44.2896 85.9044 44.5657 86.1501 44.9294 86.3842C46.2813 89.2257 44.633 88.375 43.0002 89.0875C42.915 89.6045 43.1989 90.0616 43.0471 90.3777C42.4063 90.6848 42.1389 90.2054 41.8087 90.3572C41.8266 90.9206 42.2065 91.1661 42.7089 91.2652C42.3503 91.8768 42.1926 91.6304 42.1476 92.5581C42.1313 92.8929 41.5939 93.2947 41.579 93.7581C41.8128 94.134 42.5263 94.4286 42.9318 94.6152C42.5628 95.2982 42.2209 95.9956 41.9071 96.7054C43.1164 99.3607 44.5248 98.9277 44.9258 99.4572C44.7194 99.592 43.8358 99.7081 43.3356 99.9518C42.6072 99.684 41.6138 99.3241 40.9673 98.9366C40.1715 98.459 37.7346 95.6286 38.0141 94.7866L38.2913 94.6224C38.3013 94.3491 38.33 94.459 38.1504 94.209C37.8042 94.0866 37.7388 94.1366 37.6056 93.8804C37.6281 93.1607 38.3691 92.0956 37.732 91.0018L37.6484 91C37.5357 91.3018 37.5088 91.4054 37.4449 91.7161L37.372 91.6938C37.1995 91.2438 36.4158 87.7582 36.4838 87.4753C36.9975 85.3372 36.4887 84.2168 36.3361 82.1586C36.1693 79.9099 36.5099 77.2579 36.022 75.0149C35.8016 73.9172 33.592 73.1449 32.9516 72.299C32.1329 71.0213 31.5201 69.3062 30.7988 67.9457C30.2543 66.919 29.5457 66.0464 29.2325 64.9063C29.5264 64.3539 29.6313 64.2045 30.0586 63.7519C29.6532 63.2943 29.5656 63.2032 29.5916 62.5571C29.6385 61.392 30.7523 60.0175 31.5184 59.1557C31.4569 58.5828 31.4166 57.9871 31.3642 57.4107C31.3121 56.8381 31.0224 55.7231 31.0411 55.2305L31.1739 54.8424C31.5429 55.0873 31.67 55.189 31.9939 55.4913Z" fill="#680000"/>
<path d="M163.929 90.583V91.8125C163.329 92.3205 162.64 92.7071 162.025 93.1937C161.502 93.6071 159.312 95.4669 158.865 94.1616C158.991 93.6018 160.903 92.7285 161.449 92.4419C162.453 91.916 163.082 91.3393 163.929 90.583Z" fill="#680000"/>
<path d="M4.07476 18.4052L4.05927 19.1544C2.4697 19.9889 1.72879 20.27 0 20.7369V20.4437C1.49571 19.9469 2.90844 19.491 4.07476 18.4052Z" fill="#00123B"/>
<path d="M39.1376 8.60608C39.7377 8.64378 40.3386 8.66772 40.9398 8.6779C40.6775 8.83494 40.3296 9.04708 40.0547 9.16949C39.3266 9.49369 38.7254 9.38851 38.1829 9.99431L37.8758 9.88672C38.3395 9.1686 38.3629 8.99074 39.1376 8.60608Z" fill="#680000"/>
<path d="M14.2516 42.5845C14.3342 43.5556 14.9299 44.3926 14.7402 44.9568C14.3704 44.9209 14.4013 44.5863 14.2282 44.3318C13.8717 43.8079 13.6021 43.681 13.6226 42.9937C13.8653 42.741 13.9089 42.6752 14.2516 42.5845Z" fill="#000313"/>
<path d="M43.67 28.5656C44.3902 28.4904 44.6796 27.8209 45.3919 27.1993C45.2997 27.5843 45.1813 28.0286 45.1089 28.4124C44.9173 28.5108 44.3626 28.8137 44.192 28.8801L43.67 28.5656Z" fill="#680000"/>
<path d="M41.4258 26.4349C40.9828 26.6953 40.614 27.1149 40.2115 27.2835C40.4019 26.8416 40.887 26.5379 41.2727 26.2827L41.4258 26.4349Z" fill="#172D5D" fill-opacity="0.396078"/>
</g>
<defs>
<clipPath id="clip0_458_873">
<rect width="163.929" height="100" fill="white"/>
</clipPath>
</defs>
</svg>
